;Holesize 1 =   36.0 PLATED MILS
;Holesize 2 =   28.0 PLATED MILS
;Holesize 3 =   56.0 PLATED MILS
;Holesize 4 =  125.0 PLATED MILS
;Holesize 5 =   48.0 PLATED MILS
M48
INCH
T01C0.036
T02C0.028
T03C0.056
T04C0.125
T05C0.048
%
G05
G90
T01
X003000Y017000
X008000Y017000
X004450Y012000
X005000Y012900
X005550Y012000
X003000Y015000
X008000Y015000
X008550Y012800
X008000Y011900
X007450Y012800
X018000Y014500
X018000Y019500
X017450Y012000
X018000Y012900
X018550Y012000
X021000Y014500
X021000Y019500
X021550Y012800
X021000Y011900
X020450Y012800
X030450Y012000
X031000Y012900
X031550Y012000
X034000Y014500
X034000Y019500
X034550Y012900
X034000Y012000
X033450Y012900
X026500Y014500
X026500Y019500
X025950Y012000
X026500Y012900
X027050Y012000
X013000Y007200
X012000Y007200
X026000Y007200
X025000Y007200
X013000Y004200
X012000Y004200
X026000Y004200
X025000Y004200
X004000Y003000
X005000Y003000
X006000Y003000
X007000Y003000
X008000Y003000
X004000Y008980
X008010Y008980
X006990Y008980
X006000Y008980
X004980Y008980
X017000Y003000
X018000Y003000
X019000Y003000
X020000Y003000
X021000Y003000
X017000Y008980
X021010Y008980
X019990Y008980
X019000Y008980
X017980Y008980
X029500Y019500
X029500Y014500
X014900Y017000
X014900Y012000
X028000Y019500
X028000Y014500
X036000Y019500
X036000Y014500
X012900Y017000
X012900Y012000
X010900Y017000
X010900Y012000
X024000Y019500
X024000Y014500
X016000Y019000
X015000Y019000
X014000Y019000
X013000Y019000
X012000Y019000
X011000Y019000
X010000Y019000
X009000Y019000
X008000Y019000
X007000Y019000
X006000Y019000
X005000Y019000
X004000Y019000
X003000Y019000
X002000Y019000
X001000Y019000
X030000Y003000
X031000Y003000
X032000Y003000
X033000Y003000
X034000Y003000
X030000Y008980
X034010Y008980
X032990Y008980
X032000Y008980
X030980Y008980
X000700Y028000
X005700Y028000
X011200Y028900
X009200Y028900
X009200Y026300
X009200Y027300
X011200Y026300
X011200Y027300
X010400Y035300
X009400Y035300
X024500Y047100
X025500Y047100
X026500Y047100
X027500Y047100
X028500Y047100
X029500Y047100
X030500Y047100
X014500Y036750
X014500Y041750
X001000Y025100
X002000Y025100
X003000Y025100
X004000Y025100
X005000Y025100
X006000Y025100
X007000Y025100
X008000Y025100
X009000Y025100
X010000Y025100
X011000Y025100
X012000Y025100
X013000Y025100
X014000Y025100
X015000Y025100
X016000Y025100
X008500Y048500
X008500Y044500
X007000Y048500
X007000Y044500
X007640Y040400
X011560Y040400
X000900Y029400
X001900Y029400
X001000Y039300
X001000Y038300
X001000Y037300
X001000Y036300
X001000Y035300
X016000Y037500
X016000Y038500
X016000Y039500
X016000Y040500
X016000Y041500
X016000Y042500
X016000Y043500
X016000Y045500
X016000Y044500
T02
X001400Y030700
X002400Y030700
X003400Y030700
X004400Y030700
X005400Y030700
X006400Y030700
X007400Y030700
X008400Y030700
X009400Y030700
X010400Y030700
X011400Y030700
X012400Y030700
X013400Y030700
X014400Y030700
X014400Y033700
X013400Y033700
X012400Y033700
X011400Y033700
X010400Y033700
X009400Y033700
X008400Y033700
X007400Y033700
X006400Y033700
X005400Y033700
X004400Y033700
X003400Y033700
X002400Y033700
X001400Y033700
X022440Y007190
X019000Y001300
X021000Y000600
X021000Y000600
X005250Y015800
T03
X005600Y041150
X005600Y042900
X005600Y044650
X000600Y041900
X000600Y043900
T04
X012071Y046647
X010110Y045430
X012071Y044206
X016000Y048500
X016000Y001000
X001500Y001000
X001500Y021500
X036500Y001000
X036500Y021500
X036500Y048500
X036500Y025500
X001300Y026500
T05
X001725Y046784
X001725Y048752
M30
