G04 FreePCB version 1.200*
G04 C:\Development\Denki\Timer\1.1\PCB\CAM\top_copper.grb*
G04 top copper layer *
G04 Scale: 100 percent, Rotated: No, Reflected: No *
%FSLAX26Y26*%
%MOIN*%
%LNTop*%
%ADD10C,0.005000*%
%ADD11C,0.116000*%
%ADD12R,0.116000X0.116000*%
%ADD13R,0.108000X0.108000*%
%ADD14C,0.108000*%
%AMTHERM15*7,0,0,0.108000,0.055000,0.020000,0.0*%
%ADD15THERM15*%
%AMTHERM16*7,0,0,0.116000,0.062000,0.020000,0.0*%
%ADD16THERM16*%
%AMTHERM17*7,0,0,0.116000,0.065000,0.020000,0.0*%
%ADD17THERM17*%
%ADD18C,0.136000*%
%AMTHERM19*7,0,0,0.220000,0.200000,0.020000,0.0*%
%ADD19THERM19*%
%AMTHERM20*7,0,0,0.205000,0.175000,0.020000,0.0*%
%ADD20THERM20*%
%ADD21C,0.220000*%
%ADD22R,0.138110X0.138110*%
%AMTHERM23*7,0,0,0.138110,0.118110,0.020000,0.0*%
%ADD23THERM23*%
%ADD24C,0.205000*%
%ADD25C,0.001000*%
%ADD26C,0.062000*%
%ADD27R,0.062000X0.062000*%
%ADD28R,0.055000X0.055000*%
%ADD29C,0.055000*%
%ADD30C,0.065000*%
%ADD31C,0.100000*%
%ADD32C,0.200000*%
%ADD33C,0.175000*%
%ADD34R,0.118110X0.118110*%
%ADD35C,0.118110*%
%ADD36C,0.020000*%
%ADD37C,0.030000*%
%ADD38C,0.050000*%
%ADD39C,0.025000*%
G90*
G70D02*

G04 ----------------------- Draw board outline (positive)*
%LPD*%
G54D10*
G01X0Y0D02*
G01X0Y5000000D01*
G04 end of side 1*
G01X3800000Y5000000D01*
G04 end of side 2*
G01X3800000Y0D01*
G04 end of side 3*
G01X0Y0D01*

G04 ----------------------- Draw copper areas (positive)*
%LPD*%
G36*
G01X25000Y2425000D02*
G01X25000Y4975000D01*
G01X3775000Y4975000D01*
G01X3775000Y2425000D01*
G01X25000Y2425000D01*
G37*
G36*
G01X25000Y2275000D02*
G01X3775000Y2275000D01*
G01X3775000Y25000D01*
G01X25000Y25000D01*
G01X25000Y2275000D01*
G37*

G04 -------------------- Draw Copper Area Clearances (scratch)*
%LPC*%

G04 Draw clearances for pads*
G54D11*
G01X300000Y1700000D03*
G01X800000Y1700000D03*
G01X445000Y1200000D03*
G01X500000Y1290000D03*
G01X555000Y1200000D03*
G01X300000Y1500000D03*
G01X800000Y1500000D03*
G01X855000Y1280000D03*
G01X800000Y1190000D03*
G01X745000Y1280000D03*
G01X1800000Y1450000D03*
G01X1800000Y1950000D03*
G01X1745000Y1200000D03*
G01X1800000Y1290000D03*
G01X1855000Y1200000D03*
G01X2100000Y1450000D03*
G01X2100000Y1950000D03*
G01X2155000Y1280000D03*
G01X2100000Y1190000D03*
G01X2045000Y1280000D03*
G01X3045000Y1200000D03*
G01X3100000Y1290000D03*
G01X3155000Y1200000D03*
G01X3400000Y1450000D03*
G01X3400000Y1950000D03*
G01X3455000Y1290000D03*
G01X3400000Y1200000D03*
G01X3345000Y1290000D03*
G01X2650000Y1450000D03*
G01X2650000Y1950000D03*
G01X2595000Y1200000D03*
G01X2650000Y1290000D03*
G01X2705000Y1200000D03*
G01X1300000Y720000D03*
G01X1200000Y720000D03*
G01X2600000Y720000D03*
G01X2500000Y720000D03*
G01X1300000Y420000D03*
G01X1200000Y420000D03*
G01X2600000Y420000D03*
G01X2500000Y420000D03*
G54D12*
G01X400000Y300000D03*
G54D11*
G01X500000Y300000D03*
G01X600000Y300000D03*
G01X700000Y300000D03*
G01X800000Y300000D03*
G01X400000Y898000D03*
G01X801000Y898000D03*
G01X699000Y898000D03*
G01X600000Y898000D03*
G01X498000Y898000D03*
G54D12*
G01X1700000Y300000D03*
G54D11*
G01X1800000Y300000D03*
G01X1900000Y300000D03*
G01X2000000Y300000D03*
G01X2100000Y300000D03*
G01X1700000Y898000D03*
G01X2101000Y898000D03*
G01X1999000Y898000D03*
G01X1900000Y898000D03*
G01X1798000Y898000D03*
G01X2950000Y1950000D03*
G01X2950000Y1450000D03*
G01X1490000Y1700000D03*
G01X1490000Y1200000D03*
G01X2800000Y1950000D03*
G01X2800000Y1450000D03*
G01X3600000Y1950000D03*
G01X3600000Y1450000D03*
G01X1290000Y1700000D03*
G01X1290000Y1200000D03*
G01X1090000Y1700000D03*
G01X1090000Y1200000D03*
G01X2400000Y1950000D03*
G01X2400000Y1450000D03*
G01X1600000Y1900000D03*
G01X1500000Y1900000D03*
G01X1400000Y1900000D03*
G01X1300000Y1900000D03*
G01X1200000Y1900000D03*
G01X1100000Y1900000D03*
G01X1000000Y1900000D03*
G01X900000Y1900000D03*
G01X800000Y1900000D03*
G01X700000Y1900000D03*
G01X600000Y1900000D03*
G01X500000Y1900000D03*
G01X400000Y1900000D03*
G01X300000Y1900000D03*
G01X200000Y1900000D03*
G36*
G01X42000Y1842000D02*
G01X42000Y1890000D01*
G01X90000Y1890000D01*
G01X90000Y1842000D01*
G01X42000Y1842000D01*
G37*
G36*
G01X110000Y1842000D02*
G01X110000Y1890000D01*
G01X158000Y1890000D01*
G01X158000Y1842000D01*
G01X110000Y1842000D01*
G37*
G36*
G01X110000Y1910000D02*
G01X110000Y1958000D01*
G01X158000Y1958000D01*
G01X158000Y1910000D01*
G01X110000Y1910000D01*
G37*
G36*
G01X42000Y1910000D02*
G01X42000Y1958000D01*
G01X90000Y1958000D01*
G01X90000Y1910000D01*
G01X42000Y1910000D01*
G37*
G54D12*
G01X3000000Y300000D03*
G54D11*
G01X3100000Y300000D03*
G01X3200000Y300000D03*
G01X3300000Y300000D03*
G01X3400000Y300000D03*
G01X3000000Y898000D03*
G01X3401000Y898000D03*
G01X3299000Y898000D03*
G01X3200000Y898000D03*
G01X3098000Y898000D03*
G54D13*
G01X140000Y3070000D03*
G54D14*
G01X240000Y3070000D03*
G01X340000Y3070000D03*
G01X440000Y3070000D03*
G01X540000Y3070000D03*
G01X640000Y3070000D03*
G01X740000Y3070000D03*
G54D15*
G01X840000Y3070000D03*
G54D14*
G01X940000Y3070000D03*
G01X1040000Y3070000D03*
G01X1140000Y3070000D03*
G01X1240000Y3070000D03*
G01X1340000Y3070000D03*
G01X1440000Y3070000D03*
G01X1440000Y3370000D03*
G01X1340000Y3370000D03*
G01X1240000Y3370000D03*
G01X1140000Y3370000D03*
G54D15*
G01X1040000Y3370000D03*
G54D14*
G01X940000Y3370000D03*
G01X840000Y3370000D03*
G01X740000Y3370000D03*
G01X640000Y3370000D03*
G01X540000Y3370000D03*
G01X440000Y3370000D03*
G01X340000Y3370000D03*
G01X240000Y3370000D03*
G01X140000Y3370000D03*
G54D11*
G01X70000Y2800000D03*
G01X570000Y2800000D03*
G01X1120000Y2890000D03*
G01X920000Y2890000D03*
G54D16*
G01X920000Y2630000D03*
G54D11*
G01X920000Y2730000D03*
G54D16*
G01X1120000Y2630000D03*
G54D11*
G01X1120000Y2730000D03*
G54D17*
G01X1040000Y3530000D03*
G54D11*
G01X940000Y3530000D03*
G54D12*
G01X2450000Y4710000D03*
G54D11*
G01X2550000Y4710000D03*
G01X2650000Y4710000D03*
G01X2750000Y4710000D03*
G01X2850000Y4710000D03*
G01X2950000Y4710000D03*
G01X3050000Y4710000D03*
G01X1450000Y3675000D03*
G01X1450000Y4175000D03*
G54D18*
G01X560000Y4115000D03*
G01X560000Y4290000D03*
G01X560000Y4465000D03*
G01X60000Y4190000D03*
G01X60000Y4390000D03*
G36*
G01X42000Y2452000D02*
G01X42000Y2500000D01*
G01X90000Y2500000D01*
G01X90000Y2452000D01*
G01X42000Y2452000D01*
G37*
G36*
G01X110000Y2452000D02*
G01X110000Y2500000D01*
G01X158000Y2500000D01*
G01X158000Y2452000D01*
G01X110000Y2452000D01*
G37*
G36*
G01X110000Y2520000D02*
G01X110000Y2568000D01*
G01X158000Y2568000D01*
G01X158000Y2520000D01*
G01X110000Y2520000D01*
G37*
G36*
G01X42000Y2520000D02*
G01X42000Y2568000D01*
G01X90000Y2568000D01*
G01X90000Y2520000D01*
G01X42000Y2520000D01*
G37*
G54D11*
G01X200000Y2510000D03*
G01X300000Y2510000D03*
G01X400000Y2510000D03*
G01X500000Y2510000D03*
G01X600000Y2510000D03*
G01X700000Y2510000D03*
G01X800000Y2510000D03*
G01X900000Y2510000D03*
G01X1000000Y2510000D03*
G01X1100000Y2510000D03*
G01X1200000Y2510000D03*
G01X1300000Y2510000D03*
G01X1400000Y2510000D03*
G01X1500000Y2510000D03*
G01X1600000Y2510000D03*
G54D19*
G01X1207165Y4664724D03*
G54D20*
G01X1011000Y4543000D03*
G54D21*
G01X1207165Y4420629D03*
G54D11*
G01X850000Y4850000D03*
G01X850000Y4450000D03*
G01X700000Y4850000D03*
G01X700000Y4450000D03*
G54D22*
G01X172519Y4678425D03*
G54D23*
G01X172519Y4875275D03*
G54D11*
G01X764000Y4040000D03*
G54D16*
G01X1156000Y4040000D03*
G54D11*
G01X90000Y2940000D03*
G54D16*
G01X190000Y2940000D03*
G54D24*
G01X1600000Y4850000D03*
G01X1600000Y100000D03*
G01X150000Y100000D03*
G01X150000Y2150000D03*
G01X3650000Y100000D03*
G01X3650000Y2150000D03*
G01X3650000Y4850000D03*
G01X3650000Y2550000D03*
G01X130000Y2650000D03*
G36*
G01X42000Y3872000D02*
G01X42000Y3920000D01*
G01X90000Y3920000D01*
G01X90000Y3872000D01*
G01X42000Y3872000D01*
G37*
G36*
G01X110000Y3872000D02*
G01X110000Y3920000D01*
G01X158000Y3920000D01*
G01X158000Y3872000D01*
G01X110000Y3872000D01*
G37*
G36*
G01X110000Y3940000D02*
G01X110000Y3988000D01*
G01X158000Y3988000D01*
G01X158000Y3940000D01*
G01X110000Y3940000D01*
G37*
G36*
G01X42000Y3940000D02*
G01X42000Y3988000D01*
G01X90000Y3988000D01*
G01X90000Y3940000D01*
G01X42000Y3940000D01*
G37*
G54D12*
G01X100000Y3830000D03*
G01X100000Y3730000D03*
G01X100000Y3630000D03*
G01X100000Y3530000D03*
G01X1600000Y3750000D03*
G01X1600000Y3850000D03*
G01X1600000Y3950000D03*
G01X1600000Y4050000D03*
G01X1600000Y4150000D03*
G01X1600000Y4250000D03*
G01X1600000Y4350000D03*
G01X1600000Y4550000D03*
G36*
G01X1542000Y4392000D02*
G01X1542000Y4440000D01*
G01X1590000Y4440000D01*
G01X1590000Y4392000D01*
G01X1542000Y4392000D01*
G37*
G36*
G01X1610000Y4392000D02*
G01X1610000Y4440000D01*
G01X1658000Y4440000D01*
G01X1658000Y4392000D01*
G01X1610000Y4392000D01*
G37*
G36*
G01X1610000Y4460000D02*
G01X1610000Y4508000D01*
G01X1658000Y4508000D01*
G01X1658000Y4460000D01*
G01X1610000Y4460000D01*
G37*
G36*
G01X1542000Y4460000D02*
G01X1542000Y4508000D01*
G01X1590000Y4508000D01*
G01X1590000Y4460000D01*
G01X1542000Y4460000D01*
G37*

G04 Draw clearances for traces*
G36*
G01X1507462Y2118015D02*
G01X1513788Y2113788D01*
G01X1518015Y2107462D01*
G01X1519500Y2099999D01*
G01X1518015Y2092537D01*
G01X1513788Y2086211D01*
G01X1313788Y1886211D01*
G01X1307462Y1881984D01*
G01X1300000Y1880500D01*
G01X1292537Y1881984D01*
G01X1286211Y1886211D01*
G01X1281984Y1892537D01*
G01X1280500Y1899999D01*
G01X1281984Y1907462D01*
G01X1286211Y1913788D01*
G01X1486211Y2113788D01*
G01X1492537Y2118015D01*
G01X1499999Y2119500D01*
G01X1507462Y2118015D01*
G37*
G54D25*
G01X1507462Y2118015D02*
G01X1513788Y2113788D01*
G01X1518015Y2107462D01*
G01X1519500Y2099999D01*
G01X1518015Y2092537D01*
G01X1513788Y2086211D01*
G01X1313788Y1886211D01*
G01X1307462Y1881984D01*
G01X1300000Y1880500D01*
G01X1292537Y1881984D01*
G01X1286211Y1886211D01*
G01X1281984Y1892537D01*
G01X1280500Y1899999D01*
G01X1281984Y1907462D01*
G01X1286211Y1913788D01*
G01X1486211Y2113788D01*
G01X1492537Y2118015D01*
G01X1499999Y2119500D01*
G01X1507462Y2118015D01*
G36*
G01X3457462Y2118015D02*
G01X3463788Y2113788D01*
G01X3468015Y2107462D01*
G01X3469500Y2100000D01*
G01X3468015Y2092537D01*
G01X3463788Y2086211D01*
G01X3457462Y2081984D01*
G01X3449999Y2080500D01*
G01X1500000Y2080500D01*
G01X1492537Y2081984D01*
G01X1486211Y2086211D01*
G01X1481984Y2092537D01*
G01X1480500Y2099999D01*
G01X1481984Y2107462D01*
G01X1486211Y2113788D01*
G01X1492537Y2118015D01*
G01X1499999Y2119500D01*
G01X3449999Y2119500D01*
G01X3457462Y2118015D01*
G37*
G01X3457462Y2118015D02*
G01X3463788Y2113788D01*
G01X3468015Y2107462D01*
G01X3469500Y2100000D01*
G01X3468015Y2092537D01*
G01X3463788Y2086211D01*
G01X3457462Y2081984D01*
G01X3449999Y2080500D01*
G01X1500000Y2080500D01*
G01X1492537Y2081984D01*
G01X1486211Y2086211D01*
G01X1481984Y2092537D01*
G01X1480500Y2099999D01*
G01X1481984Y2107462D01*
G01X1486211Y2113788D01*
G01X1492537Y2118015D01*
G01X1499999Y2119500D01*
G01X3449999Y2119500D01*
G01X3457462Y2118015D01*
G36*
G01X3457462Y2118015D02*
G01X3463788Y2113788D01*
G01X3613788Y1963788D01*
G01X3618015Y1957462D01*
G01X3619500Y1950000D01*
G01X3618015Y1942537D01*
G01X3613788Y1936211D01*
G01X3607462Y1931984D01*
G01X3599999Y1930500D01*
G01X3592537Y1931984D01*
G01X3586211Y1936211D01*
G01X3436211Y2086211D01*
G01X3431984Y2092537D01*
G01X3430500Y2099999D01*
G01X3431984Y2107462D01*
G01X3436211Y2113788D01*
G01X3442537Y2118015D01*
G01X3449999Y2119500D01*
G01X3457462Y2118015D01*
G37*
G01X3457462Y2118015D02*
G01X3463788Y2113788D01*
G01X3613788Y1963788D01*
G01X3618015Y1957462D01*
G01X3619500Y1950000D01*
G01X3618015Y1942537D01*
G01X3613788Y1936211D01*
G01X3607462Y1931984D01*
G01X3599999Y1930500D01*
G01X3592537Y1931984D01*
G01X3586211Y1936211D01*
G01X3436211Y2086211D01*
G01X3431984Y2092537D01*
G01X3430500Y2099999D01*
G01X3431984Y2107462D01*
G01X3436211Y2113788D01*
G01X3442537Y2118015D01*
G01X3449999Y2119500D01*
G01X3457462Y2118015D01*
G36*
G01X207462Y3748015D02*
G01X213788Y3743788D01*
G01X218015Y3737462D01*
G01X219500Y3730000D01*
G01X218015Y3722537D01*
G01X213788Y3716211D01*
G01X207462Y3711984D01*
G01X199999Y3710500D01*
G01X100000Y3710500D01*
G01X92537Y3711984D01*
G01X86211Y3716211D01*
G01X81984Y3722537D01*
G01X80500Y3729999D01*
G01X81984Y3737462D01*
G01X86211Y3743788D01*
G01X92537Y3748015D01*
G01X99999Y3749500D01*
G01X199999Y3749500D01*
G01X207462Y3748015D01*
G37*
G01X207462Y3748015D02*
G01X213788Y3743788D01*
G01X218015Y3737462D01*
G01X219500Y3730000D01*
G01X218015Y3722537D01*
G01X213788Y3716211D01*
G01X207462Y3711984D01*
G01X199999Y3710500D01*
G01X100000Y3710500D01*
G01X92537Y3711984D01*
G01X86211Y3716211D01*
G01X81984Y3722537D01*
G01X80500Y3729999D01*
G01X81984Y3737462D01*
G01X86211Y3743788D01*
G01X92537Y3748015D01*
G01X99999Y3749500D01*
G01X199999Y3749500D01*
G01X207462Y3748015D01*
G36*
G01X207462Y3748015D02*
G01X213788Y3743788D01*
G01X253788Y3703788D01*
G01X258015Y3697462D01*
G01X259500Y3690000D01*
G01X258015Y3682537D01*
G01X253788Y3676211D01*
G01X247462Y3671984D01*
G01X239999Y3670500D01*
G01X232537Y3671984D01*
G01X226211Y3676211D01*
G01X186211Y3716211D01*
G01X181984Y3722537D01*
G01X180500Y3729999D01*
G01X181984Y3737462D01*
G01X186211Y3743788D01*
G01X192537Y3748015D01*
G01X199999Y3749500D01*
G01X207462Y3748015D01*
G37*
G01X207462Y3748015D02*
G01X213788Y3743788D01*
G01X253788Y3703788D01*
G01X258015Y3697462D01*
G01X259500Y3690000D01*
G01X258015Y3682537D01*
G01X253788Y3676211D01*
G01X247462Y3671984D01*
G01X239999Y3670500D01*
G01X232537Y3671984D01*
G01X226211Y3676211D01*
G01X186211Y3716211D01*
G01X181984Y3722537D01*
G01X180500Y3729999D01*
G01X181984Y3737462D01*
G01X186211Y3743788D01*
G01X192537Y3748015D01*
G01X199999Y3749500D01*
G01X207462Y3748015D01*
G36*
G01X247462Y3708015D02*
G01X253788Y3703788D01*
G01X258015Y3697462D01*
G01X259500Y3690000D01*
G01X259500Y3375000D01*
G01X258015Y3367537D01*
G01X253788Y3361211D01*
G01X247462Y3356984D01*
G01X240000Y3355500D01*
G01X232537Y3356984D01*
G01X226211Y3361211D01*
G01X221984Y3367537D01*
G01X220500Y3375000D01*
G01X220500Y3689999D01*
G01X221984Y3697462D01*
G01X226211Y3703788D01*
G01X232537Y3708015D01*
G01X239999Y3709500D01*
G01X247462Y3708015D01*
G37*
G01X247462Y3708015D02*
G01X253788Y3703788D01*
G01X258015Y3697462D01*
G01X259500Y3690000D01*
G01X259500Y3375000D01*
G01X258015Y3367537D01*
G01X253788Y3361211D01*
G01X247462Y3356984D01*
G01X240000Y3355500D01*
G01X232537Y3356984D01*
G01X226211Y3361211D01*
G01X221984Y3367537D01*
G01X220500Y3375000D01*
G01X220500Y3689999D01*
G01X221984Y3697462D01*
G01X226211Y3703788D01*
G01X232537Y3708015D01*
G01X239999Y3709500D01*
G01X247462Y3708015D01*
G36*
G01X247462Y3393015D02*
G01X253788Y3388788D01*
G01X258015Y3382462D01*
G01X259500Y3375000D01*
G01X259500Y3370000D01*
G01X258015Y3362537D01*
G01X253788Y3356211D01*
G01X247462Y3351984D01*
G01X240000Y3350500D01*
G01X232537Y3351984D01*
G01X226211Y3356211D01*
G01X221984Y3362537D01*
G01X220500Y3370000D01*
G01X220500Y3374999D01*
G01X221984Y3382462D01*
G01X226211Y3388788D01*
G01X232537Y3393015D01*
G01X239999Y3394500D01*
G01X247462Y3393015D01*
G37*
G01X247462Y3393015D02*
G01X253788Y3388788D01*
G01X258015Y3382462D01*
G01X259500Y3375000D01*
G01X259500Y3370000D01*
G01X258015Y3362537D01*
G01X253788Y3356211D01*
G01X247462Y3351984D01*
G01X240000Y3350500D01*
G01X232537Y3351984D01*
G01X226211Y3356211D01*
G01X221984Y3362537D01*
G01X220500Y3370000D01*
G01X220500Y3374999D01*
G01X221984Y3382462D01*
G01X226211Y3388788D01*
G01X232537Y3393015D01*
G01X239999Y3394500D01*
G01X247462Y3393015D01*
G36*
G01X202462Y3848015D02*
G01X208788Y3843788D01*
G01X213015Y3837462D01*
G01X214500Y3830000D01*
G01X213015Y3822537D01*
G01X208788Y3816211D01*
G01X202462Y3811984D01*
G01X194999Y3810500D01*
G01X100000Y3810500D01*
G01X92537Y3811984D01*
G01X86211Y3816211D01*
G01X81984Y3822537D01*
G01X80500Y3829999D01*
G01X81984Y3837462D01*
G01X86211Y3843788D01*
G01X92537Y3848015D01*
G01X99999Y3849500D01*
G01X194999Y3849500D01*
G01X202462Y3848015D01*
G37*
G01X202462Y3848015D02*
G01X208788Y3843788D01*
G01X213015Y3837462D01*
G01X214500Y3830000D01*
G01X213015Y3822537D01*
G01X208788Y3816211D01*
G01X202462Y3811984D01*
G01X194999Y3810500D01*
G01X100000Y3810500D01*
G01X92537Y3811984D01*
G01X86211Y3816211D01*
G01X81984Y3822537D01*
G01X80500Y3829999D01*
G01X81984Y3837462D01*
G01X86211Y3843788D01*
G01X92537Y3848015D01*
G01X99999Y3849500D01*
G01X194999Y3849500D01*
G01X202462Y3848015D01*
G36*
G01X454462Y4100015D02*
G01X460788Y4095788D01*
G01X465015Y4089462D01*
G01X466500Y4081999D01*
G01X465015Y4074537D01*
G01X460788Y4068211D01*
G01X208788Y3816211D01*
G01X202462Y3811984D01*
G01X195000Y3810500D01*
G01X187537Y3811984D01*
G01X181211Y3816211D01*
G01X176984Y3822537D01*
G01X175500Y3829999D01*
G01X176984Y3837462D01*
G01X181211Y3843788D01*
G01X433211Y4095788D01*
G01X439537Y4100015D01*
G01X446999Y4101500D01*
G01X454462Y4100015D01*
G37*
G01X454462Y4100015D02*
G01X460788Y4095788D01*
G01X465015Y4089462D01*
G01X466500Y4081999D01*
G01X465015Y4074537D01*
G01X460788Y4068211D01*
G01X208788Y3816211D01*
G01X202462Y3811984D01*
G01X195000Y3810500D01*
G01X187537Y3811984D01*
G01X181211Y3816211D01*
G01X176984Y3822537D01*
G01X175500Y3829999D01*
G01X176984Y3837462D01*
G01X181211Y3843788D01*
G01X433211Y4095788D01*
G01X439537Y4100015D01*
G01X446999Y4101500D01*
G01X454462Y4100015D01*
G36*
G01X454462Y4196015D02*
G01X460788Y4191788D01*
G01X465015Y4185462D01*
G01X466500Y4177999D01*
G01X466500Y4082000D01*
G01X465015Y4074537D01*
G01X460788Y4068211D01*
G01X454462Y4063984D01*
G01X447000Y4062500D01*
G01X439537Y4063984D01*
G01X433211Y4068211D01*
G01X428984Y4074537D01*
G01X427500Y4081999D01*
G01X427500Y4177999D01*
G01X428984Y4185462D01*
G01X433211Y4191788D01*
G01X439537Y4196015D01*
G01X447000Y4197500D01*
G01X454462Y4196015D01*
G37*
G01X454462Y4196015D02*
G01X460788Y4191788D01*
G01X465015Y4185462D01*
G01X466500Y4177999D01*
G01X466500Y4082000D01*
G01X465015Y4074537D01*
G01X460788Y4068211D01*
G01X454462Y4063984D01*
G01X447000Y4062500D01*
G01X439537Y4063984D01*
G01X433211Y4068211D01*
G01X428984Y4074537D01*
G01X427500Y4081999D01*
G01X427500Y4177999D01*
G01X428984Y4185462D01*
G01X433211Y4191788D01*
G01X439537Y4196015D01*
G01X447000Y4197500D01*
G01X454462Y4196015D01*
G36*
G01X567542Y4307982D02*
G01X573849Y4303727D01*
G01X578048Y4297382D01*
G01X579499Y4289913D01*
G01X577982Y4282457D01*
G01X573727Y4276150D01*
G01X460727Y4164150D01*
G01X454382Y4159951D01*
G01X446913Y4158500D01*
G01X439457Y4160017D01*
G01X433150Y4164272D01*
G01X428951Y4170617D01*
G01X427500Y4178086D01*
G01X429017Y4185542D01*
G01X433272Y4191849D01*
G01X546272Y4303849D01*
G01X552617Y4308048D01*
G01X560086Y4309499D01*
G01X567542Y4307982D01*
G37*
G01X567542Y4307982D02*
G01X573849Y4303727D01*
G01X578048Y4297382D01*
G01X579499Y4289913D01*
G01X577982Y4282457D01*
G01X573727Y4276150D01*
G01X460727Y4164150D01*
G01X454382Y4159951D01*
G01X446913Y4158500D01*
G01X439457Y4160017D01*
G01X433150Y4164272D01*
G01X428951Y4170617D01*
G01X427500Y4178086D01*
G01X429017Y4185542D01*
G01X433272Y4191849D01*
G01X546272Y4303849D01*
G01X552617Y4308048D01*
G01X560086Y4309499D01*
G01X567542Y4307982D01*
G36*
G01X699321Y2741657D02*
G01X707282Y2736365D01*
G01X917282Y2527365D01*
G01X922612Y2519429D01*
G01X924499Y2510058D01*
G01X922657Y2500678D01*
G01X917365Y2492717D01*
G01X909429Y2487387D01*
G01X900058Y2485500D01*
G01X890678Y2487342D01*
G01X882717Y2492634D01*
G01X672717Y2701634D01*
G01X667387Y2709570D01*
G01X665500Y2718941D01*
G01X667342Y2728321D01*
G01X672634Y2736282D01*
G01X680570Y2741612D01*
G01X689941Y2743499D01*
G01X699321Y2741657D01*
G37*
G01X699321Y2741657D02*
G01X707282Y2736365D01*
G01X917282Y2527365D01*
G01X922612Y2519429D01*
G01X924499Y2510058D01*
G01X922657Y2500678D01*
G01X917365Y2492717D01*
G01X909429Y2487387D01*
G01X900058Y2485500D01*
G01X890678Y2487342D01*
G01X882717Y2492634D01*
G01X672717Y2701634D01*
G01X667387Y2709570D01*
G01X665500Y2718941D01*
G01X667342Y2728321D01*
G01X672634Y2736282D01*
G01X680570Y2741612D01*
G01X689941Y2743499D01*
G01X699321Y2741657D01*
G36*
G01X699375Y3061635D02*
G01X707324Y3056324D01*
G01X712635Y3048375D01*
G01X714500Y3038999D01*
G01X714500Y2719000D01*
G01X712635Y2709624D01*
G01X707324Y2701675D01*
G01X699375Y2696364D01*
G01X690000Y2694500D01*
G01X680624Y2696364D01*
G01X672675Y2701675D01*
G01X667364Y2709624D01*
G01X665500Y2718999D01*
G01X665500Y3038999D01*
G01X667364Y3048375D01*
G01X672675Y3056324D01*
G01X680624Y3061635D01*
G01X690000Y3063500D01*
G01X699375Y3061635D01*
G37*
G01X699375Y3061635D02*
G01X707324Y3056324D01*
G01X712635Y3048375D01*
G01X714500Y3038999D01*
G01X714500Y2719000D01*
G01X712635Y2709624D01*
G01X707324Y2701675D01*
G01X699375Y2696364D01*
G01X690000Y2694500D01*
G01X680624Y2696364D01*
G01X672675Y2701675D01*
G01X667364Y2709624D01*
G01X665500Y2718999D01*
G01X665500Y3038999D01*
G01X667364Y3048375D01*
G01X672675Y3056324D01*
G01X680624Y3061635D01*
G01X690000Y3063500D01*
G01X699375Y3061635D01*
G36*
G01X697462Y3143015D02*
G01X703788Y3138788D01*
G01X708015Y3132462D01*
G01X709500Y3124999D01*
G01X709500Y3039000D01*
G01X708015Y3031537D01*
G01X703788Y3025211D01*
G01X697462Y3020984D01*
G01X690000Y3019500D01*
G01X682537Y3020984D01*
G01X676211Y3025211D01*
G01X671984Y3031537D01*
G01X670500Y3038999D01*
G01X670500Y3124999D01*
G01X671984Y3132462D01*
G01X676211Y3138788D01*
G01X682537Y3143015D01*
G01X690000Y3144500D01*
G01X697462Y3143015D01*
G37*
G01X697462Y3143015D02*
G01X703788Y3138788D01*
G01X708015Y3132462D01*
G01X709500Y3124999D01*
G01X709500Y3039000D01*
G01X708015Y3031537D01*
G01X703788Y3025211D01*
G01X697462Y3020984D01*
G01X690000Y3019500D01*
G01X682537Y3020984D01*
G01X676211Y3025211D01*
G01X671984Y3031537D01*
G01X670500Y3038999D01*
G01X670500Y3124999D01*
G01X671984Y3132462D01*
G01X676211Y3138788D01*
G01X682537Y3143015D01*
G01X690000Y3144500D01*
G01X697462Y3143015D01*
G36*
G01X699375Y3241635D02*
G01X707324Y3236324D01*
G01X712635Y3228375D01*
G01X714500Y3218999D01*
G01X714500Y3125000D01*
G01X712635Y3115624D01*
G01X707324Y3107675D01*
G01X699375Y3102364D01*
G01X690000Y3100500D01*
G01X680624Y3102364D01*
G01X672675Y3107675D01*
G01X667364Y3115624D01*
G01X665500Y3124999D01*
G01X665500Y3218999D01*
G01X667364Y3228375D01*
G01X672675Y3236324D01*
G01X680624Y3241635D01*
G01X690000Y3243500D01*
G01X699375Y3241635D01*
G37*
G01X699375Y3241635D02*
G01X707324Y3236324D01*
G01X712635Y3228375D01*
G01X714500Y3218999D01*
G01X714500Y3125000D01*
G01X712635Y3115624D01*
G01X707324Y3107675D01*
G01X699375Y3102364D01*
G01X690000Y3100500D01*
G01X680624Y3102364D01*
G01X672675Y3107675D01*
G01X667364Y3115624D01*
G01X665500Y3124999D01*
G01X665500Y3218999D01*
G01X667364Y3228375D01*
G01X672675Y3236324D01*
G01X680624Y3241635D01*
G01X690000Y3243500D01*
G01X699375Y3241635D01*
G36*
G01X750375Y3292635D02*
G01X758324Y3287324D01*
G01X763635Y3279375D01*
G01X765500Y3269999D01*
G01X763635Y3260624D01*
G01X758324Y3252675D01*
G01X707324Y3201675D01*
G01X699375Y3196364D01*
G01X690000Y3194500D01*
G01X680624Y3196364D01*
G01X672675Y3201675D01*
G01X667364Y3209624D01*
G01X665500Y3218999D01*
G01X667364Y3228375D01*
G01X672675Y3236324D01*
G01X723675Y3287324D01*
G01X731624Y3292635D01*
G01X740999Y3294500D01*
G01X750375Y3292635D01*
G37*
G01X750375Y3292635D02*
G01X758324Y3287324D01*
G01X763635Y3279375D01*
G01X765500Y3269999D01*
G01X763635Y3260624D01*
G01X758324Y3252675D01*
G01X707324Y3201675D01*
G01X699375Y3196364D01*
G01X690000Y3194500D01*
G01X680624Y3196364D01*
G01X672675Y3201675D01*
G01X667364Y3209624D01*
G01X665500Y3218999D01*
G01X667364Y3228375D01*
G01X672675Y3236324D01*
G01X723675Y3287324D01*
G01X731624Y3292635D01*
G01X740999Y3294500D01*
G01X750375Y3292635D01*
G36*
G01X849375Y3292635D02*
G01X857324Y3287324D01*
G01X862635Y3279375D01*
G01X864500Y3270000D01*
G01X862635Y3260624D01*
G01X857324Y3252675D01*
G01X849375Y3247364D01*
G01X839999Y3245500D01*
G01X741000Y3245500D01*
G01X731624Y3247364D01*
G01X723675Y3252675D01*
G01X718364Y3260624D01*
G01X716500Y3269999D01*
G01X718364Y3279375D01*
G01X723675Y3287324D01*
G01X731624Y3292635D01*
G01X740999Y3294500D01*
G01X839999Y3294500D01*
G01X849375Y3292635D01*
G37*
G01X849375Y3292635D02*
G01X857324Y3287324D01*
G01X862635Y3279375D01*
G01X864500Y3270000D01*
G01X862635Y3260624D01*
G01X857324Y3252675D01*
G01X849375Y3247364D01*
G01X839999Y3245500D01*
G01X741000Y3245500D01*
G01X731624Y3247364D01*
G01X723675Y3252675D01*
G01X718364Y3260624D01*
G01X716500Y3269999D01*
G01X718364Y3279375D01*
G01X723675Y3287324D01*
G01X731624Y3292635D01*
G01X740999Y3294500D01*
G01X839999Y3294500D01*
G01X849375Y3292635D01*
G36*
G01X949375Y3392635D02*
G01X957324Y3387324D01*
G01X962635Y3379375D01*
G01X964500Y3369999D01*
G01X962635Y3360624D01*
G01X957324Y3352675D01*
G01X857324Y3252675D01*
G01X849375Y3247364D01*
G01X840000Y3245500D01*
G01X830624Y3247364D01*
G01X822675Y3252675D01*
G01X817364Y3260624D01*
G01X815500Y3269999D01*
G01X817364Y3279375D01*
G01X822675Y3287324D01*
G01X922675Y3387324D01*
G01X930624Y3392635D01*
G01X939999Y3394500D01*
G01X949375Y3392635D01*
G37*
G01X949375Y3392635D02*
G01X957324Y3387324D01*
G01X962635Y3379375D01*
G01X964500Y3369999D01*
G01X962635Y3360624D01*
G01X957324Y3352675D01*
G01X857324Y3252675D01*
G01X849375Y3247364D01*
G01X840000Y3245500D01*
G01X830624Y3247364D01*
G01X822675Y3252675D01*
G01X817364Y3260624D01*
G01X815500Y3269999D01*
G01X817364Y3279375D01*
G01X822675Y3287324D01*
G01X922675Y3387324D01*
G01X930624Y3392635D01*
G01X939999Y3394500D01*
G01X949375Y3392635D01*
G36*
G01X953202Y3561873D02*
G01X964395Y3554395D01*
G01X971873Y3543202D01*
G01X974500Y3530000D01*
G01X974500Y3370000D01*
G01X971873Y3356797D01*
G01X964395Y3345604D01*
G01X953202Y3338126D01*
G01X940000Y3335500D01*
G01X926797Y3338126D01*
G01X915604Y3345604D01*
G01X908126Y3356797D01*
G01X905500Y3370000D01*
G01X905500Y3529999D01*
G01X908126Y3543202D01*
G01X915604Y3554395D01*
G01X926797Y3561873D01*
G01X939999Y3564500D01*
G01X953202Y3561873D01*
G37*
G01X953202Y3561873D02*
G01X964395Y3554395D01*
G01X971873Y3543202D01*
G01X974500Y3530000D01*
G01X974500Y3370000D01*
G01X971873Y3356797D01*
G01X964395Y3345604D01*
G01X953202Y3338126D01*
G01X940000Y3335500D01*
G01X926797Y3338126D01*
G01X915604Y3345604D01*
G01X908126Y3356797D01*
G01X905500Y3370000D01*
G01X905500Y3529999D01*
G01X908126Y3543202D01*
G01X915604Y3554395D01*
G01X926797Y3561873D01*
G01X939999Y3564500D01*
G01X953202Y3561873D01*
G36*
G01X597462Y2838015D02*
G01X603788Y2833788D01*
G01X608015Y2827462D01*
G01X609500Y2819999D01*
G01X608015Y2812537D01*
G01X603788Y2806211D01*
G01X583788Y2786211D01*
G01X577462Y2781984D01*
G01X570000Y2780500D01*
G01X562537Y2781984D01*
G01X556211Y2786211D01*
G01X551984Y2792537D01*
G01X550500Y2799999D01*
G01X551984Y2807462D01*
G01X556211Y2813788D01*
G01X576211Y2833788D01*
G01X582537Y2838015D01*
G01X589999Y2839500D01*
G01X597462Y2838015D01*
G37*
G01X597462Y2838015D02*
G01X603788Y2833788D01*
G01X608015Y2827462D01*
G01X609500Y2819999D01*
G01X608015Y2812537D01*
G01X603788Y2806211D01*
G01X583788Y2786211D01*
G01X577462Y2781984D01*
G01X570000Y2780500D01*
G01X562537Y2781984D01*
G01X556211Y2786211D01*
G01X551984Y2792537D01*
G01X550500Y2799999D01*
G01X551984Y2807462D01*
G01X556211Y2813788D01*
G01X576211Y2833788D01*
G01X582537Y2838015D01*
G01X589999Y2839500D01*
G01X597462Y2838015D01*
G36*
G01X597462Y3668015D02*
G01X603788Y3663788D01*
G01X608015Y3657462D01*
G01X609500Y3649999D01*
G01X609500Y2820000D01*
G01X608015Y2812537D01*
G01X603788Y2806211D01*
G01X597462Y2801984D01*
G01X590000Y2800500D01*
G01X582537Y2801984D01*
G01X576211Y2806211D01*
G01X571984Y2812537D01*
G01X570500Y2819999D01*
G01X570500Y3649999D01*
G01X571984Y3657462D01*
G01X576211Y3663788D01*
G01X582537Y3668015D01*
G01X590000Y3669500D01*
G01X597462Y3668015D01*
G37*
G01X597462Y3668015D02*
G01X603788Y3663788D01*
G01X608015Y3657462D01*
G01X609500Y3649999D01*
G01X609500Y2820000D01*
G01X608015Y2812537D01*
G01X603788Y2806211D01*
G01X597462Y2801984D01*
G01X590000Y2800500D01*
G01X582537Y2801984D01*
G01X576211Y2806211D01*
G01X571984Y2812537D01*
G01X570500Y2819999D01*
G01X570500Y3649999D01*
G01X571984Y3657462D01*
G01X576211Y3663788D01*
G01X582537Y3668015D01*
G01X590000Y3669500D01*
G01X597462Y3668015D01*
G36*
G01X454335Y3809067D02*
G01X460691Y3804885D01*
G01X603691Y3663885D01*
G01X607962Y3657588D01*
G01X609499Y3650137D01*
G01X608067Y3642664D01*
G01X603885Y3636308D01*
G01X597588Y3632037D01*
G01X590137Y3630500D01*
G01X582664Y3631932D01*
G01X576308Y3636114D01*
G01X433308Y3777114D01*
G01X429037Y3783410D01*
G01X427500Y3790862D01*
G01X428932Y3798335D01*
G01X433114Y3804691D01*
G01X439410Y3808962D01*
G01X446862Y3810499D01*
G01X454335Y3809067D01*
G37*
G01X454335Y3809067D02*
G01X460691Y3804885D01*
G01X603691Y3663885D01*
G01X607962Y3657588D01*
G01X609499Y3650137D01*
G01X608067Y3642664D01*
G01X603885Y3636308D01*
G01X597588Y3632037D01*
G01X590137Y3630500D01*
G01X582664Y3631932D01*
G01X576308Y3636114D01*
G01X433308Y3777114D01*
G01X429037Y3783410D01*
G01X427500Y3790862D01*
G01X428932Y3798335D01*
G01X433114Y3804691D01*
G01X439410Y3808962D01*
G01X446862Y3810499D01*
G01X454335Y3809067D01*
G36*
G01X454462Y4195015D02*
G01X460788Y4190788D01*
G01X465015Y4184462D01*
G01X466500Y4176999D01*
G01X466500Y3791000D01*
G01X465015Y3783537D01*
G01X460788Y3777211D01*
G01X454462Y3772984D01*
G01X447000Y3771500D01*
G01X439537Y3772984D01*
G01X433211Y3777211D01*
G01X428984Y3783537D01*
G01X427500Y3790999D01*
G01X427500Y4176999D01*
G01X428984Y4184462D01*
G01X433211Y4190788D01*
G01X439537Y4195015D01*
G01X447000Y4196500D01*
G01X454462Y4195015D01*
G37*
G01X454462Y4195015D02*
G01X460788Y4190788D01*
G01X465015Y4184462D01*
G01X466500Y4176999D01*
G01X466500Y3791000D01*
G01X465015Y3783537D01*
G01X460788Y3777211D01*
G01X454462Y3772984D01*
G01X447000Y3771500D01*
G01X439537Y3772984D01*
G01X433211Y3777211D01*
G01X428984Y3783537D01*
G01X427500Y3790999D01*
G01X427500Y4176999D01*
G01X428984Y4184462D01*
G01X433211Y4190788D01*
G01X439537Y4195015D01*
G01X447000Y4196500D01*
G01X454462Y4195015D01*
G36*
G01X567462Y4308015D02*
G01X573788Y4303788D01*
G01X578015Y4297462D01*
G01X579500Y4289999D01*
G01X578015Y4282537D01*
G01X573788Y4276211D01*
G01X460788Y4163211D01*
G01X454462Y4158984D01*
G01X447000Y4157500D01*
G01X439537Y4158984D01*
G01X433211Y4163211D01*
G01X428984Y4169537D01*
G01X427500Y4176999D01*
G01X428984Y4184462D01*
G01X433211Y4190788D01*
G01X546211Y4303788D01*
G01X552537Y4308015D01*
G01X559999Y4309500D01*
G01X567462Y4308015D01*
G37*
G01X567462Y4308015D02*
G01X573788Y4303788D01*
G01X578015Y4297462D01*
G01X579500Y4289999D01*
G01X578015Y4282537D01*
G01X573788Y4276211D01*
G01X460788Y4163211D01*
G01X454462Y4158984D01*
G01X447000Y4157500D01*
G01X439537Y4158984D01*
G01X433211Y4163211D01*
G01X428984Y4169537D01*
G01X427500Y4176999D01*
G01X428984Y4184462D01*
G01X433211Y4190788D01*
G01X546211Y4303788D01*
G01X552537Y4308015D01*
G01X559999Y4309500D01*
G01X567462Y4308015D01*
G36*
G01X568202Y4326873D02*
G01X579395Y4319395D01*
G01X584395Y4314395D01*
G01X591873Y4303202D01*
G01X594500Y4290000D01*
G01X591873Y4276797D01*
G01X584395Y4265604D01*
G01X573202Y4258126D01*
G01X560000Y4255500D01*
G01X546797Y4258126D01*
G01X535604Y4265604D01*
G01X530604Y4270604D01*
G01X523126Y4281797D01*
G01X520500Y4294999D01*
G01X523126Y4308202D01*
G01X530604Y4319395D01*
G01X541797Y4326873D01*
G01X555000Y4329500D01*
G01X568202Y4326873D01*
G37*
G01X568202Y4326873D02*
G01X579395Y4319395D01*
G01X584395Y4314395D01*
G01X591873Y4303202D01*
G01X594500Y4290000D01*
G01X591873Y4276797D01*
G01X584395Y4265604D01*
G01X573202Y4258126D01*
G01X560000Y4255500D01*
G01X546797Y4258126D01*
G01X535604Y4265604D01*
G01X530604Y4270604D01*
G01X523126Y4281797D01*
G01X520500Y4294999D01*
G01X523126Y4308202D01*
G01X530604Y4319395D01*
G01X541797Y4326873D01*
G01X555000Y4329500D01*
G01X568202Y4326873D01*
G36*
G01X568202Y4326873D02*
G01X579395Y4319395D01*
G01X699395Y4199395D01*
G01X706873Y4188202D01*
G01X709500Y4175000D01*
G01X706873Y4161797D01*
G01X699395Y4150604D01*
G01X688202Y4143126D01*
G01X674999Y4140500D01*
G01X661797Y4143126D01*
G01X650604Y4150604D01*
G01X530604Y4270604D01*
G01X523126Y4281797D01*
G01X520500Y4294999D01*
G01X523126Y4308202D01*
G01X530604Y4319395D01*
G01X541797Y4326873D01*
G01X554999Y4329500D01*
G01X568202Y4326873D01*
G37*
G01X568202Y4326873D02*
G01X579395Y4319395D01*
G01X699395Y4199395D01*
G01X706873Y4188202D01*
G01X709500Y4175000D01*
G01X706873Y4161797D01*
G01X699395Y4150604D01*
G01X688202Y4143126D01*
G01X674999Y4140500D01*
G01X661797Y4143126D01*
G01X650604Y4150604D01*
G01X530604Y4270604D01*
G01X523126Y4281797D01*
G01X520500Y4294999D01*
G01X523126Y4308202D01*
G01X530604Y4319395D01*
G01X541797Y4326873D01*
G01X554999Y4329500D01*
G01X568202Y4326873D01*
G36*
G01X838202Y4206873D02*
G01X849395Y4199395D01*
G01X856873Y4188202D01*
G01X859500Y4175000D01*
G01X856873Y4161797D01*
G01X849395Y4150604D01*
G01X838202Y4143126D01*
G01X824999Y4140500D01*
G01X675000Y4140500D01*
G01X661797Y4143126D01*
G01X650604Y4150604D01*
G01X643126Y4161797D01*
G01X640500Y4174999D01*
G01X643126Y4188202D01*
G01X650604Y4199395D01*
G01X661797Y4206873D01*
G01X674999Y4209500D01*
G01X824999Y4209500D01*
G01X838202Y4206873D01*
G37*
G01X838202Y4206873D02*
G01X849395Y4199395D01*
G01X856873Y4188202D01*
G01X859500Y4175000D01*
G01X856873Y4161797D01*
G01X849395Y4150604D01*
G01X838202Y4143126D01*
G01X824999Y4140500D01*
G01X675000Y4140500D01*
G01X661797Y4143126D01*
G01X650604Y4150604D01*
G01X643126Y4161797D01*
G01X640500Y4174999D01*
G01X643126Y4188202D01*
G01X650604Y4199395D01*
G01X661797Y4206873D01*
G01X674999Y4209500D01*
G01X824999Y4209500D01*
G01X838202Y4206873D01*
G36*
G01X838202Y4206873D02*
G01X849395Y4199395D01*
G01X964395Y4084395D01*
G01X971873Y4073202D01*
G01X974500Y4060000D01*
G01X971873Y4046797D01*
G01X964395Y4035604D01*
G01X953202Y4028126D01*
G01X939999Y4025500D01*
G01X926797Y4028126D01*
G01X915604Y4035604D01*
G01X800604Y4150604D01*
G01X793126Y4161797D01*
G01X790500Y4174999D01*
G01X793126Y4188202D01*
G01X800604Y4199395D01*
G01X811797Y4206873D01*
G01X824999Y4209500D01*
G01X838202Y4206873D01*
G37*
G01X838202Y4206873D02*
G01X849395Y4199395D01*
G01X964395Y4084395D01*
G01X971873Y4073202D01*
G01X974500Y4060000D01*
G01X971873Y4046797D01*
G01X964395Y4035604D01*
G01X953202Y4028126D01*
G01X939999Y4025500D01*
G01X926797Y4028126D01*
G01X915604Y4035604D01*
G01X800604Y4150604D01*
G01X793126Y4161797D01*
G01X790500Y4174999D01*
G01X793126Y4188202D01*
G01X800604Y4199395D01*
G01X811797Y4206873D01*
G01X824999Y4209500D01*
G01X838202Y4206873D01*
G36*
G01X953202Y4091873D02*
G01X964395Y4084395D01*
G01X971873Y4073202D01*
G01X974500Y4060000D01*
G01X974500Y3530000D01*
G01X971873Y3516797D01*
G01X964395Y3505604D01*
G01X953202Y3498126D01*
G01X940000Y3495500D01*
G01X926797Y3498126D01*
G01X915604Y3505604D01*
G01X908126Y3516797D01*
G01X905500Y3530000D01*
G01X905500Y4059999D01*
G01X908126Y4073202D01*
G01X915604Y4084395D01*
G01X926797Y4091873D01*
G01X939999Y4094500D01*
G01X953202Y4091873D01*
G37*
G01X953202Y4091873D02*
G01X964395Y4084395D01*
G01X971873Y4073202D01*
G01X974500Y4060000D01*
G01X974500Y3530000D01*
G01X971873Y3516797D01*
G01X964395Y3505604D01*
G01X953202Y3498126D01*
G01X940000Y3495500D01*
G01X926797Y3498126D01*
G01X915604Y3505604D01*
G01X908126Y3516797D01*
G01X905500Y3530000D01*
G01X905500Y4059999D01*
G01X908126Y4073202D01*
G01X915604Y4084395D01*
G01X926797Y4091873D01*
G01X939999Y4094500D01*
G01X953202Y4091873D01*
G36*
G01X1463202Y4206873D02*
G01X1474395Y4199395D01*
G01X1481873Y4188202D01*
G01X1484500Y4175000D01*
G01X1481873Y4161797D01*
G01X1474395Y4150604D01*
G01X1463202Y4143126D01*
G01X1450000Y4140500D01*
G01X1325000Y4140500D01*
G01X1311797Y4143126D01*
G01X1300604Y4150604D01*
G01X1293126Y4161797D01*
G01X1290500Y4175000D01*
G01X1293126Y4188202D01*
G01X1300604Y4199395D01*
G01X1311797Y4206873D01*
G01X1325000Y4209500D01*
G01X1449999Y4209500D01*
G01X1463202Y4206873D01*
G37*
G01X1463202Y4206873D02*
G01X1474395Y4199395D01*
G01X1481873Y4188202D01*
G01X1484500Y4175000D01*
G01X1481873Y4161797D01*
G01X1474395Y4150604D01*
G01X1463202Y4143126D01*
G01X1450000Y4140500D01*
G01X1325000Y4140500D01*
G01X1311797Y4143126D01*
G01X1300604Y4150604D01*
G01X1293126Y4161797D01*
G01X1290500Y4175000D01*
G01X1293126Y4188202D01*
G01X1300604Y4199395D01*
G01X1311797Y4206873D01*
G01X1325000Y4209500D01*
G01X1449999Y4209500D01*
G01X1463202Y4206873D01*
G36*
G01X1338202Y4206873D02*
G01X1349395Y4199395D01*
G01X1356873Y4188202D01*
G01X1359500Y4175000D01*
G01X1356873Y4161797D01*
G01X1349395Y4150604D01*
G01X1338202Y4143126D01*
G01X1325000Y4140500D01*
G01X675000Y4140500D01*
G01X661797Y4143126D01*
G01X650604Y4150604D01*
G01X643126Y4161797D01*
G01X640500Y4175000D01*
G01X643126Y4188202D01*
G01X650604Y4199395D01*
G01X661797Y4206873D01*
G01X675000Y4209500D01*
G01X1324999Y4209500D01*
G01X1338202Y4206873D01*
G37*
G01X1338202Y4206873D02*
G01X1349395Y4199395D01*
G01X1356873Y4188202D01*
G01X1359500Y4175000D01*
G01X1356873Y4161797D01*
G01X1349395Y4150604D01*
G01X1338202Y4143126D01*
G01X1325000Y4140500D01*
G01X675000Y4140500D01*
G01X661797Y4143126D01*
G01X650604Y4150604D01*
G01X643126Y4161797D01*
G01X640500Y4175000D01*
G01X643126Y4188202D01*
G01X650604Y4199395D01*
G01X661797Y4206873D01*
G01X675000Y4209500D01*
G01X1324999Y4209500D01*
G01X1338202Y4206873D01*
G36*
G01X573202Y4321873D02*
G01X584395Y4314395D01*
G01X699395Y4199395D01*
G01X706873Y4188202D01*
G01X709500Y4175000D01*
G01X706873Y4161797D01*
G01X699395Y4150604D01*
G01X688202Y4143126D01*
G01X675000Y4140500D01*
G01X661797Y4143126D01*
G01X650604Y4150604D01*
G01X535604Y4265604D01*
G01X528126Y4276797D01*
G01X525500Y4289999D01*
G01X528126Y4303202D01*
G01X535604Y4314395D01*
G01X546797Y4321873D01*
G01X560000Y4324500D01*
G01X573202Y4321873D01*
G37*
G01X573202Y4321873D02*
G01X584395Y4314395D01*
G01X699395Y4199395D01*
G01X706873Y4188202D01*
G01X709500Y4175000D01*
G01X706873Y4161797D01*
G01X699395Y4150604D01*
G01X688202Y4143126D01*
G01X675000Y4140500D01*
G01X661797Y4143126D01*
G01X650604Y4150604D01*
G01X535604Y4265604D01*
G01X528126Y4276797D01*
G01X525500Y4289999D01*
G01X528126Y4303202D01*
G01X535604Y4314395D01*
G01X546797Y4321873D01*
G01X560000Y4324500D01*
G01X573202Y4321873D01*
G36*
G01X1617462Y4568015D02*
G01X1623788Y4563788D01*
G01X1628015Y4557462D01*
G01X1629500Y4550000D01*
G01X1628015Y4542537D01*
G01X1623788Y4536211D01*
G01X1617462Y4531984D01*
G01X1609999Y4530500D01*
G01X1600000Y4530500D01*
G01X1592537Y4531984D01*
G01X1586211Y4536211D01*
G01X1581984Y4542537D01*
G01X1580500Y4549999D01*
G01X1581984Y4557462D01*
G01X1586211Y4563788D01*
G01X1592537Y4568015D01*
G01X1599999Y4569500D01*
G01X1609999Y4569500D01*
G01X1617462Y4568015D01*
G37*
G01X1617462Y4568015D02*
G01X1623788Y4563788D01*
G01X1628015Y4557462D01*
G01X1629500Y4550000D01*
G01X1628015Y4542537D01*
G01X1623788Y4536211D01*
G01X1617462Y4531984D01*
G01X1609999Y4530500D01*
G01X1600000Y4530500D01*
G01X1592537Y4531984D01*
G01X1586211Y4536211D01*
G01X1581984Y4542537D01*
G01X1580500Y4549999D01*
G01X1581984Y4557462D01*
G01X1586211Y4563788D01*
G01X1592537Y4568015D01*
G01X1599999Y4569500D01*
G01X1609999Y4569500D01*
G01X1617462Y4568015D01*
G36*
G01X1617462Y4568015D02*
G01X1623788Y4563788D01*
G01X1628015Y4557462D01*
G01X1629500Y4550000D01*
G01X1628015Y4542537D01*
G01X1623788Y4536211D01*
G01X1617462Y4531984D01*
G01X1610000Y4530500D01*
G01X1550000Y4530500D01*
G01X1542537Y4531984D01*
G01X1536211Y4536211D01*
G01X1531984Y4542537D01*
G01X1530500Y4550000D01*
G01X1531984Y4557462D01*
G01X1536211Y4563788D01*
G01X1542537Y4568015D01*
G01X1550000Y4569500D01*
G01X1609999Y4569500D01*
G01X1617462Y4568015D01*
G37*
G01X1617462Y4568015D02*
G01X1623788Y4563788D01*
G01X1628015Y4557462D01*
G01X1629500Y4550000D01*
G01X1628015Y4542537D01*
G01X1623788Y4536211D01*
G01X1617462Y4531984D01*
G01X1610000Y4530500D01*
G01X1550000Y4530500D01*
G01X1542537Y4531984D01*
G01X1536211Y4536211D01*
G01X1531984Y4542537D01*
G01X1530500Y4550000D01*
G01X1531984Y4557462D01*
G01X1536211Y4563788D01*
G01X1542537Y4568015D01*
G01X1550000Y4569500D01*
G01X1609999Y4569500D01*
G01X1617462Y4568015D01*
G36*
G01X1557462Y4568015D02*
G01X1563788Y4563788D01*
G01X1568015Y4557462D01*
G01X1569500Y4550000D01*
G01X1568015Y4542537D01*
G01X1563788Y4536211D01*
G01X1463788Y4436211D01*
G01X1457462Y4431984D01*
G01X1450000Y4430500D01*
G01X1442537Y4431984D01*
G01X1436211Y4436211D01*
G01X1431984Y4442537D01*
G01X1430500Y4450000D01*
G01X1431984Y4457462D01*
G01X1436211Y4463788D01*
G01X1536211Y4563788D01*
G01X1542537Y4568015D01*
G01X1549999Y4569500D01*
G01X1557462Y4568015D01*
G37*
G01X1557462Y4568015D02*
G01X1563788Y4563788D01*
G01X1568015Y4557462D01*
G01X1569500Y4550000D01*
G01X1568015Y4542537D01*
G01X1563788Y4536211D01*
G01X1463788Y4436211D01*
G01X1457462Y4431984D01*
G01X1450000Y4430500D01*
G01X1442537Y4431984D01*
G01X1436211Y4436211D01*
G01X1431984Y4442537D01*
G01X1430500Y4450000D01*
G01X1431984Y4457462D01*
G01X1436211Y4463788D01*
G01X1536211Y4563788D01*
G01X1542537Y4568015D01*
G01X1549999Y4569500D01*
G01X1557462Y4568015D01*
G36*
G01X1457462Y4468015D02*
G01X1463788Y4463788D01*
G01X1468015Y4457462D01*
G01X1469500Y4450000D01*
G01X1469500Y4175000D01*
G01X1468015Y4167537D01*
G01X1463788Y4161211D01*
G01X1457462Y4156984D01*
G01X1450000Y4155500D01*
G01X1442537Y4156984D01*
G01X1436211Y4161211D01*
G01X1431984Y4167537D01*
G01X1430500Y4175000D01*
G01X1430500Y4449999D01*
G01X1431984Y4457462D01*
G01X1436211Y4463788D01*
G01X1442537Y4468015D01*
G01X1449999Y4469500D01*
G01X1457462Y4468015D01*
G37*
G01X1457462Y4468015D02*
G01X1463788Y4463788D01*
G01X1468015Y4457462D01*
G01X1469500Y4450000D01*
G01X1469500Y4175000D01*
G01X1468015Y4167537D01*
G01X1463788Y4161211D01*
G01X1457462Y4156984D01*
G01X1450000Y4155500D01*
G01X1442537Y4156984D01*
G01X1436211Y4161211D01*
G01X1431984Y4167537D01*
G01X1430500Y4175000D01*
G01X1430500Y4449999D01*
G01X1431984Y4457462D01*
G01X1436211Y4463788D01*
G01X1442537Y4468015D01*
G01X1449999Y4469500D01*
G01X1457462Y4468015D01*
G36*
G01X563858Y965137D02*
G01X570890Y960214D01*
G01X615890Y913214D01*
G01X620503Y905975D01*
G01X621994Y897521D01*
G01X620137Y889141D01*
G01X615214Y882109D01*
G01X607975Y877496D01*
G01X599521Y876005D01*
G01X591141Y877862D01*
G01X584109Y882785D01*
G01X539109Y929785D01*
G01X534496Y937024D01*
G01X533005Y945478D01*
G01X534862Y953858D01*
G01X539785Y960890D01*
G01X547024Y965503D01*
G01X555478Y966994D01*
G01X563858Y965137D01*
G37*
G01X563858Y965137D02*
G01X570890Y960214D01*
G01X615890Y913214D01*
G01X620503Y905975D01*
G01X621994Y897521D01*
G01X620137Y889141D01*
G01X615214Y882109D01*
G01X607975Y877496D01*
G01X599521Y876005D01*
G01X591141Y877862D01*
G01X584109Y882785D01*
G01X539109Y929785D01*
G01X534496Y937024D01*
G01X533005Y945478D01*
G01X534862Y953858D01*
G01X539785Y960890D01*
G01X547024Y965503D01*
G01X555478Y966994D01*
G01X563858Y965137D01*
G36*
G01X563419Y1220325D02*
G01X570556Y1215556D01*
G01X575325Y1208419D01*
G01X577000Y1199999D01*
G01X577000Y945000D01*
G01X575325Y936580D01*
G01X570556Y929443D01*
G01X563419Y924674D01*
G01X555000Y923000D01*
G01X546580Y924674D01*
G01X539443Y929443D01*
G01X534674Y936580D01*
G01X533000Y944999D01*
G01X533000Y1199999D01*
G01X534674Y1208419D01*
G01X539443Y1215556D01*
G01X546580Y1220325D01*
G01X555000Y1222000D01*
G01X563419Y1220325D01*
G37*
G01X563419Y1220325D02*
G01X570556Y1215556D01*
G01X575325Y1208419D01*
G01X577000Y1199999D01*
G01X577000Y945000D01*
G01X575325Y936580D01*
G01X570556Y929443D01*
G01X563419Y924674D01*
G01X555000Y923000D01*
G01X546580Y924674D01*
G01X539443Y929443D01*
G01X534674Y936580D01*
G01X533000Y944999D01*
G01X533000Y1199999D01*
G01X534674Y1208419D01*
G01X539443Y1215556D01*
G01X546580Y1220325D01*
G01X555000Y1222000D01*
G01X563419Y1220325D01*
G36*
G01X769368Y4058746D02*
G01X776133Y4055264D01*
G01X781051Y4049459D01*
G01X857051Y3912459D01*
G01X859373Y3905213D01*
G01X858746Y3897631D01*
G01X855264Y3890866D01*
G01X849459Y3885948D01*
G01X842213Y3883626D01*
G01X834631Y3884253D01*
G01X827866Y3887735D01*
G01X822948Y3893540D01*
G01X746948Y4030540D01*
G01X744626Y4037786D01*
G01X745253Y4045368D01*
G01X748735Y4052133D01*
G01X754540Y4057051D01*
G01X761786Y4059373D01*
G01X769368Y4058746D01*
G37*
G01X769368Y4058746D02*
G01X776133Y4055264D01*
G01X781051Y4049459D01*
G01X857051Y3912459D01*
G01X859373Y3905213D01*
G01X858746Y3897631D01*
G01X855264Y3890866D01*
G01X849459Y3885948D01*
G01X842213Y3883626D01*
G01X834631Y3884253D01*
G01X827866Y3887735D01*
G01X822948Y3893540D01*
G01X746948Y4030540D01*
G01X744626Y4037786D01*
G01X745253Y4045368D01*
G01X748735Y4052133D01*
G01X754540Y4057051D01*
G01X761786Y4059373D01*
G01X769368Y4058746D01*
G36*
G01X847462Y3921015D02*
G01X853788Y3916788D01*
G01X858015Y3910462D01*
G01X859500Y3903000D01*
G01X859500Y3370000D01*
G01X858015Y3362537D01*
G01X853788Y3356211D01*
G01X847462Y3351984D01*
G01X840000Y3350500D01*
G01X832537Y3351984D01*
G01X826211Y3356211D01*
G01X821984Y3362537D01*
G01X820500Y3370000D01*
G01X820500Y3902999D01*
G01X821984Y3910462D01*
G01X826211Y3916788D01*
G01X832537Y3921015D01*
G01X839999Y3922500D01*
G01X847462Y3921015D01*
G37*
G01X847462Y3921015D02*
G01X853788Y3916788D01*
G01X858015Y3910462D01*
G01X859500Y3903000D01*
G01X859500Y3370000D01*
G01X858015Y3362537D01*
G01X853788Y3356211D01*
G01X847462Y3351984D01*
G01X840000Y3350500D01*
G01X832537Y3351984D01*
G01X826211Y3356211D01*
G01X821984Y3362537D01*
G01X820500Y3370000D01*
G01X820500Y3902999D01*
G01X821984Y3910462D01*
G01X826211Y3916788D01*
G01X832537Y3921015D01*
G01X839999Y3922500D01*
G01X847462Y3921015D01*
G36*
G01X2407462Y1968015D02*
G01X2413788Y1963788D01*
G01X2418015Y1957462D01*
G01X2419500Y1950000D01*
G01X2418015Y1942537D01*
G01X2413788Y1936211D01*
G01X2248788Y1771211D01*
G01X2242462Y1766984D01*
G01X2235000Y1765500D01*
G01X2227537Y1766984D01*
G01X2221211Y1771211D01*
G01X2216984Y1777537D01*
G01X2215500Y1785000D01*
G01X2216984Y1792462D01*
G01X2221211Y1798788D01*
G01X2386211Y1963788D01*
G01X2392537Y1968015D01*
G01X2399999Y1969500D01*
G01X2407462Y1968015D01*
G37*
G01X2407462Y1968015D02*
G01X2413788Y1963788D01*
G01X2418015Y1957462D01*
G01X2419500Y1950000D01*
G01X2418015Y1942537D01*
G01X2413788Y1936211D01*
G01X2248788Y1771211D01*
G01X2242462Y1766984D01*
G01X2235000Y1765500D01*
G01X2227537Y1766984D01*
G01X2221211Y1771211D01*
G01X2216984Y1777537D01*
G01X2215500Y1785000D01*
G01X2216984Y1792462D01*
G01X2221211Y1798788D01*
G01X2386211Y1963788D01*
G01X2392537Y1968015D01*
G01X2399999Y1969500D01*
G01X2407462Y1968015D01*
G36*
G01X2242462Y1803015D02*
G01X2248788Y1798788D01*
G01X2253015Y1792462D01*
G01X2254500Y1785000D01*
G01X2253015Y1777537D01*
G01X2248788Y1771211D01*
G01X2242462Y1766984D01*
G01X2235000Y1765500D01*
G01X1115000Y1765500D01*
G01X1107537Y1766984D01*
G01X1101211Y1771211D01*
G01X1096984Y1777537D01*
G01X1095500Y1785000D01*
G01X1096984Y1792462D01*
G01X1101211Y1798788D01*
G01X1107537Y1803015D01*
G01X1115000Y1804500D01*
G01X2234999Y1804500D01*
G01X2242462Y1803015D01*
G37*
G01X2242462Y1803015D02*
G01X2248788Y1798788D01*
G01X2253015Y1792462D01*
G01X2254500Y1785000D01*
G01X2253015Y1777537D01*
G01X2248788Y1771211D01*
G01X2242462Y1766984D01*
G01X2235000Y1765500D01*
G01X1115000Y1765500D01*
G01X1107537Y1766984D01*
G01X1101211Y1771211D01*
G01X1096984Y1777537D01*
G01X1095500Y1785000D01*
G01X1096984Y1792462D01*
G01X1101211Y1798788D01*
G01X1107537Y1803015D01*
G01X1115000Y1804500D01*
G01X2234999Y1804500D01*
G01X2242462Y1803015D01*
G36*
G01X1007462Y1918015D02*
G01X1013788Y1913788D01*
G01X1128788Y1798788D01*
G01X1133015Y1792462D01*
G01X1134500Y1785000D01*
G01X1133015Y1777537D01*
G01X1128788Y1771211D01*
G01X1122462Y1766984D01*
G01X1115000Y1765500D01*
G01X1107537Y1766984D01*
G01X1101211Y1771211D01*
G01X986211Y1886211D01*
G01X981984Y1892537D01*
G01X980500Y1899999D01*
G01X981984Y1907462D01*
G01X986211Y1913788D01*
G01X992537Y1918015D01*
G01X1000000Y1919500D01*
G01X1007462Y1918015D01*
G37*
G01X1007462Y1918015D02*
G01X1013788Y1913788D01*
G01X1128788Y1798788D01*
G01X1133015Y1792462D01*
G01X1134500Y1785000D01*
G01X1133015Y1777537D01*
G01X1128788Y1771211D01*
G01X1122462Y1766984D01*
G01X1115000Y1765500D01*
G01X1107537Y1766984D01*
G01X1101211Y1771211D01*
G01X986211Y1886211D01*
G01X981984Y1892537D01*
G01X980500Y1899999D01*
G01X981984Y1907462D01*
G01X986211Y1913788D01*
G01X992537Y1918015D01*
G01X1000000Y1919500D01*
G01X1007462Y1918015D01*
G36*
G01X2957814Y967865D02*
G01X2964056Y963515D01*
G01X3014056Y911515D01*
G01X3018158Y905107D01*
G01X3019496Y897617D01*
G01X3017865Y890185D01*
G01X3013515Y883943D01*
G01X3007107Y879841D01*
G01X2999617Y878503D01*
G01X2992185Y880134D01*
G01X2985943Y884484D01*
G01X2935943Y936484D01*
G01X2931841Y942892D01*
G01X2930503Y950382D01*
G01X2932134Y957814D01*
G01X2936484Y964056D01*
G01X2942892Y968158D01*
G01X2950382Y969496D01*
G01X2957814Y967865D01*
G37*
G01X2957814Y967865D02*
G01X2964056Y963515D01*
G01X3014056Y911515D01*
G01X3018158Y905107D01*
G01X3019496Y897617D01*
G01X3017865Y890185D01*
G01X3013515Y883943D01*
G01X3007107Y879841D01*
G01X2999617Y878503D01*
G01X2992185Y880134D01*
G01X2985943Y884484D01*
G01X2935943Y936484D01*
G01X2931841Y942892D01*
G01X2930503Y950382D01*
G01X2932134Y957814D01*
G01X2936484Y964056D01*
G01X2942892Y968158D01*
G01X2950382Y969496D01*
G01X2957814Y967865D01*
G36*
G01X2957462Y1468015D02*
G01X2963788Y1463788D01*
G01X2968015Y1457462D01*
G01X2969500Y1449999D01*
G01X2969500Y950000D01*
G01X2968015Y942537D01*
G01X2963788Y936211D01*
G01X2957462Y931984D01*
G01X2950000Y930500D01*
G01X2942537Y931984D01*
G01X2936211Y936211D01*
G01X2931984Y942537D01*
G01X2930500Y949999D01*
G01X2930500Y1449999D01*
G01X2931984Y1457462D01*
G01X2936211Y1463788D01*
G01X2942537Y1468015D01*
G01X2950000Y1469500D01*
G01X2957462Y1468015D01*
G37*
G01X2957462Y1468015D02*
G01X2963788Y1463788D01*
G01X2968015Y1457462D01*
G01X2969500Y1449999D01*
G01X2969500Y950000D01*
G01X2968015Y942537D01*
G01X2963788Y936211D01*
G01X2957462Y931984D01*
G01X2950000Y930500D01*
G01X2942537Y931984D01*
G01X2936211Y936211D01*
G01X2931984Y942537D01*
G01X2930500Y949999D01*
G01X2930500Y1449999D01*
G01X2931984Y1457462D01*
G01X2936211Y1463788D01*
G01X2942537Y1468015D01*
G01X2950000Y1469500D01*
G01X2957462Y1468015D01*
G36*
G01X407462Y916015D02*
G01X413788Y911788D01*
G01X613788Y711788D01*
G01X618015Y705462D01*
G01X619500Y698000D01*
G01X618015Y690537D01*
G01X613788Y684211D01*
G01X607462Y679984D01*
G01X599999Y678500D01*
G01X592537Y679984D01*
G01X586211Y684211D01*
G01X386211Y884211D01*
G01X381984Y890537D01*
G01X380500Y897999D01*
G01X381984Y905462D01*
G01X386211Y911788D01*
G01X392537Y916015D01*
G01X399999Y917500D01*
G01X407462Y916015D01*
G37*
G01X407462Y916015D02*
G01X413788Y911788D01*
G01X613788Y711788D01*
G01X618015Y705462D01*
G01X619500Y698000D01*
G01X618015Y690537D01*
G01X613788Y684211D01*
G01X607462Y679984D01*
G01X599999Y678500D01*
G01X592537Y679984D01*
G01X586211Y684211D01*
G01X386211Y884211D01*
G01X381984Y890537D01*
G01X380500Y897999D01*
G01X381984Y905462D01*
G01X386211Y911788D01*
G01X392537Y916015D01*
G01X399999Y917500D01*
G01X407462Y916015D01*
G36*
G01X1184462Y716015D02*
G01X1190788Y711788D01*
G01X1195015Y705462D01*
G01X1196500Y698000D01*
G01X1195015Y690537D01*
G01X1190788Y684211D01*
G01X1184462Y679984D01*
G01X1176999Y678500D01*
G01X600000Y678500D01*
G01X592537Y679984D01*
G01X586211Y684211D01*
G01X581984Y690537D01*
G01X580500Y697999D01*
G01X581984Y705462D01*
G01X586211Y711788D01*
G01X592537Y716015D01*
G01X599999Y717500D01*
G01X1176999Y717500D01*
G01X1184462Y716015D01*
G37*
G01X1184462Y716015D02*
G01X1190788Y711788D01*
G01X1195015Y705462D01*
G01X1196500Y698000D01*
G01X1195015Y690537D01*
G01X1190788Y684211D01*
G01X1184462Y679984D01*
G01X1176999Y678500D01*
G01X600000Y678500D01*
G01X592537Y679984D01*
G01X586211Y684211D01*
G01X581984Y690537D01*
G01X580500Y697999D01*
G01X581984Y705462D01*
G01X586211Y711788D01*
G01X592537Y716015D01*
G01X599999Y717500D01*
G01X1176999Y717500D01*
G01X1184462Y716015D01*
G36*
G01X1203462Y735015D02*
G01X1209788Y730788D01*
G01X1214015Y724462D01*
G01X1215500Y716999D01*
G01X1214015Y709537D01*
G01X1209788Y703211D01*
G01X1190788Y684211D01*
G01X1184462Y679984D01*
G01X1177000Y678500D01*
G01X1169537Y679984D01*
G01X1163211Y684211D01*
G01X1158984Y690537D01*
G01X1157500Y697999D01*
G01X1158984Y705462D01*
G01X1163211Y711788D01*
G01X1182211Y730788D01*
G01X1188537Y735015D01*
G01X1195999Y736500D01*
G01X1203462Y735015D01*
G37*
G01X1203462Y735015D02*
G01X1209788Y730788D01*
G01X1214015Y724462D01*
G01X1215500Y716999D01*
G01X1214015Y709537D01*
G01X1209788Y703211D01*
G01X1190788Y684211D01*
G01X1184462Y679984D01*
G01X1177000Y678500D01*
G01X1169537Y679984D01*
G01X1163211Y684211D01*
G01X1158984Y690537D01*
G01X1157500Y697999D01*
G01X1158984Y705462D01*
G01X1163211Y711788D01*
G01X1182211Y730788D01*
G01X1188537Y735015D01*
G01X1195999Y736500D01*
G01X1203462Y735015D01*
G36*
G01X1209935Y736779D02*
G01X1215600Y731700D01*
G01X1218889Y724839D01*
G01X1219303Y717242D01*
G01X1216779Y710064D01*
G01X1211699Y704399D01*
G01X1207700Y701400D01*
G01X1200839Y698110D01*
G01X1193242Y697695D01*
G01X1186064Y700220D01*
G01X1180400Y705299D01*
G01X1177110Y712160D01*
G01X1176695Y719757D01*
G01X1179220Y726935D01*
G01X1184299Y732599D01*
G01X1188299Y735599D01*
G01X1195160Y738889D01*
G01X1202757Y739303D01*
G01X1209935Y736779D01*
G37*
G01X1209935Y736779D02*
G01X1215600Y731700D01*
G01X1218889Y724839D01*
G01X1219303Y717242D01*
G01X1216779Y710064D01*
G01X1211699Y704399D01*
G01X1207700Y701400D01*
G01X1200839Y698110D01*
G01X1193242Y697695D01*
G01X1186064Y700220D01*
G01X1180400Y705299D01*
G01X1177110Y712160D01*
G01X1176695Y719757D01*
G01X1179220Y726935D01*
G01X1184299Y732599D01*
G01X1188299Y735599D01*
G01X1195160Y738889D01*
G01X1202757Y739303D01*
G01X1209935Y736779D01*
G36*
G01X753200Y965414D02*
G01X760388Y960722D01*
G01X765233Y953637D01*
G01X766998Y945236D01*
G01X765414Y936799D01*
G01X760722Y929611D01*
G01X714722Y882611D01*
G01X707637Y877766D01*
G01X699236Y876001D01*
G01X690799Y877585D01*
G01X683611Y882277D01*
G01X678766Y889362D01*
G01X677001Y897763D01*
G01X678585Y906200D01*
G01X683277Y913388D01*
G01X729277Y960388D01*
G01X736362Y965233D01*
G01X744763Y966998D01*
G01X753200Y965414D01*
G37*
G01X753200Y965414D02*
G01X760388Y960722D01*
G01X765233Y953637D01*
G01X766998Y945236D01*
G01X765414Y936799D01*
G01X760722Y929611D01*
G01X714722Y882611D01*
G01X707637Y877766D01*
G01X699236Y876001D01*
G01X690799Y877585D01*
G01X683611Y882277D01*
G01X678766Y889362D01*
G01X677001Y897763D01*
G01X678585Y906200D01*
G01X683277Y913388D01*
G01X729277Y960388D01*
G01X736362Y965233D01*
G01X744763Y966998D01*
G01X753200Y965414D01*
G36*
G01X753419Y1300325D02*
G01X760556Y1295556D01*
G01X765325Y1288419D01*
G01X767000Y1279999D01*
G01X767000Y945000D01*
G01X765325Y936580D01*
G01X760556Y929443D01*
G01X753419Y924674D01*
G01X745000Y923000D01*
G01X736580Y924674D01*
G01X729443Y929443D01*
G01X724674Y936580D01*
G01X723000Y944999D01*
G01X723000Y1279999D01*
G01X724674Y1288419D01*
G01X729443Y1295556D01*
G01X736580Y1300325D01*
G01X745000Y1302000D01*
G01X753419Y1300325D01*
G37*
G01X753419Y1300325D02*
G01X760556Y1295556D01*
G01X765325Y1288419D01*
G01X767000Y1279999D01*
G01X767000Y945000D01*
G01X765325Y936580D01*
G01X760556Y929443D01*
G01X753419Y924674D01*
G01X745000Y923000D01*
G01X736580Y924674D01*
G01X729443Y929443D01*
G01X724674Y936580D01*
G01X723000Y944999D01*
G01X723000Y1279999D01*
G01X724674Y1288419D01*
G01X729443Y1295556D01*
G01X736580Y1300325D01*
G01X745000Y1302000D01*
G01X753419Y1300325D01*
G36*
G01X147000Y3088200D02*
G01X153432Y3084135D01*
G01X157819Y3077919D01*
G01X159493Y3070497D01*
G01X158200Y3062999D01*
G01X108200Y2932999D01*
G01X104135Y2926567D01*
G01X97919Y2922180D01*
G01X90497Y2920506D01*
G01X82999Y2921799D01*
G01X76567Y2925863D01*
G01X72180Y2932080D01*
G01X70506Y2939502D01*
G01X71799Y2947000D01*
G01X121799Y3077000D01*
G01X125863Y3083432D01*
G01X132080Y3087819D01*
G01X139502Y3089493D01*
G01X147000Y3088200D01*
G37*
G01X147000Y3088200D02*
G01X153432Y3084135D01*
G01X157819Y3077919D01*
G01X159493Y3070497D01*
G01X158200Y3062999D01*
G01X108200Y2932999D01*
G01X104135Y2926567D01*
G01X97919Y2922180D01*
G01X90497Y2920506D01*
G01X82999Y2921799D01*
G01X76567Y2925863D01*
G01X72180Y2932080D01*
G01X70506Y2939502D01*
G01X71799Y2947000D01*
G01X121799Y3077000D01*
G01X125863Y3083432D01*
G01X132080Y3087819D01*
G01X139502Y3089493D01*
G01X147000Y3088200D01*
G36*
G01X99935Y2956779D02*
G01X105600Y2951699D01*
G01X108889Y2944839D01*
G01X109303Y2937242D01*
G01X89303Y2797242D01*
G01X86779Y2790064D01*
G01X81700Y2784400D01*
G01X74839Y2781110D01*
G01X67242Y2780695D01*
G01X60064Y2783220D01*
G01X54400Y2788299D01*
G01X51110Y2795160D01*
G01X50695Y2802757D01*
G01X70695Y2942757D01*
G01X73220Y2949935D01*
G01X78299Y2955599D01*
G01X85160Y2958889D01*
G01X92757Y2959303D01*
G01X99935Y2956779D01*
G37*
G01X99935Y2956779D02*
G01X105600Y2951699D01*
G01X108889Y2944839D01*
G01X109303Y2937242D01*
G01X89303Y2797242D01*
G01X86779Y2790064D01*
G01X81700Y2784400D01*
G01X74839Y2781110D01*
G01X67242Y2780695D01*
G01X60064Y2783220D01*
G01X54400Y2788299D01*
G01X51110Y2795160D01*
G01X50695Y2802757D01*
G01X70695Y2942757D01*
G01X73220Y2949935D01*
G01X78299Y2955599D01*
G01X85160Y2958889D01*
G01X92757Y2959303D01*
G01X99935Y2956779D01*
G36*
G01X104839Y3548889D02*
G01X111699Y3545600D01*
G01X116779Y3539935D01*
G01X119303Y3532757D01*
G01X118889Y3525160D01*
G01X115600Y3518300D01*
G01X100600Y3498300D01*
G01X94935Y3493220D01*
G01X87757Y3490695D01*
G01X80160Y3491110D01*
G01X73300Y3494400D01*
G01X68220Y3500064D01*
G01X65695Y3507242D01*
G01X66110Y3514839D01*
G01X69400Y3521700D01*
G01X84399Y3541699D01*
G01X90064Y3546779D01*
G01X97242Y3549303D01*
G01X104839Y3548889D01*
G37*
G01X104839Y3548889D02*
G01X111699Y3545600D01*
G01X116779Y3539935D01*
G01X119303Y3532757D01*
G01X118889Y3525160D01*
G01X115600Y3518300D01*
G01X100600Y3498300D01*
G01X94935Y3493220D01*
G01X87757Y3490695D01*
G01X80160Y3491110D01*
G01X73300Y3494400D01*
G01X68220Y3500064D01*
G01X65695Y3507242D01*
G01X66110Y3514839D01*
G01X69400Y3521700D01*
G01X84399Y3541699D01*
G01X90064Y3546779D01*
G01X97242Y3549303D01*
G01X104839Y3548889D01*
G36*
G01X92462Y3528015D02*
G01X98788Y3523788D01*
G01X103015Y3517462D01*
G01X104500Y3510000D01*
G01X104500Y3125000D01*
G01X103015Y3117537D01*
G01X98788Y3111211D01*
G01X92462Y3106984D01*
G01X85000Y3105500D01*
G01X77537Y3106984D01*
G01X71211Y3111211D01*
G01X66984Y3117537D01*
G01X65500Y3125000D01*
G01X65500Y3509999D01*
G01X66984Y3517462D01*
G01X71211Y3523788D01*
G01X77537Y3528015D01*
G01X84999Y3529500D01*
G01X92462Y3528015D01*
G37*
G01X92462Y3528015D02*
G01X98788Y3523788D01*
G01X103015Y3517462D01*
G01X104500Y3510000D01*
G01X104500Y3125000D01*
G01X103015Y3117537D01*
G01X98788Y3111211D01*
G01X92462Y3106984D01*
G01X85000Y3105500D01*
G01X77537Y3106984D01*
G01X71211Y3111211D01*
G01X66984Y3117537D01*
G01X65500Y3125000D01*
G01X65500Y3509999D01*
G01X66984Y3517462D01*
G01X71211Y3523788D01*
G01X77537Y3528015D01*
G01X84999Y3529500D01*
G01X92462Y3528015D01*
G36*
G01X92462Y3143015D02*
G01X98788Y3138788D01*
G01X153788Y3083788D01*
G01X158015Y3077462D01*
G01X159500Y3070000D01*
G01X158015Y3062537D01*
G01X153788Y3056211D01*
G01X147462Y3051984D01*
G01X139999Y3050500D01*
G01X132537Y3051984D01*
G01X126211Y3056211D01*
G01X71211Y3111211D01*
G01X66984Y3117537D01*
G01X65500Y3124999D01*
G01X66984Y3132462D01*
G01X71211Y3138788D01*
G01X77537Y3143015D01*
G01X84999Y3144500D01*
G01X92462Y3143015D01*
G37*
G01X92462Y3143015D02*
G01X98788Y3138788D01*
G01X153788Y3083788D01*
G01X158015Y3077462D01*
G01X159500Y3070000D01*
G01X158015Y3062537D01*
G01X153788Y3056211D01*
G01X147462Y3051984D01*
G01X139999Y3050500D01*
G01X132537Y3051984D01*
G01X126211Y3056211D01*
G01X71211Y3111211D01*
G01X66984Y3117537D01*
G01X65500Y3124999D01*
G01X66984Y3132462D01*
G01X71211Y3138788D01*
G01X77537Y3143015D01*
G01X84999Y3144500D01*
G01X92462Y3143015D01*
G36*
G01X1805462Y916015D02*
G01X1811788Y911788D01*
G01X1990788Y732788D01*
G01X1995015Y726462D01*
G01X1996500Y719000D01*
G01X1995015Y711537D01*
G01X1990788Y705211D01*
G01X1984462Y700984D01*
G01X1976999Y699500D01*
G01X1969537Y700984D01*
G01X1963211Y705211D01*
G01X1784211Y884211D01*
G01X1779984Y890537D01*
G01X1778500Y897999D01*
G01X1779984Y905462D01*
G01X1784211Y911788D01*
G01X1790537Y916015D01*
G01X1797999Y917500D01*
G01X1805462Y916015D01*
G37*
G01X1805462Y916015D02*
G01X1811788Y911788D01*
G01X1990788Y732788D01*
G01X1995015Y726462D01*
G01X1996500Y719000D01*
G01X1995015Y711537D01*
G01X1990788Y705211D01*
G01X1984462Y700984D01*
G01X1976999Y699500D01*
G01X1969537Y700984D01*
G01X1963211Y705211D01*
G01X1784211Y884211D01*
G01X1779984Y890537D01*
G01X1778500Y897999D01*
G01X1779984Y905462D01*
G01X1784211Y911788D01*
G01X1790537Y916015D01*
G01X1797999Y917500D01*
G01X1805462Y916015D01*
G54D14*
G01X2244000Y719000D03*
G36*
G01X2251462Y737015D02*
G01X2257788Y732788D01*
G01X2262015Y726462D01*
G01X2263500Y719000D01*
G01X2262015Y711537D01*
G01X2257788Y705211D01*
G01X2251462Y700984D01*
G01X2243999Y699500D01*
G01X1977000Y699500D01*
G01X1969537Y700984D01*
G01X1963211Y705211D01*
G01X1958984Y711537D01*
G01X1957500Y718999D01*
G01X1958984Y726462D01*
G01X1963211Y732788D01*
G01X1969537Y737015D01*
G01X1976999Y738500D01*
G01X2243999Y738500D01*
G01X2251462Y737015D01*
G37*
G54D25*
G01X2251462Y737015D02*
G01X2257788Y732788D01*
G01X2262015Y726462D01*
G01X2263500Y719000D01*
G01X2262015Y711537D01*
G01X2257788Y705211D01*
G01X2251462Y700984D01*
G01X2243999Y699500D01*
G01X1977000Y699500D01*
G01X1969537Y700984D01*
G01X1963211Y705211D01*
G01X1958984Y711537D01*
G01X1957500Y718999D01*
G01X1958984Y726462D01*
G01X1963211Y732788D01*
G01X1969537Y737015D01*
G01X1976999Y738500D01*
G01X2243999Y738500D01*
G01X2251462Y737015D01*
G36*
G01X1422462Y1293015D02*
G01X1428788Y1288788D01*
G01X1503788Y1213788D01*
G01X1508015Y1207462D01*
G01X1509500Y1200000D01*
G01X1508015Y1192537D01*
G01X1503788Y1186211D01*
G01X1497462Y1181984D01*
G01X1490000Y1180500D01*
G01X1482537Y1181984D01*
G01X1476211Y1186211D01*
G01X1401211Y1261211D01*
G01X1396984Y1267537D01*
G01X1395500Y1274999D01*
G01X1396984Y1282462D01*
G01X1401211Y1288788D01*
G01X1407537Y1293015D01*
G01X1415000Y1294500D01*
G01X1422462Y1293015D01*
G37*
G01X1422462Y1293015D02*
G01X1428788Y1288788D01*
G01X1503788Y1213788D01*
G01X1508015Y1207462D01*
G01X1509500Y1200000D01*
G01X1508015Y1192537D01*
G01X1503788Y1186211D01*
G01X1497462Y1181984D01*
G01X1490000Y1180500D01*
G01X1482537Y1181984D01*
G01X1476211Y1186211D01*
G01X1401211Y1261211D01*
G01X1396984Y1267537D01*
G01X1395500Y1274999D01*
G01X1396984Y1282462D01*
G01X1401211Y1288788D01*
G01X1407537Y1293015D01*
G01X1415000Y1294500D01*
G01X1422462Y1293015D01*
G36*
G01X1422462Y1293015D02*
G01X1428788Y1288788D01*
G01X1433015Y1282462D01*
G01X1434500Y1275000D01*
G01X1433015Y1267537D01*
G01X1428788Y1261211D01*
G01X1422462Y1256984D01*
G01X1415000Y1255500D01*
G01X1258000Y1255500D01*
G01X1250537Y1256984D01*
G01X1244211Y1261211D01*
G01X1239984Y1267537D01*
G01X1238500Y1275000D01*
G01X1239984Y1282462D01*
G01X1244211Y1288788D01*
G01X1250537Y1293015D01*
G01X1258000Y1294500D01*
G01X1414999Y1294500D01*
G01X1422462Y1293015D01*
G37*
G01X1422462Y1293015D02*
G01X1428788Y1288788D01*
G01X1433015Y1282462D01*
G01X1434500Y1275000D01*
G01X1433015Y1267537D01*
G01X1428788Y1261211D01*
G01X1422462Y1256984D01*
G01X1415000Y1255500D01*
G01X1258000Y1255500D01*
G01X1250537Y1256984D01*
G01X1244211Y1261211D01*
G01X1239984Y1267537D01*
G01X1238500Y1275000D01*
G01X1239984Y1282462D01*
G01X1244211Y1288788D01*
G01X1250537Y1293015D01*
G01X1258000Y1294500D01*
G01X1414999Y1294500D01*
G01X1422462Y1293015D01*
G36*
G01X1265462Y1293015D02*
G01X1271788Y1288788D01*
G01X1276015Y1282462D01*
G01X1277500Y1275000D01*
G01X1276015Y1267537D01*
G01X1271788Y1261211D01*
G01X1230788Y1220211D01*
G01X1224462Y1215984D01*
G01X1217000Y1214500D01*
G01X1209537Y1215984D01*
G01X1203211Y1220211D01*
G01X1198984Y1226537D01*
G01X1197500Y1234000D01*
G01X1198984Y1241462D01*
G01X1203211Y1247788D01*
G01X1244211Y1288788D01*
G01X1250537Y1293015D01*
G01X1257999Y1294500D01*
G01X1265462Y1293015D01*
G37*
G01X1265462Y1293015D02*
G01X1271788Y1288788D01*
G01X1276015Y1282462D01*
G01X1277500Y1275000D01*
G01X1276015Y1267537D01*
G01X1271788Y1261211D01*
G01X1230788Y1220211D01*
G01X1224462Y1215984D01*
G01X1217000Y1214500D01*
G01X1209537Y1215984D01*
G01X1203211Y1220211D01*
G01X1198984Y1226537D01*
G01X1197500Y1234000D01*
G01X1198984Y1241462D01*
G01X1203211Y1247788D01*
G01X1244211Y1288788D01*
G01X1250537Y1293015D01*
G01X1257999Y1294500D01*
G01X1265462Y1293015D01*
G36*
G01X1224462Y1252015D02*
G01X1230788Y1247788D01*
G01X1235015Y1241462D01*
G01X1236500Y1234000D01*
G01X1236500Y899000D01*
G01X1235015Y891537D01*
G01X1230788Y885211D01*
G01X1224462Y880984D01*
G01X1217000Y879500D01*
G01X1209537Y880984D01*
G01X1203211Y885211D01*
G01X1198984Y891537D01*
G01X1197500Y899000D01*
G01X1197500Y1233999D01*
G01X1198984Y1241462D01*
G01X1203211Y1247788D01*
G01X1209537Y1252015D01*
G01X1216999Y1253500D01*
G01X1224462Y1252015D01*
G37*
G01X1224462Y1252015D02*
G01X1230788Y1247788D01*
G01X1235015Y1241462D01*
G01X1236500Y1234000D01*
G01X1236500Y899000D01*
G01X1235015Y891537D01*
G01X1230788Y885211D01*
G01X1224462Y880984D01*
G01X1217000Y879500D01*
G01X1209537Y880984D01*
G01X1203211Y885211D01*
G01X1198984Y891537D01*
G01X1197500Y899000D01*
G01X1197500Y1233999D01*
G01X1198984Y1241462D01*
G01X1203211Y1247788D01*
G01X1209537Y1252015D01*
G01X1216999Y1253500D01*
G01X1224462Y1252015D01*
G36*
G01X1224462Y917015D02*
G01X1230788Y912788D01*
G01X1235015Y906462D01*
G01X1236500Y899000D01*
G01X1235015Y891537D01*
G01X1230788Y885211D01*
G01X1139788Y794211D01*
G01X1133462Y789984D01*
G01X1126000Y788500D01*
G01X1118537Y789984D01*
G01X1112211Y794211D01*
G01X1107984Y800537D01*
G01X1106500Y808000D01*
G01X1107984Y815462D01*
G01X1112211Y821788D01*
G01X1203211Y912788D01*
G01X1209537Y917015D01*
G01X1216999Y918500D01*
G01X1224462Y917015D01*
G37*
G01X1224462Y917015D02*
G01X1230788Y912788D01*
G01X1235015Y906462D01*
G01X1236500Y899000D01*
G01X1235015Y891537D01*
G01X1230788Y885211D01*
G01X1139788Y794211D01*
G01X1133462Y789984D01*
G01X1126000Y788500D01*
G01X1118537Y789984D01*
G01X1112211Y794211D01*
G01X1107984Y800537D01*
G01X1106500Y808000D01*
G01X1107984Y815462D01*
G01X1112211Y821788D01*
G01X1203211Y912788D01*
G01X1209537Y917015D01*
G01X1216999Y918500D01*
G01X1224462Y917015D01*
G36*
G01X1133462Y826015D02*
G01X1139788Y821788D01*
G01X1144015Y815462D01*
G01X1145500Y808000D01*
G01X1144015Y800537D01*
G01X1139788Y794211D01*
G01X1133462Y789984D01*
G01X1126000Y788500D01*
G01X589000Y788500D01*
G01X581537Y789984D01*
G01X575211Y794211D01*
G01X570984Y800537D01*
G01X569500Y808000D01*
G01X570984Y815462D01*
G01X575211Y821788D01*
G01X581537Y826015D01*
G01X589000Y827500D01*
G01X1125999Y827500D01*
G01X1133462Y826015D01*
G37*
G01X1133462Y826015D02*
G01X1139788Y821788D01*
G01X1144015Y815462D01*
G01X1145500Y808000D01*
G01X1144015Y800537D01*
G01X1139788Y794211D01*
G01X1133462Y789984D01*
G01X1126000Y788500D01*
G01X589000Y788500D01*
G01X581537Y789984D01*
G01X575211Y794211D01*
G01X570984Y800537D01*
G01X569500Y808000D01*
G01X570984Y815462D01*
G01X575211Y821788D01*
G01X581537Y826015D01*
G01X589000Y827500D01*
G01X1125999Y827500D01*
G01X1133462Y826015D01*
G36*
G01X505362Y916056D02*
G01X511712Y911864D01*
G01X602712Y821864D01*
G01X606974Y815561D01*
G01X608499Y808107D01*
G01X607056Y800637D01*
G01X602864Y794287D01*
G01X596561Y790025D01*
G01X589107Y788500D01*
G01X581637Y789943D01*
G01X575287Y794135D01*
G01X484287Y884135D01*
G01X480025Y890438D01*
G01X478500Y897892D01*
G01X479943Y905362D01*
G01X484135Y911712D01*
G01X490438Y915974D01*
G01X497892Y917499D01*
G01X505362Y916056D01*
G37*
G01X505362Y916056D02*
G01X511712Y911864D01*
G01X602712Y821864D01*
G01X606974Y815561D01*
G01X608499Y808107D01*
G01X607056Y800637D01*
G01X602864Y794287D01*
G01X596561Y790025D01*
G01X589107Y788500D01*
G01X581637Y789943D01*
G01X575287Y794135D01*
G01X484287Y884135D01*
G01X480025Y890438D01*
G01X478500Y897892D01*
G01X479943Y905362D01*
G01X484135Y911712D01*
G01X490438Y915974D01*
G01X497892Y917499D01*
G01X505362Y916056D01*
G36*
G01X1497284Y1218088D02*
G01X1503652Y1213923D01*
G01X1811652Y911923D01*
G01X1815941Y905639D01*
G01X1817499Y898191D01*
G01X1816088Y890715D01*
G01X1811923Y884347D01*
G01X1805639Y880058D01*
G01X1798191Y878500D01*
G01X1790715Y879911D01*
G01X1784347Y884076D01*
G01X1476347Y1186076D01*
G01X1472058Y1192360D01*
G01X1470500Y1199808D01*
G01X1471911Y1207284D01*
G01X1476076Y1213652D01*
G01X1482360Y1217941D01*
G01X1489808Y1219499D01*
G01X1497284Y1218088D01*
G37*
G01X1497284Y1218088D02*
G01X1503652Y1213923D01*
G01X1811652Y911923D01*
G01X1815941Y905639D01*
G01X1817499Y898191D01*
G01X1816088Y890715D01*
G01X1811923Y884347D01*
G01X1805639Y880058D01*
G01X1798191Y878500D01*
G01X1790715Y879911D01*
G01X1784347Y884076D01*
G01X1476347Y1186076D01*
G01X1472058Y1192360D01*
G01X1470500Y1199808D01*
G01X1471911Y1207284D01*
G01X1476076Y1213652D01*
G01X1482360Y1217941D01*
G01X1489808Y1219499D01*
G01X1497284Y1218088D01*
G36*
G01X1863419Y963325D02*
G01X1870556Y958556D01*
G01X1915556Y913556D01*
G01X1920325Y906419D01*
G01X1922000Y898000D01*
G01X1920325Y889580D01*
G01X1915556Y882443D01*
G01X1908419Y877674D01*
G01X1900000Y876000D01*
G01X1891580Y877674D01*
G01X1884443Y882443D01*
G01X1839443Y927443D01*
G01X1834674Y934580D01*
G01X1833000Y942999D01*
G01X1834674Y951419D01*
G01X1839443Y958556D01*
G01X1846580Y963325D01*
G01X1855000Y965000D01*
G01X1863419Y963325D01*
G37*
G01X1863419Y963325D02*
G01X1870556Y958556D01*
G01X1915556Y913556D01*
G01X1920325Y906419D01*
G01X1922000Y898000D01*
G01X1920325Y889580D01*
G01X1915556Y882443D01*
G01X1908419Y877674D01*
G01X1900000Y876000D01*
G01X1891580Y877674D01*
G01X1884443Y882443D01*
G01X1839443Y927443D01*
G01X1834674Y934580D01*
G01X1833000Y942999D01*
G01X1834674Y951419D01*
G01X1839443Y958556D01*
G01X1846580Y963325D01*
G01X1855000Y965000D01*
G01X1863419Y963325D01*
G36*
G01X1863419Y1220325D02*
G01X1870556Y1215556D01*
G01X1875325Y1208419D01*
G01X1877000Y1199999D01*
G01X1877000Y943000D01*
G01X1875325Y934580D01*
G01X1870556Y927443D01*
G01X1863419Y922674D01*
G01X1855000Y921000D01*
G01X1846580Y922674D01*
G01X1839443Y927443D01*
G01X1834674Y934580D01*
G01X1833000Y942999D01*
G01X1833000Y1199999D01*
G01X1834674Y1208419D01*
G01X1839443Y1215556D01*
G01X1846580Y1220325D01*
G01X1855000Y1222000D01*
G01X1863419Y1220325D01*
G37*
G01X1863419Y1220325D02*
G01X1870556Y1215556D01*
G01X1875325Y1208419D01*
G01X1877000Y1199999D01*
G01X1877000Y943000D01*
G01X1875325Y934580D01*
G01X1870556Y927443D01*
G01X1863419Y922674D01*
G01X1855000Y921000D01*
G01X1846580Y922674D01*
G01X1839443Y927443D01*
G01X1834674Y934580D01*
G01X1833000Y942999D01*
G01X1833000Y1199999D01*
G01X1834674Y1208419D01*
G01X1839443Y1215556D01*
G01X1846580Y1220325D01*
G01X1855000Y1222000D01*
G01X1863419Y1220325D01*
G36*
G01X1127462Y2912015D02*
G01X1133788Y2907788D01*
G01X1138015Y2901462D01*
G01X1139500Y2893999D01*
G01X1139500Y2890000D01*
G01X1138015Y2882537D01*
G01X1133788Y2876211D01*
G01X1127462Y2871984D01*
G01X1120000Y2870500D01*
G01X1112537Y2871984D01*
G01X1106211Y2876211D01*
G01X1101984Y2882537D01*
G01X1100500Y2889999D01*
G01X1100500Y2893999D01*
G01X1101984Y2901462D01*
G01X1106211Y2907788D01*
G01X1112537Y2912015D01*
G01X1120000Y2913500D01*
G01X1127462Y2912015D01*
G37*
G01X1127462Y2912015D02*
G01X1133788Y2907788D01*
G01X1138015Y2901462D01*
G01X1139500Y2893999D01*
G01X1139500Y2890000D01*
G01X1138015Y2882537D01*
G01X1133788Y2876211D01*
G01X1127462Y2871984D01*
G01X1120000Y2870500D01*
G01X1112537Y2871984D01*
G01X1106211Y2876211D01*
G01X1101984Y2882537D01*
G01X1100500Y2889999D01*
G01X1100500Y2893999D01*
G01X1101984Y2901462D01*
G01X1106211Y2907788D01*
G01X1112537Y2912015D01*
G01X1120000Y2913500D01*
G01X1127462Y2912015D01*
G36*
G01X1127462Y3008015D02*
G01X1133788Y3003788D01*
G01X1138015Y2997462D01*
G01X1139500Y2989999D01*
G01X1139500Y2894000D01*
G01X1138015Y2886537D01*
G01X1133788Y2880211D01*
G01X1127462Y2875984D01*
G01X1120000Y2874500D01*
G01X1112537Y2875984D01*
G01X1106211Y2880211D01*
G01X1101984Y2886537D01*
G01X1100500Y2893999D01*
G01X1100500Y2989999D01*
G01X1101984Y2997462D01*
G01X1106211Y3003788D01*
G01X1112537Y3008015D01*
G01X1120000Y3009500D01*
G01X1127462Y3008015D01*
G37*
G01X1127462Y3008015D02*
G01X1133788Y3003788D01*
G01X1138015Y2997462D01*
G01X1139500Y2989999D01*
G01X1139500Y2894000D01*
G01X1138015Y2886537D01*
G01X1133788Y2880211D01*
G01X1127462Y2875984D01*
G01X1120000Y2874500D01*
G01X1112537Y2875984D01*
G01X1106211Y2880211D01*
G01X1101984Y2886537D01*
G01X1100500Y2893999D01*
G01X1100500Y2989999D01*
G01X1101984Y2997462D01*
G01X1106211Y3003788D01*
G01X1112537Y3008015D01*
G01X1120000Y3009500D01*
G01X1127462Y3008015D01*
G36*
G01X1047462Y3088015D02*
G01X1053788Y3083788D01*
G01X1133788Y3003788D01*
G01X1138015Y2997462D01*
G01X1139500Y2990000D01*
G01X1138015Y2982537D01*
G01X1133788Y2976211D01*
G01X1127462Y2971984D01*
G01X1120000Y2970500D01*
G01X1112537Y2971984D01*
G01X1106211Y2976211D01*
G01X1026211Y3056211D01*
G01X1021984Y3062537D01*
G01X1020500Y3069999D01*
G01X1021984Y3077462D01*
G01X1026211Y3083788D01*
G01X1032537Y3088015D01*
G01X1040000Y3089500D01*
G01X1047462Y3088015D01*
G37*
G01X1047462Y3088015D02*
G01X1053788Y3083788D01*
G01X1133788Y3003788D01*
G01X1138015Y2997462D01*
G01X1139500Y2990000D01*
G01X1138015Y2982537D01*
G01X1133788Y2976211D01*
G01X1127462Y2971984D01*
G01X1120000Y2970500D01*
G01X1112537Y2971984D01*
G01X1106211Y2976211D01*
G01X1026211Y3056211D01*
G01X1021984Y3062537D01*
G01X1020500Y3069999D01*
G01X1021984Y3077462D01*
G01X1026211Y3083788D01*
G01X1032537Y3088015D01*
G01X1040000Y3089500D01*
G01X1047462Y3088015D01*
G36*
G01X1127462Y2908015D02*
G01X1133788Y2903788D01*
G01X1138015Y2897462D01*
G01X1139500Y2889999D01*
G01X1139500Y2730000D01*
G01X1138015Y2722537D01*
G01X1133788Y2716211D01*
G01X1127462Y2711984D01*
G01X1120000Y2710500D01*
G01X1112537Y2711984D01*
G01X1106211Y2716211D01*
G01X1101984Y2722537D01*
G01X1100500Y2729999D01*
G01X1100500Y2889999D01*
G01X1101984Y2897462D01*
G01X1106211Y2903788D01*
G01X1112537Y2908015D01*
G01X1120000Y2909500D01*
G01X1127462Y2908015D01*
G37*
G01X1127462Y2908015D02*
G01X1133788Y2903788D01*
G01X1138015Y2897462D01*
G01X1139500Y2889999D01*
G01X1139500Y2730000D01*
G01X1138015Y2722537D01*
G01X1133788Y2716211D01*
G01X1127462Y2711984D01*
G01X1120000Y2710500D01*
G01X1112537Y2711984D01*
G01X1106211Y2716211D01*
G01X1101984Y2722537D01*
G01X1100500Y2729999D01*
G01X1100500Y2889999D01*
G01X1101984Y2897462D01*
G01X1106211Y2903788D01*
G01X1112537Y2908015D01*
G01X1120000Y2909500D01*
G01X1127462Y2908015D01*
G36*
G01X182462Y3648015D02*
G01X188788Y3643788D01*
G01X193015Y3637462D01*
G01X194500Y3630000D01*
G01X193015Y3622537D01*
G01X188788Y3616211D01*
G01X182462Y3611984D01*
G01X174999Y3610500D01*
G01X100000Y3610500D01*
G01X92537Y3611984D01*
G01X86211Y3616211D01*
G01X81984Y3622537D01*
G01X80500Y3629999D01*
G01X81984Y3637462D01*
G01X86211Y3643788D01*
G01X92537Y3648015D01*
G01X99999Y3649500D01*
G01X174999Y3649500D01*
G01X182462Y3648015D01*
G37*
G01X182462Y3648015D02*
G01X188788Y3643788D01*
G01X193015Y3637462D01*
G01X194500Y3630000D01*
G01X193015Y3622537D01*
G01X188788Y3616211D01*
G01X182462Y3611984D01*
G01X174999Y3610500D01*
G01X100000Y3610500D01*
G01X92537Y3611984D01*
G01X86211Y3616211D01*
G01X81984Y3622537D01*
G01X80500Y3629999D01*
G01X81984Y3637462D01*
G01X86211Y3643788D01*
G01X92537Y3648015D01*
G01X99999Y3649500D01*
G01X174999Y3649500D01*
G01X182462Y3648015D01*
G36*
G01X182462Y3648015D02*
G01X188788Y3643788D01*
G01X213788Y3618788D01*
G01X218015Y3612462D01*
G01X219500Y3605000D01*
G01X218015Y3597537D01*
G01X213788Y3591211D01*
G01X207462Y3586984D01*
G01X199999Y3585500D01*
G01X192537Y3586984D01*
G01X186211Y3591211D01*
G01X161211Y3616211D01*
G01X156984Y3622537D01*
G01X155500Y3629999D01*
G01X156984Y3637462D01*
G01X161211Y3643788D01*
G01X167537Y3648015D01*
G01X174999Y3649500D01*
G01X182462Y3648015D01*
G37*
G01X182462Y3648015D02*
G01X188788Y3643788D01*
G01X213788Y3618788D01*
G01X218015Y3612462D01*
G01X219500Y3605000D01*
G01X218015Y3597537D01*
G01X213788Y3591211D01*
G01X207462Y3586984D01*
G01X199999Y3585500D01*
G01X192537Y3586984D01*
G01X186211Y3591211D01*
G01X161211Y3616211D01*
G01X156984Y3622537D01*
G01X155500Y3629999D01*
G01X156984Y3637462D01*
G01X161211Y3643788D01*
G01X167537Y3648015D01*
G01X174999Y3649500D01*
G01X182462Y3648015D01*
G36*
G01X207462Y3623015D02*
G01X213788Y3618788D01*
G01X218015Y3612462D01*
G01X219500Y3605000D01*
G01X219500Y3430000D01*
G01X218015Y3422537D01*
G01X213788Y3416211D01*
G01X207462Y3411984D01*
G01X200000Y3410500D01*
G01X192537Y3411984D01*
G01X186211Y3416211D01*
G01X181984Y3422537D01*
G01X180500Y3430000D01*
G01X180500Y3604999D01*
G01X181984Y3612462D01*
G01X186211Y3618788D01*
G01X192537Y3623015D01*
G01X199999Y3624500D01*
G01X207462Y3623015D01*
G37*
G01X207462Y3623015D02*
G01X213788Y3618788D01*
G01X218015Y3612462D01*
G01X219500Y3605000D01*
G01X219500Y3430000D01*
G01X218015Y3422537D01*
G01X213788Y3416211D01*
G01X207462Y3411984D01*
G01X200000Y3410500D01*
G01X192537Y3411984D01*
G01X186211Y3416211D01*
G01X181984Y3422537D01*
G01X180500Y3430000D01*
G01X180500Y3604999D01*
G01X181984Y3612462D01*
G01X186211Y3618788D01*
G01X192537Y3623015D01*
G01X199999Y3624500D01*
G01X207462Y3623015D01*
G36*
G01X207462Y3448015D02*
G01X213788Y3443788D01*
G01X218015Y3437462D01*
G01X219500Y3430000D01*
G01X218015Y3422537D01*
G01X213788Y3416211D01*
G01X153788Y3356211D01*
G01X147462Y3351984D01*
G01X140000Y3350500D01*
G01X132537Y3351984D01*
G01X126211Y3356211D01*
G01X121984Y3362537D01*
G01X120500Y3370000D01*
G01X121984Y3377462D01*
G01X126211Y3383788D01*
G01X186211Y3443788D01*
G01X192537Y3448015D01*
G01X199999Y3449500D01*
G01X207462Y3448015D01*
G37*
G01X207462Y3448015D02*
G01X213788Y3443788D01*
G01X218015Y3437462D01*
G01X219500Y3430000D01*
G01X218015Y3422537D01*
G01X213788Y3416211D01*
G01X153788Y3356211D01*
G01X147462Y3351984D01*
G01X140000Y3350500D01*
G01X132537Y3351984D01*
G01X126211Y3356211D01*
G01X121984Y3362537D01*
G01X120500Y3370000D01*
G01X121984Y3377462D01*
G01X126211Y3383788D01*
G01X186211Y3443788D01*
G01X192537Y3448015D01*
G01X199999Y3449500D01*
G01X207462Y3448015D01*
G36*
G01X1710032Y316721D02*
G01X1715667Y311608D01*
G01X1718917Y304729D01*
G01X1719287Y297129D01*
G01X1716721Y289967D01*
G01X1711608Y284332D01*
G01X1704729Y281082D01*
G01X1700729Y280082D01*
G01X1693129Y279712D01*
G01X1685967Y282278D01*
G01X1680332Y287391D01*
G01X1677082Y294270D01*
G01X1676712Y301870D01*
G01X1679278Y309032D01*
G01X1684391Y314667D01*
G01X1691270Y317917D01*
G01X1695270Y318917D01*
G01X1702870Y319287D01*
G01X1710032Y316721D01*
G37*
G01X1710032Y316721D02*
G01X1715667Y311608D01*
G01X1718917Y304729D01*
G01X1719287Y297129D01*
G01X1716721Y289967D01*
G01X1711608Y284332D01*
G01X1704729Y281082D01*
G01X1700729Y280082D01*
G01X1693129Y279712D01*
G01X1685967Y282278D01*
G01X1680332Y287391D01*
G01X1677082Y294270D01*
G01X1676712Y301870D01*
G01X1679278Y309032D01*
G01X1684391Y314667D01*
G01X1691270Y317917D01*
G01X1695270Y318917D01*
G01X1702870Y319287D01*
G01X1710032Y316721D01*
G36*
G01X1703462Y317015D02*
G01X1709788Y312788D01*
G01X1714015Y306462D01*
G01X1715500Y299000D01*
G01X1714015Y291537D01*
G01X1709788Y285211D01*
G01X1703462Y280984D01*
G01X1696000Y279500D01*
G01X1321000Y279500D01*
G01X1313537Y280984D01*
G01X1307211Y285211D01*
G01X1302984Y291537D01*
G01X1301500Y299000D01*
G01X1302984Y306462D01*
G01X1307211Y312788D01*
G01X1313537Y317015D01*
G01X1321000Y318500D01*
G01X1695999Y318500D01*
G01X1703462Y317015D01*
G37*
G01X1703462Y317015D02*
G01X1709788Y312788D01*
G01X1714015Y306462D01*
G01X1715500Y299000D01*
G01X1714015Y291537D01*
G01X1709788Y285211D01*
G01X1703462Y280984D01*
G01X1696000Y279500D01*
G01X1321000Y279500D01*
G01X1313537Y280984D01*
G01X1307211Y285211D01*
G01X1302984Y291537D01*
G01X1301500Y299000D01*
G01X1302984Y306462D01*
G01X1307211Y312788D01*
G01X1313537Y317015D01*
G01X1321000Y318500D01*
G01X1695999Y318500D01*
G01X1703462Y317015D01*
G36*
G01X1207462Y438015D02*
G01X1213788Y433788D01*
G01X1334788Y312788D01*
G01X1339015Y306462D01*
G01X1340500Y299000D01*
G01X1339015Y291537D01*
G01X1334788Y285211D01*
G01X1328462Y280984D01*
G01X1321000Y279500D01*
G01X1313537Y280984D01*
G01X1307211Y285211D01*
G01X1186211Y406211D01*
G01X1181984Y412537D01*
G01X1180500Y419999D01*
G01X1181984Y427462D01*
G01X1186211Y433788D01*
G01X1192537Y438015D01*
G01X1200000Y439500D01*
G01X1207462Y438015D01*
G37*
G01X1207462Y438015D02*
G01X1213788Y433788D01*
G01X1334788Y312788D01*
G01X1339015Y306462D01*
G01X1340500Y299000D01*
G01X1339015Y291537D01*
G01X1334788Y285211D01*
G01X1328462Y280984D01*
G01X1321000Y279500D01*
G01X1313537Y280984D01*
G01X1307211Y285211D01*
G01X1186211Y406211D01*
G01X1181984Y412537D01*
G01X1180500Y419999D01*
G01X1181984Y427462D01*
G01X1186211Y433788D01*
G01X1192537Y438015D01*
G01X1200000Y439500D01*
G01X1207462Y438015D01*
G36*
G01X2807462Y518015D02*
G01X2813788Y513788D01*
G01X3013788Y313788D01*
G01X3018015Y307462D01*
G01X3019500Y300000D01*
G01X3018015Y292537D01*
G01X3013788Y286211D01*
G01X3007462Y281984D01*
G01X3000000Y280500D01*
G01X2992537Y281984D01*
G01X2986211Y286211D01*
G01X2786211Y486211D01*
G01X2781984Y492537D01*
G01X2780500Y499999D01*
G01X2781984Y507462D01*
G01X2786211Y513788D01*
G01X2792537Y518015D01*
G01X2800000Y519500D01*
G01X2807462Y518015D01*
G37*
G01X2807462Y518015D02*
G01X2813788Y513788D01*
G01X3013788Y313788D01*
G01X3018015Y307462D01*
G01X3019500Y300000D01*
G01X3018015Y292537D01*
G01X3013788Y286211D01*
G01X3007462Y281984D01*
G01X3000000Y280500D01*
G01X2992537Y281984D01*
G01X2986211Y286211D01*
G01X2786211Y486211D01*
G01X2781984Y492537D01*
G01X2780500Y499999D01*
G01X2781984Y507462D01*
G01X2786211Y513788D01*
G01X2792537Y518015D01*
G01X2800000Y519500D01*
G01X2807462Y518015D01*
G36*
G01X2807462Y1468015D02*
G01X2813788Y1463788D01*
G01X2818015Y1457462D01*
G01X2819500Y1449999D01*
G01X2819500Y500000D01*
G01X2818015Y492537D01*
G01X2813788Y486211D01*
G01X2807462Y481984D01*
G01X2800000Y480500D01*
G01X2792537Y481984D01*
G01X2786211Y486211D01*
G01X2781984Y492537D01*
G01X2780500Y499999D01*
G01X2780500Y1449999D01*
G01X2781984Y1457462D01*
G01X2786211Y1463788D01*
G01X2792537Y1468015D01*
G01X2800000Y1469500D01*
G01X2807462Y1468015D01*
G37*
G01X2807462Y1468015D02*
G01X2813788Y1463788D01*
G01X2818015Y1457462D01*
G01X2819500Y1449999D01*
G01X2819500Y500000D01*
G01X2818015Y492537D01*
G01X2813788Y486211D01*
G01X2807462Y481984D01*
G01X2800000Y480500D01*
G01X2792537Y481984D01*
G01X2786211Y486211D01*
G01X2781984Y492537D01*
G01X2780500Y499999D01*
G01X2780500Y1449999D01*
G01X2781984Y1457462D01*
G01X2786211Y1463788D01*
G01X2792537Y1468015D01*
G01X2800000Y1469500D01*
G01X2807462Y1468015D01*
G36*
G01X2052135Y978350D02*
G01X2058233Y972309D01*
G01X2061556Y964395D01*
G01X2061597Y955811D01*
G01X2058350Y947864D01*
G01X2017350Y885864D01*
G01X2011309Y879766D01*
G01X2003395Y876443D01*
G01X1994811Y876402D01*
G01X1986864Y879649D01*
G01X1980766Y885690D01*
G01X1977443Y893604D01*
G01X1977402Y902188D01*
G01X1980649Y910135D01*
G01X2021649Y972135D01*
G01X2027690Y978233D01*
G01X2035604Y981556D01*
G01X2044188Y981597D01*
G01X2052135Y978350D01*
G37*
G01X2052135Y978350D02*
G01X2058233Y972309D01*
G01X2061556Y964395D01*
G01X2061597Y955811D01*
G01X2058350Y947864D01*
G01X2017350Y885864D01*
G01X2011309Y879766D01*
G01X2003395Y876443D01*
G01X1994811Y876402D01*
G01X1986864Y879649D01*
G01X1980766Y885690D01*
G01X1977443Y893604D01*
G01X1977402Y902188D01*
G01X1980649Y910135D01*
G01X2021649Y972135D01*
G01X2027690Y978233D01*
G01X2035604Y981556D01*
G01X2044188Y981597D01*
G01X2052135Y978350D01*
G36*
G01X2048419Y1300325D02*
G01X2055556Y1295556D01*
G01X2060325Y1288419D01*
G01X2062000Y1279999D01*
G01X2062000Y960000D01*
G01X2060325Y951580D01*
G01X2055556Y944443D01*
G01X2048419Y939674D01*
G01X2040000Y938000D01*
G01X2031580Y939674D01*
G01X2024443Y944443D01*
G01X2019674Y951580D01*
G01X2018000Y959999D01*
G01X2018000Y1279999D01*
G01X2019674Y1288419D01*
G01X2024443Y1295556D01*
G01X2031580Y1300325D01*
G01X2040000Y1302000D01*
G01X2048419Y1300325D01*
G37*
G01X2048419Y1300325D02*
G01X2055556Y1295556D01*
G01X2060325Y1288419D01*
G01X2062000Y1279999D01*
G01X2062000Y960000D01*
G01X2060325Y951580D01*
G01X2055556Y944443D01*
G01X2048419Y939674D01*
G01X2040000Y938000D01*
G01X2031580Y939674D01*
G01X2024443Y944443D01*
G01X2019674Y951580D01*
G01X2018000Y959999D01*
G01X2018000Y1279999D01*
G01X2019674Y1288419D01*
G01X2024443Y1295556D01*
G01X2031580Y1300325D01*
G01X2040000Y1302000D01*
G01X2048419Y1300325D01*
G36*
G01X2053419Y1300325D02*
G01X2060556Y1295556D01*
G01X2065325Y1288419D01*
G01X2067000Y1280000D01*
G01X2065325Y1271580D01*
G01X2060556Y1264443D01*
G01X2053419Y1259674D01*
G01X2044999Y1258000D01*
G01X2040000Y1258000D01*
G01X2031580Y1259674D01*
G01X2024443Y1264443D01*
G01X2019674Y1271580D01*
G01X2018000Y1279999D01*
G01X2019674Y1288419D01*
G01X2024443Y1295556D01*
G01X2031580Y1300325D01*
G01X2039999Y1302000D01*
G01X2044999Y1302000D01*
G01X2053419Y1300325D01*
G37*
G01X2053419Y1300325D02*
G01X2060556Y1295556D01*
G01X2065325Y1288419D01*
G01X2067000Y1280000D01*
G01X2065325Y1271580D01*
G01X2060556Y1264443D01*
G01X2053419Y1259674D01*
G01X2044999Y1258000D01*
G01X2040000Y1258000D01*
G01X2031580Y1259674D01*
G01X2024443Y1264443D01*
G01X2019674Y1271580D01*
G01X2018000Y1279999D01*
G01X2019674Y1288419D01*
G01X2024443Y1295556D01*
G01X2031580Y1300325D01*
G01X2039999Y1302000D01*
G01X2044999Y1302000D01*
G01X2053419Y1300325D01*
G36*
G01X947462Y3088015D02*
G01X953788Y3083788D01*
G01X958015Y3077462D01*
G01X959500Y3070000D01*
G01X958015Y3062537D01*
G01X953788Y3056211D01*
G01X933788Y3036211D01*
G01X927462Y3031984D01*
G01X920000Y3030500D01*
G01X912537Y3031984D01*
G01X906211Y3036211D01*
G01X901984Y3042537D01*
G01X900500Y3050000D01*
G01X901984Y3057462D01*
G01X906211Y3063788D01*
G01X926211Y3083788D01*
G01X932537Y3088015D01*
G01X939999Y3089500D01*
G01X947462Y3088015D01*
G37*
G01X947462Y3088015D02*
G01X953788Y3083788D01*
G01X958015Y3077462D01*
G01X959500Y3070000D01*
G01X958015Y3062537D01*
G01X953788Y3056211D01*
G01X933788Y3036211D01*
G01X927462Y3031984D01*
G01X920000Y3030500D01*
G01X912537Y3031984D01*
G01X906211Y3036211D01*
G01X901984Y3042537D01*
G01X900500Y3050000D01*
G01X901984Y3057462D01*
G01X906211Y3063788D01*
G01X926211Y3083788D01*
G01X932537Y3088015D01*
G01X939999Y3089500D01*
G01X947462Y3088015D01*
G36*
G01X927462Y3068015D02*
G01X933788Y3063788D01*
G01X938015Y3057462D01*
G01X939500Y3050000D01*
G01X939500Y2892000D01*
G01X938015Y2884537D01*
G01X933788Y2878211D01*
G01X927462Y2873984D01*
G01X920000Y2872500D01*
G01X912537Y2873984D01*
G01X906211Y2878211D01*
G01X901984Y2884537D01*
G01X900500Y2892000D01*
G01X900500Y3049999D01*
G01X901984Y3057462D01*
G01X906211Y3063788D01*
G01X912537Y3068015D01*
G01X919999Y3069500D01*
G01X927462Y3068015D01*
G37*
G01X927462Y3068015D02*
G01X933788Y3063788D01*
G01X938015Y3057462D01*
G01X939500Y3050000D01*
G01X939500Y2892000D01*
G01X938015Y2884537D01*
G01X933788Y2878211D01*
G01X927462Y2873984D01*
G01X920000Y2872500D01*
G01X912537Y2873984D01*
G01X906211Y2878211D01*
G01X901984Y2884537D01*
G01X900500Y2892000D01*
G01X900500Y3049999D01*
G01X901984Y3057462D01*
G01X906211Y3063788D01*
G01X912537Y3068015D01*
G01X919999Y3069500D01*
G01X927462Y3068015D01*
G36*
G01X927462Y2910015D02*
G01X933788Y2905788D01*
G01X938015Y2899462D01*
G01X939500Y2892000D01*
G01X939500Y2890000D01*
G01X938015Y2882537D01*
G01X933788Y2876211D01*
G01X927462Y2871984D01*
G01X920000Y2870500D01*
G01X912537Y2871984D01*
G01X906211Y2876211D01*
G01X901984Y2882537D01*
G01X900500Y2890000D01*
G01X900500Y2891999D01*
G01X901984Y2899462D01*
G01X906211Y2905788D01*
G01X912537Y2910015D01*
G01X919999Y2911500D01*
G01X927462Y2910015D01*
G37*
G01X927462Y2910015D02*
G01X933788Y2905788D01*
G01X938015Y2899462D01*
G01X939500Y2892000D01*
G01X939500Y2890000D01*
G01X938015Y2882537D01*
G01X933788Y2876211D01*
G01X927462Y2871984D01*
G01X920000Y2870500D01*
G01X912537Y2871984D01*
G01X906211Y2876211D01*
G01X901984Y2882537D01*
G01X900500Y2890000D01*
G01X900500Y2891999D01*
G01X901984Y2899462D01*
G01X906211Y2905788D01*
G01X912537Y2910015D01*
G01X919999Y2911500D01*
G01X927462Y2910015D01*
G36*
G01X927462Y2908015D02*
G01X933788Y2903788D01*
G01X938015Y2897462D01*
G01X939500Y2890000D01*
G01X939500Y2730000D01*
G01X938015Y2722537D01*
G01X933788Y2716211D01*
G01X927462Y2711984D01*
G01X920000Y2710500D01*
G01X912537Y2711984D01*
G01X906211Y2716211D01*
G01X901984Y2722537D01*
G01X900500Y2730000D01*
G01X900500Y2889999D01*
G01X901984Y2897462D01*
G01X906211Y2903788D01*
G01X912537Y2908015D01*
G01X919999Y2909500D01*
G01X927462Y2908015D01*
G37*
G01X927462Y2908015D02*
G01X933788Y2903788D01*
G01X938015Y2897462D01*
G01X939500Y2890000D01*
G01X939500Y2730000D01*
G01X938015Y2722537D01*
G01X933788Y2716211D01*
G01X927462Y2711984D01*
G01X920000Y2710500D01*
G01X912537Y2711984D01*
G01X906211Y2716211D01*
G01X901984Y2722537D01*
G01X900500Y2730000D01*
G01X900500Y2889999D01*
G01X901984Y2897462D01*
G01X906211Y2903788D01*
G01X912537Y2908015D01*
G01X919999Y2909500D01*
G01X927462Y2908015D01*
G36*
G01X3309462Y320015D02*
G01X3315788Y315788D01*
G01X3320015Y309462D01*
G01X3321500Y301999D01*
G01X3320015Y294537D01*
G01X3315788Y288211D01*
G01X3313788Y286211D01*
G01X3307462Y281984D01*
G01X3300000Y280500D01*
G01X3292537Y281984D01*
G01X3286211Y286211D01*
G01X3281984Y292537D01*
G01X3280500Y299999D01*
G01X3281984Y307462D01*
G01X3286211Y313788D01*
G01X3288211Y315788D01*
G01X3294537Y320015D01*
G01X3301999Y321500D01*
G01X3309462Y320015D01*
G37*
G01X3309462Y320015D02*
G01X3315788Y315788D01*
G01X3320015Y309462D01*
G01X3321500Y301999D01*
G01X3320015Y294537D01*
G01X3315788Y288211D01*
G01X3313788Y286211D01*
G01X3307462Y281984D01*
G01X3300000Y280500D01*
G01X3292537Y281984D01*
G01X3286211Y286211D01*
G01X3281984Y292537D01*
G01X3280500Y299999D01*
G01X3281984Y307462D01*
G01X3286211Y313788D01*
G01X3288211Y315788D01*
G01X3294537Y320015D01*
G01X3301999Y321500D01*
G01X3309462Y320015D01*
G36*
G01X3607462Y618015D02*
G01X3613788Y613788D01*
G01X3618015Y607462D01*
G01X3619500Y599999D01*
G01X3618015Y592537D01*
G01X3613788Y586211D01*
G01X3315788Y288211D01*
G01X3309462Y283984D01*
G01X3302000Y282500D01*
G01X3294537Y283984D01*
G01X3288211Y288211D01*
G01X3283984Y294537D01*
G01X3282500Y301999D01*
G01X3283984Y309462D01*
G01X3288211Y315788D01*
G01X3586211Y613788D01*
G01X3592537Y618015D01*
G01X3599999Y619500D01*
G01X3607462Y618015D01*
G37*
G01X3607462Y618015D02*
G01X3613788Y613788D01*
G01X3618015Y607462D01*
G01X3619500Y599999D01*
G01X3618015Y592537D01*
G01X3613788Y586211D01*
G01X3315788Y288211D01*
G01X3309462Y283984D01*
G01X3302000Y282500D01*
G01X3294537Y283984D01*
G01X3288211Y288211D01*
G01X3283984Y294537D01*
G01X3282500Y301999D01*
G01X3283984Y309462D01*
G01X3288211Y315788D01*
G01X3586211Y613788D01*
G01X3592537Y618015D01*
G01X3599999Y619500D01*
G01X3607462Y618015D01*
G36*
G01X3607462Y1468015D02*
G01X3613788Y1463788D01*
G01X3618015Y1457462D01*
G01X3619500Y1449999D01*
G01X3619500Y600000D01*
G01X3618015Y592537D01*
G01X3613788Y586211D01*
G01X3607462Y581984D01*
G01X3600000Y580500D01*
G01X3592537Y581984D01*
G01X3586211Y586211D01*
G01X3581984Y592537D01*
G01X3580500Y599999D01*
G01X3580500Y1449999D01*
G01X3581984Y1457462D01*
G01X3586211Y1463788D01*
G01X3592537Y1468015D01*
G01X3600000Y1469500D01*
G01X3607462Y1468015D01*
G37*
G01X3607462Y1468015D02*
G01X3613788Y1463788D01*
G01X3618015Y1457462D01*
G01X3619500Y1449999D01*
G01X3619500Y600000D01*
G01X3618015Y592537D01*
G01X3613788Y586211D01*
G01X3607462Y581984D01*
G01X3600000Y580500D01*
G01X3592537Y581984D01*
G01X3586211Y586211D01*
G01X3581984Y592537D01*
G01X3580500Y599999D01*
G01X3580500Y1449999D01*
G01X3581984Y1457462D01*
G01X3586211Y1463788D01*
G01X3592537Y1468015D01*
G01X3600000Y1469500D01*
G01X3607462Y1468015D01*
G36*
G01X3163858Y965137D02*
G01X3170890Y960214D01*
G01X3215890Y913214D01*
G01X3220503Y905975D01*
G01X3221994Y897521D01*
G01X3220137Y889141D01*
G01X3215214Y882109D01*
G01X3207975Y877496D01*
G01X3199521Y876005D01*
G01X3191141Y877862D01*
G01X3184109Y882785D01*
G01X3139109Y929785D01*
G01X3134496Y937024D01*
G01X3133005Y945478D01*
G01X3134862Y953858D01*
G01X3139785Y960890D01*
G01X3147024Y965503D01*
G01X3155478Y966994D01*
G01X3163858Y965137D01*
G37*
G01X3163858Y965137D02*
G01X3170890Y960214D01*
G01X3215890Y913214D01*
G01X3220503Y905975D01*
G01X3221994Y897521D01*
G01X3220137Y889141D01*
G01X3215214Y882109D01*
G01X3207975Y877496D01*
G01X3199521Y876005D01*
G01X3191141Y877862D01*
G01X3184109Y882785D01*
G01X3139109Y929785D01*
G01X3134496Y937024D01*
G01X3133005Y945478D01*
G01X3134862Y953858D01*
G01X3139785Y960890D01*
G01X3147024Y965503D01*
G01X3155478Y966994D01*
G01X3163858Y965137D01*
G36*
G01X3163419Y1220325D02*
G01X3170556Y1215556D01*
G01X3175325Y1208419D01*
G01X3177000Y1199999D01*
G01X3177000Y945000D01*
G01X3175325Y936580D01*
G01X3170556Y929443D01*
G01X3163419Y924674D01*
G01X3155000Y923000D01*
G01X3146580Y924674D01*
G01X3139443Y929443D01*
G01X3134674Y936580D01*
G01X3133000Y944999D01*
G01X3133000Y1199999D01*
G01X3134674Y1208419D01*
G01X3139443Y1215556D01*
G01X3146580Y1220325D01*
G01X3155000Y1222000D01*
G01X3163419Y1220325D01*
G37*
G01X3163419Y1220325D02*
G01X3170556Y1215556D01*
G01X3175325Y1208419D01*
G01X3177000Y1199999D01*
G01X3177000Y945000D01*
G01X3175325Y936580D01*
G01X3170556Y929443D01*
G01X3163419Y924674D01*
G01X3155000Y923000D01*
G01X3146580Y924674D01*
G01X3139443Y929443D01*
G01X3134674Y936580D01*
G01X3133000Y944999D01*
G01X3133000Y1199999D01*
G01X3134674Y1208419D01*
G01X3139443Y1215556D01*
G01X3146580Y1220325D01*
G01X3155000Y1222000D01*
G01X3163419Y1220325D01*
G36*
G01X863202Y4881873D02*
G01X874395Y4874395D01*
G01X881873Y4863202D01*
G01X884500Y4850000D01*
G01X881873Y4836797D01*
G01X874395Y4825604D01*
G01X799395Y4750604D01*
G01X788202Y4743126D01*
G01X775000Y4740500D01*
G01X761797Y4743126D01*
G01X750604Y4750604D01*
G01X743126Y4761797D01*
G01X740500Y4775000D01*
G01X743126Y4788202D01*
G01X750604Y4799395D01*
G01X825604Y4874395D01*
G01X836797Y4881873D01*
G01X849999Y4884500D01*
G01X863202Y4881873D01*
G37*
G01X863202Y4881873D02*
G01X874395Y4874395D01*
G01X881873Y4863202D01*
G01X884500Y4850000D01*
G01X881873Y4836797D01*
G01X874395Y4825604D01*
G01X799395Y4750604D01*
G01X788202Y4743126D01*
G01X775000Y4740500D01*
G01X761797Y4743126D01*
G01X750604Y4750604D01*
G01X743126Y4761797D01*
G01X740500Y4775000D01*
G01X743126Y4788202D01*
G01X750604Y4799395D01*
G01X825604Y4874395D01*
G01X836797Y4881873D01*
G01X849999Y4884500D01*
G01X863202Y4881873D01*
G36*
G01X788202Y4806873D02*
G01X799395Y4799395D01*
G01X806873Y4788202D01*
G01X809500Y4775000D01*
G01X809500Y4412000D01*
G01X806873Y4398797D01*
G01X799395Y4387604D01*
G01X788202Y4380126D01*
G01X775000Y4377500D01*
G01X761797Y4380126D01*
G01X750604Y4387604D01*
G01X743126Y4398797D01*
G01X740500Y4412000D01*
G01X740500Y4774999D01*
G01X743126Y4788202D01*
G01X750604Y4799395D01*
G01X761797Y4806873D01*
G01X774999Y4809500D01*
G01X788202Y4806873D01*
G37*
G01X788202Y4806873D02*
G01X799395Y4799395D01*
G01X806873Y4788202D01*
G01X809500Y4775000D01*
G01X809500Y4412000D01*
G01X806873Y4398797D01*
G01X799395Y4387604D01*
G01X788202Y4380126D01*
G01X775000Y4377500D01*
G01X761797Y4380126D01*
G01X750604Y4387604D01*
G01X743126Y4398797D01*
G01X740500Y4412000D01*
G01X740500Y4774999D01*
G01X743126Y4788202D01*
G01X750604Y4799395D01*
G01X761797Y4806873D01*
G01X774999Y4809500D01*
G01X788202Y4806873D01*
G36*
G01X788202Y4443873D02*
G01X799395Y4436395D01*
G01X888395Y4347395D01*
G01X895873Y4336202D01*
G01X898500Y4323000D01*
G01X895873Y4309797D01*
G01X888395Y4298604D01*
G01X877202Y4291126D01*
G01X863999Y4288500D01*
G01X850797Y4291126D01*
G01X839604Y4298604D01*
G01X750604Y4387604D01*
G01X743126Y4398797D01*
G01X740500Y4411999D01*
G01X743126Y4425202D01*
G01X750604Y4436395D01*
G01X761797Y4443873D01*
G01X774999Y4446500D01*
G01X788202Y4443873D01*
G37*
G01X788202Y4443873D02*
G01X799395Y4436395D01*
G01X888395Y4347395D01*
G01X895873Y4336202D01*
G01X898500Y4323000D01*
G01X895873Y4309797D01*
G01X888395Y4298604D01*
G01X877202Y4291126D01*
G01X863999Y4288500D01*
G01X850797Y4291126D01*
G01X839604Y4298604D01*
G01X750604Y4387604D01*
G01X743126Y4398797D01*
G01X740500Y4411999D01*
G01X743126Y4425202D01*
G01X750604Y4436395D01*
G01X761797Y4443873D01*
G01X774999Y4446500D01*
G01X788202Y4443873D01*
G36*
G01X1123202Y4354873D02*
G01X1134395Y4347395D01*
G01X1141873Y4336202D01*
G01X1144500Y4323000D01*
G01X1141873Y4309797D01*
G01X1134395Y4298604D01*
G01X1123202Y4291126D01*
G01X1109999Y4288500D01*
G01X864000Y4288500D01*
G01X850797Y4291126D01*
G01X839604Y4298604D01*
G01X832126Y4309797D01*
G01X829500Y4322999D01*
G01X832126Y4336202D01*
G01X839604Y4347395D01*
G01X850797Y4354873D01*
G01X863999Y4357500D01*
G01X1109999Y4357500D01*
G01X1123202Y4354873D01*
G37*
G01X1123202Y4354873D02*
G01X1134395Y4347395D01*
G01X1141873Y4336202D01*
G01X1144500Y4323000D01*
G01X1141873Y4309797D01*
G01X1134395Y4298604D01*
G01X1123202Y4291126D01*
G01X1109999Y4288500D01*
G01X864000Y4288500D01*
G01X850797Y4291126D01*
G01X839604Y4298604D01*
G01X832126Y4309797D01*
G01X829500Y4322999D01*
G01X832126Y4336202D01*
G01X839604Y4347395D01*
G01X850797Y4354873D01*
G01X863999Y4357500D01*
G01X1109999Y4357500D01*
G01X1123202Y4354873D01*
G36*
G01X1208202Y4439873D02*
G01X1219395Y4432395D01*
G01X1226873Y4421202D01*
G01X1229500Y4407999D01*
G01X1226873Y4394797D01*
G01X1219395Y4383604D01*
G01X1134395Y4298604D01*
G01X1123202Y4291126D01*
G01X1110000Y4288500D01*
G01X1096797Y4291126D01*
G01X1085604Y4298604D01*
G01X1078126Y4309797D01*
G01X1075500Y4322999D01*
G01X1078126Y4336202D01*
G01X1085604Y4347395D01*
G01X1170604Y4432395D01*
G01X1181797Y4439873D01*
G01X1194999Y4442500D01*
G01X1208202Y4439873D01*
G37*
G01X1208202Y4439873D02*
G01X1219395Y4432395D01*
G01X1226873Y4421202D01*
G01X1229500Y4407999D01*
G01X1226873Y4394797D01*
G01X1219395Y4383604D01*
G01X1134395Y4298604D01*
G01X1123202Y4291126D01*
G01X1110000Y4288500D01*
G01X1096797Y4291126D01*
G01X1085604Y4298604D01*
G01X1078126Y4309797D01*
G01X1075500Y4322999D01*
G01X1078126Y4336202D01*
G01X1085604Y4347395D01*
G01X1170604Y4432395D01*
G01X1181797Y4439873D01*
G01X1194999Y4442500D01*
G01X1208202Y4439873D01*
G36*
G01X1219768Y4452745D02*
G01X1231099Y4445477D01*
G01X1238786Y4434427D01*
G01X1241659Y4421276D01*
G01X1239280Y4408026D01*
G01X1232013Y4396695D01*
G01X1219847Y4384066D01*
G01X1208797Y4376379D01*
G01X1195646Y4373506D01*
G01X1182396Y4375884D01*
G01X1171066Y4383152D01*
G01X1163379Y4394202D01*
G01X1160506Y4407353D01*
G01X1162884Y4420603D01*
G01X1170152Y4431933D01*
G01X1182317Y4444563D01*
G01X1193367Y4452250D01*
G01X1206519Y4455123D01*
G01X1219768Y4452745D01*
G37*
G01X1219768Y4452745D02*
G01X1231099Y4445477D01*
G01X1238786Y4434427D01*
G01X1241659Y4421276D01*
G01X1239280Y4408026D01*
G01X1232013Y4396695D01*
G01X1219847Y4384066D01*
G01X1208797Y4376379D01*
G01X1195646Y4373506D01*
G01X1182396Y4375884D01*
G01X1171066Y4383152D01*
G01X1163379Y4394202D01*
G01X1160506Y4407353D01*
G01X1162884Y4420603D01*
G01X1170152Y4431933D01*
G01X1182317Y4444563D01*
G01X1193367Y4452250D01*
G01X1206519Y4455123D01*
G01X1219768Y4452745D01*
G36*
G01X1297462Y1218015D02*
G01X1303788Y1213788D01*
G01X1503788Y1013788D01*
G01X1508015Y1007462D01*
G01X1509500Y1000000D01*
G01X1508015Y992537D01*
G01X1503788Y986211D01*
G01X1497462Y981984D01*
G01X1489999Y980500D01*
G01X1482537Y981984D01*
G01X1476211Y986211D01*
G01X1276211Y1186211D01*
G01X1271984Y1192537D01*
G01X1270500Y1199999D01*
G01X1271984Y1207462D01*
G01X1276211Y1213788D01*
G01X1282537Y1218015D01*
G01X1289999Y1219500D01*
G01X1297462Y1218015D01*
G37*
G01X1297462Y1218015D02*
G01X1303788Y1213788D01*
G01X1503788Y1013788D01*
G01X1508015Y1007462D01*
G01X1509500Y1000000D01*
G01X1508015Y992537D01*
G01X1503788Y986211D01*
G01X1497462Y981984D01*
G01X1489999Y980500D01*
G01X1482537Y981984D01*
G01X1476211Y986211D01*
G01X1276211Y1186211D01*
G01X1271984Y1192537D01*
G01X1270500Y1199999D01*
G01X1271984Y1207462D01*
G01X1276211Y1213788D01*
G01X1282537Y1218015D01*
G01X1289999Y1219500D01*
G01X1297462Y1218015D01*
G36*
G01X1497462Y1018015D02*
G01X1503788Y1013788D01*
G01X1508015Y1007462D01*
G01X1509500Y1000000D01*
G01X1509500Y710000D01*
G01X1508015Y702537D01*
G01X1503788Y696211D01*
G01X1497462Y691984D01*
G01X1490000Y690500D01*
G01X1482537Y691984D01*
G01X1476211Y696211D01*
G01X1471984Y702537D01*
G01X1470500Y710000D01*
G01X1470500Y999999D01*
G01X1471984Y1007462D01*
G01X1476211Y1013788D01*
G01X1482537Y1018015D01*
G01X1489999Y1019500D01*
G01X1497462Y1018015D01*
G37*
G01X1497462Y1018015D02*
G01X1503788Y1013788D01*
G01X1508015Y1007462D01*
G01X1509500Y1000000D01*
G01X1509500Y710000D01*
G01X1508015Y702537D01*
G01X1503788Y696211D01*
G01X1497462Y691984D01*
G01X1490000Y690500D01*
G01X1482537Y691984D01*
G01X1476211Y696211D01*
G01X1471984Y702537D01*
G01X1470500Y710000D01*
G01X1470500Y999999D01*
G01X1471984Y1007462D01*
G01X1476211Y1013788D01*
G01X1482537Y1018015D01*
G01X1489999Y1019500D01*
G01X1497462Y1018015D01*
G36*
G01X1497462Y728015D02*
G01X1503788Y723788D01*
G01X1903788Y323788D01*
G01X1908015Y317462D01*
G01X1909500Y310000D01*
G01X1908015Y302537D01*
G01X1903788Y296211D01*
G01X1897462Y291984D01*
G01X1889999Y290500D01*
G01X1882537Y291984D01*
G01X1876211Y296211D01*
G01X1476211Y696211D01*
G01X1471984Y702537D01*
G01X1470500Y709999D01*
G01X1471984Y717462D01*
G01X1476211Y723788D01*
G01X1482537Y728015D01*
G01X1489999Y729500D01*
G01X1497462Y728015D01*
G37*
G01X1497462Y728015D02*
G01X1503788Y723788D01*
G01X1903788Y323788D01*
G01X1908015Y317462D01*
G01X1909500Y310000D01*
G01X1908015Y302537D01*
G01X1903788Y296211D01*
G01X1897462Y291984D01*
G01X1889999Y290500D01*
G01X1882537Y291984D01*
G01X1876211Y296211D01*
G01X1476211Y696211D01*
G01X1471984Y702537D01*
G01X1470500Y709999D01*
G01X1471984Y717462D01*
G01X1476211Y723788D01*
G01X1482537Y728015D01*
G01X1489999Y729500D01*
G01X1497462Y728015D01*
G36*
G01X1897462Y328015D02*
G01X1903788Y323788D01*
G01X1913788Y313788D01*
G01X1918015Y307462D01*
G01X1919500Y300000D01*
G01X1918015Y292537D01*
G01X1913788Y286211D01*
G01X1907462Y281984D01*
G01X1899999Y280500D01*
G01X1892537Y281984D01*
G01X1886211Y286211D01*
G01X1876211Y296211D01*
G01X1871984Y302537D01*
G01X1870500Y309999D01*
G01X1871984Y317462D01*
G01X1876211Y323788D01*
G01X1882537Y328015D01*
G01X1889999Y329500D01*
G01X1897462Y328015D01*
G37*
G01X1897462Y328015D02*
G01X1903788Y323788D01*
G01X1913788Y313788D01*
G01X1918015Y307462D01*
G01X1919500Y300000D01*
G01X1918015Y292537D01*
G01X1913788Y286211D01*
G01X1907462Y281984D01*
G01X1899999Y280500D01*
G01X1892537Y281984D01*
G01X1886211Y286211D01*
G01X1876211Y296211D01*
G01X1871984Y302537D01*
G01X1870500Y309999D01*
G01X1871984Y317462D01*
G01X1876211Y323788D01*
G01X1882537Y328015D01*
G01X1889999Y329500D01*
G01X1897462Y328015D01*
G36*
G01X1907462Y318015D02*
G01X1913788Y313788D01*
G01X1918015Y307462D01*
G01X1919500Y300000D01*
G01X1919500Y130000D01*
G01X1918015Y122537D01*
G01X1913788Y116211D01*
G01X1907462Y111984D01*
G01X1900000Y110500D01*
G01X1892537Y111984D01*
G01X1886211Y116211D01*
G01X1881984Y122537D01*
G01X1880500Y130000D01*
G01X1880500Y299999D01*
G01X1881984Y307462D01*
G01X1886211Y313788D01*
G01X1892537Y318015D01*
G01X1899999Y319500D01*
G01X1907462Y318015D01*
G37*
G01X1907462Y318015D02*
G01X1913788Y313788D01*
G01X1918015Y307462D01*
G01X1919500Y300000D01*
G01X1919500Y130000D01*
G01X1918015Y122537D01*
G01X1913788Y116211D01*
G01X1907462Y111984D01*
G01X1900000Y110500D01*
G01X1892537Y111984D01*
G01X1886211Y116211D01*
G01X1881984Y122537D01*
G01X1880500Y130000D01*
G01X1880500Y299999D01*
G01X1881984Y307462D01*
G01X1886211Y313788D01*
G01X1892537Y318015D01*
G01X1899999Y319500D01*
G01X1907462Y318015D01*
G36*
G01X1907462Y148015D02*
G01X1913788Y143788D01*
G01X1918015Y137462D01*
G01X1919500Y130000D01*
G01X1918015Y122537D01*
G01X1913788Y116211D01*
G01X1907462Y111984D01*
G01X1900000Y110500D01*
G01X1795000Y110500D01*
G01X1787537Y111984D01*
G01X1781211Y116211D01*
G01X1776984Y122537D01*
G01X1775500Y130000D01*
G01X1776984Y137462D01*
G01X1781211Y143788D01*
G01X1787537Y148015D01*
G01X1795000Y149500D01*
G01X1899999Y149500D01*
G01X1907462Y148015D01*
G37*
G01X1907462Y148015D02*
G01X1913788Y143788D01*
G01X1918015Y137462D01*
G01X1919500Y130000D01*
G01X1918015Y122537D01*
G01X1913788Y116211D01*
G01X1907462Y111984D01*
G01X1900000Y110500D01*
G01X1795000Y110500D01*
G01X1787537Y111984D01*
G01X1781211Y116211D01*
G01X1776984Y122537D01*
G01X1775500Y130000D01*
G01X1776984Y137462D01*
G01X1781211Y143788D01*
G01X1787537Y148015D01*
G01X1795000Y149500D01*
G01X1899999Y149500D01*
G01X1907462Y148015D01*
G36*
G01X1702462Y248015D02*
G01X1708788Y243788D01*
G01X1808788Y143788D01*
G01X1813015Y137462D01*
G01X1814500Y130000D01*
G01X1813015Y122537D01*
G01X1808788Y116211D01*
G01X1802462Y111984D01*
G01X1795000Y110500D01*
G01X1787537Y111984D01*
G01X1781211Y116211D01*
G01X1681211Y216211D01*
G01X1676984Y222537D01*
G01X1675500Y229999D01*
G01X1676984Y237462D01*
G01X1681211Y243788D01*
G01X1687537Y248015D01*
G01X1695000Y249500D01*
G01X1702462Y248015D01*
G37*
G01X1702462Y248015D02*
G01X1708788Y243788D01*
G01X1808788Y143788D01*
G01X1813015Y137462D01*
G01X1814500Y130000D01*
G01X1813015Y122537D01*
G01X1808788Y116211D01*
G01X1802462Y111984D01*
G01X1795000Y110500D01*
G01X1787537Y111984D01*
G01X1781211Y116211D01*
G01X1681211Y216211D01*
G01X1676984Y222537D01*
G01X1675500Y229999D01*
G01X1676984Y237462D01*
G01X1681211Y243788D01*
G01X1687537Y248015D01*
G01X1695000Y249500D01*
G01X1702462Y248015D01*
G36*
G01X1702462Y248015D02*
G01X1708788Y243788D01*
G01X1713015Y237462D01*
G01X1714500Y230000D01*
G01X1713015Y222537D01*
G01X1708788Y216211D01*
G01X1702462Y211984D01*
G01X1695000Y210500D01*
G01X665000Y210500D01*
G01X657537Y211984D01*
G01X651211Y216211D01*
G01X646984Y222537D01*
G01X645500Y230000D01*
G01X646984Y237462D01*
G01X651211Y243788D01*
G01X657537Y248015D01*
G01X665000Y249500D01*
G01X1694999Y249500D01*
G01X1702462Y248015D01*
G37*
G01X1702462Y248015D02*
G01X1708788Y243788D01*
G01X1713015Y237462D01*
G01X1714500Y230000D01*
G01X1713015Y222537D01*
G01X1708788Y216211D01*
G01X1702462Y211984D01*
G01X1695000Y210500D01*
G01X665000Y210500D01*
G01X657537Y211984D01*
G01X651211Y216211D01*
G01X646984Y222537D01*
G01X645500Y230000D01*
G01X646984Y237462D01*
G01X651211Y243788D01*
G01X657537Y248015D01*
G01X665000Y249500D01*
G01X1694999Y249500D01*
G01X1702462Y248015D01*
G36*
G01X607462Y313015D02*
G01X613788Y308788D01*
G01X678788Y243788D01*
G01X683015Y237462D01*
G01X684500Y230000D01*
G01X683015Y222537D01*
G01X678788Y216211D01*
G01X672462Y211984D01*
G01X665000Y210500D01*
G01X657537Y211984D01*
G01X651211Y216211D01*
G01X586211Y281211D01*
G01X581984Y287537D01*
G01X580500Y294999D01*
G01X581984Y302462D01*
G01X586211Y308788D01*
G01X592537Y313015D01*
G01X600000Y314500D01*
G01X607462Y313015D01*
G37*
G01X607462Y313015D02*
G01X613788Y308788D01*
G01X678788Y243788D01*
G01X683015Y237462D01*
G01X684500Y230000D01*
G01X683015Y222537D01*
G01X678788Y216211D01*
G01X672462Y211984D01*
G01X665000Y210500D01*
G01X657537Y211984D01*
G01X651211Y216211D01*
G01X586211Y281211D01*
G01X581984Y287537D01*
G01X580500Y294999D01*
G01X581984Y302462D01*
G01X586211Y308788D01*
G01X592537Y313015D01*
G01X600000Y314500D01*
G01X607462Y313015D01*
G36*
G01X607462Y318015D02*
G01X613788Y313788D01*
G01X618015Y307462D01*
G01X619500Y299999D01*
G01X619500Y295000D01*
G01X618015Y287537D01*
G01X613788Y281211D01*
G01X607462Y276984D01*
G01X600000Y275500D01*
G01X592537Y276984D01*
G01X586211Y281211D01*
G01X581984Y287537D01*
G01X580500Y294999D01*
G01X580500Y299999D01*
G01X581984Y307462D01*
G01X586211Y313788D01*
G01X592537Y318015D01*
G01X600000Y319500D01*
G01X607462Y318015D01*
G37*
G01X607462Y318015D02*
G01X613788Y313788D01*
G01X618015Y307462D01*
G01X619500Y299999D01*
G01X619500Y295000D01*
G01X618015Y287537D01*
G01X613788Y281211D01*
G01X607462Y276984D01*
G01X600000Y275500D01*
G01X592537Y276984D01*
G01X586211Y281211D01*
G01X581984Y287537D01*
G01X580500Y294999D01*
G01X580500Y299999D01*
G01X581984Y307462D01*
G01X586211Y313788D01*
G01X592537Y318015D01*
G01X600000Y319500D01*
G01X607462Y318015D01*
G54D14*
G01X1900000Y130000D03*
G36*
G01X1907462Y318015D02*
G01X1913788Y313788D01*
G01X1918015Y307462D01*
G01X1919500Y299999D01*
G01X1919500Y130000D01*
G01X1918015Y122537D01*
G01X1913788Y116211D01*
G01X1907462Y111984D01*
G01X1900000Y110500D01*
G01X1892537Y111984D01*
G01X1886211Y116211D01*
G01X1881984Y122537D01*
G01X1880500Y129999D01*
G01X1880500Y299999D01*
G01X1881984Y307462D01*
G01X1886211Y313788D01*
G01X1892537Y318015D01*
G01X1900000Y319500D01*
G01X1907462Y318015D01*
G37*
G54D25*
G01X1907462Y318015D02*
G01X1913788Y313788D01*
G01X1918015Y307462D01*
G01X1919500Y299999D01*
G01X1919500Y130000D01*
G01X1918015Y122537D01*
G01X1913788Y116211D01*
G01X1907462Y111984D01*
G01X1900000Y110500D01*
G01X1892537Y111984D01*
G01X1886211Y116211D01*
G01X1881984Y122537D01*
G01X1880500Y129999D01*
G01X1880500Y299999D01*
G01X1881984Y307462D01*
G01X1886211Y313788D01*
G01X1892537Y318015D01*
G01X1900000Y319500D01*
G01X1907462Y318015D01*
G36*
G01X3354419Y965325D02*
G01X3361556Y960556D01*
G01X3366325Y953419D01*
G01X3368000Y944999D01*
G01X3366325Y936580D01*
G01X3361556Y929443D01*
G01X3314556Y882443D01*
G01X3307419Y877674D01*
G01X3299000Y876000D01*
G01X3290580Y877674D01*
G01X3283443Y882443D01*
G01X3278674Y889580D01*
G01X3277000Y897999D01*
G01X3278674Y906419D01*
G01X3283443Y913556D01*
G01X3330443Y960556D01*
G01X3337580Y965325D01*
G01X3345999Y967000D01*
G01X3354419Y965325D01*
G37*
G01X3354419Y965325D02*
G01X3361556Y960556D01*
G01X3366325Y953419D01*
G01X3368000Y944999D01*
G01X3366325Y936580D01*
G01X3361556Y929443D01*
G01X3314556Y882443D01*
G01X3307419Y877674D01*
G01X3299000Y876000D01*
G01X3290580Y877674D01*
G01X3283443Y882443D01*
G01X3278674Y889580D01*
G01X3277000Y897999D01*
G01X3278674Y906419D01*
G01X3283443Y913556D01*
G01X3330443Y960556D01*
G01X3337580Y965325D01*
G01X3345999Y967000D01*
G01X3354419Y965325D01*
G36*
G01X3354419Y1300325D02*
G01X3361556Y1295556D01*
G01X3366325Y1288419D01*
G01X3368000Y1279999D01*
G01X3368000Y945000D01*
G01X3366325Y936580D01*
G01X3361556Y929443D01*
G01X3354419Y924674D01*
G01X3346000Y923000D01*
G01X3337580Y924674D01*
G01X3330443Y929443D01*
G01X3325674Y936580D01*
G01X3324000Y944999D01*
G01X3324000Y1279999D01*
G01X3325674Y1288419D01*
G01X3330443Y1295556D01*
G01X3337580Y1300325D01*
G01X3346000Y1302000D01*
G01X3354419Y1300325D01*
G37*
G01X3354419Y1300325D02*
G01X3361556Y1295556D01*
G01X3366325Y1288419D01*
G01X3368000Y1279999D01*
G01X3368000Y945000D01*
G01X3366325Y936580D01*
G01X3361556Y929443D01*
G01X3354419Y924674D01*
G01X3346000Y923000D01*
G01X3337580Y924674D01*
G01X3330443Y929443D01*
G01X3325674Y936580D01*
G01X3324000Y944999D01*
G01X3324000Y1279999D01*
G01X3325674Y1288419D01*
G01X3330443Y1295556D01*
G01X3337580Y1300325D01*
G01X3346000Y1302000D01*
G01X3354419Y1300325D01*
G36*
G01X3351354Y1311062D02*
G01X3358931Y1307027D01*
G01X3364386Y1300399D01*
G01X3366890Y1292189D01*
G01X3367890Y1282189D01*
G01X3367062Y1273645D01*
G01X3363027Y1266068D01*
G01X3356399Y1260613D01*
G01X3348189Y1258109D01*
G01X3339645Y1258937D01*
G01X3332068Y1262972D01*
G01X3326613Y1269600D01*
G01X3324109Y1277810D01*
G01X3323109Y1287810D01*
G01X3323937Y1296354D01*
G01X3327972Y1303931D01*
G01X3334600Y1309386D01*
G01X3342810Y1311890D01*
G01X3351354Y1311062D01*
G37*
G01X3351354Y1311062D02*
G01X3358931Y1307027D01*
G01X3364386Y1300399D01*
G01X3366890Y1292189D01*
G01X3367890Y1282189D01*
G01X3367062Y1273645D01*
G01X3363027Y1266068D01*
G01X3356399Y1260613D01*
G01X3348189Y1258109D01*
G01X3339645Y1258937D01*
G01X3332068Y1262972D01*
G01X3326613Y1269600D01*
G01X3324109Y1277810D01*
G01X3323109Y1287810D01*
G01X3323937Y1296354D01*
G01X3327972Y1303931D01*
G01X3334600Y1309386D01*
G01X3342810Y1311890D01*
G01X3351354Y1311062D01*
G36*
G01X713202Y4881873D02*
G01X724395Y4874395D01*
G01X731873Y4863202D01*
G01X734500Y4850000D01*
G01X731873Y4836797D01*
G01X724395Y4825604D01*
G01X723395Y4824604D01*
G01X712202Y4817126D01*
G01X699000Y4814500D01*
G01X685797Y4817126D01*
G01X674604Y4824604D01*
G01X667126Y4835797D01*
G01X664500Y4849000D01*
G01X667126Y4862202D01*
G01X674604Y4873395D01*
G01X675604Y4874395D01*
G01X686797Y4881873D01*
G01X699999Y4884500D01*
G01X713202Y4881873D01*
G37*
G01X713202Y4881873D02*
G01X724395Y4874395D01*
G01X731873Y4863202D01*
G01X734500Y4850000D01*
G01X731873Y4836797D01*
G01X724395Y4825604D01*
G01X723395Y4824604D01*
G01X712202Y4817126D01*
G01X699000Y4814500D01*
G01X685797Y4817126D01*
G01X674604Y4824604D01*
G01X667126Y4835797D01*
G01X664500Y4849000D01*
G01X667126Y4862202D01*
G01X674604Y4873395D01*
G01X675604Y4874395D01*
G01X686797Y4881873D01*
G01X699999Y4884500D01*
G01X713202Y4881873D01*
G36*
G01X712202Y4880873D02*
G01X723395Y4873395D01*
G01X730873Y4862202D01*
G01X733500Y4849000D01*
G01X730873Y4835797D01*
G01X723395Y4824604D01*
G01X552395Y4653604D01*
G01X541202Y4646126D01*
G01X528000Y4643500D01*
G01X514797Y4646126D01*
G01X503604Y4653604D01*
G01X496126Y4664797D01*
G01X493500Y4678000D01*
G01X496126Y4691202D01*
G01X503604Y4702395D01*
G01X674604Y4873395D01*
G01X685797Y4880873D01*
G01X698999Y4883500D01*
G01X712202Y4880873D01*
G37*
G01X712202Y4880873D02*
G01X723395Y4873395D01*
G01X730873Y4862202D01*
G01X733500Y4849000D01*
G01X730873Y4835797D01*
G01X723395Y4824604D01*
G01X552395Y4653604D01*
G01X541202Y4646126D01*
G01X528000Y4643500D01*
G01X514797Y4646126D01*
G01X503604Y4653604D01*
G01X496126Y4664797D01*
G01X493500Y4678000D01*
G01X496126Y4691202D01*
G01X503604Y4702395D01*
G01X674604Y4873395D01*
G01X685797Y4880873D01*
G01X698999Y4883500D01*
G01X712202Y4880873D01*
G36*
G01X528041Y4712499D02*
G01X541240Y4709857D01*
G01X552424Y4702365D01*
G01X559889Y4691164D01*
G01X562499Y4677958D01*
G01X559857Y4664759D01*
G01X552365Y4653575D01*
G01X541164Y4646110D01*
G01X527958Y4643500D01*
G01X172478Y4643925D01*
G01X159278Y4646567D01*
G01X148095Y4654059D01*
G01X140630Y4665260D01*
G01X138019Y4678466D01*
G01X140661Y4691665D01*
G01X148153Y4702849D01*
G01X159355Y4710314D01*
G01X172560Y4712925D01*
G01X528041Y4712499D01*
G37*
G01X528041Y4712499D02*
G01X541240Y4709857D01*
G01X552424Y4702365D01*
G01X559889Y4691164D01*
G01X562499Y4677958D01*
G01X559857Y4664759D01*
G01X552365Y4653575D01*
G01X541164Y4646110D01*
G01X527958Y4643500D01*
G01X172478Y4643925D01*
G01X159278Y4646567D01*
G01X148095Y4654059D01*
G01X140630Y4665260D01*
G01X138019Y4678466D01*
G01X140661Y4691665D01*
G01X148153Y4702849D01*
G01X159355Y4710314D01*
G01X172560Y4712925D01*
G01X528041Y4712499D01*
G54D14*
G01X2100000Y60000D03*
G36*
G01X2107462Y318015D02*
G01X2113788Y313788D01*
G01X2118015Y307462D01*
G01X2119500Y299999D01*
G01X2119500Y60000D01*
G01X2118015Y52537D01*
G01X2113788Y46211D01*
G01X2107462Y41984D01*
G01X2100000Y40500D01*
G01X2092537Y41984D01*
G01X2086211Y46211D01*
G01X2081984Y52537D01*
G01X2080500Y59999D01*
G01X2080500Y299999D01*
G01X2081984Y307462D01*
G01X2086211Y313788D01*
G01X2092537Y318015D01*
G01X2100000Y319500D01*
G01X2107462Y318015D01*
G37*
G54D25*
G01X2107462Y318015D02*
G01X2113788Y313788D01*
G01X2118015Y307462D01*
G01X2119500Y299999D01*
G01X2119500Y60000D01*
G01X2118015Y52537D01*
G01X2113788Y46211D01*
G01X2107462Y41984D01*
G01X2100000Y40500D01*
G01X2092537Y41984D01*
G01X2086211Y46211D01*
G01X2081984Y52537D01*
G01X2080500Y59999D01*
G01X2080500Y299999D01*
G01X2081984Y307462D01*
G01X2086211Y313788D01*
G01X2092537Y318015D01*
G01X2100000Y319500D01*
G01X2107462Y318015D01*
G36*
G01X2407462Y1468015D02*
G01X2413788Y1463788D01*
G01X2418015Y1457462D01*
G01X2419500Y1450000D01*
G01X2419500Y601000D01*
G01X2418015Y593537D01*
G01X2413788Y587211D01*
G01X2407462Y582984D01*
G01X2400000Y581500D01*
G01X2392537Y582984D01*
G01X2386211Y587211D01*
G01X2381984Y593537D01*
G01X2380500Y601000D01*
G01X2380500Y1449999D01*
G01X2381984Y1457462D01*
G01X2386211Y1463788D01*
G01X2392537Y1468015D01*
G01X2399999Y1469500D01*
G01X2407462Y1468015D01*
G37*
G01X2407462Y1468015D02*
G01X2413788Y1463788D01*
G01X2418015Y1457462D01*
G01X2419500Y1450000D01*
G01X2419500Y601000D01*
G01X2418015Y593537D01*
G01X2413788Y587211D01*
G01X2407462Y582984D01*
G01X2400000Y581500D01*
G01X2392537Y582984D01*
G01X2386211Y587211D01*
G01X2381984Y593537D01*
G01X2380500Y601000D01*
G01X2380500Y1449999D01*
G01X2381984Y1457462D01*
G01X2386211Y1463788D01*
G01X2392537Y1468015D01*
G01X2399999Y1469500D01*
G01X2407462Y1468015D01*
G36*
G01X2407462Y619015D02*
G01X2413788Y614788D01*
G01X2418015Y608462D01*
G01X2419500Y601000D01*
G01X2418015Y593537D01*
G01X2413788Y587211D01*
G01X2113788Y287211D01*
G01X2107462Y282984D01*
G01X2100000Y281500D01*
G01X2092537Y282984D01*
G01X2086211Y287211D01*
G01X2081984Y293537D01*
G01X2080500Y301000D01*
G01X2081984Y308462D01*
G01X2086211Y314788D01*
G01X2386211Y614788D01*
G01X2392537Y619015D01*
G01X2399999Y620500D01*
G01X2407462Y619015D01*
G37*
G01X2407462Y619015D02*
G01X2413788Y614788D01*
G01X2418015Y608462D01*
G01X2419500Y601000D01*
G01X2418015Y593537D01*
G01X2413788Y587211D01*
G01X2113788Y287211D01*
G01X2107462Y282984D01*
G01X2100000Y281500D01*
G01X2092537Y282984D01*
G01X2086211Y287211D01*
G01X2081984Y293537D01*
G01X2080500Y301000D01*
G01X2081984Y308462D01*
G01X2086211Y314788D01*
G01X2386211Y614788D01*
G01X2392537Y619015D01*
G01X2399999Y620500D01*
G01X2407462Y619015D01*
G36*
G01X2107462Y319015D02*
G01X2113788Y314788D01*
G01X2118015Y308462D01*
G01X2119500Y301000D01*
G01X2119500Y300000D01*
G01X2118015Y292537D01*
G01X2113788Y286211D01*
G01X2107462Y281984D01*
G01X2100000Y280500D01*
G01X2092537Y281984D01*
G01X2086211Y286211D01*
G01X2081984Y292537D01*
G01X2080500Y300000D01*
G01X2080500Y300999D01*
G01X2081984Y308462D01*
G01X2086211Y314788D01*
G01X2092537Y319015D01*
G01X2099999Y320500D01*
G01X2107462Y319015D01*
G37*
G01X2107462Y319015D02*
G01X2113788Y314788D01*
G01X2118015Y308462D01*
G01X2119500Y301000D01*
G01X2119500Y300000D01*
G01X2118015Y292537D01*
G01X2113788Y286211D01*
G01X2107462Y281984D01*
G01X2100000Y280500D01*
G01X2092537Y281984D01*
G01X2086211Y286211D01*
G01X2081984Y292537D01*
G01X2080500Y300000D01*
G01X2080500Y300999D01*
G01X2081984Y308462D01*
G01X2086211Y314788D01*
G01X2092537Y319015D01*
G01X2099999Y320500D01*
G01X2107462Y319015D01*
G54D14*
G01X2100000Y60000D03*
G36*
G01X2107462Y318015D02*
G01X2113788Y313788D01*
G01X2118015Y307462D01*
G01X2119500Y300000D01*
G01X2119500Y60000D01*
G01X2118015Y52537D01*
G01X2113788Y46211D01*
G01X2107462Y41984D01*
G01X2100000Y40500D01*
G01X2092537Y41984D01*
G01X2086211Y46211D01*
G01X2081984Y52537D01*
G01X2080500Y60000D01*
G01X2080500Y299999D01*
G01X2081984Y307462D01*
G01X2086211Y313788D01*
G01X2092537Y318015D01*
G01X2099999Y319500D01*
G01X2107462Y318015D01*
G37*
G54D25*
G01X2107462Y318015D02*
G01X2113788Y313788D01*
G01X2118015Y307462D01*
G01X2119500Y300000D01*
G01X2119500Y60000D01*
G01X2118015Y52537D01*
G01X2113788Y46211D01*
G01X2107462Y41984D01*
G01X2100000Y40500D01*
G01X2092537Y41984D01*
G01X2086211Y46211D01*
G01X2081984Y52537D01*
G01X2080500Y60000D01*
G01X2080500Y299999D01*
G01X2081984Y307462D01*
G01X2086211Y313788D01*
G01X2092537Y318015D01*
G01X2099999Y319500D01*
G01X2107462Y318015D01*
G36*
G01X1307462Y738015D02*
G01X1313788Y733788D01*
G01X1318015Y727462D01*
G01X1319500Y719999D01*
G01X1319500Y420000D01*
G01X1318015Y412537D01*
G01X1313788Y406211D01*
G01X1307462Y401984D01*
G01X1300000Y400500D01*
G01X1292537Y401984D01*
G01X1286211Y406211D01*
G01X1281984Y412537D01*
G01X1280500Y419999D01*
G01X1280500Y719999D01*
G01X1281984Y727462D01*
G01X1286211Y733788D01*
G01X1292537Y738015D01*
G01X1300000Y739500D01*
G01X1307462Y738015D01*
G37*
G01X1307462Y738015D02*
G01X1313788Y733788D01*
G01X1318015Y727462D01*
G01X1319500Y719999D01*
G01X1319500Y420000D01*
G01X1318015Y412537D01*
G01X1313788Y406211D01*
G01X1307462Y401984D01*
G01X1300000Y400500D01*
G01X1292537Y401984D01*
G01X1286211Y406211D01*
G01X1281984Y412537D01*
G01X1280500Y419999D01*
G01X1280500Y719999D01*
G01X1281984Y727462D01*
G01X1286211Y733788D01*
G01X1292537Y738015D01*
G01X1300000Y739500D01*
G01X1307462Y738015D01*
G36*
G01X2607462Y444015D02*
G01X2613788Y439788D01*
G01X2618015Y433462D01*
G01X2619500Y425999D01*
G01X2619500Y420000D01*
G01X2618015Y412537D01*
G01X2613788Y406211D01*
G01X2607462Y401984D01*
G01X2600000Y400500D01*
G01X2592537Y401984D01*
G01X2586211Y406211D01*
G01X2581984Y412537D01*
G01X2580500Y419999D01*
G01X2580500Y425999D01*
G01X2581984Y433462D01*
G01X2586211Y439788D01*
G01X2592537Y444015D01*
G01X2600000Y445500D01*
G01X2607462Y444015D01*
G37*
G01X2607462Y444015D02*
G01X2613788Y439788D01*
G01X2618015Y433462D01*
G01X2619500Y425999D01*
G01X2619500Y420000D01*
G01X2618015Y412537D01*
G01X2613788Y406211D01*
G01X2607462Y401984D01*
G01X2600000Y400500D01*
G01X2592537Y401984D01*
G01X2586211Y406211D01*
G01X2581984Y412537D01*
G01X2580500Y419999D01*
G01X2580500Y425999D01*
G01X2581984Y433462D01*
G01X2586211Y439788D01*
G01X2592537Y444015D01*
G01X2600000Y445500D01*
G01X2607462Y444015D01*
G36*
G01X2607462Y738015D02*
G01X2613788Y733788D01*
G01X2618015Y727462D01*
G01X2619500Y719999D01*
G01X2619500Y426000D01*
G01X2618015Y418537D01*
G01X2613788Y412211D01*
G01X2607462Y407984D01*
G01X2600000Y406500D01*
G01X2592537Y407984D01*
G01X2586211Y412211D01*
G01X2581984Y418537D01*
G01X2580500Y425999D01*
G01X2580500Y719999D01*
G01X2581984Y727462D01*
G01X2586211Y733788D01*
G01X2592537Y738015D01*
G01X2600000Y739500D01*
G01X2607462Y738015D01*
G37*
G01X2607462Y738015D02*
G01X2613788Y733788D01*
G01X2618015Y727462D01*
G01X2619500Y719999D01*
G01X2619500Y426000D01*
G01X2618015Y418537D01*
G01X2613788Y412211D01*
G01X2607462Y407984D01*
G01X2600000Y406500D01*
G01X2592537Y407984D01*
G01X2586211Y412211D01*
G01X2581984Y418537D01*
G01X2580500Y425999D01*
G01X2580500Y719999D01*
G01X2581984Y727462D01*
G01X2586211Y733788D01*
G01X2592537Y738015D01*
G01X2600000Y739500D01*
G01X2607462Y738015D01*
G36*
G01X2612419Y744325D02*
G01X2619556Y739556D01*
G01X2624325Y732419D01*
G01X2626000Y723999D01*
G01X2624325Y715580D01*
G01X2619556Y708443D01*
G01X2615556Y704443D01*
G01X2608419Y699674D01*
G01X2600000Y698000D01*
G01X2591580Y699674D01*
G01X2584443Y704443D01*
G01X2579674Y711580D01*
G01X2578000Y719999D01*
G01X2579674Y728419D01*
G01X2584443Y735556D01*
G01X2588443Y739556D01*
G01X2595580Y744325D01*
G01X2603999Y746000D01*
G01X2612419Y744325D01*
G37*
G01X2612419Y744325D02*
G01X2619556Y739556D01*
G01X2624325Y732419D01*
G01X2626000Y723999D01*
G01X2624325Y715580D01*
G01X2619556Y708443D01*
G01X2615556Y704443D01*
G01X2608419Y699674D01*
G01X2600000Y698000D01*
G01X2591580Y699674D01*
G01X2584443Y704443D01*
G01X2579674Y711580D01*
G01X2578000Y719999D01*
G01X2579674Y728419D01*
G01X2584443Y735556D01*
G01X2588443Y739556D01*
G01X2595580Y744325D01*
G01X2603999Y746000D01*
G01X2612419Y744325D01*
G36*
G01X2713419Y845325D02*
G01X2720556Y840556D01*
G01X2725325Y833419D01*
G01X2727000Y824999D01*
G01X2725325Y816580D01*
G01X2720556Y809443D01*
G01X2619556Y708443D01*
G01X2612419Y703674D01*
G01X2604000Y702000D01*
G01X2595580Y703674D01*
G01X2588443Y708443D01*
G01X2583674Y715580D01*
G01X2582000Y723999D01*
G01X2583674Y732419D01*
G01X2588443Y739556D01*
G01X2689443Y840556D01*
G01X2696580Y845325D01*
G01X2704999Y847000D01*
G01X2713419Y845325D01*
G37*
G01X2713419Y845325D02*
G01X2720556Y840556D01*
G01X2725325Y833419D01*
G01X2727000Y824999D01*
G01X2725325Y816580D01*
G01X2720556Y809443D01*
G01X2619556Y708443D01*
G01X2612419Y703674D01*
G01X2604000Y702000D01*
G01X2595580Y703674D01*
G01X2588443Y708443D01*
G01X2583674Y715580D01*
G01X2582000Y723999D01*
G01X2583674Y732419D01*
G01X2588443Y739556D01*
G01X2689443Y840556D01*
G01X2696580Y845325D01*
G01X2704999Y847000D01*
G01X2713419Y845325D01*
G36*
G01X2713419Y1220325D02*
G01X2720556Y1215556D01*
G01X2725325Y1208419D01*
G01X2727000Y1199999D01*
G01X2727000Y825000D01*
G01X2725325Y816580D01*
G01X2720556Y809443D01*
G01X2713419Y804674D01*
G01X2705000Y803000D01*
G01X2696580Y804674D01*
G01X2689443Y809443D01*
G01X2684674Y816580D01*
G01X2683000Y824999D01*
G01X2683000Y1199999D01*
G01X2684674Y1208419D01*
G01X2689443Y1215556D01*
G01X2696580Y1220325D01*
G01X2705000Y1222000D01*
G01X2713419Y1220325D01*
G37*
G01X2713419Y1220325D02*
G01X2720556Y1215556D01*
G01X2725325Y1208419D01*
G01X2727000Y1199999D01*
G01X2727000Y825000D01*
G01X2725325Y816580D01*
G01X2720556Y809443D01*
G01X2713419Y804674D01*
G01X2705000Y803000D01*
G01X2696580Y804674D01*
G01X2689443Y809443D01*
G01X2684674Y816580D01*
G01X2683000Y824999D01*
G01X2683000Y1199999D01*
G01X2684674Y1208419D01*
G01X2689443Y1215556D01*
G01X2696580Y1220325D01*
G01X2705000Y1222000D01*
G01X2713419Y1220325D01*
G36*
G01X412462Y2533015D02*
G01X418788Y2528788D01*
G01X423015Y2522462D01*
G01X424500Y2514999D01*
G01X423015Y2507537D01*
G01X418788Y2501211D01*
G01X413788Y2496211D01*
G01X407462Y2491984D01*
G01X400000Y2490500D01*
G01X392537Y2491984D01*
G01X386211Y2496211D01*
G01X381984Y2502537D01*
G01X380500Y2509999D01*
G01X381984Y2517462D01*
G01X386211Y2523788D01*
G01X391211Y2528788D01*
G01X397537Y2533015D01*
G01X404999Y2534500D01*
G01X412462Y2533015D01*
G37*
G01X412462Y2533015D02*
G01X418788Y2528788D01*
G01X423015Y2522462D01*
G01X424500Y2514999D01*
G01X423015Y2507537D01*
G01X418788Y2501211D01*
G01X413788Y2496211D01*
G01X407462Y2491984D01*
G01X400000Y2490500D01*
G01X392537Y2491984D01*
G01X386211Y2496211D01*
G01X381984Y2502537D01*
G01X380500Y2509999D01*
G01X381984Y2517462D01*
G01X386211Y2523788D01*
G01X391211Y2528788D01*
G01X397537Y2533015D01*
G01X404999Y2534500D01*
G01X412462Y2533015D01*
G36*
G01X647462Y2768015D02*
G01X653788Y2763788D01*
G01X658015Y2757462D01*
G01X659500Y2749999D01*
G01X658015Y2742537D01*
G01X653788Y2736211D01*
G01X418788Y2501211D01*
G01X412462Y2496984D01*
G01X405000Y2495500D01*
G01X397537Y2496984D01*
G01X391211Y2501211D01*
G01X386984Y2507537D01*
G01X385500Y2514999D01*
G01X386984Y2522462D01*
G01X391211Y2528788D01*
G01X626211Y2763788D01*
G01X632537Y2768015D01*
G01X639999Y2769500D01*
G01X647462Y2768015D01*
G37*
G01X647462Y2768015D02*
G01X653788Y2763788D01*
G01X658015Y2757462D01*
G01X659500Y2749999D01*
G01X658015Y2742537D01*
G01X653788Y2736211D01*
G01X418788Y2501211D01*
G01X412462Y2496984D01*
G01X405000Y2495500D01*
G01X397537Y2496984D01*
G01X391211Y2501211D01*
G01X386984Y2507537D01*
G01X385500Y2514999D01*
G01X386984Y2522462D01*
G01X391211Y2528788D01*
G01X626211Y2763788D01*
G01X632537Y2768015D01*
G01X639999Y2769500D01*
G01X647462Y2768015D01*
G36*
G01X647462Y3088015D02*
G01X653788Y3083788D01*
G01X658015Y3077462D01*
G01X659500Y3069999D01*
G01X659500Y2750000D01*
G01X658015Y2742537D01*
G01X653788Y2736211D01*
G01X647462Y2731984D01*
G01X640000Y2730500D01*
G01X632537Y2731984D01*
G01X626211Y2736211D01*
G01X621984Y2742537D01*
G01X620500Y2749999D01*
G01X620500Y3069999D01*
G01X621984Y3077462D01*
G01X626211Y3083788D01*
G01X632537Y3088015D01*
G01X640000Y3089500D01*
G01X647462Y3088015D01*
G37*
G01X647462Y3088015D02*
G01X653788Y3083788D01*
G01X658015Y3077462D01*
G01X659500Y3069999D01*
G01X659500Y2750000D01*
G01X658015Y2742537D01*
G01X653788Y2736211D01*
G01X647462Y2731984D01*
G01X640000Y2730500D01*
G01X632537Y2731984D01*
G01X626211Y2736211D01*
G01X621984Y2742537D01*
G01X620500Y2749999D01*
G01X620500Y3069999D01*
G01X621984Y3077462D01*
G01X626211Y3083788D01*
G01X632537Y3088015D01*
G01X640000Y3089500D01*
G01X647462Y3088015D01*
G36*
G01X457462Y1358015D02*
G01X463788Y1353788D01*
G01X513788Y1303788D01*
G01X518015Y1297462D01*
G01X519500Y1290000D01*
G01X518015Y1282537D01*
G01X513788Y1276211D01*
G01X507462Y1271984D01*
G01X500000Y1270500D01*
G01X492537Y1271984D01*
G01X486211Y1276211D01*
G01X436211Y1326211D01*
G01X431984Y1332537D01*
G01X430500Y1339999D01*
G01X431984Y1347462D01*
G01X436211Y1353788D01*
G01X442537Y1358015D01*
G01X450000Y1359500D01*
G01X457462Y1358015D01*
G37*
G01X457462Y1358015D02*
G01X463788Y1353788D01*
G01X513788Y1303788D01*
G01X518015Y1297462D01*
G01X519500Y1290000D01*
G01X518015Y1282537D01*
G01X513788Y1276211D01*
G01X507462Y1271984D01*
G01X500000Y1270500D01*
G01X492537Y1271984D01*
G01X486211Y1276211D01*
G01X436211Y1326211D01*
G01X431984Y1332537D01*
G01X430500Y1339999D01*
G01X431984Y1347462D01*
G01X436211Y1353788D01*
G01X442537Y1358015D01*
G01X450000Y1359500D01*
G01X457462Y1358015D01*
G36*
G01X457462Y1358015D02*
G01X463788Y1353788D01*
G01X468015Y1347462D01*
G01X469500Y1340000D01*
G01X468015Y1332537D01*
G01X463788Y1326211D01*
G01X457462Y1321984D01*
G01X450000Y1320500D01*
G01X266000Y1320500D01*
G01X258537Y1321984D01*
G01X252211Y1326211D01*
G01X247984Y1332537D01*
G01X246500Y1340000D01*
G01X247984Y1347462D01*
G01X252211Y1353788D01*
G01X258537Y1358015D01*
G01X266000Y1359500D01*
G01X449999Y1359500D01*
G01X457462Y1358015D01*
G37*
G01X457462Y1358015D02*
G01X463788Y1353788D01*
G01X468015Y1347462D01*
G01X469500Y1340000D01*
G01X468015Y1332537D01*
G01X463788Y1326211D01*
G01X457462Y1321984D01*
G01X450000Y1320500D01*
G01X266000Y1320500D01*
G01X258537Y1321984D01*
G01X252211Y1326211D01*
G01X247984Y1332537D01*
G01X246500Y1340000D01*
G01X247984Y1347462D01*
G01X252211Y1353788D01*
G01X258537Y1358015D01*
G01X266000Y1359500D01*
G01X449999Y1359500D01*
G01X457462Y1358015D01*
G36*
G01X273462Y1358015D02*
G01X279788Y1353788D01*
G01X284015Y1347462D01*
G01X285500Y1340000D01*
G01X284015Y1332537D01*
G01X279788Y1326211D01*
G01X273462Y1321984D01*
G01X266000Y1320500D01*
G01X262000Y1320500D01*
G01X254537Y1321984D01*
G01X248211Y1326211D01*
G01X243984Y1332537D01*
G01X242500Y1340000D01*
G01X243984Y1347462D01*
G01X248211Y1353788D01*
G01X254537Y1358015D01*
G01X262000Y1359500D01*
G01X265999Y1359500D01*
G01X273462Y1358015D01*
G37*
G01X273462Y1358015D02*
G01X279788Y1353788D01*
G01X284015Y1347462D01*
G01X285500Y1340000D01*
G01X284015Y1332537D01*
G01X279788Y1326211D01*
G01X273462Y1321984D01*
G01X266000Y1320500D01*
G01X262000Y1320500D01*
G01X254537Y1321984D01*
G01X248211Y1326211D01*
G01X243984Y1332537D01*
G01X242500Y1340000D01*
G01X243984Y1347462D01*
G01X248211Y1353788D01*
G01X254537Y1358015D01*
G01X262000Y1359500D01*
G01X265999Y1359500D01*
G01X273462Y1358015D01*
G36*
G01X221462Y1406015D02*
G01X227788Y1401788D01*
G01X275788Y1353788D01*
G01X280015Y1347462D01*
G01X281500Y1340000D01*
G01X280015Y1332537D01*
G01X275788Y1326211D01*
G01X269462Y1321984D01*
G01X262000Y1320500D01*
G01X254537Y1321984D01*
G01X248211Y1326211D01*
G01X200211Y1374211D01*
G01X195984Y1380537D01*
G01X194500Y1387999D01*
G01X195984Y1395462D01*
G01X200211Y1401788D01*
G01X206537Y1406015D01*
G01X214000Y1407500D01*
G01X221462Y1406015D01*
G37*
G01X221462Y1406015D02*
G01X227788Y1401788D01*
G01X275788Y1353788D01*
G01X280015Y1347462D01*
G01X281500Y1340000D01*
G01X280015Y1332537D01*
G01X275788Y1326211D01*
G01X269462Y1321984D01*
G01X262000Y1320500D01*
G01X254537Y1321984D01*
G01X248211Y1326211D01*
G01X200211Y1374211D01*
G01X195984Y1380537D01*
G01X194500Y1387999D01*
G01X195984Y1395462D01*
G01X200211Y1401788D01*
G01X206537Y1406015D01*
G01X214000Y1407500D01*
G01X221462Y1406015D01*
G36*
G01X221462Y1632015D02*
G01X227788Y1627788D01*
G01X232015Y1621462D01*
G01X233500Y1613999D01*
G01X233500Y1388000D01*
G01X232015Y1380537D01*
G01X227788Y1374211D01*
G01X221462Y1369984D01*
G01X214000Y1368500D01*
G01X206537Y1369984D01*
G01X200211Y1374211D01*
G01X195984Y1380537D01*
G01X194500Y1387999D01*
G01X194500Y1613999D01*
G01X195984Y1621462D01*
G01X200211Y1627788D01*
G01X206537Y1632015D01*
G01X214000Y1633500D01*
G01X221462Y1632015D01*
G37*
G01X221462Y1632015D02*
G01X227788Y1627788D01*
G01X232015Y1621462D01*
G01X233500Y1613999D01*
G01X233500Y1388000D01*
G01X232015Y1380537D01*
G01X227788Y1374211D01*
G01X221462Y1369984D01*
G01X214000Y1368500D01*
G01X206537Y1369984D01*
G01X200211Y1374211D01*
G01X195984Y1380537D01*
G01X194500Y1387999D01*
G01X194500Y1613999D01*
G01X195984Y1621462D01*
G01X200211Y1627788D01*
G01X206537Y1632015D01*
G01X214000Y1633500D01*
G01X221462Y1632015D01*
G36*
G01X307462Y1718015D02*
G01X313788Y1713788D01*
G01X318015Y1707462D01*
G01X319500Y1699999D01*
G01X318015Y1692537D01*
G01X313788Y1686211D01*
G01X227788Y1600211D01*
G01X221462Y1595984D01*
G01X214000Y1594500D01*
G01X206537Y1595984D01*
G01X200211Y1600211D01*
G01X195984Y1606537D01*
G01X194500Y1613999D01*
G01X195984Y1621462D01*
G01X200211Y1627788D01*
G01X286211Y1713788D01*
G01X292537Y1718015D01*
G01X299999Y1719500D01*
G01X307462Y1718015D01*
G37*
G01X307462Y1718015D02*
G01X313788Y1713788D01*
G01X318015Y1707462D01*
G01X319500Y1699999D01*
G01X318015Y1692537D01*
G01X313788Y1686211D01*
G01X227788Y1600211D01*
G01X221462Y1595984D01*
G01X214000Y1594500D01*
G01X206537Y1595984D01*
G01X200211Y1600211D01*
G01X195984Y1606537D01*
G01X194500Y1613999D01*
G01X195984Y1621462D01*
G01X200211Y1627788D01*
G01X286211Y1713788D01*
G01X292537Y1718015D01*
G01X299999Y1719500D01*
G01X307462Y1718015D01*
G36*
G01X807462Y1350015D02*
G01X813788Y1345788D01*
G01X818015Y1339462D01*
G01X819500Y1331999D01*
G01X819500Y1190000D01*
G01X818015Y1182537D01*
G01X813788Y1176211D01*
G01X807462Y1171984D01*
G01X800000Y1170500D01*
G01X792537Y1171984D01*
G01X786211Y1176211D01*
G01X781984Y1182537D01*
G01X780500Y1189999D01*
G01X780500Y1331999D01*
G01X781984Y1339462D01*
G01X786211Y1345788D01*
G01X792537Y1350015D01*
G01X800000Y1351500D01*
G01X807462Y1350015D01*
G37*
G01X807462Y1350015D02*
G01X813788Y1345788D01*
G01X818015Y1339462D01*
G01X819500Y1331999D01*
G01X819500Y1190000D01*
G01X818015Y1182537D01*
G01X813788Y1176211D01*
G01X807462Y1171984D01*
G01X800000Y1170500D01*
G01X792537Y1171984D01*
G01X786211Y1176211D01*
G01X781984Y1182537D01*
G01X780500Y1189999D01*
G01X780500Y1331999D01*
G01X781984Y1339462D01*
G01X786211Y1345788D01*
G01X792537Y1350015D01*
G01X800000Y1351500D01*
G01X807462Y1350015D01*
G36*
G01X639462Y1518015D02*
G01X645788Y1513788D01*
G01X813788Y1345788D01*
G01X818015Y1339462D01*
G01X819500Y1332000D01*
G01X818015Y1324537D01*
G01X813788Y1318211D01*
G01X807462Y1313984D01*
G01X800000Y1312500D01*
G01X792537Y1313984D01*
G01X786211Y1318211D01*
G01X618211Y1486211D01*
G01X613984Y1492537D01*
G01X612500Y1499999D01*
G01X613984Y1507462D01*
G01X618211Y1513788D01*
G01X624537Y1518015D01*
G01X632000Y1519500D01*
G01X639462Y1518015D01*
G37*
G01X639462Y1518015D02*
G01X645788Y1513788D01*
G01X813788Y1345788D01*
G01X818015Y1339462D01*
G01X819500Y1332000D01*
G01X818015Y1324537D01*
G01X813788Y1318211D01*
G01X807462Y1313984D01*
G01X800000Y1312500D01*
G01X792537Y1313984D01*
G01X786211Y1318211D01*
G01X618211Y1486211D01*
G01X613984Y1492537D01*
G01X612500Y1499999D01*
G01X613984Y1507462D01*
G01X618211Y1513788D01*
G01X624537Y1518015D01*
G01X632000Y1519500D01*
G01X639462Y1518015D01*
G36*
G01X639462Y1518015D02*
G01X645788Y1513788D01*
G01X650015Y1507462D01*
G01X651500Y1500000D01*
G01X650015Y1492537D01*
G01X645788Y1486211D01*
G01X639462Y1481984D01*
G01X632000Y1480500D01*
G01X300000Y1480500D01*
G01X292537Y1481984D01*
G01X286211Y1486211D01*
G01X281984Y1492537D01*
G01X280500Y1500000D01*
G01X281984Y1507462D01*
G01X286211Y1513788D01*
G01X292537Y1518015D01*
G01X300000Y1519500D01*
G01X631999Y1519500D01*
G01X639462Y1518015D01*
G37*
G01X639462Y1518015D02*
G01X645788Y1513788D01*
G01X650015Y1507462D01*
G01X651500Y1500000D01*
G01X650015Y1492537D01*
G01X645788Y1486211D01*
G01X639462Y1481984D01*
G01X632000Y1480500D01*
G01X300000Y1480500D01*
G01X292537Y1481984D01*
G01X286211Y1486211D01*
G01X281984Y1492537D01*
G01X280500Y1500000D01*
G01X281984Y1507462D01*
G01X286211Y1513788D01*
G01X292537Y1518015D01*
G01X300000Y1519500D01*
G01X631999Y1519500D01*
G01X639462Y1518015D01*
G54D14*
G01X525000Y1580000D03*
G36*
G01X2982462Y1598015D02*
G01X2988788Y1593788D01*
G01X2993015Y1587462D01*
G01X2994500Y1580000D01*
G01X2993015Y1572537D01*
G01X2988788Y1566211D01*
G01X2982462Y1561984D01*
G01X2974999Y1560500D01*
G01X525000Y1560500D01*
G01X517537Y1561984D01*
G01X511211Y1566211D01*
G01X506984Y1572537D01*
G01X505500Y1579999D01*
G01X506984Y1587462D01*
G01X511211Y1593788D01*
G01X517537Y1598015D01*
G01X524999Y1599500D01*
G01X2974999Y1599500D01*
G01X2982462Y1598015D01*
G37*
G54D25*
G01X2982462Y1598015D02*
G01X2988788Y1593788D01*
G01X2993015Y1587462D01*
G01X2994500Y1580000D01*
G01X2993015Y1572537D01*
G01X2988788Y1566211D01*
G01X2982462Y1561984D01*
G01X2974999Y1560500D01*
G01X525000Y1560500D01*
G01X517537Y1561984D01*
G01X511211Y1566211D01*
G01X506984Y1572537D01*
G01X505500Y1579999D01*
G01X506984Y1587462D01*
G01X511211Y1593788D01*
G01X517537Y1598015D01*
G01X524999Y1599500D01*
G01X2974999Y1599500D01*
G01X2982462Y1598015D01*
G36*
G01X2982462Y1598015D02*
G01X2988788Y1593788D01*
G01X3113788Y1468788D01*
G01X3118015Y1462462D01*
G01X3119500Y1455000D01*
G01X3118015Y1447537D01*
G01X3113788Y1441211D01*
G01X3107462Y1436984D01*
G01X3099999Y1435500D01*
G01X3092537Y1436984D01*
G01X3086211Y1441211D01*
G01X2961211Y1566211D01*
G01X2956984Y1572537D01*
G01X2955500Y1579999D01*
G01X2956984Y1587462D01*
G01X2961211Y1593788D01*
G01X2967537Y1598015D01*
G01X2974999Y1599500D01*
G01X2982462Y1598015D01*
G37*
G01X2982462Y1598015D02*
G01X2988788Y1593788D01*
G01X3113788Y1468788D01*
G01X3118015Y1462462D01*
G01X3119500Y1455000D01*
G01X3118015Y1447537D01*
G01X3113788Y1441211D01*
G01X3107462Y1436984D01*
G01X3099999Y1435500D01*
G01X3092537Y1436984D01*
G01X3086211Y1441211D01*
G01X2961211Y1566211D01*
G01X2956984Y1572537D01*
G01X2955500Y1579999D01*
G01X2956984Y1587462D01*
G01X2961211Y1593788D01*
G01X2967537Y1598015D01*
G01X2974999Y1599500D01*
G01X2982462Y1598015D01*
G36*
G01X3107462Y1473015D02*
G01X3113788Y1468788D01*
G01X3118015Y1462462D01*
G01X3119500Y1455000D01*
G01X3119500Y1290000D01*
G01X3118015Y1282537D01*
G01X3113788Y1276211D01*
G01X3107462Y1271984D01*
G01X3100000Y1270500D01*
G01X3092537Y1271984D01*
G01X3086211Y1276211D01*
G01X3081984Y1282537D01*
G01X3080500Y1290000D01*
G01X3080500Y1454999D01*
G01X3081984Y1462462D01*
G01X3086211Y1468788D01*
G01X3092537Y1473015D01*
G01X3099999Y1474500D01*
G01X3107462Y1473015D01*
G37*
G01X3107462Y1473015D02*
G01X3113788Y1468788D01*
G01X3118015Y1462462D01*
G01X3119500Y1455000D01*
G01X3119500Y1290000D01*
G01X3118015Y1282537D01*
G01X3113788Y1276211D01*
G01X3107462Y1271984D01*
G01X3100000Y1270500D01*
G01X3092537Y1271984D01*
G01X3086211Y1276211D01*
G01X3081984Y1282537D01*
G01X3080500Y1290000D01*
G01X3080500Y1454999D01*
G01X3081984Y1462462D01*
G01X3086211Y1468788D01*
G01X3092537Y1473015D01*
G01X3099999Y1474500D01*
G01X3107462Y1473015D01*
G36*
G01X2802462Y1973015D02*
G01X2808788Y1968788D01*
G01X2813788Y1963788D01*
G01X2818015Y1957462D01*
G01X2819500Y1950000D01*
G01X2818015Y1942537D01*
G01X2813788Y1936211D01*
G01X2807462Y1931984D01*
G01X2800000Y1930500D01*
G01X2792537Y1931984D01*
G01X2786211Y1936211D01*
G01X2781211Y1941211D01*
G01X2776984Y1947537D01*
G01X2775500Y1954999D01*
G01X2776984Y1962462D01*
G01X2781211Y1968788D01*
G01X2787537Y1973015D01*
G01X2795000Y1974500D01*
G01X2802462Y1973015D01*
G37*
G01X2802462Y1973015D02*
G01X2808788Y1968788D01*
G01X2813788Y1963788D01*
G01X2818015Y1957462D01*
G01X2819500Y1950000D01*
G01X2818015Y1942537D01*
G01X2813788Y1936211D01*
G01X2807462Y1931984D01*
G01X2800000Y1930500D01*
G01X2792537Y1931984D01*
G01X2786211Y1936211D01*
G01X2781211Y1941211D01*
G01X2776984Y1947537D01*
G01X2775500Y1954999D01*
G01X2776984Y1962462D01*
G01X2781211Y1968788D01*
G01X2787537Y1973015D01*
G01X2795000Y1974500D01*
G01X2802462Y1973015D01*
G36*
G01X2727462Y2048015D02*
G01X2733788Y2043788D01*
G01X2808788Y1968788D01*
G01X2813015Y1962462D01*
G01X2814500Y1955000D01*
G01X2813015Y1947537D01*
G01X2808788Y1941211D01*
G01X2802462Y1936984D01*
G01X2795000Y1935500D01*
G01X2787537Y1936984D01*
G01X2781211Y1941211D01*
G01X2706211Y2016211D01*
G01X2701984Y2022537D01*
G01X2700500Y2029999D01*
G01X2701984Y2037462D01*
G01X2706211Y2043788D01*
G01X2712537Y2048015D01*
G01X2720000Y2049500D01*
G01X2727462Y2048015D01*
G37*
G01X2727462Y2048015D02*
G01X2733788Y2043788D01*
G01X2808788Y1968788D01*
G01X2813015Y1962462D01*
G01X2814500Y1955000D01*
G01X2813015Y1947537D01*
G01X2808788Y1941211D01*
G01X2802462Y1936984D01*
G01X2795000Y1935500D01*
G01X2787537Y1936984D01*
G01X2781211Y1941211D01*
G01X2706211Y2016211D01*
G01X2701984Y2022537D01*
G01X2700500Y2029999D01*
G01X2701984Y2037462D01*
G01X2706211Y2043788D01*
G01X2712537Y2048015D01*
G01X2720000Y2049500D01*
G01X2727462Y2048015D01*
G36*
G01X2727462Y2048015D02*
G01X2733788Y2043788D01*
G01X2738015Y2037462D01*
G01X2739500Y2030000D01*
G01X2738015Y2022537D01*
G01X2733788Y2016211D01*
G01X2727462Y2011984D01*
G01X2720000Y2010500D01*
G01X1530000Y2010500D01*
G01X1522537Y2011984D01*
G01X1516211Y2016211D01*
G01X1511984Y2022537D01*
G01X1510500Y2030000D01*
G01X1511984Y2037462D01*
G01X1516211Y2043788D01*
G01X1522537Y2048015D01*
G01X1530000Y2049500D01*
G01X2719999Y2049500D01*
G01X2727462Y2048015D01*
G37*
G01X2727462Y2048015D02*
G01X2733788Y2043788D01*
G01X2738015Y2037462D01*
G01X2739500Y2030000D01*
G01X2738015Y2022537D01*
G01X2733788Y2016211D01*
G01X2727462Y2011984D01*
G01X2720000Y2010500D01*
G01X1530000Y2010500D01*
G01X1522537Y2011984D01*
G01X1516211Y2016211D01*
G01X1511984Y2022537D01*
G01X1510500Y2030000D01*
G01X1511984Y2037462D01*
G01X1516211Y2043788D01*
G01X1522537Y2048015D01*
G01X1530000Y2049500D01*
G01X2719999Y2049500D01*
G01X2727462Y2048015D01*
G36*
G01X1537462Y2048015D02*
G01X1543788Y2043788D01*
G01X1548015Y2037462D01*
G01X1549500Y2030000D01*
G01X1548015Y2022537D01*
G01X1543788Y2016211D01*
G01X1413788Y1886211D01*
G01X1407462Y1881984D01*
G01X1400000Y1880500D01*
G01X1392537Y1881984D01*
G01X1386211Y1886211D01*
G01X1381984Y1892537D01*
G01X1380500Y1900000D01*
G01X1381984Y1907462D01*
G01X1386211Y1913788D01*
G01X1516211Y2043788D01*
G01X1522537Y2048015D01*
G01X1529999Y2049500D01*
G01X1537462Y2048015D01*
G37*
G01X1537462Y2048015D02*
G01X1543788Y2043788D01*
G01X1548015Y2037462D01*
G01X1549500Y2030000D01*
G01X1548015Y2022537D01*
G01X1543788Y2016211D01*
G01X1413788Y1886211D01*
G01X1407462Y1881984D01*
G01X1400000Y1880500D01*
G01X1392537Y1881984D01*
G01X1386211Y1886211D01*
G01X1381984Y1892537D01*
G01X1380500Y1900000D01*
G01X1381984Y1907462D01*
G01X1386211Y1913788D01*
G01X1516211Y2043788D01*
G01X1522537Y2048015D01*
G01X1529999Y2049500D01*
G01X1537462Y2048015D01*
G36*
G01X307462Y1918015D02*
G01X313788Y1913788D01*
G01X593788Y1633788D01*
G01X598015Y1627462D01*
G01X599500Y1620000D01*
G01X598015Y1612537D01*
G01X593788Y1606211D01*
G01X587462Y1601984D01*
G01X579999Y1600500D01*
G01X572537Y1601984D01*
G01X566211Y1606211D01*
G01X286211Y1886211D01*
G01X281984Y1892537D01*
G01X280500Y1899999D01*
G01X281984Y1907462D01*
G01X286211Y1913788D01*
G01X292537Y1918015D01*
G01X299999Y1919500D01*
G01X307462Y1918015D01*
G37*
G01X307462Y1918015D02*
G01X313788Y1913788D01*
G01X593788Y1633788D01*
G01X598015Y1627462D01*
G01X599500Y1620000D01*
G01X598015Y1612537D01*
G01X593788Y1606211D01*
G01X587462Y1601984D01*
G01X579999Y1600500D01*
G01X572537Y1601984D01*
G01X566211Y1606211D01*
G01X286211Y1886211D01*
G01X281984Y1892537D01*
G01X280500Y1899999D01*
G01X281984Y1907462D01*
G01X286211Y1913788D01*
G01X292537Y1918015D01*
G01X299999Y1919500D01*
G01X307462Y1918015D01*
G36*
G01X3077462Y1638015D02*
G01X3083788Y1633788D01*
G01X3088015Y1627462D01*
G01X3089500Y1620000D01*
G01X3088015Y1612537D01*
G01X3083788Y1606211D01*
G01X3077462Y1601984D01*
G01X3069999Y1600500D01*
G01X580000Y1600500D01*
G01X572537Y1601984D01*
G01X566211Y1606211D01*
G01X561984Y1612537D01*
G01X560500Y1619999D01*
G01X561984Y1627462D01*
G01X566211Y1633788D01*
G01X572537Y1638015D01*
G01X579999Y1639500D01*
G01X3069999Y1639500D01*
G01X3077462Y1638015D01*
G37*
G01X3077462Y1638015D02*
G01X3083788Y1633788D01*
G01X3088015Y1627462D01*
G01X3089500Y1620000D01*
G01X3088015Y1612537D01*
G01X3083788Y1606211D01*
G01X3077462Y1601984D01*
G01X3069999Y1600500D01*
G01X580000Y1600500D01*
G01X572537Y1601984D01*
G01X566211Y1606211D01*
G01X561984Y1612537D01*
G01X560500Y1619999D01*
G01X561984Y1627462D01*
G01X566211Y1633788D01*
G01X572537Y1638015D01*
G01X579999Y1639500D01*
G01X3069999Y1639500D01*
G01X3077462Y1638015D01*
G36*
G01X3407462Y1968015D02*
G01X3413788Y1963788D01*
G01X3418015Y1957462D01*
G01X3419500Y1949999D01*
G01X3418015Y1942537D01*
G01X3413788Y1936211D01*
G01X3083788Y1606211D01*
G01X3077462Y1601984D01*
G01X3070000Y1600500D01*
G01X3062537Y1601984D01*
G01X3056211Y1606211D01*
G01X3051984Y1612537D01*
G01X3050500Y1619999D01*
G01X3051984Y1627462D01*
G01X3056211Y1633788D01*
G01X3386211Y1963788D01*
G01X3392537Y1968015D01*
G01X3399999Y1969500D01*
G01X3407462Y1968015D01*
G37*
G01X3407462Y1968015D02*
G01X3413788Y1963788D01*
G01X3418015Y1957462D01*
G01X3419500Y1949999D01*
G01X3418015Y1942537D01*
G01X3413788Y1936211D01*
G01X3083788Y1606211D01*
G01X3077462Y1601984D01*
G01X3070000Y1600500D01*
G01X3062537Y1601984D01*
G01X3056211Y1606211D01*
G01X3051984Y1612537D01*
G01X3050500Y1619999D01*
G01X3051984Y1627462D01*
G01X3056211Y1633788D01*
G01X3386211Y1963788D01*
G01X3392537Y1968015D01*
G01X3399999Y1969500D01*
G01X3407462Y1968015D01*

G04 Draw clearances for text*

G04 -------------- Draw Parts, Pads, Traces, Vias and Text (positive)*
%LPD*%
G04 Draw part EDGE1*
G04 Draw part EDGE1*
G04 Draw part R1*
G54D26*
G01X300000Y1700000D03*
G01X800000Y1700000D03*
G04 Draw part TR1*
G01X445000Y1200000D03*
G01X500000Y1290000D03*
G01X555000Y1200000D03*
G04 Draw part R2*
G01X300000Y1500000D03*
G01X800000Y1500000D03*
G04 Draw part TR2*
G01X855000Y1280000D03*
G01X800000Y1190000D03*
G01X745000Y1280000D03*
G04 Draw part R3*
G01X1800000Y1450000D03*
G01X1800000Y1950000D03*
G04 Draw part TR3*
G01X1745000Y1200000D03*
G01X1800000Y1290000D03*
G01X1855000Y1200000D03*
G04 Draw part R4*
G01X2100000Y1450000D03*
G01X2100000Y1950000D03*
G04 Draw part TR4*
G01X2155000Y1280000D03*
G01X2100000Y1190000D03*
G01X2045000Y1280000D03*
G04 Draw part TR5*
G01X3045000Y1200000D03*
G01X3100000Y1290000D03*
G01X3155000Y1200000D03*
G04 Draw part R5*
G01X3400000Y1450000D03*
G01X3400000Y1950000D03*
G04 Draw part TR6*
G01X3455000Y1290000D03*
G01X3400000Y1200000D03*
G01X3345000Y1290000D03*
G04 Draw part R6*
G01X2650000Y1450000D03*
G01X2650000Y1950000D03*
G04 Draw part TR7*
G01X2595000Y1200000D03*
G01X2650000Y1290000D03*
G01X2705000Y1200000D03*
G04 Draw part D1*
G01X1300000Y720000D03*
G01X1200000Y720000D03*
G04 Draw part D2*
G01X2600000Y720000D03*
G01X2500000Y720000D03*
G04 Draw part D3*
G01X1300000Y420000D03*
G01X1200000Y420000D03*
G04 Draw part D4*
G01X2600000Y420000D03*
G01X2500000Y420000D03*
G04 Draw part LED1*
G54D27*
G01X400000Y300000D03*
G54D26*
G01X500000Y300000D03*
G01X600000Y300000D03*
G01X700000Y300000D03*
G01X800000Y300000D03*
G01X400000Y898000D03*
G01X801000Y898000D03*
G01X699000Y898000D03*
G01X600000Y898000D03*
G01X498000Y898000D03*
G04 Draw part LED2*
G54D27*
G01X1700000Y300000D03*
G54D26*
G01X1800000Y300000D03*
G01X1900000Y300000D03*
G01X2000000Y300000D03*
G01X2100000Y300000D03*
G01X1700000Y898000D03*
G01X2101000Y898000D03*
G01X1999000Y898000D03*
G01X1900000Y898000D03*
G01X1798000Y898000D03*
G04 Draw part R7*
G01X2950000Y1950000D03*
G01X2950000Y1450000D03*
G04 Draw part R8*
G01X1490000Y1700000D03*
G01X1490000Y1200000D03*
G04 Draw part R9*
G01X2800000Y1950000D03*
G01X2800000Y1450000D03*
G04 Draw part R10*
G01X3600000Y1950000D03*
G01X3600000Y1450000D03*
G04 Draw part R11*
G01X1290000Y1700000D03*
G01X1290000Y1200000D03*
G04 Draw part R12*
G01X1090000Y1700000D03*
G01X1090000Y1200000D03*
G04 Draw part R13*
G01X2400000Y1950000D03*
G01X2400000Y1450000D03*
G04 Draw part CN1*
G01X1600000Y1900000D03*
G01X1500000Y1900000D03*
G01X1400000Y1900000D03*
G01X1300000Y1900000D03*
G01X1200000Y1900000D03*
G01X1100000Y1900000D03*
G01X1000000Y1900000D03*
G01X900000Y1900000D03*
G01X800000Y1900000D03*
G01X700000Y1900000D03*
G01X600000Y1900000D03*
G01X500000Y1900000D03*
G01X400000Y1900000D03*
G01X300000Y1900000D03*
G01X200000Y1900000D03*
G54D27*
G01X100000Y1900000D03*
G04 Draw part LED3*
G01X3000000Y300000D03*
G54D26*
G01X3100000Y300000D03*
G01X3200000Y300000D03*
G01X3300000Y300000D03*
G01X3400000Y300000D03*
G01X3000000Y898000D03*
G01X3401000Y898000D03*
G01X3299000Y898000D03*
G01X3200000Y898000D03*
G01X3098000Y898000D03*
G04 Draw part U1*
G54D28*
G01X140000Y3070000D03*
G54D29*
G01X240000Y3070000D03*
G01X340000Y3070000D03*
G01X440000Y3070000D03*
G01X540000Y3070000D03*
G01X640000Y3070000D03*
G01X740000Y3070000D03*
G01X840000Y3070000D03*
G01X940000Y3070000D03*
G01X1040000Y3070000D03*
G01X1140000Y3070000D03*
G01X1240000Y3070000D03*
G01X1340000Y3070000D03*
G01X1440000Y3070000D03*
G01X1440000Y3370000D03*
G01X1340000Y3370000D03*
G01X1240000Y3370000D03*
G01X1140000Y3370000D03*
G01X1040000Y3370000D03*
G01X940000Y3370000D03*
G01X840000Y3370000D03*
G01X740000Y3370000D03*
G01X640000Y3370000D03*
G01X540000Y3370000D03*
G01X440000Y3370000D03*
G01X340000Y3370000D03*
G01X240000Y3370000D03*
G01X140000Y3370000D03*
G04 Draw part R14*
G54D26*
G01X70000Y2800000D03*
G01X570000Y2800000D03*
G04 Draw part X1*
G01X1120000Y2890000D03*
G01X920000Y2890000D03*
G04 Draw part C2*
G01X920000Y2630000D03*
G01X920000Y2730000D03*
G04 Draw part C3*
G01X1120000Y2630000D03*
G01X1120000Y2730000D03*
G04 Draw part C4*
G54D30*
G01X1040000Y3530000D03*
G01X940000Y3530000D03*
G04 Draw part KB1*
G54D27*
G01X2450000Y4710000D03*
G54D26*
G01X2550000Y4710000D03*
G01X2650000Y4710000D03*
G01X2750000Y4710000D03*
G01X2850000Y4710000D03*
G01X2950000Y4710000D03*
G01X3050000Y4710000D03*
G04 Draw part R15*
G01X1450000Y3675000D03*
G01X1450000Y4175000D03*
G04 Draw part S1*
G54D31*
G01X560000Y4115000D03*
G01X560000Y4290000D03*
G01X560000Y4465000D03*
G04 Draw part CN2*
G54D27*
G01X100000Y2510000D03*
G54D26*
G01X200000Y2510000D03*
G01X300000Y2510000D03*
G01X400000Y2510000D03*
G01X500000Y2510000D03*
G01X600000Y2510000D03*
G01X700000Y2510000D03*
G01X800000Y2510000D03*
G01X900000Y2510000D03*
G01X1000000Y2510000D03*
G01X1100000Y2510000D03*
G01X1200000Y2510000D03*
G01X1300000Y2510000D03*
G01X1400000Y2510000D03*
G01X1500000Y2510000D03*
G01X1600000Y2510000D03*
G04 Draw part CN4*
G54D32*
G01X1207165Y4664724D03*
G54D33*
G01X1011000Y4543000D03*
G54D32*
G01X1207165Y4420629D03*
G04 Draw part D5*
G54D26*
G01X850000Y4850000D03*
G01X850000Y4450000D03*
G04 Draw part D6*
G01X700000Y4850000D03*
G01X700000Y4450000D03*
G04 Draw part CN3*
G54D34*
G01X172519Y4678425D03*
G54D35*
G01X172519Y4875275D03*
G04 Draw part BUZZ1*
G54D26*
G01X764000Y4040000D03*
G01X1156000Y4040000D03*
G04 Draw part C1*
G01X90000Y2940000D03*
G01X190000Y2940000D03*
G04 Draw part SYM1*
G04 Draw part H1*
G04 Draw part H2*
G04 Draw part M1*
G04 Draw part M2*
G04 Draw part M3*
G04 Draw part M4*
G04 Draw part M5*
G04 Draw part M6*
G04 Draw part M8*
G04 Draw part CN6*
G54D27*
G01X100000Y3930000D03*
G01X100000Y3830000D03*
G01X100000Y3730000D03*
G01X100000Y3630000D03*
G01X100000Y3530000D03*
G04 Draw part CN5*
G01X1600000Y3750000D03*
G01X1600000Y3850000D03*
G01X1600000Y3950000D03*
G01X1600000Y4050000D03*
G01X1600000Y4150000D03*
G01X1600000Y4250000D03*
G01X1600000Y4350000D03*
G04 Draw part CN7*
G01X1600000Y4550000D03*
G01X1600000Y4450000D03*

G04 Draw traces*
G54D36*
G01X1300000Y1900000D02*
G01X1500000Y2100000D01*
G01X1500000Y2100000D02*
G01X3450000Y2100000D01*
G01X3450000Y2100000D02*
G01X3600000Y1950000D01*
G01X100000Y3730000D02*
G01X200000Y3730000D01*
G01X200000Y3730000D02*
G01X240000Y3690000D01*
G01X240000Y3690000D02*
G01X240000Y3375000D01*
G01X240000Y3375000D02*
G01X240000Y3370000D01*
G01X100000Y3830000D02*
G01X195000Y3830000D01*
G01X195000Y3830000D02*
G01X447000Y4082000D01*
G01X447000Y4082000D02*
G01X447000Y4178000D01*
G01X447000Y4178000D02*
G01X560000Y4290000D01*
G54D37*
G01X900000Y2510000D02*
G01X690000Y2719000D01*
G01X690000Y2719000D02*
G01X690000Y3039000D01*
G54D36*
G01X690000Y3039000D02*
G01X690000Y3125000D01*
G54D37*
G01X690000Y3125000D02*
G01X690000Y3219000D01*
G01X690000Y3219000D02*
G01X741000Y3270000D01*
G01X741000Y3270000D02*
G01X840000Y3270000D01*
G01X840000Y3270000D02*
G01X940000Y3370000D01*
G54D38*
G01X940000Y3530000D02*
G01X940000Y3370000D01*
G54D36*
G01X570000Y2800000D02*
G01X590000Y2820000D01*
G01X590000Y2820000D02*
G01X590000Y3650000D01*
G01X590000Y3650000D02*
G01X447000Y3791000D01*
G01X447000Y3791000D02*
G01X447000Y4177000D01*
G01X447000Y4177000D02*
G01X560000Y4290000D01*
G54D38*
G01X560000Y4290000D02*
G01X555000Y4295000D01*
G01X555000Y4295000D02*
G01X675000Y4175000D01*
G01X675000Y4175000D02*
G01X825000Y4175000D01*
G01X825000Y4175000D02*
G01X940000Y4060000D01*
G01X940000Y4060000D02*
G01X940000Y3530000D01*
G01X1450000Y4175000D02*
G01X1325000Y4175000D01*
G01X1325000Y4175000D02*
G01X675000Y4175000D01*
G01X675000Y4175000D02*
G01X560000Y4290000D01*
G54D36*
G01X1600000Y4550000D02*
G01X1610000Y4550000D01*
G01X1610000Y4550000D02*
G01X1550000Y4550000D01*
G01X1550000Y4550000D02*
G01X1450000Y4450000D01*
G01X1450000Y4450000D02*
G01X1450000Y4175000D01*
G54D39*
G01X600000Y898000D02*
G01X555000Y945000D01*
G01X555000Y945000D02*
G01X555000Y1200000D01*
G54D36*
G01X764000Y4040000D02*
G01X840000Y3903000D01*
G01X840000Y3903000D02*
G01X840000Y3370000D01*
G01X2400000Y1950000D02*
G01X2235000Y1785000D01*
G01X2235000Y1785000D02*
G01X1115000Y1785000D01*
G01X1115000Y1785000D02*
G01X1000000Y1900000D01*
G01X3000000Y898000D02*
G01X2950000Y950000D01*
G01X2950000Y950000D02*
G01X2950000Y1450000D01*
G01X400000Y898000D02*
G01X600000Y698000D01*
G01X600000Y698000D02*
G01X1177000Y698000D01*
G01X1177000Y698000D02*
G01X1196000Y717000D01*
G01X1196000Y717000D02*
G01X1200000Y720000D01*
G54D39*
G01X699000Y898000D02*
G01X745000Y945000D01*
G01X745000Y945000D02*
G01X745000Y1280000D01*
G54D36*
G01X90000Y2940000D02*
G01X140000Y3070000D01*
G01X70000Y2800000D02*
G01X90000Y2940000D01*
G01X100000Y3530000D02*
G01X85000Y3510000D01*
G01X85000Y3510000D02*
G01X85000Y3125000D01*
G01X85000Y3125000D02*
G01X140000Y3070000D01*
G01X1798000Y898000D02*
G01X1977000Y719000D01*
G01X1977000Y719000D02*
G01X2244000Y719000D01*
G54D38*
G01X2244000Y719000D03*
G54D36*
G01X1490000Y1200000D02*
G01X1415000Y1275000D01*
G01X1415000Y1275000D02*
G01X1258000Y1275000D01*
G01X1258000Y1275000D02*
G01X1217000Y1234000D01*
G01X1217000Y1234000D02*
G01X1217000Y899000D01*
G01X1217000Y899000D02*
G01X1126000Y808000D01*
G01X1126000Y808000D02*
G01X589000Y808000D01*
G01X589000Y808000D02*
G01X498000Y898000D01*
G01X1490000Y1200000D02*
G01X1798000Y898000D01*
G54D39*
G01X1900000Y898000D02*
G01X1855000Y943000D01*
G01X1855000Y943000D02*
G01X1855000Y1200000D01*
G54D36*
G01X1120000Y2890000D02*
G01X1120000Y2894000D01*
G01X1120000Y2894000D02*
G01X1120000Y2990000D01*
G01X1120000Y2990000D02*
G01X1040000Y3070000D01*
G01X1120000Y2730000D02*
G01X1120000Y2890000D01*
G01X100000Y3630000D02*
G01X175000Y3630000D01*
G01X175000Y3630000D02*
G01X200000Y3605000D01*
G01X200000Y3605000D02*
G01X200000Y3430000D01*
G01X200000Y3430000D02*
G01X140000Y3370000D01*
G01X1700000Y300000D02*
G01X1696000Y299000D01*
G01X1696000Y299000D02*
G01X1321000Y299000D01*
G01X1321000Y299000D02*
G01X1200000Y420000D01*
G01X3000000Y300000D02*
G01X2800000Y500000D01*
G01X2800000Y500000D02*
G01X2800000Y1450000D01*
G54D39*
G01X1999000Y898000D02*
G01X2040000Y960000D01*
G01X2040000Y960000D02*
G01X2040000Y1280000D01*
G01X2040000Y1280000D02*
G01X2045000Y1280000D01*
G54D36*
G01X940000Y3070000D02*
G01X920000Y3050000D01*
G01X920000Y3050000D02*
G01X920000Y2892000D01*
G01X920000Y2892000D02*
G01X920000Y2890000D01*
G01X920000Y2890000D02*
G01X920000Y2730000D01*
G01X3300000Y300000D02*
G01X3302000Y302000D01*
G01X3302000Y302000D02*
G01X3600000Y600000D01*
G01X3600000Y600000D02*
G01X3600000Y1450000D01*
G54D39*
G01X3200000Y898000D02*
G01X3155000Y945000D01*
G01X3155000Y945000D02*
G01X3155000Y1200000D01*
G54D38*
G01X850000Y4850000D02*
G01X775000Y4775000D01*
G01X775000Y4775000D02*
G01X775000Y4412000D01*
G01X775000Y4412000D02*
G01X864000Y4323000D01*
G01X864000Y4323000D02*
G01X1110000Y4323000D01*
G01X1110000Y4323000D02*
G01X1195000Y4408000D01*
G01X1195000Y4408000D02*
G01X1207165Y4420629D01*
G54D36*
G01X1290000Y1200000D02*
G01X1490000Y1000000D01*
G01X1490000Y1000000D02*
G01X1490000Y710000D01*
G01X1490000Y710000D02*
G01X1890000Y310000D01*
G01X1890000Y310000D02*
G01X1900000Y300000D01*
G01X1900000Y300000D02*
G01X1900000Y130000D01*
G01X1900000Y130000D02*
G01X1795000Y130000D01*
G01X1795000Y130000D02*
G01X1695000Y230000D01*
G01X1695000Y230000D02*
G01X665000Y230000D01*
G01X665000Y230000D02*
G01X600000Y295000D01*
G01X600000Y295000D02*
G01X600000Y300000D01*
G54D38*
G01X1900000Y130000D03*
G54D36*
G01X1900000Y130000D02*
G01X1900000Y300000D01*
G54D39*
G01X3299000Y898000D02*
G01X3346000Y945000D01*
G01X3346000Y945000D02*
G01X3346000Y1280000D01*
G01X3346000Y1280000D02*
G01X3345000Y1290000D01*
G54D38*
G01X700000Y4850000D02*
G01X699000Y4849000D01*
G01X699000Y4849000D02*
G01X528000Y4678000D01*
G01X528000Y4678000D02*
G01X172519Y4678425D01*
G01X2100000Y60000D03*
G54D36*
G01X2100000Y60000D02*
G01X2100000Y300000D01*
G01X2400000Y1450000D02*
G01X2400000Y601000D01*
G01X2400000Y601000D02*
G01X2100000Y301000D01*
G01X2100000Y301000D02*
G01X2100000Y300000D01*
G01X2100000Y300000D02*
G01X2100000Y60000D01*
G54D38*
G01X2100000Y60000D03*
G54D36*
G01X1300000Y420000D02*
G01X1300000Y720000D01*
G01X2600000Y420000D02*
G01X2600000Y426000D01*
G01X2600000Y426000D02*
G01X2600000Y720000D01*
G54D39*
G01X2600000Y720000D02*
G01X2604000Y724000D01*
G01X2604000Y724000D02*
G01X2705000Y825000D01*
G01X2705000Y825000D02*
G01X2705000Y1200000D01*
G54D36*
G01X400000Y2510000D02*
G01X405000Y2515000D01*
G01X405000Y2515000D02*
G01X640000Y2750000D01*
G01X640000Y2750000D02*
G01X640000Y3070000D01*
G01X500000Y1290000D02*
G01X450000Y1340000D01*
G01X450000Y1340000D02*
G01X266000Y1340000D01*
G01X266000Y1340000D02*
G01X262000Y1340000D01*
G01X262000Y1340000D02*
G01X214000Y1388000D01*
G01X214000Y1388000D02*
G01X214000Y1614000D01*
G01X214000Y1614000D02*
G01X300000Y1700000D01*
G01X800000Y1190000D02*
G01X800000Y1332000D01*
G01X800000Y1332000D02*
G01X632000Y1500000D01*
G01X632000Y1500000D02*
G01X300000Y1500000D01*
G54D38*
G01X525000Y1580000D03*
G54D36*
G01X525000Y1580000D02*
G01X2975000Y1580000D01*
G01X2975000Y1580000D02*
G01X3100000Y1455000D01*
G01X3100000Y1455000D02*
G01X3100000Y1290000D01*
G01X2800000Y1950000D02*
G01X2795000Y1955000D01*
G01X2795000Y1955000D02*
G01X2720000Y2030000D01*
G01X2720000Y2030000D02*
G01X1530000Y2030000D01*
G01X1530000Y2030000D02*
G01X1400000Y1900000D01*
G01X300000Y1900000D02*
G01X580000Y1620000D01*
G01X580000Y1620000D02*
G01X3070000Y1620000D01*
G01X3070000Y1620000D02*
G01X3400000Y1950000D01*

G04 Draw Text*
M00*
M02*
