G04 FreePCB version 1.200*
G04 C:\Timer\PCB-R4\CAM\top_silk.grb*
G04 top silk layer *
G04 Scale: 100 percent, Rotated: No, Reflected: No *
%FSLAX26Y26*%
%MOIN*%
%LNTop*%
%ADD10C,0.005000*%
%ADD11C,0.010000*%
%ADD12C,0.007000*%
G90*
G70D02*

G04 ----------------------- Draw board outline (positive)*
%LPD*%
G54D10*
G01X0Y0D02*
G01X0Y5000000D01*
G04 end of side 1*
G01X3800000Y5000000D01*
G04 end of side 2*
G01X3800000Y0D01*
G04 end of side 3*
G01X0Y0D01*

G04 -------------- Draw Parts, Pads, Traces, Vias and Text (positive)*
%LPD*%
G04 Draw part EDGE1*
G04 draw part outline for part EDGE1*
G54D11*
G01X0Y2400000D02*
G01X3800000Y2400000D01*
G04 Draw part EDGE1*
G04 draw part outline for part EDGE1*
G01X0Y2300000D02*
G01X3800000Y2300000D01*
G04 Draw part R1*
G04 draw part outline for part R1*
G54D12*
G01X409000Y1749000D02*
G01X691000Y1749000D01*
G01X691000Y1749000D02*
G01X691000Y1651000D01*
G01X691000Y1651000D02*
G01X409000Y1651000D01*
G01X409000Y1651000D02*
G01X409000Y1749000D01*
G04 draw reference designator for part R1*
G01X400000Y1822727D02*
G01X400000Y1775000D01*
G01X420454Y1822727D02*
G01X400000Y1822727D01*
G01X420454Y1822727D02*
G01X427272Y1820454D01*
G01X427272Y1820454D02*
G01X429545Y1818181D01*
G01X429545Y1818181D02*
G01X431818Y1813636D01*
G01X431818Y1813636D02*
G01X431818Y1809090D01*
G01X431818Y1809090D02*
G01X429545Y1804545D01*
G01X429545Y1804545D02*
G01X427272Y1802272D01*
G01X427272Y1802272D02*
G01X420454Y1800000D01*
G01X400000Y1800000D02*
G01X420454Y1800000D01*
G01X415909Y1800000D02*
G01X431818Y1775000D01*
G01X454545Y1815909D02*
G01X450000Y1813636D01*
G01X461363Y1822727D02*
G01X454545Y1815909D01*
G01X461363Y1822727D02*
G01X461363Y1775000D01*
G04 Draw part TR1*
G04 draw part outline for part TR1*
G54D11*
G01X500000Y1330000D02*
G01X496073Y1329935D01*
G01X492151Y1329743D01*
G01X488237Y1329422D01*
G01X484336Y1328973D01*
G01X480452Y1328397D01*
G01X476589Y1327694D01*
G01X472750Y1326865D01*
G01X468941Y1325911D01*
G01X465165Y1324832D01*
G01X461427Y1323631D01*
G01X457729Y1322308D01*
G01X454077Y1320865D01*
G01X450475Y1319303D01*
G01X446925Y1317624D01*
G01X443432Y1315830D01*
G01X439999Y1313923D01*
G01X436631Y1311904D01*
G01X433331Y1309776D01*
G01X430102Y1307541D01*
G01X426948Y1305202D01*
G01X423872Y1302761D01*
G01X420878Y1300220D01*
G01X417968Y1297583D01*
G01X415147Y1294852D01*
G01X412416Y1292031D01*
G01X409779Y1289121D01*
G01X407238Y1286127D01*
G01X404797Y1283051D01*
G01X402458Y1279897D01*
G01X400223Y1276668D01*
G01X398095Y1273368D01*
G01X396076Y1269999D01*
G01X394169Y1266567D01*
G01X392375Y1263074D01*
G01X390696Y1259524D01*
G01X389134Y1255922D01*
G01X387691Y1252270D01*
G01X386368Y1248572D01*
G01X385167Y1244834D01*
G01X384088Y1241058D01*
G01X383134Y1237249D01*
G01X382305Y1233410D01*
G01X381602Y1229547D01*
G01X381026Y1225663D01*
G01X380577Y1221762D01*
G01X380256Y1217848D01*
G01X380064Y1213926D01*
G01X380000Y1210000D01*
G01X500000Y1330000D02*
G01X503926Y1329935D01*
G01X507848Y1329743D01*
G01X511762Y1329422D01*
G01X515663Y1328973D01*
G01X519547Y1328397D01*
G01X523410Y1327694D01*
G01X527249Y1326865D01*
G01X531058Y1325911D01*
G01X534834Y1324832D01*
G01X538572Y1323631D01*
G01X542270Y1322308D01*
G01X545922Y1320865D01*
G01X549524Y1319303D01*
G01X553074Y1317624D01*
G01X556567Y1315830D01*
G01X559999Y1313923D01*
G01X563368Y1311904D01*
G01X566668Y1309776D01*
G01X569897Y1307541D01*
G01X573051Y1305202D01*
G01X576127Y1302761D01*
G01X579121Y1300220D01*
G01X582031Y1297583D01*
G01X584852Y1294852D01*
G01X587583Y1292031D01*
G01X590220Y1289121D01*
G01X592761Y1286127D01*
G01X595202Y1283051D01*
G01X597541Y1279897D01*
G01X599776Y1276668D01*
G01X601904Y1273368D01*
G01X603923Y1270000D01*
G01X605830Y1266567D01*
G01X607624Y1263074D01*
G01X609303Y1259524D01*
G01X610865Y1255922D01*
G01X612308Y1252270D01*
G01X613631Y1248572D01*
G01X614832Y1244834D01*
G01X615911Y1241058D01*
G01X616865Y1237249D01*
G01X617694Y1233410D01*
G01X618397Y1229547D01*
G01X618973Y1225663D01*
G01X619422Y1221762D01*
G01X619743Y1217848D01*
G01X619935Y1213926D01*
G01X620000Y1210000D01*
G01X380000Y1210000D02*
G01X400000Y1160000D01*
G01X620000Y1210000D02*
G01X600000Y1160000D01*
G01X400000Y1160000D02*
G01X600000Y1160000D01*
G04 draw reference designator for part TR1*
G54D12*
G01X465909Y1407727D02*
G01X465909Y1360000D01*
G01X481818Y1407727D02*
G01X450000Y1407727D01*
G01X500000Y1407727D02*
G01X500000Y1360000D01*
G01X520454Y1407727D02*
G01X500000Y1407727D01*
G01X520454Y1407727D02*
G01X527272Y1405454D01*
G01X527272Y1405454D02*
G01X529545Y1403181D01*
G01X529545Y1403181D02*
G01X531818Y1398636D01*
G01X531818Y1398636D02*
G01X531818Y1394090D01*
G01X531818Y1394090D02*
G01X529545Y1389545D01*
G01X529545Y1389545D02*
G01X527272Y1387272D01*
G01X527272Y1387272D02*
G01X520454Y1385000D01*
G01X500000Y1385000D02*
G01X520454Y1385000D01*
G01X515909Y1385000D02*
G01X531818Y1360000D01*
G01X554545Y1400909D02*
G01X550000Y1398636D01*
G01X561363Y1407727D02*
G01X554545Y1400909D01*
G01X561363Y1407727D02*
G01X561363Y1360000D01*
G04 Draw part R2*
G04 draw part outline for part R2*
G01X409000Y1549000D02*
G01X691000Y1549000D01*
G01X691000Y1549000D02*
G01X691000Y1451000D01*
G01X691000Y1451000D02*
G01X409000Y1451000D01*
G01X409000Y1451000D02*
G01X409000Y1549000D01*
G04 draw reference designator for part R2*
G01X400000Y1622727D02*
G01X400000Y1575000D01*
G01X420454Y1622727D02*
G01X400000Y1622727D01*
G01X420454Y1622727D02*
G01X427272Y1620454D01*
G01X427272Y1620454D02*
G01X429545Y1618181D01*
G01X429545Y1618181D02*
G01X431818Y1613636D01*
G01X431818Y1613636D02*
G01X431818Y1609090D01*
G01X431818Y1609090D02*
G01X429545Y1604545D01*
G01X429545Y1604545D02*
G01X427272Y1602272D01*
G01X427272Y1602272D02*
G01X420454Y1600000D01*
G01X400000Y1600000D02*
G01X420454Y1600000D01*
G01X415909Y1600000D02*
G01X431818Y1575000D01*
G01X452272Y1613636D02*
G01X452272Y1611363D01*
G01X454545Y1618181D02*
G01X452272Y1613636D01*
G01X456818Y1620454D02*
G01X454545Y1618181D01*
G01X461363Y1622727D02*
G01X456818Y1620454D01*
G01X470454Y1622727D02*
G01X461363Y1622727D01*
G01X470454Y1622727D02*
G01X475000Y1620454D01*
G01X475000Y1620454D02*
G01X477272Y1618181D01*
G01X477272Y1618181D02*
G01X479545Y1613636D01*
G01X479545Y1613636D02*
G01X479545Y1609090D01*
G01X479545Y1609090D02*
G01X477272Y1604545D01*
G01X477272Y1604545D02*
G01X472727Y1597727D01*
G01X472727Y1597727D02*
G01X450000Y1575000D01*
G01X481818Y1575000D02*
G01X450000Y1575000D01*
G04 Draw part TR2*
G04 draw part outline for part TR2*
G54D11*
G01X800000Y1150000D02*
G01X803926Y1150064D01*
G01X807848Y1150256D01*
G01X811762Y1150577D01*
G01X815663Y1151026D01*
G01X819547Y1151602D01*
G01X823410Y1152305D01*
G01X827249Y1153134D01*
G01X831058Y1154088D01*
G01X834834Y1155167D01*
G01X838572Y1156368D01*
G01X842270Y1157691D01*
G01X845922Y1159134D01*
G01X849524Y1160696D01*
G01X853074Y1162375D01*
G01X856567Y1164169D01*
G01X860000Y1166076D01*
G01X863368Y1168095D01*
G01X866668Y1170223D01*
G01X869897Y1172458D01*
G01X873051Y1174797D01*
G01X876127Y1177238D01*
G01X879121Y1179779D01*
G01X882031Y1182416D01*
G01X884852Y1185147D01*
G01X887583Y1187968D01*
G01X890220Y1190878D01*
G01X892761Y1193872D01*
G01X895202Y1196948D01*
G01X897541Y1200102D01*
G01X899776Y1203331D01*
G01X901904Y1206631D01*
G01X903923Y1210000D01*
G01X905830Y1213432D01*
G01X907624Y1216925D01*
G01X909303Y1220475D01*
G01X910865Y1224077D01*
G01X912308Y1227729D01*
G01X913631Y1231427D01*
G01X914832Y1235165D01*
G01X915911Y1238941D01*
G01X916865Y1242750D01*
G01X917694Y1246589D01*
G01X918397Y1250452D01*
G01X918973Y1254336D01*
G01X919422Y1258237D01*
G01X919743Y1262151D01*
G01X919935Y1266073D01*
G01X920000Y1270000D01*
G01X800000Y1150000D02*
G01X796073Y1150064D01*
G01X792151Y1150256D01*
G01X788237Y1150577D01*
G01X784336Y1151026D01*
G01X780452Y1151602D01*
G01X776589Y1152305D01*
G01X772750Y1153134D01*
G01X768941Y1154088D01*
G01X765165Y1155167D01*
G01X761427Y1156368D01*
G01X757729Y1157691D01*
G01X754077Y1159134D01*
G01X750475Y1160696D01*
G01X746925Y1162375D01*
G01X743432Y1164169D01*
G01X740000Y1166076D01*
G01X736631Y1168095D01*
G01X733331Y1170223D01*
G01X730102Y1172458D01*
G01X726948Y1174797D01*
G01X723872Y1177238D01*
G01X720878Y1179779D01*
G01X717968Y1182416D01*
G01X715147Y1185147D01*
G01X712416Y1187968D01*
G01X709779Y1190878D01*
G01X707238Y1193872D01*
G01X704797Y1196948D01*
G01X702458Y1200102D01*
G01X700223Y1203331D01*
G01X698095Y1206631D01*
G01X696076Y1209999D01*
G01X694169Y1213432D01*
G01X692375Y1216925D01*
G01X690696Y1220475D01*
G01X689134Y1224077D01*
G01X687691Y1227729D01*
G01X686368Y1231427D01*
G01X685167Y1235165D01*
G01X684088Y1238941D01*
G01X683134Y1242750D01*
G01X682305Y1246589D01*
G01X681602Y1250452D01*
G01X681026Y1254336D01*
G01X680577Y1258237D01*
G01X680256Y1262151D01*
G01X680064Y1266073D01*
G01X680000Y1270000D01*
G01X920000Y1270000D02*
G01X900000Y1320000D01*
G01X680000Y1270000D02*
G01X700000Y1320000D01*
G01X900000Y1320000D02*
G01X700000Y1320000D01*
G04 draw reference designator for part TR2*
G54D12*
G01X745909Y1407727D02*
G01X745909Y1360000D01*
G01X761818Y1407727D02*
G01X730000Y1407727D01*
G01X780000Y1407727D02*
G01X780000Y1360000D01*
G01X800454Y1407727D02*
G01X780000Y1407727D01*
G01X800454Y1407727D02*
G01X807272Y1405454D01*
G01X807272Y1405454D02*
G01X809545Y1403181D01*
G01X809545Y1403181D02*
G01X811818Y1398636D01*
G01X811818Y1398636D02*
G01X811818Y1394090D01*
G01X811818Y1394090D02*
G01X809545Y1389545D01*
G01X809545Y1389545D02*
G01X807272Y1387272D01*
G01X807272Y1387272D02*
G01X800454Y1385000D01*
G01X780000Y1385000D02*
G01X800454Y1385000D01*
G01X795909Y1385000D02*
G01X811818Y1360000D01*
G01X832272Y1398636D02*
G01X832272Y1396363D01*
G01X834545Y1403181D02*
G01X832272Y1398636D01*
G01X836818Y1405454D02*
G01X834545Y1403181D01*
G01X841363Y1407727D02*
G01X836818Y1405454D01*
G01X850454Y1407727D02*
G01X841363Y1407727D01*
G01X850454Y1407727D02*
G01X855000Y1405454D01*
G01X855000Y1405454D02*
G01X857272Y1403181D01*
G01X857272Y1403181D02*
G01X859545Y1398636D01*
G01X859545Y1398636D02*
G01X859545Y1394090D01*
G01X859545Y1394090D02*
G01X857272Y1389545D01*
G01X857272Y1389545D02*
G01X852727Y1382727D01*
G01X852727Y1382727D02*
G01X830000Y1360000D01*
G01X861818Y1360000D02*
G01X830000Y1360000D01*
G04 Draw part R3*
G04 draw part outline for part R3*
G01X1751000Y1559000D02*
G01X1751000Y1841000D01*
G01X1751000Y1841000D02*
G01X1849000Y1841000D01*
G01X1849000Y1841000D02*
G01X1849000Y1559000D01*
G01X1849000Y1559000D02*
G01X1751000Y1559000D01*
G04 draw reference designator for part R3*
G01X1750000Y2047727D02*
G01X1750000Y2000000D01*
G01X1770454Y2047727D02*
G01X1750000Y2047727D01*
G01X1770454Y2047727D02*
G01X1777272Y2045454D01*
G01X1777272Y2045454D02*
G01X1779545Y2043181D01*
G01X1779545Y2043181D02*
G01X1781818Y2038636D01*
G01X1781818Y2038636D02*
G01X1781818Y2034090D01*
G01X1781818Y2034090D02*
G01X1779545Y2029545D01*
G01X1779545Y2029545D02*
G01X1777272Y2027272D01*
G01X1777272Y2027272D02*
G01X1770454Y2025000D01*
G01X1750000Y2025000D02*
G01X1770454Y2025000D01*
G01X1765909Y2025000D02*
G01X1781818Y2000000D01*
G01X1829545Y2047727D02*
G01X1804545Y2047727D01*
G01X1829545Y2047727D02*
G01X1815909Y2029545D01*
G01X1822727Y2029545D02*
G01X1815909Y2029545D01*
G01X1822727Y2029545D02*
G01X1827272Y2027272D01*
G01X1827272Y2027272D02*
G01X1829545Y2025000D01*
G01X1829545Y2025000D02*
G01X1831818Y2018181D01*
G01X1831818Y2018181D02*
G01X1831818Y2013636D01*
G01X1831818Y2013636D02*
G01X1829545Y2006818D01*
G01X1829545Y2006818D02*
G01X1825000Y2002272D01*
G01X1825000Y2002272D02*
G01X1818181Y2000000D01*
G01X1811363Y2000000D02*
G01X1818181Y2000000D01*
G01X1804545Y2002272D02*
G01X1811363Y2000000D01*
G01X1802272Y2004545D02*
G01X1804545Y2002272D01*
G01X1800000Y2009090D02*
G01X1802272Y2004545D01*
G04 Draw part TR3*
G04 draw part outline for part TR3*
G54D11*
G01X1800000Y1330000D02*
G01X1796073Y1329935D01*
G01X1792151Y1329743D01*
G01X1788237Y1329422D01*
G01X1784336Y1328973D01*
G01X1780452Y1328397D01*
G01X1776589Y1327694D01*
G01X1772750Y1326865D01*
G01X1768941Y1325911D01*
G01X1765165Y1324832D01*
G01X1761427Y1323631D01*
G01X1757729Y1322308D01*
G01X1754077Y1320865D01*
G01X1750475Y1319303D01*
G01X1746925Y1317624D01*
G01X1743432Y1315830D01*
G01X1739999Y1313923D01*
G01X1736631Y1311904D01*
G01X1733331Y1309776D01*
G01X1730102Y1307541D01*
G01X1726948Y1305202D01*
G01X1723872Y1302761D01*
G01X1720878Y1300220D01*
G01X1717968Y1297583D01*
G01X1715147Y1294852D01*
G01X1712416Y1292031D01*
G01X1709779Y1289121D01*
G01X1707238Y1286127D01*
G01X1704797Y1283051D01*
G01X1702458Y1279897D01*
G01X1700223Y1276668D01*
G01X1698095Y1273368D01*
G01X1696076Y1269999D01*
G01X1694169Y1266567D01*
G01X1692375Y1263074D01*
G01X1690696Y1259524D01*
G01X1689134Y1255922D01*
G01X1687691Y1252270D01*
G01X1686368Y1248572D01*
G01X1685167Y1244834D01*
G01X1684088Y1241058D01*
G01X1683134Y1237249D01*
G01X1682305Y1233410D01*
G01X1681602Y1229547D01*
G01X1681026Y1225663D01*
G01X1680577Y1221762D01*
G01X1680256Y1217848D01*
G01X1680064Y1213926D01*
G01X1680000Y1210000D01*
G01X1800000Y1330000D02*
G01X1803926Y1329935D01*
G01X1807848Y1329743D01*
G01X1811762Y1329422D01*
G01X1815663Y1328973D01*
G01X1819547Y1328397D01*
G01X1823410Y1327694D01*
G01X1827249Y1326865D01*
G01X1831058Y1325911D01*
G01X1834834Y1324832D01*
G01X1838572Y1323631D01*
G01X1842270Y1322308D01*
G01X1845922Y1320865D01*
G01X1849524Y1319303D01*
G01X1853074Y1317624D01*
G01X1856567Y1315830D01*
G01X1859999Y1313923D01*
G01X1863368Y1311904D01*
G01X1866668Y1309776D01*
G01X1869897Y1307541D01*
G01X1873051Y1305202D01*
G01X1876127Y1302761D01*
G01X1879121Y1300220D01*
G01X1882031Y1297583D01*
G01X1884852Y1294852D01*
G01X1887583Y1292031D01*
G01X1890220Y1289121D01*
G01X1892761Y1286127D01*
G01X1895202Y1283051D01*
G01X1897541Y1279897D01*
G01X1899776Y1276668D01*
G01X1901904Y1273368D01*
G01X1903923Y1270000D01*
G01X1905830Y1266567D01*
G01X1907624Y1263074D01*
G01X1909303Y1259524D01*
G01X1910865Y1255922D01*
G01X1912308Y1252270D01*
G01X1913631Y1248572D01*
G01X1914832Y1244834D01*
G01X1915911Y1241058D01*
G01X1916865Y1237249D01*
G01X1917694Y1233410D01*
G01X1918397Y1229547D01*
G01X1918973Y1225663D01*
G01X1919422Y1221762D01*
G01X1919743Y1217848D01*
G01X1919935Y1213926D01*
G01X1920000Y1210000D01*
G01X1680000Y1210000D02*
G01X1700000Y1160000D01*
G01X1920000Y1210000D02*
G01X1900000Y1160000D01*
G01X1700000Y1160000D02*
G01X1900000Y1160000D01*
G04 draw reference designator for part TR3*
G54D12*
G01X1755909Y1407727D02*
G01X1755909Y1360000D01*
G01X1771818Y1407727D02*
G01X1740000Y1407727D01*
G01X1790000Y1407727D02*
G01X1790000Y1360000D01*
G01X1810454Y1407727D02*
G01X1790000Y1407727D01*
G01X1810454Y1407727D02*
G01X1817272Y1405454D01*
G01X1817272Y1405454D02*
G01X1819545Y1403181D01*
G01X1819545Y1403181D02*
G01X1821818Y1398636D01*
G01X1821818Y1398636D02*
G01X1821818Y1394090D01*
G01X1821818Y1394090D02*
G01X1819545Y1389545D01*
G01X1819545Y1389545D02*
G01X1817272Y1387272D01*
G01X1817272Y1387272D02*
G01X1810454Y1385000D01*
G01X1790000Y1385000D02*
G01X1810454Y1385000D01*
G01X1805909Y1385000D02*
G01X1821818Y1360000D01*
G01X1869545Y1407727D02*
G01X1844545Y1407727D01*
G01X1869545Y1407727D02*
G01X1855909Y1389545D01*
G01X1862727Y1389545D02*
G01X1855909Y1389545D01*
G01X1862727Y1389545D02*
G01X1867272Y1387272D01*
G01X1867272Y1387272D02*
G01X1869545Y1385000D01*
G01X1869545Y1385000D02*
G01X1871818Y1378181D01*
G01X1871818Y1378181D02*
G01X1871818Y1373636D01*
G01X1871818Y1373636D02*
G01X1869545Y1366818D01*
G01X1869545Y1366818D02*
G01X1865000Y1362272D01*
G01X1865000Y1362272D02*
G01X1858181Y1360000D01*
G01X1851363Y1360000D02*
G01X1858181Y1360000D01*
G01X1844545Y1362272D02*
G01X1851363Y1360000D01*
G01X1842272Y1364545D02*
G01X1844545Y1362272D01*
G01X1840000Y1369090D02*
G01X1842272Y1364545D01*
G04 Draw part R4*
G04 draw part outline for part R4*
G01X2051000Y1559000D02*
G01X2051000Y1841000D01*
G01X2051000Y1841000D02*
G01X2149000Y1841000D01*
G01X2149000Y1841000D02*
G01X2149000Y1559000D01*
G01X2149000Y1559000D02*
G01X2051000Y1559000D01*
G04 draw reference designator for part R4*
G01X2050000Y2047727D02*
G01X2050000Y2000000D01*
G01X2070454Y2047727D02*
G01X2050000Y2047727D01*
G01X2070454Y2047727D02*
G01X2077272Y2045454D01*
G01X2077272Y2045454D02*
G01X2079545Y2043181D01*
G01X2079545Y2043181D02*
G01X2081818Y2038636D01*
G01X2081818Y2038636D02*
G01X2081818Y2034090D01*
G01X2081818Y2034090D02*
G01X2079545Y2029545D01*
G01X2079545Y2029545D02*
G01X2077272Y2027272D01*
G01X2077272Y2027272D02*
G01X2070454Y2025000D01*
G01X2050000Y2025000D02*
G01X2070454Y2025000D01*
G01X2065909Y2025000D02*
G01X2081818Y2000000D01*
G01X2122727Y2047727D02*
G01X2100000Y2015909D01*
G01X2134090Y2015909D02*
G01X2100000Y2015909D01*
G01X2122727Y2047727D02*
G01X2122727Y2000000D01*
G04 Draw part TR4*
G04 draw part outline for part TR4*
G54D11*
G01X2100000Y1150000D02*
G01X2103926Y1150064D01*
G01X2107848Y1150256D01*
G01X2111762Y1150577D01*
G01X2115663Y1151026D01*
G01X2119547Y1151602D01*
G01X2123410Y1152305D01*
G01X2127249Y1153134D01*
G01X2131058Y1154088D01*
G01X2134834Y1155167D01*
G01X2138572Y1156368D01*
G01X2142270Y1157691D01*
G01X2145922Y1159134D01*
G01X2149524Y1160696D01*
G01X2153074Y1162375D01*
G01X2156567Y1164169D01*
G01X2160000Y1166076D01*
G01X2163368Y1168095D01*
G01X2166668Y1170223D01*
G01X2169897Y1172458D01*
G01X2173051Y1174797D01*
G01X2176127Y1177238D01*
G01X2179121Y1179779D01*
G01X2182031Y1182416D01*
G01X2184852Y1185147D01*
G01X2187583Y1187968D01*
G01X2190220Y1190878D01*
G01X2192761Y1193872D01*
G01X2195202Y1196948D01*
G01X2197541Y1200102D01*
G01X2199776Y1203331D01*
G01X2201904Y1206631D01*
G01X2203923Y1210000D01*
G01X2205830Y1213432D01*
G01X2207624Y1216925D01*
G01X2209303Y1220475D01*
G01X2210865Y1224077D01*
G01X2212308Y1227729D01*
G01X2213631Y1231427D01*
G01X2214832Y1235165D01*
G01X2215911Y1238941D01*
G01X2216865Y1242750D01*
G01X2217694Y1246589D01*
G01X2218397Y1250452D01*
G01X2218973Y1254336D01*
G01X2219422Y1258237D01*
G01X2219743Y1262151D01*
G01X2219935Y1266073D01*
G01X2220000Y1270000D01*
G01X2100000Y1150000D02*
G01X2096073Y1150064D01*
G01X2092151Y1150256D01*
G01X2088237Y1150577D01*
G01X2084336Y1151026D01*
G01X2080452Y1151602D01*
G01X2076589Y1152305D01*
G01X2072750Y1153134D01*
G01X2068941Y1154088D01*
G01X2065165Y1155167D01*
G01X2061427Y1156368D01*
G01X2057729Y1157691D01*
G01X2054077Y1159134D01*
G01X2050475Y1160696D01*
G01X2046925Y1162375D01*
G01X2043432Y1164169D01*
G01X2040000Y1166076D01*
G01X2036631Y1168095D01*
G01X2033331Y1170223D01*
G01X2030102Y1172458D01*
G01X2026948Y1174797D01*
G01X2023872Y1177238D01*
G01X2020878Y1179779D01*
G01X2017968Y1182416D01*
G01X2015147Y1185147D01*
G01X2012416Y1187968D01*
G01X2009779Y1190878D01*
G01X2007238Y1193872D01*
G01X2004797Y1196948D01*
G01X2002458Y1200102D01*
G01X2000223Y1203331D01*
G01X1998095Y1206631D01*
G01X1996076Y1209999D01*
G01X1994169Y1213432D01*
G01X1992375Y1216925D01*
G01X1990696Y1220475D01*
G01X1989134Y1224077D01*
G01X1987691Y1227729D01*
G01X1986368Y1231427D01*
G01X1985167Y1235165D01*
G01X1984088Y1238941D01*
G01X1983134Y1242750D01*
G01X1982305Y1246589D01*
G01X1981602Y1250452D01*
G01X1981026Y1254336D01*
G01X1980577Y1258237D01*
G01X1980256Y1262151D01*
G01X1980064Y1266073D01*
G01X1980000Y1270000D01*
G01X2220000Y1270000D02*
G01X2200000Y1320000D01*
G01X1980000Y1270000D02*
G01X2000000Y1320000D01*
G01X2200000Y1320000D02*
G01X2000000Y1320000D01*
G04 draw reference designator for part TR4*
G54D12*
G01X2055909Y1407727D02*
G01X2055909Y1360000D01*
G01X2071818Y1407727D02*
G01X2040000Y1407727D01*
G01X2090000Y1407727D02*
G01X2090000Y1360000D01*
G01X2110454Y1407727D02*
G01X2090000Y1407727D01*
G01X2110454Y1407727D02*
G01X2117272Y1405454D01*
G01X2117272Y1405454D02*
G01X2119545Y1403181D01*
G01X2119545Y1403181D02*
G01X2121818Y1398636D01*
G01X2121818Y1398636D02*
G01X2121818Y1394090D01*
G01X2121818Y1394090D02*
G01X2119545Y1389545D01*
G01X2119545Y1389545D02*
G01X2117272Y1387272D01*
G01X2117272Y1387272D02*
G01X2110454Y1385000D01*
G01X2090000Y1385000D02*
G01X2110454Y1385000D01*
G01X2105909Y1385000D02*
G01X2121818Y1360000D01*
G01X2162727Y1407727D02*
G01X2140000Y1375909D01*
G01X2174090Y1375909D02*
G01X2140000Y1375909D01*
G01X2162727Y1407727D02*
G01X2162727Y1360000D01*
G04 Draw part TR5*
G04 draw part outline for part TR5*
G54D11*
G01X3100000Y1330000D02*
G01X3096073Y1329935D01*
G01X3092151Y1329743D01*
G01X3088237Y1329422D01*
G01X3084336Y1328973D01*
G01X3080452Y1328397D01*
G01X3076589Y1327694D01*
G01X3072750Y1326865D01*
G01X3068941Y1325911D01*
G01X3065165Y1324832D01*
G01X3061427Y1323631D01*
G01X3057729Y1322308D01*
G01X3054077Y1320865D01*
G01X3050475Y1319303D01*
G01X3046925Y1317624D01*
G01X3043432Y1315830D01*
G01X3039999Y1313923D01*
G01X3036631Y1311904D01*
G01X3033331Y1309776D01*
G01X3030102Y1307541D01*
G01X3026948Y1305202D01*
G01X3023872Y1302761D01*
G01X3020878Y1300220D01*
G01X3017968Y1297583D01*
G01X3015147Y1294852D01*
G01X3012416Y1292031D01*
G01X3009779Y1289121D01*
G01X3007238Y1286127D01*
G01X3004797Y1283051D01*
G01X3002458Y1279897D01*
G01X3000223Y1276668D01*
G01X2998095Y1273368D01*
G01X2996076Y1269999D01*
G01X2994169Y1266567D01*
G01X2992375Y1263074D01*
G01X2990696Y1259524D01*
G01X2989134Y1255922D01*
G01X2987691Y1252270D01*
G01X2986368Y1248572D01*
G01X2985167Y1244834D01*
G01X2984088Y1241058D01*
G01X2983134Y1237249D01*
G01X2982305Y1233410D01*
G01X2981602Y1229547D01*
G01X2981026Y1225663D01*
G01X2980577Y1221762D01*
G01X2980256Y1217848D01*
G01X2980064Y1213926D01*
G01X2980000Y1210000D01*
G01X3100000Y1330000D02*
G01X3103926Y1329935D01*
G01X3107848Y1329743D01*
G01X3111762Y1329422D01*
G01X3115663Y1328973D01*
G01X3119547Y1328397D01*
G01X3123410Y1327694D01*
G01X3127249Y1326865D01*
G01X3131058Y1325911D01*
G01X3134834Y1324832D01*
G01X3138572Y1323631D01*
G01X3142270Y1322308D01*
G01X3145922Y1320865D01*
G01X3149524Y1319303D01*
G01X3153074Y1317624D01*
G01X3156567Y1315830D01*
G01X3159999Y1313923D01*
G01X3163368Y1311904D01*
G01X3166668Y1309776D01*
G01X3169897Y1307541D01*
G01X3173051Y1305202D01*
G01X3176127Y1302761D01*
G01X3179121Y1300220D01*
G01X3182031Y1297583D01*
G01X3184852Y1294852D01*
G01X3187583Y1292031D01*
G01X3190220Y1289121D01*
G01X3192761Y1286127D01*
G01X3195202Y1283051D01*
G01X3197541Y1279897D01*
G01X3199776Y1276668D01*
G01X3201904Y1273368D01*
G01X3203923Y1270000D01*
G01X3205830Y1266567D01*
G01X3207624Y1263074D01*
G01X3209303Y1259524D01*
G01X3210865Y1255922D01*
G01X3212308Y1252270D01*
G01X3213631Y1248572D01*
G01X3214832Y1244834D01*
G01X3215911Y1241058D01*
G01X3216865Y1237249D01*
G01X3217694Y1233410D01*
G01X3218397Y1229547D01*
G01X3218973Y1225663D01*
G01X3219422Y1221762D01*
G01X3219743Y1217848D01*
G01X3219935Y1213926D01*
G01X3220000Y1210000D01*
G01X2980000Y1210000D02*
G01X3000000Y1160000D01*
G01X3220000Y1210000D02*
G01X3200000Y1160000D01*
G01X3000000Y1160000D02*
G01X3200000Y1160000D01*
G04 draw reference designator for part TR5*
G54D12*
G01X3055909Y1417727D02*
G01X3055909Y1370000D01*
G01X3071818Y1417727D02*
G01X3040000Y1417727D01*
G01X3090000Y1417727D02*
G01X3090000Y1370000D01*
G01X3110454Y1417727D02*
G01X3090000Y1417727D01*
G01X3110454Y1417727D02*
G01X3117272Y1415454D01*
G01X3117272Y1415454D02*
G01X3119545Y1413181D01*
G01X3119545Y1413181D02*
G01X3121818Y1408636D01*
G01X3121818Y1408636D02*
G01X3121818Y1404090D01*
G01X3121818Y1404090D02*
G01X3119545Y1399545D01*
G01X3119545Y1399545D02*
G01X3117272Y1397272D01*
G01X3117272Y1397272D02*
G01X3110454Y1395000D01*
G01X3090000Y1395000D02*
G01X3110454Y1395000D01*
G01X3105909Y1395000D02*
G01X3121818Y1370000D01*
G01X3144545Y1417727D02*
G01X3167272Y1417727D01*
G01X3144545Y1417727D02*
G01X3142272Y1397272D01*
G01X3144545Y1399545D02*
G01X3142272Y1397272D01*
G01X3151363Y1401818D02*
G01X3144545Y1399545D01*
G01X3158181Y1401818D02*
G01X3151363Y1401818D01*
G01X3158181Y1401818D02*
G01X3165000Y1399545D01*
G01X3165000Y1399545D02*
G01X3169545Y1395000D01*
G01X3169545Y1395000D02*
G01X3171818Y1388181D01*
G01X3171818Y1388181D02*
G01X3171818Y1383636D01*
G01X3171818Y1383636D02*
G01X3169545Y1376818D01*
G01X3169545Y1376818D02*
G01X3165000Y1372272D01*
G01X3165000Y1372272D02*
G01X3158181Y1370000D01*
G01X3151363Y1370000D02*
G01X3158181Y1370000D01*
G01X3144545Y1372272D02*
G01X3151363Y1370000D01*
G01X3142272Y1374545D02*
G01X3144545Y1372272D01*
G01X3140000Y1379090D02*
G01X3142272Y1374545D01*
G04 Draw part R5*
G04 draw part outline for part R5*
G01X3351000Y1559000D02*
G01X3351000Y1841000D01*
G01X3351000Y1841000D02*
G01X3449000Y1841000D01*
G01X3449000Y1841000D02*
G01X3449000Y1559000D01*
G01X3449000Y1559000D02*
G01X3351000Y1559000D01*
G04 draw reference designator for part R5*
G01X3350000Y2047727D02*
G01X3350000Y2000000D01*
G01X3370454Y2047727D02*
G01X3350000Y2047727D01*
G01X3370454Y2047727D02*
G01X3377272Y2045454D01*
G01X3377272Y2045454D02*
G01X3379545Y2043181D01*
G01X3379545Y2043181D02*
G01X3381818Y2038636D01*
G01X3381818Y2038636D02*
G01X3381818Y2034090D01*
G01X3381818Y2034090D02*
G01X3379545Y2029545D01*
G01X3379545Y2029545D02*
G01X3377272Y2027272D01*
G01X3377272Y2027272D02*
G01X3370454Y2025000D01*
G01X3350000Y2025000D02*
G01X3370454Y2025000D01*
G01X3365909Y2025000D02*
G01X3381818Y2000000D01*
G01X3404545Y2047727D02*
G01X3427272Y2047727D01*
G01X3404545Y2047727D02*
G01X3402272Y2027272D01*
G01X3404545Y2029545D02*
G01X3402272Y2027272D01*
G01X3411363Y2031818D02*
G01X3404545Y2029545D01*
G01X3418181Y2031818D02*
G01X3411363Y2031818D01*
G01X3418181Y2031818D02*
G01X3425000Y2029545D01*
G01X3425000Y2029545D02*
G01X3429545Y2025000D01*
G01X3429545Y2025000D02*
G01X3431818Y2018181D01*
G01X3431818Y2018181D02*
G01X3431818Y2013636D01*
G01X3431818Y2013636D02*
G01X3429545Y2006818D01*
G01X3429545Y2006818D02*
G01X3425000Y2002272D01*
G01X3425000Y2002272D02*
G01X3418181Y2000000D01*
G01X3411363Y2000000D02*
G01X3418181Y2000000D01*
G01X3404545Y2002272D02*
G01X3411363Y2000000D01*
G01X3402272Y2004545D02*
G01X3404545Y2002272D01*
G01X3400000Y2009090D02*
G01X3402272Y2004545D01*
G04 Draw part TR6*
G04 draw part outline for part TR6*
G54D11*
G01X3400000Y1160000D02*
G01X3403926Y1160064D01*
G01X3407848Y1160256D01*
G01X3411762Y1160577D01*
G01X3415663Y1161026D01*
G01X3419547Y1161602D01*
G01X3423410Y1162305D01*
G01X3427249Y1163134D01*
G01X3431058Y1164088D01*
G01X3434834Y1165167D01*
G01X3438572Y1166368D01*
G01X3442270Y1167691D01*
G01X3445922Y1169134D01*
G01X3449524Y1170696D01*
G01X3453074Y1172375D01*
G01X3456567Y1174169D01*
G01X3460000Y1176076D01*
G01X3463368Y1178095D01*
G01X3466668Y1180223D01*
G01X3469897Y1182458D01*
G01X3473051Y1184797D01*
G01X3476127Y1187238D01*
G01X3479121Y1189779D01*
G01X3482031Y1192416D01*
G01X3484852Y1195147D01*
G01X3487583Y1197968D01*
G01X3490220Y1200878D01*
G01X3492761Y1203872D01*
G01X3495202Y1206948D01*
G01X3497541Y1210102D01*
G01X3499776Y1213331D01*
G01X3501904Y1216631D01*
G01X3503923Y1220000D01*
G01X3505830Y1223432D01*
G01X3507624Y1226925D01*
G01X3509303Y1230475D01*
G01X3510865Y1234077D01*
G01X3512308Y1237729D01*
G01X3513631Y1241427D01*
G01X3514832Y1245165D01*
G01X3515911Y1248941D01*
G01X3516865Y1252750D01*
G01X3517694Y1256589D01*
G01X3518397Y1260452D01*
G01X3518973Y1264336D01*
G01X3519422Y1268237D01*
G01X3519743Y1272151D01*
G01X3519935Y1276073D01*
G01X3520000Y1280000D01*
G01X3400000Y1160000D02*
G01X3396073Y1160064D01*
G01X3392151Y1160256D01*
G01X3388237Y1160577D01*
G01X3384336Y1161026D01*
G01X3380452Y1161602D01*
G01X3376589Y1162305D01*
G01X3372750Y1163134D01*
G01X3368941Y1164088D01*
G01X3365165Y1165167D01*
G01X3361427Y1166368D01*
G01X3357729Y1167691D01*
G01X3354077Y1169134D01*
G01X3350475Y1170696D01*
G01X3346925Y1172375D01*
G01X3343432Y1174169D01*
G01X3340000Y1176076D01*
G01X3336631Y1178095D01*
G01X3333331Y1180223D01*
G01X3330102Y1182458D01*
G01X3326948Y1184797D01*
G01X3323872Y1187238D01*
G01X3320878Y1189779D01*
G01X3317968Y1192416D01*
G01X3315147Y1195147D01*
G01X3312416Y1197968D01*
G01X3309779Y1200878D01*
G01X3307238Y1203872D01*
G01X3304797Y1206948D01*
G01X3302458Y1210102D01*
G01X3300223Y1213331D01*
G01X3298095Y1216631D01*
G01X3296076Y1219999D01*
G01X3294169Y1223432D01*
G01X3292375Y1226925D01*
G01X3290696Y1230475D01*
G01X3289134Y1234077D01*
G01X3287691Y1237729D01*
G01X3286368Y1241427D01*
G01X3285167Y1245165D01*
G01X3284088Y1248941D01*
G01X3283134Y1252750D01*
G01X3282305Y1256589D01*
G01X3281602Y1260452D01*
G01X3281026Y1264336D01*
G01X3280577Y1268237D01*
G01X3280256Y1272151D01*
G01X3280064Y1276073D01*
G01X3280000Y1280000D01*
G01X3520000Y1280000D02*
G01X3500000Y1330000D01*
G01X3280000Y1280000D02*
G01X3300000Y1330000D01*
G01X3500000Y1330000D02*
G01X3300000Y1330000D01*
G04 draw reference designator for part TR6*
G54D12*
G01X3345909Y1417727D02*
G01X3345909Y1370000D01*
G01X3361818Y1417727D02*
G01X3330000Y1417727D01*
G01X3380000Y1417727D02*
G01X3380000Y1370000D01*
G01X3400454Y1417727D02*
G01X3380000Y1417727D01*
G01X3400454Y1417727D02*
G01X3407272Y1415454D01*
G01X3407272Y1415454D02*
G01X3409545Y1413181D01*
G01X3409545Y1413181D02*
G01X3411818Y1408636D01*
G01X3411818Y1408636D02*
G01X3411818Y1404090D01*
G01X3411818Y1404090D02*
G01X3409545Y1399545D01*
G01X3409545Y1399545D02*
G01X3407272Y1397272D01*
G01X3407272Y1397272D02*
G01X3400454Y1395000D01*
G01X3380000Y1395000D02*
G01X3400454Y1395000D01*
G01X3395909Y1395000D02*
G01X3411818Y1370000D01*
G01X3455000Y1415454D02*
G01X3457272Y1410909D01*
G01X3448181Y1417727D02*
G01X3455000Y1415454D01*
G01X3443636Y1417727D02*
G01X3448181Y1417727D01*
G01X3443636Y1417727D02*
G01X3436818Y1415454D01*
G01X3436818Y1415454D02*
G01X3432272Y1408636D01*
G01X3432272Y1408636D02*
G01X3430000Y1397272D01*
G01X3430000Y1397272D02*
G01X3430000Y1385909D01*
G01X3430000Y1385909D02*
G01X3432272Y1376818D01*
G01X3432272Y1376818D02*
G01X3436818Y1372272D01*
G01X3436818Y1372272D02*
G01X3443636Y1370000D01*
G01X3445909Y1370000D02*
G01X3443636Y1370000D01*
G01X3452727Y1372272D02*
G01X3445909Y1370000D01*
G01X3457272Y1376818D02*
G01X3452727Y1372272D01*
G01X3459545Y1383636D02*
G01X3457272Y1376818D01*
G01X3459545Y1385909D02*
G01X3459545Y1383636D01*
G01X3457272Y1392727D02*
G01X3459545Y1385909D01*
G01X3452727Y1397272D02*
G01X3457272Y1392727D01*
G01X3445909Y1399545D02*
G01X3452727Y1397272D01*
G01X3443636Y1399545D02*
G01X3445909Y1399545D01*
G01X3443636Y1399545D02*
G01X3436818Y1397272D01*
G01X3436818Y1397272D02*
G01X3432272Y1392727D01*
G01X3432272Y1392727D02*
G01X3430000Y1385909D01*
G04 Draw part R6*
G04 draw part outline for part R6*
G01X2601000Y1559000D02*
G01X2601000Y1841000D01*
G01X2601000Y1841000D02*
G01X2699000Y1841000D01*
G01X2699000Y1841000D02*
G01X2699000Y1559000D01*
G01X2699000Y1559000D02*
G01X2601000Y1559000D01*
G04 draw reference designator for part R6*
G01X2600000Y2047727D02*
G01X2600000Y2000000D01*
G01X2620454Y2047727D02*
G01X2600000Y2047727D01*
G01X2620454Y2047727D02*
G01X2627272Y2045454D01*
G01X2627272Y2045454D02*
G01X2629545Y2043181D01*
G01X2629545Y2043181D02*
G01X2631818Y2038636D01*
G01X2631818Y2038636D02*
G01X2631818Y2034090D01*
G01X2631818Y2034090D02*
G01X2629545Y2029545D01*
G01X2629545Y2029545D02*
G01X2627272Y2027272D01*
G01X2627272Y2027272D02*
G01X2620454Y2025000D01*
G01X2600000Y2025000D02*
G01X2620454Y2025000D01*
G01X2615909Y2025000D02*
G01X2631818Y2000000D01*
G01X2675000Y2045454D02*
G01X2677272Y2040909D01*
G01X2668181Y2047727D02*
G01X2675000Y2045454D01*
G01X2663636Y2047727D02*
G01X2668181Y2047727D01*
G01X2663636Y2047727D02*
G01X2656818Y2045454D01*
G01X2656818Y2045454D02*
G01X2652272Y2038636D01*
G01X2652272Y2038636D02*
G01X2650000Y2027272D01*
G01X2650000Y2027272D02*
G01X2650000Y2015909D01*
G01X2650000Y2015909D02*
G01X2652272Y2006818D01*
G01X2652272Y2006818D02*
G01X2656818Y2002272D01*
G01X2656818Y2002272D02*
G01X2663636Y2000000D01*
G01X2665909Y2000000D02*
G01X2663636Y2000000D01*
G01X2672727Y2002272D02*
G01X2665909Y2000000D01*
G01X2677272Y2006818D02*
G01X2672727Y2002272D01*
G01X2679545Y2013636D02*
G01X2677272Y2006818D01*
G01X2679545Y2015909D02*
G01X2679545Y2013636D01*
G01X2677272Y2022727D02*
G01X2679545Y2015909D01*
G01X2672727Y2027272D02*
G01X2677272Y2022727D01*
G01X2665909Y2029545D02*
G01X2672727Y2027272D01*
G01X2663636Y2029545D02*
G01X2665909Y2029545D01*
G01X2663636Y2029545D02*
G01X2656818Y2027272D01*
G01X2656818Y2027272D02*
G01X2652272Y2022727D01*
G01X2652272Y2022727D02*
G01X2650000Y2015909D01*
G04 Draw part TR7*
G04 draw part outline for part TR7*
G54D11*
G01X2650000Y1330000D02*
G01X2646073Y1329935D01*
G01X2642151Y1329743D01*
G01X2638237Y1329422D01*
G01X2634336Y1328973D01*
G01X2630452Y1328397D01*
G01X2626589Y1327694D01*
G01X2622750Y1326865D01*
G01X2618941Y1325911D01*
G01X2615165Y1324832D01*
G01X2611427Y1323631D01*
G01X2607729Y1322308D01*
G01X2604077Y1320865D01*
G01X2600475Y1319303D01*
G01X2596925Y1317624D01*
G01X2593432Y1315830D01*
G01X2589999Y1313923D01*
G01X2586631Y1311904D01*
G01X2583331Y1309776D01*
G01X2580102Y1307541D01*
G01X2576948Y1305202D01*
G01X2573872Y1302761D01*
G01X2570878Y1300220D01*
G01X2567968Y1297583D01*
G01X2565147Y1294852D01*
G01X2562416Y1292031D01*
G01X2559779Y1289121D01*
G01X2557238Y1286127D01*
G01X2554797Y1283051D01*
G01X2552458Y1279897D01*
G01X2550223Y1276668D01*
G01X2548095Y1273368D01*
G01X2546076Y1269999D01*
G01X2544169Y1266567D01*
G01X2542375Y1263074D01*
G01X2540696Y1259524D01*
G01X2539134Y1255922D01*
G01X2537691Y1252270D01*
G01X2536368Y1248572D01*
G01X2535167Y1244834D01*
G01X2534088Y1241058D01*
G01X2533134Y1237249D01*
G01X2532305Y1233410D01*
G01X2531602Y1229547D01*
G01X2531026Y1225663D01*
G01X2530577Y1221762D01*
G01X2530256Y1217848D01*
G01X2530064Y1213926D01*
G01X2530000Y1210000D01*
G01X2650000Y1330000D02*
G01X2653926Y1329935D01*
G01X2657848Y1329743D01*
G01X2661762Y1329422D01*
G01X2665663Y1328973D01*
G01X2669547Y1328397D01*
G01X2673410Y1327694D01*
G01X2677249Y1326865D01*
G01X2681058Y1325911D01*
G01X2684834Y1324832D01*
G01X2688572Y1323631D01*
G01X2692270Y1322308D01*
G01X2695922Y1320865D01*
G01X2699524Y1319303D01*
G01X2703074Y1317624D01*
G01X2706567Y1315830D01*
G01X2709999Y1313923D01*
G01X2713368Y1311904D01*
G01X2716668Y1309776D01*
G01X2719897Y1307541D01*
G01X2723051Y1305202D01*
G01X2726127Y1302761D01*
G01X2729121Y1300220D01*
G01X2732031Y1297583D01*
G01X2734852Y1294852D01*
G01X2737583Y1292031D01*
G01X2740220Y1289121D01*
G01X2742761Y1286127D01*
G01X2745202Y1283051D01*
G01X2747541Y1279897D01*
G01X2749776Y1276668D01*
G01X2751904Y1273368D01*
G01X2753923Y1270000D01*
G01X2755830Y1266567D01*
G01X2757624Y1263074D01*
G01X2759303Y1259524D01*
G01X2760865Y1255922D01*
G01X2762308Y1252270D01*
G01X2763631Y1248572D01*
G01X2764832Y1244834D01*
G01X2765911Y1241058D01*
G01X2766865Y1237249D01*
G01X2767694Y1233410D01*
G01X2768397Y1229547D01*
G01X2768973Y1225663D01*
G01X2769422Y1221762D01*
G01X2769743Y1217848D01*
G01X2769935Y1213926D01*
G01X2770000Y1210000D01*
G01X2530000Y1210000D02*
G01X2550000Y1160000D01*
G01X2770000Y1210000D02*
G01X2750000Y1160000D01*
G01X2550000Y1160000D02*
G01X2750000Y1160000D01*
G04 draw reference designator for part TR7*
G54D12*
G01X2595909Y1407727D02*
G01X2595909Y1360000D01*
G01X2611818Y1407727D02*
G01X2580000Y1407727D01*
G01X2630000Y1407727D02*
G01X2630000Y1360000D01*
G01X2650454Y1407727D02*
G01X2630000Y1407727D01*
G01X2650454Y1407727D02*
G01X2657272Y1405454D01*
G01X2657272Y1405454D02*
G01X2659545Y1403181D01*
G01X2659545Y1403181D02*
G01X2661818Y1398636D01*
G01X2661818Y1398636D02*
G01X2661818Y1394090D01*
G01X2661818Y1394090D02*
G01X2659545Y1389545D01*
G01X2659545Y1389545D02*
G01X2657272Y1387272D01*
G01X2657272Y1387272D02*
G01X2650454Y1385000D01*
G01X2630000Y1385000D02*
G01X2650454Y1385000D01*
G01X2645909Y1385000D02*
G01X2661818Y1360000D01*
G01X2711818Y1407727D02*
G01X2689090Y1360000D01*
G01X2711818Y1407727D02*
G01X2680000Y1407727D01*
G04 Draw part D1*
G04 draw part outline for part D1*
G54D11*
G01X1250000Y620000D02*
G01X1246074Y620077D01*
G01X1242154Y620308D01*
G01X1238246Y620693D01*
G01X1234356Y621231D01*
G01X1230490Y621921D01*
G01X1226655Y622762D01*
G01X1222855Y623754D01*
G01X1219098Y624894D01*
G01X1215388Y626180D01*
G01X1211731Y627612D01*
G01X1208134Y629185D01*
G01X1204600Y630899D01*
G01X1201137Y632750D01*
G01X1197750Y634735D01*
G01X1194442Y636853D01*
G01X1191221Y639098D01*
G01X1188090Y641468D01*
G01X1185055Y643959D01*
G01X1182119Y646567D01*
G01X1179289Y649289D01*
G01X1176567Y652119D01*
G01X1173959Y655055D01*
G01X1171468Y658090D01*
G01X1169098Y661221D01*
G01X1166853Y664442D01*
G01X1164735Y667750D01*
G01X1162750Y671137D01*
G01X1160899Y674600D01*
G01X1159185Y678134D01*
G01X1157612Y681731D01*
G01X1156180Y685388D01*
G01X1154894Y689098D01*
G01X1153754Y692855D01*
G01X1152762Y696655D01*
G01X1151921Y700490D01*
G01X1151231Y704356D01*
G01X1150693Y708246D01*
G01X1150308Y712154D01*
G01X1150077Y716074D01*
G01X1150000Y720000D01*
G01X1150000Y720000D02*
G01X1150077Y723925D01*
G01X1150308Y727845D01*
G01X1150693Y731753D01*
G01X1151231Y735643D01*
G01X1151921Y739509D01*
G01X1152762Y743344D01*
G01X1153754Y747144D01*
G01X1154894Y750901D01*
G01X1156180Y754611D01*
G01X1157612Y758268D01*
G01X1159185Y761865D01*
G01X1160899Y765399D01*
G01X1162750Y768862D01*
G01X1164735Y772249D01*
G01X1166853Y775557D01*
G01X1169098Y778778D01*
G01X1171468Y781909D01*
G01X1173959Y784944D01*
G01X1176567Y787880D01*
G01X1179289Y790710D01*
G01X1182119Y793432D01*
G01X1185055Y796040D01*
G01X1188090Y798531D01*
G01X1191221Y800901D01*
G01X1194442Y803146D01*
G01X1197750Y805264D01*
G01X1201137Y807249D01*
G01X1204600Y809100D01*
G01X1208134Y810814D01*
G01X1211731Y812387D01*
G01X1215388Y813819D01*
G01X1219098Y815105D01*
G01X1222855Y816245D01*
G01X1226655Y817236D01*
G01X1230490Y818078D01*
G01X1234356Y818768D01*
G01X1238246Y819306D01*
G01X1242154Y819691D01*
G01X1246074Y819922D01*
G01X1250000Y820000D01*
G01X1250000Y820000D02*
G01X1253925Y819922D01*
G01X1257845Y819691D01*
G01X1261753Y819306D01*
G01X1265643Y818768D01*
G01X1269509Y818078D01*
G01X1273344Y817236D01*
G01X1277144Y816245D01*
G01X1280901Y815105D01*
G01X1284611Y813819D01*
G01X1288268Y812387D01*
G01X1291865Y810814D01*
G01X1295399Y809100D01*
G01X1298862Y807249D01*
G01X1302249Y805264D01*
G01X1305557Y803146D01*
G01X1308778Y800901D01*
G01X1311909Y798531D01*
G01X1314944Y796040D01*
G01X1317880Y793432D01*
G01X1320710Y790710D01*
G01X1323432Y787880D01*
G01X1326040Y784944D01*
G01X1328531Y781909D01*
G01X1330901Y778778D01*
G01X1333146Y775557D01*
G01X1335264Y772249D01*
G01X1337249Y768862D01*
G01X1339100Y765399D01*
G01X1340814Y761865D01*
G01X1342387Y758268D01*
G01X1343819Y754611D01*
G01X1345105Y750901D01*
G01X1346245Y747144D01*
G01X1347236Y743344D01*
G01X1348078Y739509D01*
G01X1348768Y735643D01*
G01X1349306Y731753D01*
G01X1349691Y727845D01*
G01X1349922Y723925D01*
G01X1350000Y720000D01*
G01X1350000Y720000D02*
G01X1349922Y716074D01*
G01X1349691Y712154D01*
G01X1349306Y708246D01*
G01X1348768Y704356D01*
G01X1348078Y700490D01*
G01X1347236Y696655D01*
G01X1346245Y692855D01*
G01X1345105Y689098D01*
G01X1343819Y685388D01*
G01X1342387Y681731D01*
G01X1340814Y678134D01*
G01X1339100Y674600D01*
G01X1337249Y671137D01*
G01X1335264Y667750D01*
G01X1333146Y664442D01*
G01X1330901Y661221D01*
G01X1328531Y658090D01*
G01X1326040Y655055D01*
G01X1323432Y652119D01*
G01X1320710Y649289D01*
G01X1317880Y646567D01*
G01X1314944Y643959D01*
G01X1311909Y641468D01*
G01X1308778Y639098D01*
G01X1305557Y636853D01*
G01X1302249Y634735D01*
G01X1298862Y632750D01*
G01X1295399Y630899D01*
G01X1291865Y629185D01*
G01X1288268Y627612D01*
G01X1284611Y626180D01*
G01X1280901Y624894D01*
G01X1277144Y623754D01*
G01X1273344Y622762D01*
G01X1269509Y621921D01*
G01X1265643Y621231D01*
G01X1261753Y620693D01*
G01X1257845Y620308D01*
G01X1253925Y620077D01*
G01X1250000Y620000D01*
G01X1160000Y760000D02*
G01X1160000Y680000D01*
G54D10*
G01X1298181Y797727D02*
G01X1280000Y750000D01*
G01X1298181Y797727D02*
G01X1316363Y750000D01*
G01X1309545Y765909D02*
G01X1286818Y765909D01*
G04 draw reference designator for part D1*
G01X1220000Y887727D02*
G01X1220000Y840000D01*
G01X1235909Y887727D02*
G01X1220000Y887727D01*
G01X1235909Y887727D02*
G01X1242727Y885454D01*
G01X1242727Y885454D02*
G01X1247272Y880909D01*
G01X1247272Y880909D02*
G01X1249545Y876363D01*
G01X1249545Y876363D02*
G01X1251818Y869545D01*
G01X1251818Y869545D02*
G01X1251818Y858181D01*
G01X1251818Y858181D02*
G01X1249545Y851363D01*
G01X1249545Y851363D02*
G01X1247272Y846818D01*
G01X1247272Y846818D02*
G01X1242727Y842272D01*
G01X1242727Y842272D02*
G01X1235909Y840000D01*
G01X1220000Y840000D02*
G01X1235909Y840000D01*
G01X1274545Y880909D02*
G01X1270000Y878636D01*
G01X1281363Y887727D02*
G01X1274545Y880909D01*
G01X1281363Y887727D02*
G01X1281363Y840000D01*
G04 Draw part D2*
G04 draw part outline for part D2*
G54D11*
G01X2550000Y620000D02*
G01X2546074Y620077D01*
G01X2542154Y620308D01*
G01X2538246Y620693D01*
G01X2534356Y621231D01*
G01X2530490Y621921D01*
G01X2526655Y622762D01*
G01X2522855Y623754D01*
G01X2519098Y624894D01*
G01X2515388Y626180D01*
G01X2511731Y627612D01*
G01X2508134Y629185D01*
G01X2504600Y630899D01*
G01X2501137Y632750D01*
G01X2497750Y634735D01*
G01X2494442Y636853D01*
G01X2491221Y639098D01*
G01X2488090Y641468D01*
G01X2485055Y643959D01*
G01X2482119Y646567D01*
G01X2479289Y649289D01*
G01X2476567Y652119D01*
G01X2473959Y655055D01*
G01X2471468Y658090D01*
G01X2469098Y661221D01*
G01X2466853Y664442D01*
G01X2464735Y667750D01*
G01X2462750Y671137D01*
G01X2460899Y674600D01*
G01X2459185Y678134D01*
G01X2457612Y681731D01*
G01X2456180Y685388D01*
G01X2454894Y689098D01*
G01X2453754Y692855D01*
G01X2452762Y696655D01*
G01X2451921Y700490D01*
G01X2451231Y704356D01*
G01X2450693Y708246D01*
G01X2450308Y712154D01*
G01X2450077Y716074D01*
G01X2450000Y720000D01*
G01X2450000Y720000D02*
G01X2450077Y723925D01*
G01X2450308Y727845D01*
G01X2450693Y731753D01*
G01X2451231Y735643D01*
G01X2451921Y739509D01*
G01X2452762Y743344D01*
G01X2453754Y747144D01*
G01X2454894Y750901D01*
G01X2456180Y754611D01*
G01X2457612Y758268D01*
G01X2459185Y761865D01*
G01X2460899Y765399D01*
G01X2462750Y768862D01*
G01X2464735Y772249D01*
G01X2466853Y775557D01*
G01X2469098Y778778D01*
G01X2471468Y781909D01*
G01X2473959Y784944D01*
G01X2476567Y787880D01*
G01X2479289Y790710D01*
G01X2482119Y793432D01*
G01X2485055Y796040D01*
G01X2488090Y798531D01*
G01X2491221Y800901D01*
G01X2494442Y803146D01*
G01X2497750Y805264D01*
G01X2501137Y807249D01*
G01X2504600Y809100D01*
G01X2508134Y810814D01*
G01X2511731Y812387D01*
G01X2515388Y813819D01*
G01X2519098Y815105D01*
G01X2522855Y816245D01*
G01X2526655Y817236D01*
G01X2530490Y818078D01*
G01X2534356Y818768D01*
G01X2538246Y819306D01*
G01X2542154Y819691D01*
G01X2546074Y819922D01*
G01X2550000Y820000D01*
G01X2550000Y820000D02*
G01X2553925Y819922D01*
G01X2557845Y819691D01*
G01X2561753Y819306D01*
G01X2565643Y818768D01*
G01X2569509Y818078D01*
G01X2573344Y817236D01*
G01X2577144Y816245D01*
G01X2580901Y815105D01*
G01X2584611Y813819D01*
G01X2588268Y812387D01*
G01X2591865Y810814D01*
G01X2595399Y809100D01*
G01X2598862Y807249D01*
G01X2602249Y805264D01*
G01X2605557Y803146D01*
G01X2608778Y800901D01*
G01X2611909Y798531D01*
G01X2614944Y796040D01*
G01X2617880Y793432D01*
G01X2620710Y790710D01*
G01X2623432Y787880D01*
G01X2626040Y784944D01*
G01X2628531Y781909D01*
G01X2630901Y778778D01*
G01X2633146Y775557D01*
G01X2635264Y772249D01*
G01X2637249Y768862D01*
G01X2639100Y765399D01*
G01X2640814Y761865D01*
G01X2642387Y758268D01*
G01X2643819Y754611D01*
G01X2645105Y750901D01*
G01X2646245Y747144D01*
G01X2647236Y743344D01*
G01X2648078Y739509D01*
G01X2648768Y735643D01*
G01X2649306Y731753D01*
G01X2649691Y727845D01*
G01X2649922Y723925D01*
G01X2650000Y720000D01*
G01X2650000Y720000D02*
G01X2649922Y716074D01*
G01X2649691Y712154D01*
G01X2649306Y708246D01*
G01X2648768Y704356D01*
G01X2648078Y700490D01*
G01X2647236Y696655D01*
G01X2646245Y692855D01*
G01X2645105Y689098D01*
G01X2643819Y685388D01*
G01X2642387Y681731D01*
G01X2640814Y678134D01*
G01X2639100Y674600D01*
G01X2637249Y671137D01*
G01X2635264Y667750D01*
G01X2633146Y664442D01*
G01X2630901Y661221D01*
G01X2628531Y658090D01*
G01X2626040Y655055D01*
G01X2623432Y652119D01*
G01X2620710Y649289D01*
G01X2617880Y646567D01*
G01X2614944Y643959D01*
G01X2611909Y641468D01*
G01X2608778Y639098D01*
G01X2605557Y636853D01*
G01X2602249Y634735D01*
G01X2598862Y632750D01*
G01X2595399Y630899D01*
G01X2591865Y629185D01*
G01X2588268Y627612D01*
G01X2584611Y626180D01*
G01X2580901Y624894D01*
G01X2577144Y623754D01*
G01X2573344Y622762D01*
G01X2569509Y621921D01*
G01X2565643Y621231D01*
G01X2561753Y620693D01*
G01X2557845Y620308D01*
G01X2553925Y620077D01*
G01X2550000Y620000D01*
G01X2460000Y760000D02*
G01X2460000Y680000D01*
G54D10*
G01X2598181Y797727D02*
G01X2580000Y750000D01*
G01X2598181Y797727D02*
G01X2616363Y750000D01*
G01X2609545Y765909D02*
G01X2586818Y765909D01*
G04 draw reference designator for part D2*
G01X2510000Y887727D02*
G01X2510000Y840000D01*
G01X2525909Y887727D02*
G01X2510000Y887727D01*
G01X2525909Y887727D02*
G01X2532727Y885454D01*
G01X2532727Y885454D02*
G01X2537272Y880909D01*
G01X2537272Y880909D02*
G01X2539545Y876363D01*
G01X2539545Y876363D02*
G01X2541818Y869545D01*
G01X2541818Y869545D02*
G01X2541818Y858181D01*
G01X2541818Y858181D02*
G01X2539545Y851363D01*
G01X2539545Y851363D02*
G01X2537272Y846818D01*
G01X2537272Y846818D02*
G01X2532727Y842272D01*
G01X2532727Y842272D02*
G01X2525909Y840000D01*
G01X2510000Y840000D02*
G01X2525909Y840000D01*
G01X2562272Y878636D02*
G01X2562272Y876363D01*
G01X2564545Y883181D02*
G01X2562272Y878636D01*
G01X2566818Y885454D02*
G01X2564545Y883181D01*
G01X2571363Y887727D02*
G01X2566818Y885454D01*
G01X2580454Y887727D02*
G01X2571363Y887727D01*
G01X2580454Y887727D02*
G01X2585000Y885454D01*
G01X2585000Y885454D02*
G01X2587272Y883181D01*
G01X2587272Y883181D02*
G01X2589545Y878636D01*
G01X2589545Y878636D02*
G01X2589545Y874090D01*
G01X2589545Y874090D02*
G01X2587272Y869545D01*
G01X2587272Y869545D02*
G01X2582727Y862727D01*
G01X2582727Y862727D02*
G01X2560000Y840000D01*
G01X2591818Y840000D02*
G01X2560000Y840000D01*
G04 Draw part D3*
G04 draw part outline for part D3*
G54D11*
G01X1250000Y320000D02*
G01X1246074Y320077D01*
G01X1242154Y320308D01*
G01X1238246Y320693D01*
G01X1234356Y321231D01*
G01X1230490Y321921D01*
G01X1226655Y322762D01*
G01X1222855Y323754D01*
G01X1219098Y324894D01*
G01X1215388Y326180D01*
G01X1211731Y327612D01*
G01X1208134Y329185D01*
G01X1204600Y330899D01*
G01X1201137Y332750D01*
G01X1197750Y334735D01*
G01X1194442Y336853D01*
G01X1191221Y339098D01*
G01X1188090Y341468D01*
G01X1185055Y343959D01*
G01X1182119Y346567D01*
G01X1179289Y349289D01*
G01X1176567Y352119D01*
G01X1173959Y355055D01*
G01X1171468Y358090D01*
G01X1169098Y361221D01*
G01X1166853Y364442D01*
G01X1164735Y367750D01*
G01X1162750Y371137D01*
G01X1160899Y374600D01*
G01X1159185Y378134D01*
G01X1157612Y381731D01*
G01X1156180Y385388D01*
G01X1154894Y389098D01*
G01X1153754Y392855D01*
G01X1152762Y396655D01*
G01X1151921Y400490D01*
G01X1151231Y404356D01*
G01X1150693Y408246D01*
G01X1150308Y412154D01*
G01X1150077Y416074D01*
G01X1150000Y420000D01*
G01X1150000Y420000D02*
G01X1150077Y423925D01*
G01X1150308Y427845D01*
G01X1150693Y431753D01*
G01X1151231Y435643D01*
G01X1151921Y439509D01*
G01X1152762Y443344D01*
G01X1153754Y447144D01*
G01X1154894Y450901D01*
G01X1156180Y454611D01*
G01X1157612Y458268D01*
G01X1159185Y461865D01*
G01X1160899Y465399D01*
G01X1162750Y468862D01*
G01X1164735Y472249D01*
G01X1166853Y475557D01*
G01X1169098Y478778D01*
G01X1171468Y481909D01*
G01X1173959Y484944D01*
G01X1176567Y487880D01*
G01X1179289Y490710D01*
G01X1182119Y493432D01*
G01X1185055Y496040D01*
G01X1188090Y498531D01*
G01X1191221Y500901D01*
G01X1194442Y503146D01*
G01X1197750Y505264D01*
G01X1201137Y507249D01*
G01X1204600Y509100D01*
G01X1208134Y510814D01*
G01X1211731Y512387D01*
G01X1215388Y513819D01*
G01X1219098Y515105D01*
G01X1222855Y516245D01*
G01X1226655Y517236D01*
G01X1230490Y518078D01*
G01X1234356Y518768D01*
G01X1238246Y519306D01*
G01X1242154Y519691D01*
G01X1246074Y519922D01*
G01X1250000Y520000D01*
G01X1250000Y520000D02*
G01X1253925Y519922D01*
G01X1257845Y519691D01*
G01X1261753Y519306D01*
G01X1265643Y518768D01*
G01X1269509Y518078D01*
G01X1273344Y517236D01*
G01X1277144Y516245D01*
G01X1280901Y515105D01*
G01X1284611Y513819D01*
G01X1288268Y512387D01*
G01X1291865Y510814D01*
G01X1295399Y509100D01*
G01X1298862Y507249D01*
G01X1302249Y505264D01*
G01X1305557Y503146D01*
G01X1308778Y500901D01*
G01X1311909Y498531D01*
G01X1314944Y496040D01*
G01X1317880Y493432D01*
G01X1320710Y490710D01*
G01X1323432Y487880D01*
G01X1326040Y484944D01*
G01X1328531Y481909D01*
G01X1330901Y478778D01*
G01X1333146Y475557D01*
G01X1335264Y472249D01*
G01X1337249Y468862D01*
G01X1339100Y465399D01*
G01X1340814Y461865D01*
G01X1342387Y458268D01*
G01X1343819Y454611D01*
G01X1345105Y450901D01*
G01X1346245Y447144D01*
G01X1347236Y443344D01*
G01X1348078Y439509D01*
G01X1348768Y435643D01*
G01X1349306Y431753D01*
G01X1349691Y427845D01*
G01X1349922Y423925D01*
G01X1350000Y420000D01*
G01X1350000Y420000D02*
G01X1349922Y416074D01*
G01X1349691Y412154D01*
G01X1349306Y408246D01*
G01X1348768Y404356D01*
G01X1348078Y400490D01*
G01X1347236Y396655D01*
G01X1346245Y392855D01*
G01X1345105Y389098D01*
G01X1343819Y385388D01*
G01X1342387Y381731D01*
G01X1340814Y378134D01*
G01X1339100Y374600D01*
G01X1337249Y371137D01*
G01X1335264Y367750D01*
G01X1333146Y364442D01*
G01X1330901Y361221D01*
G01X1328531Y358090D01*
G01X1326040Y355055D01*
G01X1323432Y352119D01*
G01X1320710Y349289D01*
G01X1317880Y346567D01*
G01X1314944Y343959D01*
G01X1311909Y341468D01*
G01X1308778Y339098D01*
G01X1305557Y336853D01*
G01X1302249Y334735D01*
G01X1298862Y332750D01*
G01X1295399Y330899D01*
G01X1291865Y329185D01*
G01X1288268Y327612D01*
G01X1284611Y326180D01*
G01X1280901Y324894D01*
G01X1277144Y323754D01*
G01X1273344Y322762D01*
G01X1269509Y321921D01*
G01X1265643Y321231D01*
G01X1261753Y320693D01*
G01X1257845Y320308D01*
G01X1253925Y320077D01*
G01X1250000Y320000D01*
G01X1160000Y460000D02*
G01X1160000Y380000D01*
G54D10*
G01X1298181Y497727D02*
G01X1280000Y450000D01*
G01X1298181Y497727D02*
G01X1316363Y450000D01*
G01X1309545Y465909D02*
G01X1286818Y465909D01*
G04 draw reference designator for part D3*
G01X1210000Y587727D02*
G01X1210000Y540000D01*
G01X1225909Y587727D02*
G01X1210000Y587727D01*
G01X1225909Y587727D02*
G01X1232727Y585454D01*
G01X1232727Y585454D02*
G01X1237272Y580909D01*
G01X1237272Y580909D02*
G01X1239545Y576363D01*
G01X1239545Y576363D02*
G01X1241818Y569545D01*
G01X1241818Y569545D02*
G01X1241818Y558181D01*
G01X1241818Y558181D02*
G01X1239545Y551363D01*
G01X1239545Y551363D02*
G01X1237272Y546818D01*
G01X1237272Y546818D02*
G01X1232727Y542272D01*
G01X1232727Y542272D02*
G01X1225909Y540000D01*
G01X1210000Y540000D02*
G01X1225909Y540000D01*
G01X1289545Y587727D02*
G01X1264545Y587727D01*
G01X1289545Y587727D02*
G01X1275909Y569545D01*
G01X1282727Y569545D02*
G01X1275909Y569545D01*
G01X1282727Y569545D02*
G01X1287272Y567272D01*
G01X1287272Y567272D02*
G01X1289545Y565000D01*
G01X1289545Y565000D02*
G01X1291818Y558181D01*
G01X1291818Y558181D02*
G01X1291818Y553636D01*
G01X1291818Y553636D02*
G01X1289545Y546818D01*
G01X1289545Y546818D02*
G01X1285000Y542272D01*
G01X1285000Y542272D02*
G01X1278181Y540000D01*
G01X1271363Y540000D02*
G01X1278181Y540000D01*
G01X1264545Y542272D02*
G01X1271363Y540000D01*
G01X1262272Y544545D02*
G01X1264545Y542272D01*
G01X1260000Y549090D02*
G01X1262272Y544545D01*
G04 Draw part D4*
G04 draw part outline for part D4*
G54D11*
G01X2550000Y320000D02*
G01X2546074Y320077D01*
G01X2542154Y320308D01*
G01X2538246Y320693D01*
G01X2534356Y321231D01*
G01X2530490Y321921D01*
G01X2526655Y322762D01*
G01X2522855Y323754D01*
G01X2519098Y324894D01*
G01X2515388Y326180D01*
G01X2511731Y327612D01*
G01X2508134Y329185D01*
G01X2504600Y330899D01*
G01X2501137Y332750D01*
G01X2497750Y334735D01*
G01X2494442Y336853D01*
G01X2491221Y339098D01*
G01X2488090Y341468D01*
G01X2485055Y343959D01*
G01X2482119Y346567D01*
G01X2479289Y349289D01*
G01X2476567Y352119D01*
G01X2473959Y355055D01*
G01X2471468Y358090D01*
G01X2469098Y361221D01*
G01X2466853Y364442D01*
G01X2464735Y367750D01*
G01X2462750Y371137D01*
G01X2460899Y374600D01*
G01X2459185Y378134D01*
G01X2457612Y381731D01*
G01X2456180Y385388D01*
G01X2454894Y389098D01*
G01X2453754Y392855D01*
G01X2452762Y396655D01*
G01X2451921Y400490D01*
G01X2451231Y404356D01*
G01X2450693Y408246D01*
G01X2450308Y412154D01*
G01X2450077Y416074D01*
G01X2450000Y420000D01*
G01X2450000Y420000D02*
G01X2450077Y423925D01*
G01X2450308Y427845D01*
G01X2450693Y431753D01*
G01X2451231Y435643D01*
G01X2451921Y439509D01*
G01X2452762Y443344D01*
G01X2453754Y447144D01*
G01X2454894Y450901D01*
G01X2456180Y454611D01*
G01X2457612Y458268D01*
G01X2459185Y461865D01*
G01X2460899Y465399D01*
G01X2462750Y468862D01*
G01X2464735Y472249D01*
G01X2466853Y475557D01*
G01X2469098Y478778D01*
G01X2471468Y481909D01*
G01X2473959Y484944D01*
G01X2476567Y487880D01*
G01X2479289Y490710D01*
G01X2482119Y493432D01*
G01X2485055Y496040D01*
G01X2488090Y498531D01*
G01X2491221Y500901D01*
G01X2494442Y503146D01*
G01X2497750Y505264D01*
G01X2501137Y507249D01*
G01X2504600Y509100D01*
G01X2508134Y510814D01*
G01X2511731Y512387D01*
G01X2515388Y513819D01*
G01X2519098Y515105D01*
G01X2522855Y516245D01*
G01X2526655Y517236D01*
G01X2530490Y518078D01*
G01X2534356Y518768D01*
G01X2538246Y519306D01*
G01X2542154Y519691D01*
G01X2546074Y519922D01*
G01X2550000Y520000D01*
G01X2550000Y520000D02*
G01X2553925Y519922D01*
G01X2557845Y519691D01*
G01X2561753Y519306D01*
G01X2565643Y518768D01*
G01X2569509Y518078D01*
G01X2573344Y517236D01*
G01X2577144Y516245D01*
G01X2580901Y515105D01*
G01X2584611Y513819D01*
G01X2588268Y512387D01*
G01X2591865Y510814D01*
G01X2595399Y509100D01*
G01X2598862Y507249D01*
G01X2602249Y505264D01*
G01X2605557Y503146D01*
G01X2608778Y500901D01*
G01X2611909Y498531D01*
G01X2614944Y496040D01*
G01X2617880Y493432D01*
G01X2620710Y490710D01*
G01X2623432Y487880D01*
G01X2626040Y484944D01*
G01X2628531Y481909D01*
G01X2630901Y478778D01*
G01X2633146Y475557D01*
G01X2635264Y472249D01*
G01X2637249Y468862D01*
G01X2639100Y465399D01*
G01X2640814Y461865D01*
G01X2642387Y458268D01*
G01X2643819Y454611D01*
G01X2645105Y450901D01*
G01X2646245Y447144D01*
G01X2647236Y443344D01*
G01X2648078Y439509D01*
G01X2648768Y435643D01*
G01X2649306Y431753D01*
G01X2649691Y427845D01*
G01X2649922Y423925D01*
G01X2650000Y420000D01*
G01X2650000Y420000D02*
G01X2649922Y416074D01*
G01X2649691Y412154D01*
G01X2649306Y408246D01*
G01X2648768Y404356D01*
G01X2648078Y400490D01*
G01X2647236Y396655D01*
G01X2646245Y392855D01*
G01X2645105Y389098D01*
G01X2643819Y385388D01*
G01X2642387Y381731D01*
G01X2640814Y378134D01*
G01X2639100Y374600D01*
G01X2637249Y371137D01*
G01X2635264Y367750D01*
G01X2633146Y364442D01*
G01X2630901Y361221D01*
G01X2628531Y358090D01*
G01X2626040Y355055D01*
G01X2623432Y352119D01*
G01X2620710Y349289D01*
G01X2617880Y346567D01*
G01X2614944Y343959D01*
G01X2611909Y341468D01*
G01X2608778Y339098D01*
G01X2605557Y336853D01*
G01X2602249Y334735D01*
G01X2598862Y332750D01*
G01X2595399Y330899D01*
G01X2591865Y329185D01*
G01X2588268Y327612D01*
G01X2584611Y326180D01*
G01X2580901Y324894D01*
G01X2577144Y323754D01*
G01X2573344Y322762D01*
G01X2569509Y321921D01*
G01X2565643Y321231D01*
G01X2561753Y320693D01*
G01X2557845Y320308D01*
G01X2553925Y320077D01*
G01X2550000Y320000D01*
G01X2460000Y460000D02*
G01X2460000Y380000D01*
G54D10*
G01X2598181Y497727D02*
G01X2580000Y450000D01*
G01X2598181Y497727D02*
G01X2616363Y450000D01*
G01X2609545Y465909D02*
G01X2586818Y465909D01*
G04 draw reference designator for part D4*
G01X2510000Y587727D02*
G01X2510000Y540000D01*
G01X2525909Y587727D02*
G01X2510000Y587727D01*
G01X2525909Y587727D02*
G01X2532727Y585454D01*
G01X2532727Y585454D02*
G01X2537272Y580909D01*
G01X2537272Y580909D02*
G01X2539545Y576363D01*
G01X2539545Y576363D02*
G01X2541818Y569545D01*
G01X2541818Y569545D02*
G01X2541818Y558181D01*
G01X2541818Y558181D02*
G01X2539545Y551363D01*
G01X2539545Y551363D02*
G01X2537272Y546818D01*
G01X2537272Y546818D02*
G01X2532727Y542272D01*
G01X2532727Y542272D02*
G01X2525909Y540000D01*
G01X2510000Y540000D02*
G01X2525909Y540000D01*
G01X2582727Y587727D02*
G01X2560000Y555909D01*
G01X2594090Y555909D02*
G01X2560000Y555909D01*
G01X2582727Y587727D02*
G01X2582727Y540000D01*
G04 Draw part R7*
G04 draw part outline for part R7*
G54D12*
G01X2999000Y1841000D02*
G01X2999000Y1559000D01*
G01X2999000Y1559000D02*
G01X2901000Y1559000D01*
G01X2901000Y1559000D02*
G01X2901000Y1841000D01*
G01X2901000Y1841000D02*
G01X2999000Y1841000D01*
G04 draw reference designator for part R7*
G01X2925000Y2047727D02*
G01X2925000Y2000000D01*
G01X2945454Y2047727D02*
G01X2925000Y2047727D01*
G01X2945454Y2047727D02*
G01X2952272Y2045454D01*
G01X2952272Y2045454D02*
G01X2954545Y2043181D01*
G01X2954545Y2043181D02*
G01X2956818Y2038636D01*
G01X2956818Y2038636D02*
G01X2956818Y2034090D01*
G01X2956818Y2034090D02*
G01X2954545Y2029545D01*
G01X2954545Y2029545D02*
G01X2952272Y2027272D01*
G01X2952272Y2027272D02*
G01X2945454Y2025000D01*
G01X2925000Y2025000D02*
G01X2945454Y2025000D01*
G01X2940909Y2025000D02*
G01X2956818Y2000000D01*
G01X3006818Y2047727D02*
G01X2984090Y2000000D01*
G01X3006818Y2047727D02*
G01X2975000Y2047727D01*
G04 Draw part R8*
G04 draw part outline for part R8*
G01X1539000Y1591000D02*
G01X1539000Y1309000D01*
G01X1539000Y1309000D02*
G01X1441000Y1309000D01*
G01X1441000Y1309000D02*
G01X1441000Y1591000D01*
G01X1441000Y1591000D02*
G01X1539000Y1591000D01*
G04 draw reference designator for part R8*
G01X1450000Y1797727D02*
G01X1450000Y1750000D01*
G01X1470454Y1797727D02*
G01X1450000Y1797727D01*
G01X1470454Y1797727D02*
G01X1477272Y1795454D01*
G01X1477272Y1795454D02*
G01X1479545Y1793181D01*
G01X1479545Y1793181D02*
G01X1481818Y1788636D01*
G01X1481818Y1788636D02*
G01X1481818Y1784090D01*
G01X1481818Y1784090D02*
G01X1479545Y1779545D01*
G01X1479545Y1779545D02*
G01X1477272Y1777272D01*
G01X1477272Y1777272D02*
G01X1470454Y1775000D01*
G01X1450000Y1775000D02*
G01X1470454Y1775000D01*
G01X1465909Y1775000D02*
G01X1481818Y1750000D01*
G01X1511363Y1797727D02*
G01X1504545Y1795454D01*
G01X1504545Y1795454D02*
G01X1502272Y1790909D01*
G01X1502272Y1790909D02*
G01X1502272Y1786363D01*
G01X1502272Y1786363D02*
G01X1504545Y1781818D01*
G01X1504545Y1781818D02*
G01X1509090Y1779545D01*
G01X1509090Y1779545D02*
G01X1518181Y1777272D01*
G01X1518181Y1777272D02*
G01X1525000Y1775000D01*
G01X1525000Y1775000D02*
G01X1529545Y1770454D01*
G01X1529545Y1770454D02*
G01X1531818Y1765909D01*
G01X1531818Y1765909D02*
G01X1531818Y1759090D01*
G01X1531818Y1759090D02*
G01X1529545Y1754545D01*
G01X1529545Y1754545D02*
G01X1527272Y1752272D01*
G01X1527272Y1752272D02*
G01X1520454Y1750000D01*
G01X1511363Y1750000D02*
G01X1520454Y1750000D01*
G01X1504545Y1752272D02*
G01X1511363Y1750000D01*
G01X1502272Y1754545D02*
G01X1504545Y1752272D01*
G01X1500000Y1759090D02*
G01X1502272Y1754545D01*
G01X1500000Y1765909D02*
G01X1500000Y1759090D01*
G01X1502272Y1770454D02*
G01X1500000Y1765909D01*
G01X1506818Y1775000D02*
G01X1502272Y1770454D01*
G01X1513636Y1777272D02*
G01X1506818Y1775000D01*
G01X1522727Y1779545D02*
G01X1513636Y1777272D01*
G01X1527272Y1781818D02*
G01X1522727Y1779545D01*
G01X1529545Y1786363D02*
G01X1527272Y1781818D01*
G01X1529545Y1790909D02*
G01X1529545Y1786363D01*
G01X1527272Y1795454D02*
G01X1529545Y1790909D01*
G01X1520454Y1797727D02*
G01X1527272Y1795454D01*
G01X1511363Y1797727D02*
G01X1520454Y1797727D01*
G04 Draw part R9*
G04 draw part outline for part R9*
G01X2309000Y1841000D02*
G01X2309000Y1559000D01*
G01X2309000Y1559000D02*
G01X2211000Y1559000D01*
G01X2211000Y1559000D02*
G01X2211000Y1841000D01*
G01X2211000Y1841000D02*
G01X2309000Y1841000D01*
G04 draw reference designator for part R9*
G01X2210000Y2047727D02*
G01X2210000Y2000000D01*
G01X2230454Y2047727D02*
G01X2210000Y2047727D01*
G01X2230454Y2047727D02*
G01X2237272Y2045454D01*
G01X2237272Y2045454D02*
G01X2239545Y2043181D01*
G01X2239545Y2043181D02*
G01X2241818Y2038636D01*
G01X2241818Y2038636D02*
G01X2241818Y2034090D01*
G01X2241818Y2034090D02*
G01X2239545Y2029545D01*
G01X2239545Y2029545D02*
G01X2237272Y2027272D01*
G01X2237272Y2027272D02*
G01X2230454Y2025000D01*
G01X2210000Y2025000D02*
G01X2230454Y2025000D01*
G01X2225909Y2025000D02*
G01X2241818Y2000000D01*
G01X2289545Y2031818D02*
G01X2287272Y2025000D01*
G01X2287272Y2025000D02*
G01X2282727Y2020454D01*
G01X2282727Y2020454D02*
G01X2275909Y2018181D01*
G01X2273636Y2018181D02*
G01X2275909Y2018181D01*
G01X2266818Y2020454D02*
G01X2273636Y2018181D01*
G01X2262272Y2025000D02*
G01X2266818Y2020454D01*
G01X2260000Y2031818D02*
G01X2262272Y2025000D01*
G01X2260000Y2034090D02*
G01X2260000Y2031818D01*
G01X2262272Y2040909D02*
G01X2260000Y2034090D01*
G01X2266818Y2045454D02*
G01X2262272Y2040909D01*
G01X2273636Y2047727D02*
G01X2266818Y2045454D01*
G01X2275909Y2047727D02*
G01X2273636Y2047727D01*
G01X2275909Y2047727D02*
G01X2282727Y2045454D01*
G01X2282727Y2045454D02*
G01X2287272Y2040909D01*
G01X2287272Y2040909D02*
G01X2289545Y2031818D01*
G01X2289545Y2031818D02*
G01X2289545Y2020454D01*
G01X2289545Y2020454D02*
G01X2287272Y2009090D01*
G01X2287272Y2009090D02*
G01X2282727Y2002272D01*
G01X2282727Y2002272D02*
G01X2275909Y2000000D01*
G01X2271363Y2000000D02*
G01X2275909Y2000000D01*
G01X2264545Y2002272D02*
G01X2271363Y2000000D01*
G01X2262272Y2006818D02*
G01X2264545Y2002272D01*
G04 Draw part R10*
G04 draw part outline for part R10*
G01X3649000Y1841000D02*
G01X3649000Y1559000D01*
G01X3649000Y1559000D02*
G01X3551000Y1559000D01*
G01X3551000Y1559000D02*
G01X3551000Y1841000D01*
G01X3551000Y1841000D02*
G01X3649000Y1841000D01*
G04 draw reference designator for part R10*
G01X3550000Y2047727D02*
G01X3550000Y2000000D01*
G01X3570454Y2047727D02*
G01X3550000Y2047727D01*
G01X3570454Y2047727D02*
G01X3577272Y2045454D01*
G01X3577272Y2045454D02*
G01X3579545Y2043181D01*
G01X3579545Y2043181D02*
G01X3581818Y2038636D01*
G01X3581818Y2038636D02*
G01X3581818Y2034090D01*
G01X3581818Y2034090D02*
G01X3579545Y2029545D01*
G01X3579545Y2029545D02*
G01X3577272Y2027272D01*
G01X3577272Y2027272D02*
G01X3570454Y2025000D01*
G01X3550000Y2025000D02*
G01X3570454Y2025000D01*
G01X3565909Y2025000D02*
G01X3581818Y2000000D01*
G01X3604545Y2040909D02*
G01X3600000Y2038636D01*
G01X3611363Y2047727D02*
G01X3604545Y2040909D01*
G01X3611363Y2047727D02*
G01X3611363Y2000000D01*
G01X3643181Y2047727D02*
G01X3636363Y2045454D01*
G01X3636363Y2045454D02*
G01X3631818Y2038636D01*
G01X3631818Y2038636D02*
G01X3629545Y2027272D01*
G01X3629545Y2027272D02*
G01X3629545Y2020454D01*
G01X3629545Y2020454D02*
G01X3631818Y2009090D01*
G01X3631818Y2009090D02*
G01X3636363Y2002272D01*
G01X3636363Y2002272D02*
G01X3643181Y2000000D01*
G01X3647727Y2000000D02*
G01X3643181Y2000000D01*
G01X3654545Y2002272D02*
G01X3647727Y2000000D01*
G01X3659090Y2009090D02*
G01X3654545Y2002272D01*
G01X3661363Y2020454D02*
G01X3659090Y2009090D01*
G01X3661363Y2027272D02*
G01X3661363Y2020454D01*
G01X3659090Y2038636D02*
G01X3661363Y2027272D01*
G01X3654545Y2045454D02*
G01X3659090Y2038636D01*
G01X3647727Y2047727D02*
G01X3654545Y2045454D01*
G01X3643181Y2047727D02*
G01X3647727Y2047727D01*
G04 Draw part R11*
G04 draw part outline for part R11*
G01X1339000Y1591000D02*
G01X1339000Y1309000D01*
G01X1339000Y1309000D02*
G01X1241000Y1309000D01*
G01X1241000Y1309000D02*
G01X1241000Y1591000D01*
G01X1241000Y1591000D02*
G01X1339000Y1591000D01*
G04 draw reference designator for part R11*
G01X1250000Y1797727D02*
G01X1250000Y1750000D01*
G01X1270454Y1797727D02*
G01X1250000Y1797727D01*
G01X1270454Y1797727D02*
G01X1277272Y1795454D01*
G01X1277272Y1795454D02*
G01X1279545Y1793181D01*
G01X1279545Y1793181D02*
G01X1281818Y1788636D01*
G01X1281818Y1788636D02*
G01X1281818Y1784090D01*
G01X1281818Y1784090D02*
G01X1279545Y1779545D01*
G01X1279545Y1779545D02*
G01X1277272Y1777272D01*
G01X1277272Y1777272D02*
G01X1270454Y1775000D01*
G01X1250000Y1775000D02*
G01X1270454Y1775000D01*
G01X1265909Y1775000D02*
G01X1281818Y1750000D01*
G01X1304545Y1790909D02*
G01X1300000Y1788636D01*
G01X1311363Y1797727D02*
G01X1304545Y1790909D01*
G01X1311363Y1797727D02*
G01X1311363Y1750000D01*
G01X1334090Y1790909D02*
G01X1329545Y1788636D01*
G01X1340909Y1797727D02*
G01X1334090Y1790909D01*
G01X1340909Y1797727D02*
G01X1340909Y1750000D01*
G04 Draw part R12*
G04 draw part outline for part R12*
G01X1139000Y1591000D02*
G01X1139000Y1309000D01*
G01X1139000Y1309000D02*
G01X1041000Y1309000D01*
G01X1041000Y1309000D02*
G01X1041000Y1591000D01*
G01X1041000Y1591000D02*
G01X1139000Y1591000D01*
G04 draw reference designator for part R12*
G01X1025000Y1797727D02*
G01X1025000Y1750000D01*
G01X1045454Y1797727D02*
G01X1025000Y1797727D01*
G01X1045454Y1797727D02*
G01X1052272Y1795454D01*
G01X1052272Y1795454D02*
G01X1054545Y1793181D01*
G01X1054545Y1793181D02*
G01X1056818Y1788636D01*
G01X1056818Y1788636D02*
G01X1056818Y1784090D01*
G01X1056818Y1784090D02*
G01X1054545Y1779545D01*
G01X1054545Y1779545D02*
G01X1052272Y1777272D01*
G01X1052272Y1777272D02*
G01X1045454Y1775000D01*
G01X1025000Y1775000D02*
G01X1045454Y1775000D01*
G01X1040909Y1775000D02*
G01X1056818Y1750000D01*
G01X1079545Y1790909D02*
G01X1075000Y1788636D01*
G01X1086363Y1797727D02*
G01X1079545Y1790909D01*
G01X1086363Y1797727D02*
G01X1086363Y1750000D01*
G01X1106818Y1788636D02*
G01X1106818Y1786363D01*
G01X1109090Y1793181D02*
G01X1106818Y1788636D01*
G01X1111363Y1795454D02*
G01X1109090Y1793181D01*
G01X1115909Y1797727D02*
G01X1111363Y1795454D01*
G01X1125000Y1797727D02*
G01X1115909Y1797727D01*
G01X1125000Y1797727D02*
G01X1129545Y1795454D01*
G01X1129545Y1795454D02*
G01X1131818Y1793181D01*
G01X1131818Y1793181D02*
G01X1134090Y1788636D01*
G01X1134090Y1788636D02*
G01X1134090Y1784090D01*
G01X1134090Y1784090D02*
G01X1131818Y1779545D01*
G01X1131818Y1779545D02*
G01X1127272Y1772727D01*
G01X1127272Y1772727D02*
G01X1104545Y1750000D01*
G01X1136363Y1750000D02*
G01X1104545Y1750000D01*
G04 Draw part R13*
G04 draw part outline for part R13*
G01X2449000Y1841000D02*
G01X2449000Y1559000D01*
G01X2449000Y1559000D02*
G01X2351000Y1559000D01*
G01X2351000Y1559000D02*
G01X2351000Y1841000D01*
G01X2351000Y1841000D02*
G01X2449000Y1841000D01*
G04 draw reference designator for part R13*
G01X2350000Y2047727D02*
G01X2350000Y2000000D01*
G01X2370454Y2047727D02*
G01X2350000Y2047727D01*
G01X2370454Y2047727D02*
G01X2377272Y2045454D01*
G01X2377272Y2045454D02*
G01X2379545Y2043181D01*
G01X2379545Y2043181D02*
G01X2381818Y2038636D01*
G01X2381818Y2038636D02*
G01X2381818Y2034090D01*
G01X2381818Y2034090D02*
G01X2379545Y2029545D01*
G01X2379545Y2029545D02*
G01X2377272Y2027272D01*
G01X2377272Y2027272D02*
G01X2370454Y2025000D01*
G01X2350000Y2025000D02*
G01X2370454Y2025000D01*
G01X2365909Y2025000D02*
G01X2381818Y2000000D01*
G01X2404545Y2040909D02*
G01X2400000Y2038636D01*
G01X2411363Y2047727D02*
G01X2404545Y2040909D01*
G01X2411363Y2047727D02*
G01X2411363Y2000000D01*
G01X2459090Y2047727D02*
G01X2434090Y2047727D01*
G01X2459090Y2047727D02*
G01X2445454Y2029545D01*
G01X2452272Y2029545D02*
G01X2445454Y2029545D01*
G01X2452272Y2029545D02*
G01X2456818Y2027272D01*
G01X2456818Y2027272D02*
G01X2459090Y2025000D01*
G01X2459090Y2025000D02*
G01X2461363Y2018181D01*
G01X2461363Y2018181D02*
G01X2461363Y2013636D01*
G01X2461363Y2013636D02*
G01X2459090Y2006818D01*
G01X2459090Y2006818D02*
G01X2454545Y2002272D01*
G01X2454545Y2002272D02*
G01X2447727Y2000000D01*
G01X2440909Y2000000D02*
G01X2447727Y2000000D01*
G01X2434090Y2002272D02*
G01X2440909Y2000000D01*
G01X2431818Y2004545D02*
G01X2434090Y2002272D01*
G01X2429545Y2009090D02*
G01X2431818Y2004545D01*
G04 Draw part CN1*
G04 Draw part U1*
G04 draw part outline for part U1*
G01X90000Y3120000D02*
G01X1490000Y3120000D01*
G01X1490000Y3120000D02*
G01X1490000Y3320000D01*
G01X1490000Y3320000D02*
G01X90000Y3320000D01*
G01X90000Y3320000D02*
G01X90000Y3120000D01*
G01X90000Y3170000D02*
G01X140000Y3170000D01*
G01X140000Y3170000D02*
G01X140000Y3270000D01*
G01X140000Y3270000D02*
G01X90000Y3270000D01*
G01X90000Y3270000D02*
G01X90000Y3170000D01*
G04 draw reference designator for part U1*
G01X1557727Y3250000D02*
G01X1523636Y3250000D01*
G01X1523636Y3250000D02*
G01X1516818Y3247727D01*
G01X1516818Y3247727D02*
G01X1512272Y3243181D01*
G01X1512272Y3243181D02*
G01X1510000Y3236363D01*
G01X1510000Y3231818D02*
G01X1510000Y3236363D01*
G01X1512272Y3225000D02*
G01X1510000Y3231818D01*
G01X1516818Y3220454D02*
G01X1512272Y3225000D01*
G01X1523636Y3218181D02*
G01X1516818Y3220454D01*
G01X1557727Y3218181D02*
G01X1523636Y3218181D01*
G01X1550909Y3195454D02*
G01X1548636Y3200000D01*
G01X1557727Y3188636D02*
G01X1550909Y3195454D01*
G01X1557727Y3188636D02*
G01X1510000Y3188636D01*
G04 Draw part R14*
G04 draw part outline for part R14*
G01X179000Y2849000D02*
G01X461000Y2849000D01*
G01X461000Y2849000D02*
G01X461000Y2751000D01*
G01X461000Y2751000D02*
G01X179000Y2751000D01*
G01X179000Y2751000D02*
G01X179000Y2849000D01*
G04 draw reference designator for part R14*
G01X340000Y2737727D02*
G01X340000Y2690000D01*
G01X360454Y2737727D02*
G01X340000Y2737727D01*
G01X360454Y2737727D02*
G01X367272Y2735454D01*
G01X367272Y2735454D02*
G01X369545Y2733181D01*
G01X369545Y2733181D02*
G01X371818Y2728636D01*
G01X371818Y2728636D02*
G01X371818Y2724090D01*
G01X371818Y2724090D02*
G01X369545Y2719545D01*
G01X369545Y2719545D02*
G01X367272Y2717272D01*
G01X367272Y2717272D02*
G01X360454Y2715000D01*
G01X340000Y2715000D02*
G01X360454Y2715000D01*
G01X355909Y2715000D02*
G01X371818Y2690000D01*
G01X394545Y2730909D02*
G01X390000Y2728636D01*
G01X401363Y2737727D02*
G01X394545Y2730909D01*
G01X401363Y2737727D02*
G01X401363Y2690000D01*
G01X442272Y2737727D02*
G01X419545Y2705909D01*
G01X453636Y2705909D02*
G01X419545Y2705909D01*
G01X442272Y2737727D02*
G01X442272Y2690000D01*
G04 Draw part X1*
G04 draw part outline for part X1*
G01X1170000Y2840000D02*
G01X870000Y2840000D01*
G01X870000Y2840000D02*
G01X870000Y2940000D01*
G01X870000Y2940000D02*
G01X1170000Y2940000D01*
G01X1170000Y2940000D02*
G01X1170000Y2840000D01*
G04 draw reference designator for part X1*
G01X1190000Y2917727D02*
G01X1221818Y2870000D01*
G01X1221818Y2917727D02*
G01X1190000Y2870000D01*
G01X1244545Y2910909D02*
G01X1240000Y2908636D01*
G01X1251363Y2917727D02*
G01X1244545Y2910909D01*
G01X1251363Y2917727D02*
G01X1251363Y2870000D01*
G04 Draw part C2*
G04 draw part outline for part C2*
G54D11*
G01X970000Y2580000D02*
G01X870000Y2580000D01*
G01X870000Y2580000D02*
G01X870000Y2780000D01*
G01X870000Y2780000D02*
G01X970000Y2780000D01*
G01X970000Y2780000D02*
G01X970000Y2580000D01*
G04 draw reference designator for part C2*
G54D12*
G01X791818Y2770909D02*
G01X794090Y2766363D01*
G01X787272Y2775454D02*
G01X791818Y2770909D01*
G01X782727Y2777727D02*
G01X787272Y2775454D01*
G01X773636Y2777727D02*
G01X782727Y2777727D01*
G01X773636Y2777727D02*
G01X769090Y2775454D01*
G01X769090Y2775454D02*
G01X764545Y2770909D01*
G01X764545Y2770909D02*
G01X762272Y2766363D01*
G01X762272Y2766363D02*
G01X760000Y2759545D01*
G01X760000Y2759545D02*
G01X760000Y2748181D01*
G01X760000Y2748181D02*
G01X762272Y2741363D01*
G01X762272Y2741363D02*
G01X764545Y2736818D01*
G01X764545Y2736818D02*
G01X769090Y2732272D01*
G01X769090Y2732272D02*
G01X773636Y2730000D01*
G01X782727Y2730000D02*
G01X773636Y2730000D01*
G01X787272Y2732272D02*
G01X782727Y2730000D01*
G01X791818Y2736818D02*
G01X787272Y2732272D01*
G01X794090Y2741363D02*
G01X791818Y2736818D01*
G01X814545Y2768636D02*
G01X814545Y2766363D01*
G01X816818Y2773181D02*
G01X814545Y2768636D01*
G01X819090Y2775454D02*
G01X816818Y2773181D01*
G01X823636Y2777727D02*
G01X819090Y2775454D01*
G01X832727Y2777727D02*
G01X823636Y2777727D01*
G01X832727Y2777727D02*
G01X837272Y2775454D01*
G01X837272Y2775454D02*
G01X839545Y2773181D01*
G01X839545Y2773181D02*
G01X841818Y2768636D01*
G01X841818Y2768636D02*
G01X841818Y2764090D01*
G01X841818Y2764090D02*
G01X839545Y2759545D01*
G01X839545Y2759545D02*
G01X835000Y2752727D01*
G01X835000Y2752727D02*
G01X812272Y2730000D01*
G01X844090Y2730000D02*
G01X812272Y2730000D01*
G04 Draw part C3*
G04 draw part outline for part C3*
G54D11*
G01X1170000Y2580000D02*
G01X1070000Y2580000D01*
G01X1070000Y2580000D02*
G01X1070000Y2780000D01*
G01X1070000Y2780000D02*
G01X1170000Y2780000D01*
G01X1170000Y2780000D02*
G01X1170000Y2580000D01*
G04 draw reference designator for part C3*
G54D12*
G01X1221818Y2770909D02*
G01X1224090Y2766363D01*
G01X1217272Y2775454D02*
G01X1221818Y2770909D01*
G01X1212727Y2777727D02*
G01X1217272Y2775454D01*
G01X1203636Y2777727D02*
G01X1212727Y2777727D01*
G01X1203636Y2777727D02*
G01X1199090Y2775454D01*
G01X1199090Y2775454D02*
G01X1194545Y2770909D01*
G01X1194545Y2770909D02*
G01X1192272Y2766363D01*
G01X1192272Y2766363D02*
G01X1190000Y2759545D01*
G01X1190000Y2759545D02*
G01X1190000Y2748181D01*
G01X1190000Y2748181D02*
G01X1192272Y2741363D01*
G01X1192272Y2741363D02*
G01X1194545Y2736818D01*
G01X1194545Y2736818D02*
G01X1199090Y2732272D01*
G01X1199090Y2732272D02*
G01X1203636Y2730000D01*
G01X1212727Y2730000D02*
G01X1203636Y2730000D01*
G01X1217272Y2732272D02*
G01X1212727Y2730000D01*
G01X1221818Y2736818D02*
G01X1217272Y2732272D01*
G01X1224090Y2741363D02*
G01X1221818Y2736818D01*
G01X1271818Y2777727D02*
G01X1246818Y2777727D01*
G01X1271818Y2777727D02*
G01X1258181Y2759545D01*
G01X1265000Y2759545D02*
G01X1258181Y2759545D01*
G01X1265000Y2759545D02*
G01X1269545Y2757272D01*
G01X1269545Y2757272D02*
G01X1271818Y2755000D01*
G01X1271818Y2755000D02*
G01X1274090Y2748181D01*
G01X1274090Y2748181D02*
G01X1274090Y2743636D01*
G01X1274090Y2743636D02*
G01X1271818Y2736818D01*
G01X1271818Y2736818D02*
G01X1267272Y2732272D01*
G01X1267272Y2732272D02*
G01X1260454Y2730000D01*
G01X1253636Y2730000D02*
G01X1260454Y2730000D01*
G01X1246818Y2732272D02*
G01X1253636Y2730000D01*
G01X1244545Y2734545D02*
G01X1246818Y2732272D01*
G01X1242272Y2739090D02*
G01X1244545Y2734545D01*
G04 Draw part C4*
G04 draw part outline for part C4*
G01X925000Y3480000D02*
G01X955000Y3480000D01*
G01X940000Y3495000D02*
G01X940000Y3465000D01*
G54D11*
G01X990000Y3430000D02*
G01X986074Y3430077D01*
G01X982154Y3430308D01*
G01X978246Y3430693D01*
G01X974356Y3431231D01*
G01X970490Y3431921D01*
G01X966655Y3432762D01*
G01X962855Y3433754D01*
G01X959098Y3434894D01*
G01X955388Y3436180D01*
G01X951731Y3437612D01*
G01X948134Y3439185D01*
G01X944600Y3440899D01*
G01X941137Y3442750D01*
G01X937750Y3444735D01*
G01X934442Y3446853D01*
G01X931221Y3449098D01*
G01X928090Y3451468D01*
G01X925055Y3453959D01*
G01X922119Y3456567D01*
G01X919289Y3459289D01*
G01X916567Y3462119D01*
G01X913959Y3465055D01*
G01X911468Y3468090D01*
G01X909098Y3471221D01*
G01X906853Y3474442D01*
G01X904735Y3477750D01*
G01X902750Y3481137D01*
G01X900899Y3484600D01*
G01X899185Y3488134D01*
G01X897612Y3491731D01*
G01X896180Y3495388D01*
G01X894894Y3499098D01*
G01X893754Y3502855D01*
G01X892762Y3506655D01*
G01X891921Y3510490D01*
G01X891231Y3514356D01*
G01X890693Y3518246D01*
G01X890308Y3522154D01*
G01X890077Y3526074D01*
G01X890000Y3530000D01*
G01X890000Y3530000D02*
G01X890077Y3533925D01*
G01X890308Y3537845D01*
G01X890693Y3541753D01*
G01X891231Y3545643D01*
G01X891921Y3549509D01*
G01X892762Y3553344D01*
G01X893754Y3557144D01*
G01X894894Y3560901D01*
G01X896180Y3564611D01*
G01X897612Y3568268D01*
G01X899185Y3571865D01*
G01X900899Y3575399D01*
G01X902750Y3578862D01*
G01X904735Y3582249D01*
G01X906853Y3585557D01*
G01X909098Y3588778D01*
G01X911468Y3591909D01*
G01X913959Y3594944D01*
G01X916567Y3597880D01*
G01X919289Y3600710D01*
G01X922119Y3603432D01*
G01X925055Y3606040D01*
G01X928090Y3608531D01*
G01X931221Y3610901D01*
G01X934442Y3613146D01*
G01X937750Y3615264D01*
G01X941137Y3617249D01*
G01X944600Y3619100D01*
G01X948134Y3620814D01*
G01X951731Y3622387D01*
G01X955388Y3623819D01*
G01X959098Y3625105D01*
G01X962855Y3626245D01*
G01X966655Y3627236D01*
G01X970490Y3628078D01*
G01X974356Y3628768D01*
G01X978246Y3629306D01*
G01X982154Y3629691D01*
G01X986074Y3629922D01*
G01X990000Y3630000D01*
G01X990000Y3630000D02*
G01X993925Y3629922D01*
G01X997845Y3629691D01*
G01X1001753Y3629306D01*
G01X1005643Y3628768D01*
G01X1009509Y3628078D01*
G01X1013344Y3627236D01*
G01X1017144Y3626245D01*
G01X1020901Y3625105D01*
G01X1024611Y3623819D01*
G01X1028268Y3622387D01*
G01X1031865Y3620814D01*
G01X1035399Y3619100D01*
G01X1038862Y3617249D01*
G01X1042249Y3615264D01*
G01X1045557Y3613146D01*
G01X1048778Y3610901D01*
G01X1051909Y3608531D01*
G01X1054944Y3606040D01*
G01X1057880Y3603432D01*
G01X1060710Y3600710D01*
G01X1063432Y3597880D01*
G01X1066040Y3594944D01*
G01X1068531Y3591909D01*
G01X1070901Y3588778D01*
G01X1073146Y3585557D01*
G01X1075264Y3582249D01*
G01X1077249Y3578862D01*
G01X1079100Y3575399D01*
G01X1080814Y3571865D01*
G01X1082387Y3568268D01*
G01X1083819Y3564611D01*
G01X1085105Y3560901D01*
G01X1086245Y3557144D01*
G01X1087236Y3553344D01*
G01X1088078Y3549509D01*
G01X1088768Y3545643D01*
G01X1089306Y3541753D01*
G01X1089691Y3537845D01*
G01X1089922Y3533925D01*
G01X1090000Y3530000D01*
G01X1090000Y3530000D02*
G01X1089922Y3526074D01*
G01X1089691Y3522154D01*
G01X1089306Y3518246D01*
G01X1088768Y3514356D01*
G01X1088078Y3510490D01*
G01X1087236Y3506655D01*
G01X1086245Y3502855D01*
G01X1085105Y3499098D01*
G01X1083819Y3495388D01*
G01X1082387Y3491731D01*
G01X1080814Y3488134D01*
G01X1079100Y3484600D01*
G01X1077249Y3481137D01*
G01X1075264Y3477750D01*
G01X1073146Y3474442D01*
G01X1070901Y3471221D01*
G01X1068531Y3468090D01*
G01X1066040Y3465055D01*
G01X1063432Y3462119D01*
G01X1060710Y3459289D01*
G01X1057880Y3456567D01*
G01X1054944Y3453959D01*
G01X1051909Y3451468D01*
G01X1048778Y3449098D01*
G01X1045557Y3446853D01*
G01X1042249Y3444735D01*
G01X1038862Y3442750D01*
G01X1035399Y3440899D01*
G01X1031865Y3439185D01*
G01X1028268Y3437612D01*
G01X1024611Y3436180D01*
G01X1020901Y3434894D01*
G01X1017144Y3433754D01*
G01X1013344Y3432762D01*
G01X1009509Y3431921D01*
G01X1005643Y3431231D01*
G01X1001753Y3430693D01*
G01X997845Y3430308D01*
G01X993925Y3430077D01*
G01X990000Y3430000D01*
G04 draw reference designator for part C4*
G54D12*
G01X1141818Y3540909D02*
G01X1144090Y3536363D01*
G01X1137272Y3545454D02*
G01X1141818Y3540909D01*
G01X1132727Y3547727D02*
G01X1137272Y3545454D01*
G01X1123636Y3547727D02*
G01X1132727Y3547727D01*
G01X1123636Y3547727D02*
G01X1119090Y3545454D01*
G01X1119090Y3545454D02*
G01X1114545Y3540909D01*
G01X1114545Y3540909D02*
G01X1112272Y3536363D01*
G01X1112272Y3536363D02*
G01X1110000Y3529545D01*
G01X1110000Y3529545D02*
G01X1110000Y3518181D01*
G01X1110000Y3518181D02*
G01X1112272Y3511363D01*
G01X1112272Y3511363D02*
G01X1114545Y3506818D01*
G01X1114545Y3506818D02*
G01X1119090Y3502272D01*
G01X1119090Y3502272D02*
G01X1123636Y3500000D01*
G01X1132727Y3500000D02*
G01X1123636Y3500000D01*
G01X1137272Y3502272D02*
G01X1132727Y3500000D01*
G01X1141818Y3506818D02*
G01X1137272Y3502272D01*
G01X1144090Y3511363D02*
G01X1141818Y3506818D01*
G01X1185000Y3547727D02*
G01X1162272Y3515909D01*
G01X1196363Y3515909D02*
G01X1162272Y3515909D01*
G01X1185000Y3547727D02*
G01X1185000Y3500000D01*
G04 Draw part KB1*
G04 draw part outline for part KB1*
G54D11*
G01X1780708Y4956850D02*
G01X3749212Y4956850D01*
G01X3749212Y4956850D02*
G01X3749212Y2437165D01*
G01X3749212Y2437165D02*
G01X1780708Y2437165D01*
G01X1780708Y2437165D02*
G01X1780708Y4956850D01*
G01X2400000Y4660000D02*
G01X2400000Y4760000D01*
G01X2400000Y4760000D02*
G01X3100000Y4760000D01*
G01X3100000Y4760000D02*
G01X3100000Y4660000D01*
G01X3100000Y4660000D02*
G01X2400000Y4660000D01*
G04 draw reference designator for part KB1*
G54D12*
G01X2410629Y4886467D02*
G01X2410629Y4838740D01*
G01X2442448Y4886467D02*
G01X2410629Y4854649D01*
G01X2421993Y4866012D02*
G01X2442448Y4838740D01*
G01X2460629Y4886467D02*
G01X2460629Y4838740D01*
G01X2481084Y4886467D02*
G01X2460629Y4886467D01*
G01X2481084Y4886467D02*
G01X2487902Y4884194D01*
G01X2487902Y4884194D02*
G01X2490175Y4881921D01*
G01X2490175Y4881921D02*
G01X2492448Y4877376D01*
G01X2492448Y4877376D02*
G01X2492448Y4872831D01*
G01X2492448Y4872831D02*
G01X2490175Y4868285D01*
G01X2490175Y4868285D02*
G01X2487902Y4866012D01*
G01X2487902Y4866012D02*
G01X2481084Y4863740D01*
G01X2481084Y4863740D02*
G01X2460629Y4863740D01*
G01X2481084Y4863740D02*
G01X2487902Y4861467D01*
G01X2487902Y4861467D02*
G01X2490175Y4859194D01*
G01X2490175Y4859194D02*
G01X2492448Y4854649D01*
G01X2492448Y4854649D02*
G01X2492448Y4847831D01*
G01X2492448Y4847831D02*
G01X2490175Y4843285D01*
G01X2490175Y4843285D02*
G01X2487902Y4841012D01*
G01X2487902Y4841012D02*
G01X2481084Y4838740D01*
G01X2460629Y4838740D02*
G01X2481084Y4838740D01*
G01X2515175Y4879649D02*
G01X2510629Y4877376D01*
G01X2521993Y4886467D02*
G01X2515175Y4879649D01*
G01X2521993Y4886467D02*
G01X2521993Y4838740D01*
G04 Draw part R15*
G04 draw part outline for part R15*
G01X1401000Y3784000D02*
G01X1401000Y4066000D01*
G01X1401000Y4066000D02*
G01X1499000Y4066000D01*
G01X1499000Y4066000D02*
G01X1499000Y3784000D01*
G01X1499000Y3784000D02*
G01X1401000Y3784000D01*
G04 draw reference designator for part R15*
G01X1372727Y3900000D02*
G01X1325000Y3900000D01*
G01X1372727Y3879545D02*
G01X1372727Y3900000D01*
G01X1372727Y3879545D02*
G01X1370454Y3872727D01*
G01X1370454Y3872727D02*
G01X1368181Y3870454D01*
G01X1368181Y3870454D02*
G01X1363636Y3868181D01*
G01X1363636Y3868181D02*
G01X1359090Y3868181D01*
G01X1359090Y3868181D02*
G01X1354545Y3870454D01*
G01X1354545Y3870454D02*
G01X1352272Y3872727D01*
G01X1352272Y3872727D02*
G01X1350000Y3879545D01*
G01X1350000Y3900000D02*
G01X1350000Y3879545D01*
G01X1350000Y3884090D02*
G01X1325000Y3868181D01*
G01X1365909Y3845454D02*
G01X1363636Y3850000D01*
G01X1372727Y3838636D02*
G01X1365909Y3845454D01*
G01X1372727Y3838636D02*
G01X1325000Y3838636D01*
G01X1372727Y3815909D02*
G01X1372727Y3793181D01*
G01X1372727Y3815909D02*
G01X1352272Y3818181D01*
G01X1354545Y3815909D02*
G01X1352272Y3818181D01*
G01X1356818Y3809090D02*
G01X1354545Y3815909D01*
G01X1356818Y3802272D02*
G01X1356818Y3809090D01*
G01X1356818Y3802272D02*
G01X1354545Y3795454D01*
G01X1354545Y3795454D02*
G01X1350000Y3790909D01*
G01X1350000Y3790909D02*
G01X1343181Y3788636D01*
G01X1343181Y3788636D02*
G01X1338636Y3788636D01*
G01X1338636Y3788636D02*
G01X1331818Y3790909D01*
G01X1331818Y3790909D02*
G01X1327272Y3795454D01*
G01X1327272Y3795454D02*
G01X1325000Y3802272D01*
G01X1325000Y3809090D02*
G01X1325000Y3802272D01*
G01X1327272Y3815909D02*
G01X1325000Y3809090D01*
G01X1329545Y3818181D02*
G01X1327272Y3815909D01*
G01X1334090Y3820454D02*
G01X1329545Y3818181D01*
G04 Draw part S1*
G04 draw part outline for part S1*
G54D11*
G01X560000Y4040000D02*
G01X60000Y4040000D01*
G01X60000Y4040000D02*
G01X60000Y4540000D01*
G01X60000Y4540000D02*
G01X560000Y4540000D01*
G01X560000Y4540000D02*
G01X560000Y4040000D01*
G04 draw reference designator for part S1*
G54D12*
G01X527272Y4025454D02*
G01X531818Y4020909D01*
G01X520454Y4027727D02*
G01X527272Y4025454D01*
G01X511363Y4027727D02*
G01X520454Y4027727D01*
G01X511363Y4027727D02*
G01X504545Y4025454D01*
G01X504545Y4025454D02*
G01X500000Y4020909D01*
G01X500000Y4020909D02*
G01X500000Y4016363D01*
G01X500000Y4016363D02*
G01X502272Y4011818D01*
G01X502272Y4011818D02*
G01X504545Y4009545D01*
G01X504545Y4009545D02*
G01X509090Y4007272D01*
G01X509090Y4007272D02*
G01X522727Y4002727D01*
G01X522727Y4002727D02*
G01X527272Y4000454D01*
G01X527272Y4000454D02*
G01X529545Y3998181D01*
G01X529545Y3998181D02*
G01X531818Y3993636D01*
G01X531818Y3993636D02*
G01X531818Y3986818D01*
G01X531818Y3986818D02*
G01X527272Y3982272D01*
G01X527272Y3982272D02*
G01X520454Y3980000D01*
G01X511363Y3980000D02*
G01X520454Y3980000D01*
G01X504545Y3982272D02*
G01X511363Y3980000D01*
G01X500000Y3986818D02*
G01X504545Y3982272D01*
G01X554545Y4020909D02*
G01X550000Y4018636D01*
G01X561363Y4027727D02*
G01X554545Y4020909D01*
G01X561363Y4027727D02*
G01X561363Y3980000D01*
G04 Draw part CN2*
G04 Draw part CN4*
G04 draw part outline for part CN4*
G54D11*
G01X1030000Y4960000D02*
G01X1384330Y4960000D01*
G01X1384330Y4960000D02*
G01X1384330Y4408818D01*
G01X1384330Y4408818D02*
G01X1030000Y4408818D01*
G01X1030000Y4408818D02*
G01X1030000Y4960000D01*
G01X1266220Y4841889D02*
G01X1207165Y4900944D01*
G01X1207165Y4900944D02*
G01X1148110Y4841889D01*
G04 draw reference designator for part CN4*
G54D10*
G01X1000264Y4928682D02*
G01X995790Y4926445D01*
G01X1004738Y4933156D02*
G01X1000264Y4928682D01*
G01X1006975Y4937630D02*
G01X1004738Y4933156D01*
G01X1006975Y4946578D02*
G01X1006975Y4937630D01*
G01X1006975Y4946578D02*
G01X1004738Y4951052D01*
G01X1004738Y4951052D02*
G01X1000264Y4955526D01*
G01X1000264Y4955526D02*
G01X995790Y4957763D01*
G01X995790Y4957763D02*
G01X989080Y4960000D01*
G01X989080Y4960000D02*
G01X977895Y4960000D01*
G01X977895Y4960000D02*
G01X971184Y4957763D01*
G01X971184Y4957763D02*
G01X966710Y4955526D01*
G01X966710Y4955526D02*
G01X962236Y4951052D01*
G01X962236Y4951052D02*
G01X960000Y4946578D01*
G01X960000Y4937630D02*
G01X960000Y4946578D01*
G01X962236Y4933156D02*
G01X960000Y4937630D01*
G01X966710Y4928682D02*
G01X962236Y4933156D01*
G01X971184Y4926445D02*
G01X966710Y4928682D01*
G01X1006975Y4908550D02*
G01X960000Y4908550D01*
G01X1006975Y4908550D02*
G01X960000Y4877233D01*
G01X1006975Y4877233D02*
G01X960000Y4877233D01*
G01X1006975Y4836968D02*
G01X975658Y4859337D01*
G01X975658Y4825783D02*
G01X975658Y4859337D01*
G01X1006975Y4836968D02*
G01X960000Y4836968D01*
G04 Draw part D5*
G04 draw part outline for part D5*
G54D12*
G01X904000Y4750000D02*
G01X904000Y4545000D01*
G01X904000Y4545000D02*
G01X796000Y4545000D01*
G01X796000Y4545000D02*
G01X796000Y4750000D01*
G01X796000Y4750000D02*
G01X904000Y4750000D01*
G01X904000Y4570000D02*
G01X796000Y4570000D01*
G04 draw reference designator for part D5*
G01X810000Y4947727D02*
G01X810000Y4900000D01*
G01X825909Y4947727D02*
G01X810000Y4947727D01*
G01X825909Y4947727D02*
G01X832727Y4945454D01*
G01X832727Y4945454D02*
G01X837272Y4940909D01*
G01X837272Y4940909D02*
G01X839545Y4936363D01*
G01X839545Y4936363D02*
G01X841818Y4929545D01*
G01X841818Y4929545D02*
G01X841818Y4918181D01*
G01X841818Y4918181D02*
G01X839545Y4911363D01*
G01X839545Y4911363D02*
G01X837272Y4906818D01*
G01X837272Y4906818D02*
G01X832727Y4902272D01*
G01X832727Y4902272D02*
G01X825909Y4900000D01*
G01X810000Y4900000D02*
G01X825909Y4900000D01*
G01X864545Y4947727D02*
G01X887272Y4947727D01*
G01X864545Y4947727D02*
G01X862272Y4927272D01*
G01X864545Y4929545D02*
G01X862272Y4927272D01*
G01X871363Y4931818D02*
G01X864545Y4929545D01*
G01X878181Y4931818D02*
G01X871363Y4931818D01*
G01X878181Y4931818D02*
G01X885000Y4929545D01*
G01X885000Y4929545D02*
G01X889545Y4925000D01*
G01X889545Y4925000D02*
G01X891818Y4918181D01*
G01X891818Y4918181D02*
G01X891818Y4913636D01*
G01X891818Y4913636D02*
G01X889545Y4906818D01*
G01X889545Y4906818D02*
G01X885000Y4902272D01*
G01X885000Y4902272D02*
G01X878181Y4900000D01*
G01X871363Y4900000D02*
G01X878181Y4900000D01*
G01X864545Y4902272D02*
G01X871363Y4900000D01*
G01X862272Y4904545D02*
G01X864545Y4902272D01*
G01X860000Y4909090D02*
G01X862272Y4904545D01*
G04 Draw part D6*
G04 draw part outline for part D6*
G01X754000Y4750000D02*
G01X754000Y4545000D01*
G01X754000Y4545000D02*
G01X646000Y4545000D01*
G01X646000Y4545000D02*
G01X646000Y4750000D01*
G01X646000Y4750000D02*
G01X754000Y4750000D01*
G01X754000Y4570000D02*
G01X646000Y4570000D01*
G04 draw reference designator for part D6*
G01X660000Y4947727D02*
G01X660000Y4900000D01*
G01X675909Y4947727D02*
G01X660000Y4947727D01*
G01X675909Y4947727D02*
G01X682727Y4945454D01*
G01X682727Y4945454D02*
G01X687272Y4940909D01*
G01X687272Y4940909D02*
G01X689545Y4936363D01*
G01X689545Y4936363D02*
G01X691818Y4929545D01*
G01X691818Y4929545D02*
G01X691818Y4918181D01*
G01X691818Y4918181D02*
G01X689545Y4911363D01*
G01X689545Y4911363D02*
G01X687272Y4906818D01*
G01X687272Y4906818D02*
G01X682727Y4902272D01*
G01X682727Y4902272D02*
G01X675909Y4900000D01*
G01X660000Y4900000D02*
G01X675909Y4900000D01*
G01X735000Y4945454D02*
G01X737272Y4940909D01*
G01X728181Y4947727D02*
G01X735000Y4945454D01*
G01X723636Y4947727D02*
G01X728181Y4947727D01*
G01X723636Y4947727D02*
G01X716818Y4945454D01*
G01X716818Y4945454D02*
G01X712272Y4938636D01*
G01X712272Y4938636D02*
G01X710000Y4927272D01*
G01X710000Y4927272D02*
G01X710000Y4915909D01*
G01X710000Y4915909D02*
G01X712272Y4906818D01*
G01X712272Y4906818D02*
G01X716818Y4902272D01*
G01X716818Y4902272D02*
G01X723636Y4900000D01*
G01X725909Y4900000D02*
G01X723636Y4900000D01*
G01X732727Y4902272D02*
G01X725909Y4900000D01*
G01X737272Y4906818D02*
G01X732727Y4902272D01*
G01X739545Y4913636D02*
G01X737272Y4906818D01*
G01X739545Y4915909D02*
G01X739545Y4913636D01*
G01X737272Y4922727D02*
G01X739545Y4915909D01*
G01X732727Y4927272D02*
G01X737272Y4922727D01*
G01X725909Y4929545D02*
G01X732727Y4927272D01*
G01X723636Y4929545D02*
G01X725909Y4929545D01*
G01X723636Y4929545D02*
G01X716818Y4927272D01*
G01X716818Y4927272D02*
G01X712272Y4922727D01*
G01X712272Y4922727D02*
G01X710000Y4915909D01*
G04 Draw part CN3*
G04 draw part outline for part CN3*
G54D11*
G01X330000Y4580000D02*
G01X34724Y4580000D01*
G01X34724Y4580000D02*
G01X34724Y4973700D01*
G01X34724Y4973700D02*
G01X330000Y4973700D01*
G01X330000Y4973700D02*
G01X330000Y4580000D01*
G01X50000Y4780000D02*
G01X90000Y4820000D01*
G01X50000Y4780000D02*
G01X90000Y4740000D01*
G04 draw reference designator for part CN3*
G54D10*
G01X381317Y4960264D02*
G01X383554Y4955790D01*
G01X376843Y4964738D02*
G01X381317Y4960264D01*
G01X372369Y4966975D02*
G01X376843Y4964738D01*
G01X363421Y4966975D02*
G01X372369Y4966975D01*
G01X363421Y4966975D02*
G01X358947Y4964738D01*
G01X358947Y4964738D02*
G01X354473Y4960264D01*
G01X354473Y4960264D02*
G01X352236Y4955790D01*
G01X352236Y4955790D02*
G01X350000Y4949080D01*
G01X350000Y4949080D02*
G01X350000Y4937895D01*
G01X350000Y4937895D02*
G01X352236Y4931184D01*
G01X352236Y4931184D02*
G01X354473Y4926710D01*
G01X354473Y4926710D02*
G01X358947Y4922236D01*
G01X358947Y4922236D02*
G01X363421Y4920000D01*
G01X372369Y4920000D02*
G01X363421Y4920000D01*
G01X376843Y4922236D02*
G01X372369Y4920000D01*
G01X381317Y4926710D02*
G01X376843Y4922236D01*
G01X383554Y4931184D02*
G01X381317Y4926710D01*
G01X401449Y4966975D02*
G01X401449Y4920000D01*
G01X401449Y4966975D02*
G01X432766Y4920000D01*
G01X432766Y4966975D02*
G01X432766Y4920000D01*
G01X479742Y4966975D02*
G01X455135Y4966975D01*
G01X479742Y4966975D02*
G01X466320Y4949080D01*
G01X473031Y4949080D02*
G01X466320Y4949080D01*
G01X473031Y4949080D02*
G01X477505Y4946843D01*
G01X477505Y4946843D02*
G01X479742Y4944606D01*
G01X479742Y4944606D02*
G01X481979Y4937895D01*
G01X481979Y4937895D02*
G01X481979Y4933421D01*
G01X481979Y4933421D02*
G01X479742Y4926710D01*
G01X479742Y4926710D02*
G01X475268Y4922236D01*
G01X475268Y4922236D02*
G01X468557Y4920000D01*
G01X461846Y4920000D02*
G01X468557Y4920000D01*
G01X455135Y4922236D02*
G01X461846Y4920000D01*
G01X452899Y4924473D02*
G01X455135Y4922236D01*
G01X450662Y4928947D02*
G01X452899Y4924473D01*
G04 Draw part BUZZ1*
G04 draw part outline for part BUZZ1*
G54D11*
G01X625354Y4040000D02*
G01X625377Y4043952D01*
G01X625447Y4047903D01*
G01X625564Y4051854D01*
G01X625727Y4055803D01*
G01X625937Y4059750D01*
G01X626194Y4063694D01*
G01X626497Y4067634D01*
G01X626846Y4071571D01*
G01X627243Y4075504D01*
G01X627685Y4079431D01*
G01X628174Y4083353D01*
G01X628709Y4087269D01*
G01X629290Y4091178D01*
G01X629918Y4095080D01*
G01X630591Y4098975D01*
G01X631311Y4102861D01*
G01X632076Y4106739D01*
G01X632887Y4110607D01*
G01X633744Y4114465D01*
G01X634646Y4118313D01*
G01X635594Y4122150D01*
G01X636587Y4125976D01*
G01X637625Y4129789D01*
G01X638708Y4133590D01*
G01X639835Y4137378D01*
G01X641008Y4141153D01*
G01X642225Y4144913D01*
G01X643486Y4148659D01*
G01X644791Y4152389D01*
G01X646141Y4156104D01*
G01X647534Y4159803D01*
G01X648970Y4163485D01*
G01X650450Y4167149D01*
G01X651974Y4170796D01*
G01X653540Y4174425D01*
G01X655149Y4178035D01*
G01X656800Y4181626D01*
G01X658494Y4185197D01*
G01X660230Y4188748D01*
G01X662008Y4192277D01*
G01X663827Y4195786D01*
G01X665687Y4199273D01*
G01X667589Y4202738D01*
G01X669531Y4206180D01*
G01X671514Y4209599D01*
G01X673537Y4212994D01*
G01X675600Y4216365D01*
G01X677703Y4219712D01*
G01X679845Y4223033D01*
G01X682027Y4226329D01*
G01X684247Y4229599D01*
G01X686505Y4232843D01*
G01X688802Y4236059D01*
G01X691136Y4239248D01*
G01X693508Y4242410D01*
G01X695917Y4245543D01*
G01X698363Y4248648D01*
G01X700845Y4251723D01*
G01X703364Y4254769D01*
G01X705918Y4257785D01*
G01X708508Y4260770D01*
G01X711133Y4263725D01*
G01X713793Y4266649D01*
G01X716487Y4269541D01*
G01X719215Y4272401D01*
G01X721976Y4275228D01*
G01X724771Y4278023D01*
G01X727598Y4280784D01*
G01X730458Y4283512D01*
G01X733350Y4286206D01*
G01X736274Y4288866D01*
G01X739228Y4291491D01*
G01X742214Y4294081D01*
G01X745230Y4296635D01*
G01X748276Y4299154D01*
G01X751351Y4301636D01*
G01X754456Y4304082D01*
G01X757589Y4306491D01*
G01X760751Y4308863D01*
G01X763940Y4311197D01*
G01X767156Y4313494D01*
G01X770400Y4315752D01*
G01X773670Y4317972D01*
G01X776966Y4320154D01*
G01X780287Y4322296D01*
G01X783634Y4324399D01*
G01X787005Y4326462D01*
G01X790400Y4328485D01*
G01X793819Y4330468D01*
G01X797261Y4332410D01*
G01X800726Y4334312D01*
G01X804213Y4336172D01*
G01X807721Y4337991D01*
G01X811251Y4339769D01*
G01X814802Y4341505D01*
G01X818373Y4343199D01*
G01X821964Y4344850D01*
G01X825574Y4346459D01*
G01X829203Y4348025D01*
G01X832850Y4349549D01*
G01X836514Y4351029D01*
G01X840196Y4352465D01*
G01X843895Y4353858D01*
G01X847610Y4355208D01*
G01X851340Y4356513D01*
G01X855086Y4357774D01*
G01X858846Y4358991D01*
G01X862621Y4360164D01*
G01X866409Y4361291D01*
G01X870210Y4362374D01*
G01X874023Y4363412D01*
G01X877849Y4364405D01*
G01X881686Y4365353D01*
G01X885534Y4366255D01*
G01X889392Y4367112D01*
G01X893260Y4367923D01*
G01X897138Y4368688D01*
G01X901024Y4369407D01*
G01X904919Y4370081D01*
G01X908821Y4370709D01*
G01X912730Y4371290D01*
G01X916646Y4371825D01*
G01X920568Y4372314D01*
G01X924495Y4372756D01*
G01X928428Y4373153D01*
G01X932365Y4373502D01*
G01X936305Y4373805D01*
G01X940249Y4374062D01*
G01X944196Y4374272D01*
G01X948145Y4374435D01*
G01X952096Y4374552D01*
G01X956047Y4374622D01*
G01X960000Y4374645D01*
G01X960000Y4374645D02*
G01X963952Y4374622D01*
G01X967903Y4374552D01*
G01X971854Y4374435D01*
G01X975803Y4374272D01*
G01X979750Y4374062D01*
G01X983694Y4373805D01*
G01X987634Y4373502D01*
G01X991571Y4373153D01*
G01X995504Y4372756D01*
G01X999431Y4372314D01*
G01X1003353Y4371825D01*
G01X1007269Y4371290D01*
G01X1011178Y4370709D01*
G01X1015080Y4370081D01*
G01X1018975Y4369407D01*
G01X1022861Y4368688D01*
G01X1026739Y4367923D01*
G01X1030607Y4367112D01*
G01X1034465Y4366255D01*
G01X1038313Y4365353D01*
G01X1042150Y4364405D01*
G01X1045976Y4363412D01*
G01X1049789Y4362374D01*
G01X1053590Y4361291D01*
G01X1057378Y4360164D01*
G01X1061153Y4358991D01*
G01X1064913Y4357774D01*
G01X1068659Y4356513D01*
G01X1072389Y4355208D01*
G01X1076104Y4353858D01*
G01X1079803Y4352465D01*
G01X1083485Y4351029D01*
G01X1087149Y4349549D01*
G01X1090796Y4348025D01*
G01X1094425Y4346459D01*
G01X1098035Y4344850D01*
G01X1101626Y4343199D01*
G01X1105197Y4341505D01*
G01X1108748Y4339769D01*
G01X1112277Y4337991D01*
G01X1115786Y4336172D01*
G01X1119273Y4334312D01*
G01X1122738Y4332410D01*
G01X1126180Y4330468D01*
G01X1129599Y4328485D01*
G01X1132994Y4326462D01*
G01X1136365Y4324399D01*
G01X1139712Y4322296D01*
G01X1143033Y4320154D01*
G01X1146329Y4317972D01*
G01X1149599Y4315752D01*
G01X1152843Y4313494D01*
G01X1156059Y4311197D01*
G01X1159248Y4308863D01*
G01X1162410Y4306491D01*
G01X1165543Y4304082D01*
G01X1168648Y4301636D01*
G01X1171723Y4299154D01*
G01X1174769Y4296635D01*
G01X1177785Y4294081D01*
G01X1180770Y4291491D01*
G01X1183725Y4288866D01*
G01X1186649Y4286206D01*
G01X1189541Y4283512D01*
G01X1192401Y4280784D01*
G01X1195228Y4278023D01*
G01X1198023Y4275228D01*
G01X1200784Y4272401D01*
G01X1203512Y4269541D01*
G01X1206206Y4266649D01*
G01X1208866Y4263725D01*
G01X1211491Y4260770D01*
G01X1214081Y4257785D01*
G01X1216635Y4254769D01*
G01X1219154Y4251723D01*
G01X1221636Y4248648D01*
G01X1224082Y4245543D01*
G01X1226491Y4242410D01*
G01X1228863Y4239248D01*
G01X1231197Y4236059D01*
G01X1233494Y4232843D01*
G01X1235752Y4229599D01*
G01X1237972Y4226329D01*
G01X1240154Y4223033D01*
G01X1242296Y4219712D01*
G01X1244399Y4216365D01*
G01X1246462Y4212994D01*
G01X1248485Y4209599D01*
G01X1250468Y4206180D01*
G01X1252410Y4202738D01*
G01X1254312Y4199273D01*
G01X1256172Y4195786D01*
G01X1257991Y4192277D01*
G01X1259769Y4188748D01*
G01X1261505Y4185197D01*
G01X1263199Y4181626D01*
G01X1264850Y4178035D01*
G01X1266459Y4174425D01*
G01X1268025Y4170796D01*
G01X1269549Y4167149D01*
G01X1271029Y4163485D01*
G01X1272465Y4159803D01*
G01X1273858Y4156104D01*
G01X1275208Y4152389D01*
G01X1276513Y4148659D01*
G01X1277774Y4144913D01*
G01X1278991Y4141153D01*
G01X1280164Y4137378D01*
G01X1281291Y4133590D01*
G01X1282374Y4129789D01*
G01X1283412Y4125976D01*
G01X1284405Y4122150D01*
G01X1285353Y4118313D01*
G01X1286255Y4114465D01*
G01X1287112Y4110607D01*
G01X1287923Y4106739D01*
G01X1288688Y4102861D01*
G01X1289407Y4098975D01*
G01X1290081Y4095080D01*
G01X1290709Y4091178D01*
G01X1291290Y4087269D01*
G01X1291825Y4083353D01*
G01X1292314Y4079431D01*
G01X1292756Y4075504D01*
G01X1293153Y4071571D01*
G01X1293502Y4067634D01*
G01X1293805Y4063694D01*
G01X1294062Y4059750D01*
G01X1294272Y4055803D01*
G01X1294435Y4051854D01*
G01X1294552Y4047903D01*
G01X1294622Y4043952D01*
G01X1294645Y4040000D01*
G01X1294645Y4040000D02*
G01X1294622Y4036047D01*
G01X1294552Y4032096D01*
G01X1294435Y4028145D01*
G01X1294272Y4024196D01*
G01X1294062Y4020249D01*
G01X1293805Y4016305D01*
G01X1293502Y4012365D01*
G01X1293153Y4008428D01*
G01X1292756Y4004495D01*
G01X1292314Y4000568D01*
G01X1291825Y3996646D01*
G01X1291290Y3992730D01*
G01X1290709Y3988821D01*
G01X1290081Y3984919D01*
G01X1289407Y3981024D01*
G01X1288688Y3977138D01*
G01X1287923Y3973260D01*
G01X1287112Y3969392D01*
G01X1286255Y3965534D01*
G01X1285353Y3961686D01*
G01X1284405Y3957849D01*
G01X1283412Y3954023D01*
G01X1282374Y3950210D01*
G01X1281291Y3946409D01*
G01X1280164Y3942621D01*
G01X1278991Y3938846D01*
G01X1277774Y3935086D01*
G01X1276513Y3931340D01*
G01X1275208Y3927610D01*
G01X1273858Y3923895D01*
G01X1272465Y3920196D01*
G01X1271029Y3916514D01*
G01X1269549Y3912850D01*
G01X1268025Y3909203D01*
G01X1266459Y3905574D01*
G01X1264850Y3901964D01*
G01X1263199Y3898373D01*
G01X1261505Y3894802D01*
G01X1259769Y3891251D01*
G01X1257991Y3887721D01*
G01X1256172Y3884213D01*
G01X1254312Y3880726D01*
G01X1252410Y3877261D01*
G01X1250468Y3873819D01*
G01X1248485Y3870400D01*
G01X1246462Y3867005D01*
G01X1244399Y3863634D01*
G01X1242296Y3860287D01*
G01X1240154Y3856966D01*
G01X1237972Y3853670D01*
G01X1235752Y3850400D01*
G01X1233494Y3847156D01*
G01X1231197Y3843940D01*
G01X1228863Y3840751D01*
G01X1226491Y3837589D01*
G01X1224082Y3834456D01*
G01X1221636Y3831351D01*
G01X1219154Y3828276D01*
G01X1216635Y3825230D01*
G01X1214081Y3822214D01*
G01X1211491Y3819228D01*
G01X1208866Y3816274D01*
G01X1206206Y3813350D01*
G01X1203512Y3810458D01*
G01X1200784Y3807598D01*
G01X1198023Y3804771D01*
G01X1195228Y3801976D01*
G01X1192401Y3799215D01*
G01X1189541Y3796487D01*
G01X1186649Y3793793D01*
G01X1183725Y3791133D01*
G01X1180770Y3788508D01*
G01X1177785Y3785918D01*
G01X1174769Y3783364D01*
G01X1171723Y3780845D01*
G01X1168648Y3778363D01*
G01X1165543Y3775917D01*
G01X1162410Y3773508D01*
G01X1159248Y3771136D01*
G01X1156059Y3768802D01*
G01X1152843Y3766505D01*
G01X1149599Y3764247D01*
G01X1146329Y3762027D01*
G01X1143033Y3759845D01*
G01X1139712Y3757703D01*
G01X1136365Y3755600D01*
G01X1132994Y3753537D01*
G01X1129599Y3751514D01*
G01X1126180Y3749531D01*
G01X1122738Y3747589D01*
G01X1119273Y3745687D01*
G01X1115786Y3743827D01*
G01X1112277Y3742008D01*
G01X1108748Y3740230D01*
G01X1105197Y3738494D01*
G01X1101626Y3736800D01*
G01X1098035Y3735149D01*
G01X1094425Y3733540D01*
G01X1090796Y3731974D01*
G01X1087149Y3730450D01*
G01X1083485Y3728970D01*
G01X1079803Y3727534D01*
G01X1076104Y3726141D01*
G01X1072389Y3724791D01*
G01X1068659Y3723486D01*
G01X1064913Y3722225D01*
G01X1061153Y3721008D01*
G01X1057378Y3719835D01*
G01X1053590Y3718708D01*
G01X1049789Y3717625D01*
G01X1045976Y3716587D01*
G01X1042150Y3715594D01*
G01X1038313Y3714646D01*
G01X1034465Y3713744D01*
G01X1030607Y3712887D01*
G01X1026739Y3712076D01*
G01X1022861Y3711311D01*
G01X1018975Y3710591D01*
G01X1015080Y3709918D01*
G01X1011178Y3709290D01*
G01X1007269Y3708709D01*
G01X1003353Y3708174D01*
G01X999431Y3707685D01*
G01X995504Y3707243D01*
G01X991571Y3706846D01*
G01X987634Y3706497D01*
G01X983694Y3706194D01*
G01X979750Y3705937D01*
G01X975803Y3705727D01*
G01X971854Y3705564D01*
G01X967903Y3705447D01*
G01X963952Y3705377D01*
G01X960000Y3705354D01*
G01X960000Y3705354D02*
G01X956047Y3705377D01*
G01X952096Y3705447D01*
G01X948145Y3705564D01*
G01X944196Y3705727D01*
G01X940249Y3705937D01*
G01X936305Y3706194D01*
G01X932365Y3706497D01*
G01X928428Y3706846D01*
G01X924495Y3707243D01*
G01X920568Y3707685D01*
G01X916646Y3708174D01*
G01X912730Y3708709D01*
G01X908821Y3709290D01*
G01X904919Y3709918D01*
G01X901024Y3710591D01*
G01X897138Y3711311D01*
G01X893260Y3712076D01*
G01X889392Y3712887D01*
G01X885534Y3713744D01*
G01X881686Y3714646D01*
G01X877849Y3715594D01*
G01X874023Y3716587D01*
G01X870210Y3717625D01*
G01X866409Y3718708D01*
G01X862621Y3719835D01*
G01X858846Y3721008D01*
G01X855086Y3722225D01*
G01X851340Y3723486D01*
G01X847610Y3724791D01*
G01X843895Y3726141D01*
G01X840196Y3727534D01*
G01X836514Y3728970D01*
G01X832850Y3730450D01*
G01X829203Y3731974D01*
G01X825574Y3733540D01*
G01X821964Y3735149D01*
G01X818373Y3736800D01*
G01X814802Y3738494D01*
G01X811251Y3740230D01*
G01X807721Y3742008D01*
G01X804213Y3743827D01*
G01X800726Y3745687D01*
G01X797261Y3747589D01*
G01X793819Y3749531D01*
G01X790400Y3751514D01*
G01X787005Y3753537D01*
G01X783634Y3755600D01*
G01X780287Y3757703D01*
G01X776966Y3759845D01*
G01X773670Y3762027D01*
G01X770400Y3764247D01*
G01X767156Y3766505D01*
G01X763940Y3768802D01*
G01X760751Y3771136D01*
G01X757589Y3773508D01*
G01X754456Y3775917D01*
G01X751351Y3778363D01*
G01X748276Y3780845D01*
G01X745230Y3783364D01*
G01X742214Y3785918D01*
G01X739228Y3788508D01*
G01X736274Y3791133D01*
G01X733350Y3793793D01*
G01X730458Y3796487D01*
G01X727598Y3799215D01*
G01X724771Y3801976D01*
G01X721976Y3804771D01*
G01X719215Y3807598D01*
G01X716487Y3810458D01*
G01X713793Y3813350D01*
G01X711133Y3816274D01*
G01X708508Y3819228D01*
G01X705918Y3822214D01*
G01X703364Y3825230D01*
G01X700845Y3828276D01*
G01X698363Y3831351D01*
G01X695917Y3834456D01*
G01X693508Y3837589D01*
G01X691136Y3840751D01*
G01X688802Y3843940D01*
G01X686505Y3847156D01*
G01X684247Y3850400D01*
G01X682027Y3853670D01*
G01X679845Y3856966D01*
G01X677703Y3860287D01*
G01X675600Y3863634D01*
G01X673537Y3867005D01*
G01X671514Y3870400D01*
G01X669531Y3873819D01*
G01X667589Y3877261D01*
G01X665687Y3880726D01*
G01X663827Y3884213D01*
G01X662008Y3887721D01*
G01X660230Y3891251D01*
G01X658494Y3894802D01*
G01X656800Y3898373D01*
G01X655149Y3901964D01*
G01X653540Y3905574D01*
G01X651974Y3909203D01*
G01X650450Y3912850D01*
G01X648970Y3916514D01*
G01X647534Y3920196D01*
G01X646141Y3923895D01*
G01X644791Y3927610D01*
G01X643486Y3931340D01*
G01X642225Y3935086D01*
G01X641008Y3938846D01*
G01X639835Y3942621D01*
G01X638708Y3946409D01*
G01X637625Y3950210D01*
G01X636587Y3954023D01*
G01X635594Y3957849D01*
G01X634646Y3961686D01*
G01X633744Y3965534D01*
G01X632887Y3969392D01*
G01X632076Y3973260D01*
G01X631311Y3977138D01*
G01X630591Y3981024D01*
G01X629918Y3984919D01*
G01X629290Y3988821D01*
G01X628709Y3992730D01*
G01X628174Y3996646D01*
G01X627685Y4000568D01*
G01X627243Y4004495D01*
G01X626846Y4008428D01*
G01X626497Y4012365D01*
G01X626194Y4016305D01*
G01X625937Y4020249D01*
G01X625727Y4024196D01*
G01X625564Y4028145D01*
G01X625447Y4032096D01*
G01X625377Y4036047D01*
G01X625354Y4040000D01*
G04 draw reference designator for part BUZZ1*
G54D12*
G01X850000Y4217727D02*
G01X850000Y4170000D01*
G01X870454Y4217727D02*
G01X850000Y4217727D01*
G01X870454Y4217727D02*
G01X877272Y4215454D01*
G01X877272Y4215454D02*
G01X879545Y4213181D01*
G01X879545Y4213181D02*
G01X881818Y4208636D01*
G01X881818Y4208636D02*
G01X881818Y4204090D01*
G01X881818Y4204090D02*
G01X879545Y4199545D01*
G01X879545Y4199545D02*
G01X877272Y4197272D01*
G01X877272Y4197272D02*
G01X870454Y4195000D01*
G01X870454Y4195000D02*
G01X850000Y4195000D01*
G01X870454Y4195000D02*
G01X877272Y4192727D01*
G01X877272Y4192727D02*
G01X879545Y4190454D01*
G01X879545Y4190454D02*
G01X881818Y4185909D01*
G01X881818Y4185909D02*
G01X881818Y4179090D01*
G01X881818Y4179090D02*
G01X879545Y4174545D01*
G01X879545Y4174545D02*
G01X877272Y4172272D01*
G01X877272Y4172272D02*
G01X870454Y4170000D01*
G01X850000Y4170000D02*
G01X870454Y4170000D01*
G01X900000Y4217727D02*
G01X900000Y4183636D01*
G01X900000Y4183636D02*
G01X902272Y4176818D01*
G01X902272Y4176818D02*
G01X906818Y4172272D01*
G01X906818Y4172272D02*
G01X913636Y4170000D01*
G01X918181Y4170000D02*
G01X913636Y4170000D01*
G01X925000Y4172272D02*
G01X918181Y4170000D01*
G01X929545Y4176818D02*
G01X925000Y4172272D01*
G01X931818Y4183636D02*
G01X929545Y4176818D01*
G01X931818Y4217727D02*
G01X931818Y4183636D01*
G01X981818Y4217727D02*
G01X950000Y4170000D01*
G01X981818Y4217727D02*
G01X950000Y4217727D01*
G01X981818Y4170000D02*
G01X950000Y4170000D01*
G01X1031818Y4217727D02*
G01X1000000Y4170000D01*
G01X1031818Y4217727D02*
G01X1000000Y4217727D01*
G01X1031818Y4170000D02*
G01X1000000Y4170000D01*
G01X1054545Y4210909D02*
G01X1050000Y4208636D01*
G01X1061363Y4217727D02*
G01X1054545Y4210909D01*
G01X1061363Y4217727D02*
G01X1061363Y4170000D01*
G04 Draw part C1*
G04 draw part outline for part C1*
G54D11*
G01X40000Y2890000D02*
G01X40000Y2990000D01*
G01X40000Y2990000D02*
G01X240000Y2990000D01*
G01X240000Y2990000D02*
G01X240000Y2890000D01*
G01X240000Y2890000D02*
G01X40000Y2890000D01*
G04 draw reference designator for part C1*
G54D12*
G01X291818Y2950909D02*
G01X294090Y2946363D01*
G01X287272Y2955454D02*
G01X291818Y2950909D01*
G01X282727Y2957727D02*
G01X287272Y2955454D01*
G01X273636Y2957727D02*
G01X282727Y2957727D01*
G01X273636Y2957727D02*
G01X269090Y2955454D01*
G01X269090Y2955454D02*
G01X264545Y2950909D01*
G01X264545Y2950909D02*
G01X262272Y2946363D01*
G01X262272Y2946363D02*
G01X260000Y2939545D01*
G01X260000Y2939545D02*
G01X260000Y2928181D01*
G01X260000Y2928181D02*
G01X262272Y2921363D01*
G01X262272Y2921363D02*
G01X264545Y2916818D01*
G01X264545Y2916818D02*
G01X269090Y2912272D01*
G01X269090Y2912272D02*
G01X273636Y2910000D01*
G01X282727Y2910000D02*
G01X273636Y2910000D01*
G01X287272Y2912272D02*
G01X282727Y2910000D01*
G01X291818Y2916818D02*
G01X287272Y2912272D01*
G01X294090Y2921363D02*
G01X291818Y2916818D01*
G01X316818Y2950909D02*
G01X312272Y2948636D01*
G01X323636Y2957727D02*
G01X316818Y2950909D01*
G01X323636Y2957727D02*
G01X323636Y2910000D01*
G04 Draw part SYM1*
G04 draw part outline for part SYM1*
G54D11*
G01X1450000Y4525000D02*
G01X1446077Y4525154D01*
G01X1442178Y4525615D01*
G01X1438327Y4526381D01*
G01X1434549Y4527447D01*
G01X1430865Y4528805D01*
G01X1427300Y4530449D01*
G01X1423875Y4532367D01*
G01X1420610Y4534549D01*
G01X1417527Y4536979D01*
G01X1414644Y4539644D01*
G01X1411979Y4542527D01*
G01X1409549Y4545610D01*
G01X1407367Y4548875D01*
G01X1405449Y4552300D01*
G01X1403805Y4555865D01*
G01X1402447Y4559549D01*
G01X1401381Y4563327D01*
G01X1400615Y4567178D01*
G01X1400154Y4571077D01*
G01X1400000Y4575000D01*
G01X1400000Y4575000D02*
G01X1400154Y4578922D01*
G01X1400615Y4582821D01*
G01X1401381Y4586672D01*
G01X1402447Y4590450D01*
G01X1403805Y4594134D01*
G01X1405449Y4597699D01*
G01X1407367Y4601124D01*
G01X1409549Y4604389D01*
G01X1411979Y4607472D01*
G01X1414644Y4610355D01*
G01X1417527Y4613020D01*
G01X1420610Y4615450D01*
G01X1423875Y4617632D01*
G01X1427300Y4619550D01*
G01X1430865Y4621193D01*
G01X1434549Y4622552D01*
G01X1438327Y4623618D01*
G01X1442178Y4624384D01*
G01X1446077Y4624845D01*
G01X1450000Y4625000D01*
G01X1450000Y4625000D02*
G01X1453922Y4624845D01*
G01X1457821Y4624384D01*
G01X1461672Y4623618D01*
G01X1465450Y4622552D01*
G01X1469134Y4621193D01*
G01X1472699Y4619550D01*
G01X1476124Y4617632D01*
G01X1479389Y4615450D01*
G01X1482472Y4613020D01*
G01X1485355Y4610355D01*
G01X1488020Y4607472D01*
G01X1490450Y4604389D01*
G01X1492632Y4601124D01*
G01X1494550Y4597699D01*
G01X1496193Y4594134D01*
G01X1497552Y4590450D01*
G01X1498618Y4586672D01*
G01X1499384Y4582821D01*
G01X1499845Y4578922D01*
G01X1500000Y4575000D01*
G01X1500000Y4575000D02*
G01X1499845Y4571077D01*
G01X1499384Y4567178D01*
G01X1498618Y4563327D01*
G01X1497552Y4559549D01*
G01X1496193Y4555865D01*
G01X1494550Y4552300D01*
G01X1492632Y4548875D01*
G01X1490450Y4545610D01*
G01X1488020Y4542527D01*
G01X1485355Y4539644D01*
G01X1482472Y4536979D01*
G01X1479389Y4534549D01*
G01X1476124Y4532367D01*
G01X1472699Y4530449D01*
G01X1469134Y4528805D01*
G01X1465450Y4527447D01*
G01X1461672Y4526381D01*
G01X1457821Y4525615D01*
G01X1453922Y4525154D01*
G01X1450000Y4525000D01*
G01X1450000Y4575000D02*
G01X1450000Y4675000D01*
G54D10*
G01X1450454Y4464090D02*
G01X1450454Y4505000D01*
G01X1450454Y4735909D02*
G01X1450454Y4695000D01*
G01X1470909Y4715454D02*
G01X1430000Y4715454D01*
G04 Draw part H1*
G04 draw part outline for part H1*
G04 Draw part H2*
G04 draw part outline for part H2*
G04 Draw part M1*
G04 draw part outline for part M1*
G04 Draw part M2*
G04 draw part outline for part M2*
G04 Draw part M3*
G04 draw part outline for part M3*
G04 Draw part M4*
G04 draw part outline for part M4*
G04 Draw part M5*
G04 draw part outline for part M5*
G04 Draw part M6*
G04 draw part outline for part M6*
G04 Draw part M8*
G04 draw part outline for part M8*
G04 Draw part CN6*
G04 draw part outline for part CN6*
G54D11*
G01X150000Y3980000D02*
G01X150000Y3480000D01*
G01X150000Y3480000D02*
G01X50000Y3480000D01*
G01X50000Y3480000D02*
G01X50000Y3980000D01*
G01X50000Y3980000D02*
G01X150000Y3980000D01*
G54D12*
G01X190000Y3561590D02*
G01X217272Y3490000D01*
G01X244545Y3561590D02*
G01X217272Y3490000D01*
G01X271818Y3561590D02*
G01X271818Y3490000D01*
G01X302500Y3561590D02*
G01X271818Y3561590D01*
G01X302500Y3561590D02*
G01X312727Y3558181D01*
G01X312727Y3558181D02*
G01X316136Y3554772D01*
G01X316136Y3554772D02*
G01X319545Y3547954D01*
G01X319545Y3547954D02*
G01X319545Y3537727D01*
G01X319545Y3537727D02*
G01X316136Y3530909D01*
G01X316136Y3530909D02*
G01X312727Y3527500D01*
G01X312727Y3527500D02*
G01X302500Y3524090D01*
G01X271818Y3524090D02*
G01X302500Y3524090D01*
G01X346818Y3561590D02*
G01X346818Y3490000D01*
G01X377500Y3561590D02*
G01X346818Y3561590D01*
G01X377500Y3561590D02*
G01X387727Y3558181D01*
G01X387727Y3558181D02*
G01X391136Y3554772D01*
G01X391136Y3554772D02*
G01X394545Y3547954D01*
G01X394545Y3547954D02*
G01X394545Y3537727D01*
G01X394545Y3537727D02*
G01X391136Y3530909D01*
G01X391136Y3530909D02*
G01X387727Y3527500D01*
G01X387727Y3527500D02*
G01X377500Y3524090D01*
G01X346818Y3524090D02*
G01X377500Y3524090D01*
G01X190000Y3661590D02*
G01X190000Y3590000D01*
G01X213863Y3661590D02*
G01X190000Y3661590D01*
G01X213863Y3661590D02*
G01X224090Y3658181D01*
G01X224090Y3658181D02*
G01X230909Y3651363D01*
G01X230909Y3651363D02*
G01X234318Y3644545D01*
G01X234318Y3644545D02*
G01X237727Y3634318D01*
G01X237727Y3634318D02*
G01X237727Y3617272D01*
G01X237727Y3617272D02*
G01X234318Y3607045D01*
G01X234318Y3607045D02*
G01X230909Y3600227D01*
G01X230909Y3600227D02*
G01X224090Y3593409D01*
G01X224090Y3593409D02*
G01X213863Y3590000D01*
G01X190000Y3590000D02*
G01X213863Y3590000D01*
G01X292272Y3661590D02*
G01X265000Y3590000D01*
G01X292272Y3661590D02*
G01X319545Y3590000D01*
G01X309318Y3613863D02*
G01X275227Y3613863D01*
G01X370681Y3661590D02*
G01X370681Y3590000D01*
G01X394545Y3661590D02*
G01X346818Y3661590D01*
G01X237727Y3751363D02*
G01X241136Y3744545D01*
G01X230909Y3758181D02*
G01X237727Y3751363D01*
G01X224090Y3761590D02*
G01X230909Y3758181D01*
G01X210454Y3761590D02*
G01X224090Y3761590D01*
G01X210454Y3761590D02*
G01X203636Y3758181D01*
G01X203636Y3758181D02*
G01X196818Y3751363D01*
G01X196818Y3751363D02*
G01X193409Y3744545D01*
G01X193409Y3744545D02*
G01X190000Y3734318D01*
G01X190000Y3734318D02*
G01X190000Y3717272D01*
G01X190000Y3717272D02*
G01X193409Y3707045D01*
G01X193409Y3707045D02*
G01X196818Y3700227D01*
G01X196818Y3700227D02*
G01X203636Y3693409D01*
G01X203636Y3693409D02*
G01X210454Y3690000D01*
G01X224090Y3690000D02*
G01X210454Y3690000D01*
G01X230909Y3693409D02*
G01X224090Y3690000D01*
G01X237727Y3700227D02*
G01X230909Y3693409D01*
G01X241136Y3707045D02*
G01X237727Y3700227D01*
G01X268409Y3761590D02*
G01X268409Y3690000D01*
G01X309318Y3690000D02*
G01X268409Y3690000D01*
G01X336590Y3761590D02*
G01X336590Y3690000D01*
G01X384318Y3761590D02*
G01X336590Y3713863D01*
G01X353636Y3730909D02*
G01X384318Y3690000D01*
G01X190000Y3861590D02*
G01X217272Y3790000D01*
G01X244545Y3861590D02*
G01X217272Y3790000D01*
G01X271818Y3861590D02*
G01X271818Y3790000D01*
G01X295681Y3861590D02*
G01X271818Y3861590D01*
G01X295681Y3861590D02*
G01X305909Y3858181D01*
G01X305909Y3858181D02*
G01X312727Y3851363D01*
G01X312727Y3851363D02*
G01X316136Y3844545D01*
G01X316136Y3844545D02*
G01X319545Y3834318D01*
G01X319545Y3834318D02*
G01X319545Y3817272D01*
G01X319545Y3817272D02*
G01X316136Y3807045D01*
G01X316136Y3807045D02*
G01X312727Y3800227D01*
G01X312727Y3800227D02*
G01X305909Y3793409D01*
G01X305909Y3793409D02*
G01X295681Y3790000D01*
G01X271818Y3790000D02*
G01X295681Y3790000D01*
G01X346818Y3861590D02*
G01X346818Y3790000D01*
G01X370681Y3861590D02*
G01X346818Y3861590D01*
G01X370681Y3861590D02*
G01X380909Y3858181D01*
G01X380909Y3858181D02*
G01X387727Y3851363D01*
G01X387727Y3851363D02*
G01X391136Y3844545D01*
G01X391136Y3844545D02*
G01X394545Y3834318D01*
G01X394545Y3834318D02*
G01X394545Y3817272D01*
G01X394545Y3817272D02*
G01X391136Y3807045D01*
G01X391136Y3807045D02*
G01X387727Y3800227D01*
G01X387727Y3800227D02*
G01X380909Y3793409D01*
G01X380909Y3793409D02*
G01X370681Y3790000D01*
G01X346818Y3790000D02*
G01X370681Y3790000D01*
G01X237727Y3951363D02*
G01X241136Y3944545D01*
G01X230909Y3958181D02*
G01X237727Y3951363D01*
G01X224090Y3961590D02*
G01X230909Y3958181D01*
G01X210454Y3961590D02*
G01X224090Y3961590D01*
G01X210454Y3961590D02*
G01X203636Y3958181D01*
G01X203636Y3958181D02*
G01X196818Y3951363D01*
G01X196818Y3951363D02*
G01X193409Y3944545D01*
G01X193409Y3944545D02*
G01X190000Y3934318D01*
G01X190000Y3934318D02*
G01X190000Y3917272D01*
G01X190000Y3917272D02*
G01X193409Y3907045D01*
G01X193409Y3907045D02*
G01X196818Y3900227D01*
G01X196818Y3900227D02*
G01X203636Y3893409D01*
G01X203636Y3893409D02*
G01X210454Y3890000D01*
G01X224090Y3890000D02*
G01X210454Y3890000D01*
G01X230909Y3893409D02*
G01X224090Y3890000D01*
G01X237727Y3900227D02*
G01X230909Y3893409D01*
G01X241136Y3907045D02*
G01X237727Y3900227D01*
G01X241136Y3917272D02*
G01X241136Y3907045D01*
G01X241136Y3917272D02*
G01X224090Y3917272D01*
G01X268409Y3961590D02*
G01X268409Y3890000D01*
G01X268409Y3961590D02*
G01X316136Y3890000D01*
G01X316136Y3961590D02*
G01X316136Y3890000D01*
G01X343409Y3961590D02*
G01X343409Y3890000D01*
G01X367272Y3961590D02*
G01X343409Y3961590D01*
G01X367272Y3961590D02*
G01X377500Y3958181D01*
G01X377500Y3958181D02*
G01X384318Y3951363D01*
G01X384318Y3951363D02*
G01X387727Y3944545D01*
G01X387727Y3944545D02*
G01X391136Y3934318D01*
G01X391136Y3934318D02*
G01X391136Y3917272D01*
G01X391136Y3917272D02*
G01X387727Y3907045D01*
G01X387727Y3907045D02*
G01X384318Y3900227D01*
G01X384318Y3900227D02*
G01X377500Y3893409D01*
G01X377500Y3893409D02*
G01X367272Y3890000D01*
G01X343409Y3890000D02*
G01X367272Y3890000D01*
G04 draw reference designator for part CN6*
G01X71818Y3460909D02*
G01X74090Y3456363D01*
G01X67272Y3465454D02*
G01X71818Y3460909D01*
G01X62727Y3467727D02*
G01X67272Y3465454D01*
G01X53636Y3467727D02*
G01X62727Y3467727D01*
G01X53636Y3467727D02*
G01X49090Y3465454D01*
G01X49090Y3465454D02*
G01X44545Y3460909D01*
G01X44545Y3460909D02*
G01X42272Y3456363D01*
G01X42272Y3456363D02*
G01X40000Y3449545D01*
G01X40000Y3449545D02*
G01X40000Y3438181D01*
G01X40000Y3438181D02*
G01X42272Y3431363D01*
G01X42272Y3431363D02*
G01X44545Y3426818D01*
G01X44545Y3426818D02*
G01X49090Y3422272D01*
G01X49090Y3422272D02*
G01X53636Y3420000D01*
G01X62727Y3420000D02*
G01X53636Y3420000D01*
G01X67272Y3422272D02*
G01X62727Y3420000D01*
G01X71818Y3426818D02*
G01X67272Y3422272D01*
G01X74090Y3431363D02*
G01X71818Y3426818D01*
G01X92272Y3467727D02*
G01X92272Y3420000D01*
G01X92272Y3467727D02*
G01X124090Y3420000D01*
G01X124090Y3467727D02*
G01X124090Y3420000D01*
G01X167272Y3465454D02*
G01X169545Y3460909D01*
G01X160454Y3467727D02*
G01X167272Y3465454D01*
G01X155909Y3467727D02*
G01X160454Y3467727D01*
G01X155909Y3467727D02*
G01X149090Y3465454D01*
G01X149090Y3465454D02*
G01X144545Y3458636D01*
G01X144545Y3458636D02*
G01X142272Y3447272D01*
G01X142272Y3447272D02*
G01X142272Y3435909D01*
G01X142272Y3435909D02*
G01X144545Y3426818D01*
G01X144545Y3426818D02*
G01X149090Y3422272D01*
G01X149090Y3422272D02*
G01X155909Y3420000D01*
G01X158181Y3420000D02*
G01X155909Y3420000D01*
G01X165000Y3422272D02*
G01X158181Y3420000D01*
G01X169545Y3426818D02*
G01X165000Y3422272D01*
G01X171818Y3433636D02*
G01X169545Y3426818D01*
G01X171818Y3435909D02*
G01X171818Y3433636D01*
G01X169545Y3442727D02*
G01X171818Y3435909D01*
G01X165000Y3447272D02*
G01X169545Y3442727D01*
G01X158181Y3449545D02*
G01X165000Y3447272D01*
G01X155909Y3449545D02*
G01X158181Y3449545D01*
G01X155909Y3449545D02*
G01X149090Y3447272D01*
G01X149090Y3447272D02*
G01X144545Y3442727D01*
G01X144545Y3442727D02*
G01X142272Y3435909D01*
G04 Draw part CN5*
G04 draw part outline for part CN5*
G54D11*
G01X1550000Y3700000D02*
G01X1550000Y4400000D01*
G01X1550000Y4400000D02*
G01X1650000Y4400000D01*
G01X1650000Y4400000D02*
G01X1650000Y3700000D01*
G01X1650000Y3700000D02*
G01X1550000Y3700000D01*
G54D12*
G01X1751590Y4173181D02*
G01X1751590Y4139090D01*
G01X1751590Y4173181D02*
G01X1720909Y4176590D01*
G01X1724318Y4173181D02*
G01X1720909Y4176590D01*
G01X1727727Y4162954D02*
G01X1724318Y4173181D01*
G01X1727727Y4152727D02*
G01X1727727Y4162954D01*
G01X1727727Y4152727D02*
G01X1724318Y4142500D01*
G01X1724318Y4142500D02*
G01X1717500Y4135681D01*
G01X1717500Y4135681D02*
G01X1707272Y4132272D01*
G01X1707272Y4132272D02*
G01X1700454Y4132272D01*
G01X1700454Y4132272D02*
G01X1690227Y4135681D01*
G01X1690227Y4135681D02*
G01X1683409Y4142500D01*
G01X1683409Y4142500D02*
G01X1680000Y4152727D01*
G01X1680000Y4162954D02*
G01X1680000Y4152727D01*
G01X1683409Y4173181D02*
G01X1680000Y4162954D01*
G01X1686818Y4176590D02*
G01X1683409Y4173181D01*
G01X1693636Y4180000D02*
G01X1686818Y4176590D01*
G01X1748181Y4242500D02*
G01X1741363Y4239090D01*
G01X1751590Y4252727D02*
G01X1748181Y4242500D01*
G01X1751590Y4259545D02*
G01X1751590Y4252727D01*
G01X1751590Y4259545D02*
G01X1748181Y4269772D01*
G01X1748181Y4269772D02*
G01X1737954Y4276590D01*
G01X1737954Y4276590D02*
G01X1720909Y4280000D01*
G01X1720909Y4280000D02*
G01X1703863Y4280000D01*
G01X1703863Y4280000D02*
G01X1690227Y4276590D01*
G01X1690227Y4276590D02*
G01X1683409Y4269772D01*
G01X1683409Y4269772D02*
G01X1680000Y4259545D01*
G01X1680000Y4256136D02*
G01X1680000Y4259545D01*
G01X1683409Y4245909D02*
G01X1680000Y4256136D01*
G01X1690227Y4239090D02*
G01X1683409Y4245909D01*
G01X1700454Y4235681D02*
G01X1690227Y4239090D01*
G01X1703863Y4235681D02*
G01X1700454Y4235681D01*
G01X1714090Y4239090D02*
G01X1703863Y4235681D01*
G01X1720909Y4245909D02*
G01X1714090Y4239090D01*
G01X1724318Y4256136D02*
G01X1720909Y4245909D01*
G01X1724318Y4259545D02*
G01X1724318Y4256136D01*
G01X1724318Y4259545D02*
G01X1720909Y4269772D01*
G01X1720909Y4269772D02*
G01X1714090Y4276590D01*
G01X1714090Y4276590D02*
G01X1703863Y4280000D01*
G01X1751590Y4332272D02*
G01X1680000Y4366363D01*
G01X1751590Y4332272D02*
G01X1751590Y4380000D01*
G01X1751590Y4045909D02*
G01X1703863Y4080000D01*
G01X1703863Y4028863D02*
G01X1703863Y4080000D01*
G01X1751590Y4045909D02*
G01X1680000Y4045909D01*
G01X1751590Y3935681D02*
G01X1751590Y3973181D01*
G01X1751590Y3935681D02*
G01X1724318Y3956136D01*
G01X1724318Y3945909D02*
G01X1724318Y3956136D01*
G01X1724318Y3945909D02*
G01X1720909Y3939090D01*
G01X1720909Y3939090D02*
G01X1717500Y3935681D01*
G01X1717500Y3935681D02*
G01X1707272Y3932272D01*
G01X1707272Y3932272D02*
G01X1700454Y3932272D01*
G01X1700454Y3932272D02*
G01X1690227Y3935681D01*
G01X1690227Y3935681D02*
G01X1683409Y3942500D01*
G01X1683409Y3942500D02*
G01X1680000Y3952727D01*
G01X1680000Y3962954D02*
G01X1680000Y3952727D01*
G01X1683409Y3973181D02*
G01X1680000Y3962954D01*
G01X1686818Y3976590D02*
G01X1683409Y3973181D01*
G01X1693636Y3980000D02*
G01X1686818Y3976590D01*
G01X1737954Y3876590D02*
G01X1734545Y3876590D01*
G01X1744772Y3873181D02*
G01X1737954Y3876590D01*
G01X1748181Y3869772D02*
G01X1744772Y3873181D01*
G01X1751590Y3862954D02*
G01X1748181Y3869772D01*
G01X1751590Y3849318D02*
G01X1751590Y3862954D01*
G01X1751590Y3849318D02*
G01X1748181Y3842500D01*
G01X1748181Y3842500D02*
G01X1744772Y3839090D01*
G01X1744772Y3839090D02*
G01X1737954Y3835681D01*
G01X1737954Y3835681D02*
G01X1731136Y3835681D01*
G01X1731136Y3835681D02*
G01X1724318Y3839090D01*
G01X1724318Y3839090D02*
G01X1714090Y3845909D01*
G01X1714090Y3845909D02*
G01X1680000Y3880000D01*
G01X1680000Y3832272D02*
G01X1680000Y3880000D01*
G01X1741363Y3763181D02*
G01X1737954Y3770000D01*
G01X1751590Y3752954D02*
G01X1741363Y3763181D01*
G01X1751590Y3752954D02*
G01X1680000Y3752954D01*
G04 draw reference designator for part CN5*
G01X1515909Y4368181D02*
G01X1511363Y4365909D01*
G01X1520454Y4372727D02*
G01X1515909Y4368181D01*
G01X1522727Y4377272D02*
G01X1520454Y4372727D01*
G01X1522727Y4386363D02*
G01X1522727Y4377272D01*
G01X1522727Y4386363D02*
G01X1520454Y4390909D01*
G01X1520454Y4390909D02*
G01X1515909Y4395454D01*
G01X1515909Y4395454D02*
G01X1511363Y4397727D01*
G01X1511363Y4397727D02*
G01X1504545Y4400000D01*
G01X1504545Y4400000D02*
G01X1493181Y4400000D01*
G01X1493181Y4400000D02*
G01X1486363Y4397727D01*
G01X1486363Y4397727D02*
G01X1481818Y4395454D01*
G01X1481818Y4395454D02*
G01X1477272Y4390909D01*
G01X1477272Y4390909D02*
G01X1475000Y4386363D01*
G01X1475000Y4377272D02*
G01X1475000Y4386363D01*
G01X1477272Y4372727D02*
G01X1475000Y4377272D01*
G01X1481818Y4368181D02*
G01X1477272Y4372727D01*
G01X1486363Y4365909D02*
G01X1481818Y4368181D01*
G01X1522727Y4347727D02*
G01X1475000Y4347727D01*
G01X1522727Y4347727D02*
G01X1475000Y4315909D01*
G01X1522727Y4315909D02*
G01X1475000Y4315909D01*
G01X1522727Y4293181D02*
G01X1522727Y4270454D01*
G01X1522727Y4293181D02*
G01X1502272Y4295454D01*
G01X1504545Y4293181D02*
G01X1502272Y4295454D01*
G01X1506818Y4286363D02*
G01X1504545Y4293181D01*
G01X1506818Y4279545D02*
G01X1506818Y4286363D01*
G01X1506818Y4279545D02*
G01X1504545Y4272727D01*
G01X1504545Y4272727D02*
G01X1500000Y4268181D01*
G01X1500000Y4268181D02*
G01X1493181Y4265909D01*
G01X1493181Y4265909D02*
G01X1488636Y4265909D01*
G01X1488636Y4265909D02*
G01X1481818Y4268181D01*
G01X1481818Y4268181D02*
G01X1477272Y4272727D01*
G01X1477272Y4272727D02*
G01X1475000Y4279545D01*
G01X1475000Y4286363D02*
G01X1475000Y4279545D01*
G01X1477272Y4293181D02*
G01X1475000Y4286363D01*
G01X1479545Y4295454D02*
G01X1477272Y4293181D01*
G01X1484090Y4297727D02*
G01X1479545Y4295454D01*
G04 Draw part CN7*
G04 draw part outline for part CN7*
G54D11*
G01X1650000Y4600000D02*
G01X1650000Y4400000D01*
G01X1650000Y4400000D02*
G01X1550000Y4400000D01*
G01X1550000Y4400000D02*
G01X1550000Y4600000D01*
G01X1550000Y4600000D02*
G01X1650000Y4600000D01*
G54D10*
G01X1736363Y4544318D02*
G01X1675000Y4544318D01*
G01X1705681Y4513636D02*
G01X1705681Y4575000D01*
G01X1705681Y4413636D02*
G01X1705681Y4475000D01*
G04 Draw part LED1*
G04 draw part outline for part LED1*
G54D11*
G01X110000Y220000D02*
G01X110000Y970000D01*
G01X110000Y970000D02*
G01X1090000Y970000D01*
G01X1090000Y970000D02*
G01X1090000Y220000D01*
G01X1090000Y220000D02*
G01X110000Y220000D01*
G01X235000Y795000D02*
G01X235000Y645000D01*
G01X235000Y570000D02*
G01X235000Y420000D01*
G01X510000Y570000D02*
G01X510000Y420000D01*
G01X510000Y795000D02*
G01X510000Y645000D01*
G01X260000Y820000D02*
G01X485000Y820000D01*
G01X260000Y395000D02*
G01X485000Y395000D01*
G01X260000Y620000D02*
G01X485000Y620000D01*
G01X560000Y420000D02*
G01X562178Y419904D01*
G01X564341Y419620D01*
G01X566470Y419148D01*
G01X568550Y418492D01*
G01X570565Y417657D01*
G01X572499Y416650D01*
G01X574339Y415478D01*
G01X576069Y414151D01*
G01X577677Y412677D01*
G01X579151Y411069D01*
G01X580478Y409339D01*
G01X581650Y407500D01*
G01X582657Y405565D01*
G01X583492Y403550D01*
G01X584148Y401470D01*
G01X584620Y399341D01*
G01X584904Y397178D01*
G01X585000Y395000D01*
G01X585000Y395000D02*
G01X584904Y392821D01*
G01X584620Y390658D01*
G01X584148Y388529D01*
G01X583492Y386449D01*
G01X582657Y384434D01*
G01X581650Y382500D01*
G01X580478Y380660D01*
G01X579151Y378930D01*
G01X577677Y377322D01*
G01X576069Y375848D01*
G01X574339Y374521D01*
G01X572500Y373349D01*
G01X570565Y372342D01*
G01X568550Y371507D01*
G01X566470Y370851D01*
G01X564341Y370379D01*
G01X562178Y370095D01*
G01X560000Y370000D01*
G01X560000Y370000D02*
G01X557821Y370095D01*
G01X555658Y370379D01*
G01X553529Y370851D01*
G01X551449Y371507D01*
G01X549434Y372342D01*
G01X547500Y373349D01*
G01X545660Y374521D01*
G01X543930Y375848D01*
G01X542322Y377322D01*
G01X540848Y378930D01*
G01X539521Y380660D01*
G01X538349Y382499D01*
G01X537342Y384434D01*
G01X536507Y386449D01*
G01X535851Y388529D01*
G01X535379Y390658D01*
G01X535095Y392821D01*
G01X535000Y395000D01*
G01X535000Y395000D02*
G01X535095Y397178D01*
G01X535379Y399341D01*
G01X535851Y401470D01*
G01X536507Y403550D01*
G01X537342Y405565D01*
G01X538349Y407499D01*
G01X539521Y409339D01*
G01X540848Y411069D01*
G01X542322Y412677D01*
G01X543930Y414151D01*
G01X545660Y415478D01*
G01X547499Y416650D01*
G01X549434Y417657D01*
G01X551449Y418492D01*
G01X553529Y419148D01*
G01X555658Y419620D01*
G01X557821Y419904D01*
G01X560000Y420000D01*
G01X685000Y795000D02*
G01X685000Y645000D01*
G01X685000Y570000D02*
G01X685000Y420000D01*
G01X960000Y570000D02*
G01X960000Y420000D01*
G01X960000Y795000D02*
G01X960000Y645000D01*
G01X710000Y820000D02*
G01X945000Y820000D01*
G01X710000Y395000D02*
G01X945000Y395000D01*
G01X710000Y620000D02*
G01X945000Y620000D01*
G01X1010000Y420000D02*
G01X1012178Y419904D01*
G01X1014341Y419620D01*
G01X1016470Y419148D01*
G01X1018550Y418492D01*
G01X1020565Y417657D01*
G01X1022499Y416650D01*
G01X1024339Y415478D01*
G01X1026069Y414151D01*
G01X1027677Y412677D01*
G01X1029151Y411069D01*
G01X1030478Y409339D01*
G01X1031650Y407500D01*
G01X1032657Y405565D01*
G01X1033492Y403550D01*
G01X1034148Y401470D01*
G01X1034620Y399341D01*
G01X1034904Y397178D01*
G01X1035000Y395000D01*
G01X1035000Y395000D02*
G01X1034904Y392821D01*
G01X1034620Y390658D01*
G01X1034148Y388529D01*
G01X1033492Y386449D01*
G01X1032657Y384434D01*
G01X1031650Y382500D01*
G01X1030478Y380660D01*
G01X1029151Y378930D01*
G01X1027677Y377322D01*
G01X1026069Y375848D01*
G01X1024339Y374521D01*
G01X1022500Y373349D01*
G01X1020565Y372342D01*
G01X1018550Y371507D01*
G01X1016470Y370851D01*
G01X1014341Y370379D01*
G01X1012178Y370095D01*
G01X1010000Y370000D01*
G01X1010000Y370000D02*
G01X1007821Y370095D01*
G01X1005658Y370379D01*
G01X1003529Y370851D01*
G01X1001449Y371507D01*
G01X999434Y372342D01*
G01X997500Y373349D01*
G01X995660Y374521D01*
G01X993930Y375848D01*
G01X992322Y377322D01*
G01X990848Y378930D01*
G01X989521Y380660D01*
G01X988349Y382499D01*
G01X987342Y384434D01*
G01X986507Y386449D01*
G01X985851Y388529D01*
G01X985379Y390658D01*
G01X985095Y392821D01*
G01X985000Y395000D01*
G01X985000Y395000D02*
G01X985095Y397178D01*
G01X985379Y399341D01*
G01X985851Y401470D01*
G01X986507Y403550D01*
G01X987342Y405565D01*
G01X988349Y407499D01*
G01X989521Y409339D01*
G01X990848Y411069D01*
G01X992322Y412677D01*
G01X993930Y414151D01*
G01X995660Y415478D01*
G01X997499Y416650D01*
G01X999434Y417657D01*
G01X1001449Y418492D01*
G01X1003529Y419148D01*
G01X1005658Y419620D01*
G01X1007821Y419904D01*
G01X1010000Y420000D01*
G04 draw reference designator for part LED1*
G01X110000Y1115454D02*
G01X110000Y1020000D01*
G01X164545Y1020000D02*
G01X110000Y1020000D01*
G01X200909Y1115454D02*
G01X200909Y1020000D01*
G01X260000Y1115454D02*
G01X200909Y1115454D01*
G01X237272Y1070000D02*
G01X200909Y1070000D01*
G01X260000Y1020000D02*
G01X200909Y1020000D01*
G01X296363Y1115454D02*
G01X296363Y1020000D01*
G01X328181Y1115454D02*
G01X296363Y1115454D01*
G01X328181Y1115454D02*
G01X341818Y1110909D01*
G01X341818Y1110909D02*
G01X350909Y1101818D01*
G01X350909Y1101818D02*
G01X355454Y1092727D01*
G01X355454Y1092727D02*
G01X360000Y1079090D01*
G01X360000Y1079090D02*
G01X360000Y1056363D01*
G01X360000Y1056363D02*
G01X355454Y1042727D01*
G01X355454Y1042727D02*
G01X350909Y1033636D01*
G01X350909Y1033636D02*
G01X341818Y1024545D01*
G01X341818Y1024545D02*
G01X328181Y1020000D01*
G01X296363Y1020000D02*
G01X328181Y1020000D01*
G01X405454Y1101818D02*
G01X396363Y1097272D01*
G01X419090Y1115454D02*
G01X405454Y1101818D01*
G01X419090Y1115454D02*
G01X419090Y1020000D01*
G04 Draw part LED2*
G04 draw part outline for part LED2*
G01X1410000Y220000D02*
G01X1410000Y970000D01*
G01X1410000Y970000D02*
G01X2390000Y970000D01*
G01X2390000Y970000D02*
G01X2390000Y220000D01*
G01X2390000Y220000D02*
G01X1410000Y220000D01*
G01X1535000Y795000D02*
G01X1535000Y645000D01*
G01X1535000Y570000D02*
G01X1535000Y420000D01*
G01X1810000Y570000D02*
G01X1810000Y420000D01*
G01X1810000Y795000D02*
G01X1810000Y645000D01*
G01X1560000Y820000D02*
G01X1785000Y820000D01*
G01X1560000Y395000D02*
G01X1785000Y395000D01*
G01X1560000Y620000D02*
G01X1785000Y620000D01*
G01X1860000Y420000D02*
G01X1862178Y419904D01*
G01X1864341Y419620D01*
G01X1866470Y419148D01*
G01X1868550Y418492D01*
G01X1870565Y417657D01*
G01X1872499Y416650D01*
G01X1874339Y415478D01*
G01X1876069Y414151D01*
G01X1877677Y412677D01*
G01X1879151Y411069D01*
G01X1880478Y409339D01*
G01X1881650Y407500D01*
G01X1882657Y405565D01*
G01X1883492Y403550D01*
G01X1884148Y401470D01*
G01X1884620Y399341D01*
G01X1884904Y397178D01*
G01X1885000Y395000D01*
G01X1885000Y395000D02*
G01X1884904Y392821D01*
G01X1884620Y390658D01*
G01X1884148Y388529D01*
G01X1883492Y386449D01*
G01X1882657Y384434D01*
G01X1881650Y382500D01*
G01X1880478Y380660D01*
G01X1879151Y378930D01*
G01X1877677Y377322D01*
G01X1876069Y375848D01*
G01X1874339Y374521D01*
G01X1872500Y373349D01*
G01X1870565Y372342D01*
G01X1868550Y371507D01*
G01X1866470Y370851D01*
G01X1864341Y370379D01*
G01X1862178Y370095D01*
G01X1860000Y370000D01*
G01X1860000Y370000D02*
G01X1857821Y370095D01*
G01X1855658Y370379D01*
G01X1853529Y370851D01*
G01X1851449Y371507D01*
G01X1849434Y372342D01*
G01X1847500Y373349D01*
G01X1845660Y374521D01*
G01X1843930Y375848D01*
G01X1842322Y377322D01*
G01X1840848Y378930D01*
G01X1839521Y380660D01*
G01X1838349Y382499D01*
G01X1837342Y384434D01*
G01X1836507Y386449D01*
G01X1835851Y388529D01*
G01X1835379Y390658D01*
G01X1835095Y392821D01*
G01X1835000Y395000D01*
G01X1835000Y395000D02*
G01X1835095Y397178D01*
G01X1835379Y399341D01*
G01X1835851Y401470D01*
G01X1836507Y403550D01*
G01X1837342Y405565D01*
G01X1838349Y407499D01*
G01X1839521Y409339D01*
G01X1840848Y411069D01*
G01X1842322Y412677D01*
G01X1843930Y414151D01*
G01X1845660Y415478D01*
G01X1847499Y416650D01*
G01X1849434Y417657D01*
G01X1851449Y418492D01*
G01X1853529Y419148D01*
G01X1855658Y419620D01*
G01X1857821Y419904D01*
G01X1860000Y420000D01*
G01X1985000Y795000D02*
G01X1985000Y645000D01*
G01X1985000Y570000D02*
G01X1985000Y420000D01*
G01X2260000Y570000D02*
G01X2260000Y420000D01*
G01X2260000Y795000D02*
G01X2260000Y645000D01*
G01X2010000Y820000D02*
G01X2245000Y820000D01*
G01X2010000Y395000D02*
G01X2245000Y395000D01*
G01X2010000Y620000D02*
G01X2245000Y620000D01*
G01X2310000Y420000D02*
G01X2312178Y419904D01*
G01X2314341Y419620D01*
G01X2316470Y419148D01*
G01X2318550Y418492D01*
G01X2320565Y417657D01*
G01X2322499Y416650D01*
G01X2324339Y415478D01*
G01X2326069Y414151D01*
G01X2327677Y412677D01*
G01X2329151Y411069D01*
G01X2330478Y409339D01*
G01X2331650Y407500D01*
G01X2332657Y405565D01*
G01X2333492Y403550D01*
G01X2334148Y401470D01*
G01X2334620Y399341D01*
G01X2334904Y397178D01*
G01X2335000Y395000D01*
G01X2335000Y395000D02*
G01X2334904Y392821D01*
G01X2334620Y390658D01*
G01X2334148Y388529D01*
G01X2333492Y386449D01*
G01X2332657Y384434D01*
G01X2331650Y382500D01*
G01X2330478Y380660D01*
G01X2329151Y378930D01*
G01X2327677Y377322D01*
G01X2326069Y375848D01*
G01X2324339Y374521D01*
G01X2322500Y373349D01*
G01X2320565Y372342D01*
G01X2318550Y371507D01*
G01X2316470Y370851D01*
G01X2314341Y370379D01*
G01X2312178Y370095D01*
G01X2310000Y370000D01*
G01X2310000Y370000D02*
G01X2307821Y370095D01*
G01X2305658Y370379D01*
G01X2303529Y370851D01*
G01X2301449Y371507D01*
G01X2299434Y372342D01*
G01X2297500Y373349D01*
G01X2295660Y374521D01*
G01X2293930Y375848D01*
G01X2292322Y377322D01*
G01X2290848Y378930D01*
G01X2289521Y380660D01*
G01X2288349Y382499D01*
G01X2287342Y384434D01*
G01X2286507Y386449D01*
G01X2285851Y388529D01*
G01X2285379Y390658D01*
G01X2285095Y392821D01*
G01X2285000Y395000D01*
G01X2285000Y395000D02*
G01X2285095Y397178D01*
G01X2285379Y399341D01*
G01X2285851Y401470D01*
G01X2286507Y403550D01*
G01X2287342Y405565D01*
G01X2288349Y407499D01*
G01X2289521Y409339D01*
G01X2290848Y411069D01*
G01X2292322Y412677D01*
G01X2293930Y414151D01*
G01X2295660Y415478D01*
G01X2297499Y416650D01*
G01X2299434Y417657D01*
G01X2301449Y418492D01*
G01X2303529Y419148D01*
G01X2305658Y419620D01*
G01X2307821Y419904D01*
G01X2310000Y420000D01*
G04 draw reference designator for part LED2*
G01X1410000Y1115454D02*
G01X1410000Y1020000D01*
G01X1464545Y1020000D02*
G01X1410000Y1020000D01*
G01X1500909Y1115454D02*
G01X1500909Y1020000D01*
G01X1560000Y1115454D02*
G01X1500909Y1115454D01*
G01X1537272Y1070000D02*
G01X1500909Y1070000D01*
G01X1560000Y1020000D02*
G01X1500909Y1020000D01*
G01X1596363Y1115454D02*
G01X1596363Y1020000D01*
G01X1628181Y1115454D02*
G01X1596363Y1115454D01*
G01X1628181Y1115454D02*
G01X1641818Y1110909D01*
G01X1641818Y1110909D02*
G01X1650909Y1101818D01*
G01X1650909Y1101818D02*
G01X1655454Y1092727D01*
G01X1655454Y1092727D02*
G01X1660000Y1079090D01*
G01X1660000Y1079090D02*
G01X1660000Y1056363D01*
G01X1660000Y1056363D02*
G01X1655454Y1042727D01*
G01X1655454Y1042727D02*
G01X1650909Y1033636D01*
G01X1650909Y1033636D02*
G01X1641818Y1024545D01*
G01X1641818Y1024545D02*
G01X1628181Y1020000D01*
G01X1596363Y1020000D02*
G01X1628181Y1020000D01*
G01X1700909Y1097272D02*
G01X1700909Y1092727D01*
G01X1705454Y1106363D02*
G01X1700909Y1097272D01*
G01X1710000Y1110909D02*
G01X1705454Y1106363D01*
G01X1719090Y1115454D02*
G01X1710000Y1110909D01*
G01X1737272Y1115454D02*
G01X1719090Y1115454D01*
G01X1737272Y1115454D02*
G01X1746363Y1110909D01*
G01X1746363Y1110909D02*
G01X1750909Y1106363D01*
G01X1750909Y1106363D02*
G01X1755454Y1097272D01*
G01X1755454Y1097272D02*
G01X1755454Y1088181D01*
G01X1755454Y1088181D02*
G01X1750909Y1079090D01*
G01X1750909Y1079090D02*
G01X1741818Y1065454D01*
G01X1741818Y1065454D02*
G01X1696363Y1020000D01*
G01X1760000Y1020000D02*
G01X1696363Y1020000D01*
G04 Draw part LED3*
G04 draw part outline for part LED3*
G01X2710000Y220000D02*
G01X2710000Y970000D01*
G01X2710000Y970000D02*
G01X3690000Y970000D01*
G01X3690000Y970000D02*
G01X3690000Y220000D01*
G01X3690000Y220000D02*
G01X2710000Y220000D01*
G01X2835000Y795000D02*
G01X2835000Y645000D01*
G01X2835000Y570000D02*
G01X2835000Y420000D01*
G01X3110000Y570000D02*
G01X3110000Y420000D01*
G01X3110000Y795000D02*
G01X3110000Y645000D01*
G01X2860000Y820000D02*
G01X3085000Y820000D01*
G01X2860000Y395000D02*
G01X3085000Y395000D01*
G01X2860000Y620000D02*
G01X3085000Y620000D01*
G01X3160000Y420000D02*
G01X3162178Y419904D01*
G01X3164341Y419620D01*
G01X3166470Y419148D01*
G01X3168550Y418492D01*
G01X3170565Y417657D01*
G01X3172499Y416650D01*
G01X3174339Y415478D01*
G01X3176069Y414151D01*
G01X3177677Y412677D01*
G01X3179151Y411069D01*
G01X3180478Y409339D01*
G01X3181650Y407500D01*
G01X3182657Y405565D01*
G01X3183492Y403550D01*
G01X3184148Y401470D01*
G01X3184620Y399341D01*
G01X3184904Y397178D01*
G01X3185000Y395000D01*
G01X3185000Y395000D02*
G01X3184904Y392821D01*
G01X3184620Y390658D01*
G01X3184148Y388529D01*
G01X3183492Y386449D01*
G01X3182657Y384434D01*
G01X3181650Y382500D01*
G01X3180478Y380660D01*
G01X3179151Y378930D01*
G01X3177677Y377322D01*
G01X3176069Y375848D01*
G01X3174339Y374521D01*
G01X3172500Y373349D01*
G01X3170565Y372342D01*
G01X3168550Y371507D01*
G01X3166470Y370851D01*
G01X3164341Y370379D01*
G01X3162178Y370095D01*
G01X3160000Y370000D01*
G01X3160000Y370000D02*
G01X3157821Y370095D01*
G01X3155658Y370379D01*
G01X3153529Y370851D01*
G01X3151449Y371507D01*
G01X3149434Y372342D01*
G01X3147500Y373349D01*
G01X3145660Y374521D01*
G01X3143930Y375848D01*
G01X3142322Y377322D01*
G01X3140848Y378930D01*
G01X3139521Y380660D01*
G01X3138349Y382499D01*
G01X3137342Y384434D01*
G01X3136507Y386449D01*
G01X3135851Y388529D01*
G01X3135379Y390658D01*
G01X3135095Y392821D01*
G01X3135000Y395000D01*
G01X3135000Y395000D02*
G01X3135095Y397178D01*
G01X3135379Y399341D01*
G01X3135851Y401470D01*
G01X3136507Y403550D01*
G01X3137342Y405565D01*
G01X3138349Y407499D01*
G01X3139521Y409339D01*
G01X3140848Y411069D01*
G01X3142322Y412677D01*
G01X3143930Y414151D01*
G01X3145660Y415478D01*
G01X3147499Y416650D01*
G01X3149434Y417657D01*
G01X3151449Y418492D01*
G01X3153529Y419148D01*
G01X3155658Y419620D01*
G01X3157821Y419904D01*
G01X3160000Y420000D01*
G01X3285000Y795000D02*
G01X3285000Y645000D01*
G01X3285000Y570000D02*
G01X3285000Y420000D01*
G01X3560000Y570000D02*
G01X3560000Y420000D01*
G01X3560000Y795000D02*
G01X3560000Y645000D01*
G01X3310000Y820000D02*
G01X3545000Y820000D01*
G01X3310000Y395000D02*
G01X3545000Y395000D01*
G01X3310000Y620000D02*
G01X3545000Y620000D01*
G01X3610000Y420000D02*
G01X3612178Y419904D01*
G01X3614341Y419620D01*
G01X3616470Y419148D01*
G01X3618550Y418492D01*
G01X3620565Y417657D01*
G01X3622499Y416650D01*
G01X3624339Y415478D01*
G01X3626069Y414151D01*
G01X3627677Y412677D01*
G01X3629151Y411069D01*
G01X3630478Y409339D01*
G01X3631650Y407500D01*
G01X3632657Y405565D01*
G01X3633492Y403550D01*
G01X3634148Y401470D01*
G01X3634620Y399341D01*
G01X3634904Y397178D01*
G01X3635000Y395000D01*
G01X3635000Y395000D02*
G01X3634904Y392821D01*
G01X3634620Y390658D01*
G01X3634148Y388529D01*
G01X3633492Y386449D01*
G01X3632657Y384434D01*
G01X3631650Y382500D01*
G01X3630478Y380660D01*
G01X3629151Y378930D01*
G01X3627677Y377322D01*
G01X3626069Y375848D01*
G01X3624339Y374521D01*
G01X3622500Y373349D01*
G01X3620565Y372342D01*
G01X3618550Y371507D01*
G01X3616470Y370851D01*
G01X3614341Y370379D01*
G01X3612178Y370095D01*
G01X3610000Y370000D01*
G01X3610000Y370000D02*
G01X3607821Y370095D01*
G01X3605658Y370379D01*
G01X3603529Y370851D01*
G01X3601449Y371507D01*
G01X3599434Y372342D01*
G01X3597500Y373349D01*
G01X3595660Y374521D01*
G01X3593930Y375848D01*
G01X3592322Y377322D01*
G01X3590848Y378930D01*
G01X3589521Y380660D01*
G01X3588349Y382499D01*
G01X3587342Y384434D01*
G01X3586507Y386449D01*
G01X3585851Y388529D01*
G01X3585379Y390658D01*
G01X3585095Y392821D01*
G01X3585000Y395000D01*
G01X3585000Y395000D02*
G01X3585095Y397178D01*
G01X3585379Y399341D01*
G01X3585851Y401470D01*
G01X3586507Y403550D01*
G01X3587342Y405565D01*
G01X3588349Y407499D01*
G01X3589521Y409339D01*
G01X3590848Y411069D01*
G01X3592322Y412677D01*
G01X3593930Y414151D01*
G01X3595660Y415478D01*
G01X3597499Y416650D01*
G01X3599434Y417657D01*
G01X3601449Y418492D01*
G01X3603529Y419148D01*
G01X3605658Y419620D01*
G01X3607821Y419904D01*
G01X3610000Y420000D01*
G04 draw reference designator for part LED3*
G01X2710000Y1115454D02*
G01X2710000Y1020000D01*
G01X2764545Y1020000D02*
G01X2710000Y1020000D01*
G01X2800909Y1115454D02*
G01X2800909Y1020000D01*
G01X2860000Y1115454D02*
G01X2800909Y1115454D01*
G01X2837272Y1070000D02*
G01X2800909Y1070000D01*
G01X2860000Y1020000D02*
G01X2800909Y1020000D01*
G01X2896363Y1115454D02*
G01X2896363Y1020000D01*
G01X2928181Y1115454D02*
G01X2896363Y1115454D01*
G01X2928181Y1115454D02*
G01X2941818Y1110909D01*
G01X2941818Y1110909D02*
G01X2950909Y1101818D01*
G01X2950909Y1101818D02*
G01X2955454Y1092727D01*
G01X2955454Y1092727D02*
G01X2960000Y1079090D01*
G01X2960000Y1079090D02*
G01X2960000Y1056363D01*
G01X2960000Y1056363D02*
G01X2955454Y1042727D01*
G01X2955454Y1042727D02*
G01X2950909Y1033636D01*
G01X2950909Y1033636D02*
G01X2941818Y1024545D01*
G01X2941818Y1024545D02*
G01X2928181Y1020000D01*
G01X2896363Y1020000D02*
G01X2928181Y1020000D01*
G01X3055454Y1115454D02*
G01X3005454Y1115454D01*
G01X3055454Y1115454D02*
G01X3028181Y1079090D01*
G01X3041818Y1079090D02*
G01X3028181Y1079090D01*
G01X3041818Y1079090D02*
G01X3050909Y1074545D01*
G01X3050909Y1074545D02*
G01X3055454Y1070000D01*
G01X3055454Y1070000D02*
G01X3060000Y1056363D01*
G01X3060000Y1056363D02*
G01X3060000Y1047272D01*
G01X3060000Y1047272D02*
G01X3055454Y1033636D01*
G01X3055454Y1033636D02*
G01X3046363Y1024545D01*
G01X3046363Y1024545D02*
G01X3032727Y1020000D01*
G01X3019090Y1020000D02*
G01X3032727Y1020000D01*
G01X3005454Y1024545D02*
G01X3019090Y1020000D01*
G01X3000909Y1029090D02*
G01X3005454Y1024545D01*
G01X2996363Y1038181D02*
G01X3000909Y1029090D01*

G04 Draw traces*

G04 Draw Text*
G01X90000Y2350681D02*
G01X151363Y2350681D01*
G01X178636Y2350681D02*
G01X239999Y2350681D01*
G01X267272Y2350681D02*
G01X328636Y2350681D01*
G01X355909Y2350681D02*
G01X417272Y2350681D01*
G01X444545Y2350681D02*
G01X505909Y2350681D01*
G01X533181Y2350681D02*
G01X594545Y2350681D01*
G01X621818Y2350681D02*
G01X683181Y2350681D01*
G01X710454Y2350681D02*
G01X771818Y2350681D01*
G01X799090Y2350681D02*
G01X860454Y2350681D01*
G01X887727Y2350681D02*
G01X949090Y2350681D01*
G01X976363Y2350681D02*
G01X1037727Y2350681D01*
G01X1065000Y2350681D02*
G01X1126363Y2350681D01*
G01X1153636Y2350681D02*
G01X1214999Y2350681D01*
G01X1242272Y2350681D02*
G01X1303636Y2350681D01*
G01X1330909Y2350681D02*
G01X1392272Y2350681D01*
G01X1419545Y2350681D02*
G01X1480909Y2350681D01*
G01X1508181Y2350681D02*
G01X1569545Y2350681D01*
G01X1596818Y2350681D02*
G01X1658181Y2350681D01*
G01X1685454Y2350681D02*
G01X1746818Y2350681D01*
G01X1774090Y2350681D02*
G01X1835454Y2350681D01*
G01X1862727Y2350681D02*
G01X1924090Y2350681D01*
G01X1951363Y2350681D02*
G01X2012727Y2350681D01*
G01X2039999Y2350681D02*
G01X2101363Y2350681D01*
G01X2128636Y2350681D02*
G01X2189999Y2350681D01*
G01X2217272Y2350681D02*
G01X2278636Y2350681D01*
G01X2305909Y2350681D02*
G01X2367272Y2350681D01*
G01X2394545Y2350681D02*
G01X2455909Y2350681D01*
G01X2483181Y2350681D02*
G01X2544545Y2350681D01*
G01X2571818Y2350681D02*
G01X2633181Y2350681D01*
G01X2660454Y2350681D02*
G01X2721818Y2350681D01*
G01X2749090Y2350681D02*
G01X2810454Y2350681D01*
G01X2837727Y2350681D02*
G01X2899090Y2350681D01*
G01X2926363Y2350681D02*
G01X2987727Y2350681D01*
G01X3014999Y2350681D02*
G01X3076363Y2350681D01*
G01X3103636Y2350681D02*
G01X3164999Y2350681D01*
G01X3192272Y2350681D02*
G01X3253636Y2350681D01*
G01X3280909Y2350681D02*
G01X3342272Y2350681D01*
G01X3369545Y2350681D02*
G01X3430909Y2350681D01*
G01X3458181Y2350681D02*
G01X3519545Y2350681D01*
G01X3546818Y2350681D02*
G01X3608181Y2350681D01*
G01X3635454Y2350681D02*
G01X3696818Y2350681D01*
G54D12*
G01X350000Y4870681D02*
G01X411363Y4870681D01*
G01X380681Y4681363D02*
G01X380681Y4620000D01*
G01X350000Y4650681D02*
G01X411363Y4650681D01*
G01X479545Y4681363D02*
G01X476136Y4688181D01*
G01X476136Y4688181D02*
G01X465909Y4691590D01*
G01X465909Y4691590D02*
G01X459090Y4691590D01*
G01X459090Y4691590D02*
G01X448863Y4688181D01*
G01X448863Y4688181D02*
G01X442045Y4677954D01*
G01X442045Y4677954D02*
G01X438636Y4660909D01*
G01X438636Y4660909D02*
G01X438636Y4643863D01*
G01X438636Y4643863D02*
G01X442045Y4630227D01*
G01X442045Y4630227D02*
G01X448863Y4623409D01*
G01X448863Y4623409D02*
G01X459090Y4620000D01*
G01X459090Y4620000D02*
G01X462499Y4620000D01*
G01X462499Y4620000D02*
G01X472727Y4623409D01*
G01X472727Y4623409D02*
G01X479545Y4630227D01*
G01X479545Y4630227D02*
G01X482954Y4640454D01*
G01X482954Y4640454D02*
G01X482954Y4643863D01*
G01X482954Y4643863D02*
G01X479545Y4654090D01*
G01X479545Y4654090D02*
G01X472727Y4660909D01*
G01X472727Y4660909D02*
G01X462499Y4664318D01*
G01X462499Y4664318D02*
G01X459090Y4664318D01*
G01X459090Y4664318D02*
G01X448863Y4660909D01*
G01X448863Y4660909D02*
G01X442045Y4654090D01*
G01X442045Y4654090D02*
G01X438636Y4643863D01*
G01X510227Y4691590D02*
G01X537499Y4620000D01*
G01X564772Y4691590D02*
G01X537499Y4620000D01*
G54D10*
G01X1465909Y4922727D02*
G01X1470454Y4925000D01*
G01X1470454Y4925000D02*
G01X1472727Y4931818D01*
G01X1472727Y4931818D02*
G01X1472727Y4936363D01*
G01X1472727Y4936363D02*
G01X1470454Y4943181D01*
G01X1470454Y4943181D02*
G01X1463636Y4947727D01*
G01X1463636Y4947727D02*
G01X1452272Y4950000D01*
G01X1452272Y4950000D02*
G01X1440909Y4950000D01*
G01X1440909Y4950000D02*
G01X1431818Y4947727D01*
G01X1431818Y4947727D02*
G01X1427272Y4943181D01*
G01X1427272Y4943181D02*
G01X1425000Y4936363D01*
G01X1425000Y4936363D02*
G01X1425000Y4934090D01*
G01X1425000Y4934090D02*
G01X1427272Y4927272D01*
G01X1427272Y4927272D02*
G01X1431818Y4922727D01*
G01X1431818Y4922727D02*
G01X1438636Y4920454D01*
G01X1438636Y4920454D02*
G01X1440909Y4920454D01*
G01X1440909Y4920454D02*
G01X1447727Y4922727D01*
G01X1447727Y4922727D02*
G01X1452272Y4927272D01*
G01X1452272Y4927272D02*
G01X1454545Y4934090D01*
G01X1454545Y4934090D02*
G01X1454545Y4936363D01*
G01X1454545Y4936363D02*
G01X1452272Y4943181D01*
G01X1452272Y4943181D02*
G01X1447727Y4947727D01*
G01X1447727Y4947727D02*
G01X1440909Y4950000D01*
G01X1472727Y4902272D02*
G01X1425000Y4884090D01*
G01X1472727Y4865909D02*
G01X1425000Y4884090D01*
G01X1472727Y4847727D02*
G01X1425000Y4847727D01*
G01X1472727Y4847727D02*
G01X1472727Y4831818D01*
G01X1472727Y4831818D02*
G01X1470454Y4825000D01*
G01X1470454Y4825000D02*
G01X1465909Y4820454D01*
G01X1465909Y4820454D02*
G01X1461363Y4818181D01*
G01X1461363Y4818181D02*
G01X1454545Y4815909D01*
G01X1454545Y4815909D02*
G01X1443181Y4815909D01*
G01X1443181Y4815909D02*
G01X1436363Y4818181D01*
G01X1436363Y4818181D02*
G01X1431818Y4820454D01*
G01X1431818Y4820454D02*
G01X1427272Y4825000D01*
G01X1427272Y4825000D02*
G01X1425000Y4831818D01*
G01X1425000Y4831818D02*
G01X1425000Y4847727D01*
G01X1461363Y4763636D02*
G01X1465909Y4765909D01*
G01X1465909Y4765909D02*
G01X1470454Y4770454D01*
G01X1470454Y4770454D02*
G01X1472727Y4775000D01*
G01X1472727Y4775000D02*
G01X1472727Y4784090D01*
G01X1472727Y4784090D02*
G01X1470454Y4788636D01*
G01X1470454Y4788636D02*
G01X1465909Y4793181D01*
G01X1465909Y4793181D02*
G01X1461363Y4795454D01*
G01X1461363Y4795454D02*
G01X1454545Y4797727D01*
G01X1454545Y4797727D02*
G01X1443181Y4797727D01*
G01X1443181Y4797727D02*
G01X1436363Y4795454D01*
G01X1436363Y4795454D02*
G01X1431818Y4793181D01*
G01X1431818Y4793181D02*
G01X1427272Y4788636D01*
G01X1427272Y4788636D02*
G01X1425000Y4784090D01*
G01X1425000Y4784090D02*
G01X1425000Y4775000D01*
G01X1425000Y4775000D02*
G01X1427272Y4770454D01*
G01X1427272Y4770454D02*
G01X1431818Y4765909D01*
G01X1431818Y4765909D02*
G01X1436363Y4763636D01*
G54D11*
G01X365454Y2167045D02*
G01X365454Y2000000D01*
G01X365454Y2087500D02*
G01X349545Y2103409D01*
G01X349545Y2103409D02*
G01X333636Y2111363D01*
G01X333636Y2111363D02*
G01X309772Y2111363D01*
G01X309772Y2111363D02*
G01X293863Y2103409D01*
G01X293863Y2103409D02*
G01X277954Y2087500D01*
G01X277954Y2087500D02*
G01X270000Y2063636D01*
G01X270000Y2063636D02*
G01X270000Y2047727D01*
G01X270000Y2047727D02*
G01X277954Y2023863D01*
G01X277954Y2023863D02*
G01X293863Y2007954D01*
G01X293863Y2007954D02*
G01X309772Y2000000D01*
G01X309772Y2000000D02*
G01X333636Y2000000D01*
G01X333636Y2000000D02*
G01X349545Y2007954D01*
G01X349545Y2007954D02*
G01X365454Y2023863D01*
G01X429090Y2063636D02*
G01X524545Y2063636D01*
G01X524545Y2063636D02*
G01X524545Y2079545D01*
G01X524545Y2079545D02*
G01X516590Y2095454D01*
G01X516590Y2095454D02*
G01X508636Y2103409D01*
G01X508636Y2103409D02*
G01X492727Y2111363D01*
G01X492727Y2111363D02*
G01X468863Y2111363D01*
G01X468863Y2111363D02*
G01X452954Y2103409D01*
G01X452954Y2103409D02*
G01X437045Y2087500D01*
G01X437045Y2087500D02*
G01X429090Y2063636D01*
G01X429090Y2063636D02*
G01X429090Y2047727D01*
G01X429090Y2047727D02*
G01X437045Y2023863D01*
G01X437045Y2023863D02*
G01X452954Y2007954D01*
G01X452954Y2007954D02*
G01X468863Y2000000D01*
G01X468863Y2000000D02*
G01X492727Y2000000D01*
G01X492727Y2000000D02*
G01X508636Y2007954D01*
G01X508636Y2007954D02*
G01X524545Y2023863D01*
G01X588181Y2111363D02*
G01X588181Y2000000D01*
G01X588181Y2079545D02*
G01X612045Y2103409D01*
G01X612045Y2103409D02*
G01X627954Y2111363D01*
G01X627954Y2111363D02*
G01X651818Y2111363D01*
G01X651818Y2111363D02*
G01X667727Y2103409D01*
G01X667727Y2103409D02*
G01X675681Y2079545D01*
G01X675681Y2079545D02*
G01X675681Y2000000D01*
G01X739318Y2167045D02*
G01X739318Y2000000D01*
G01X818863Y2111363D02*
G01X739318Y2031818D01*
G01X771136Y2063636D02*
G01X826818Y2000000D01*
G01X890454Y2167045D02*
G01X898409Y2159090D01*
G01X898409Y2159090D02*
G01X906363Y2167045D01*
G01X906363Y2167045D02*
G01X898409Y2175000D01*
G01X898409Y2175000D02*
G01X890454Y2167045D01*
G01X898409Y2111363D02*
G01X898409Y2000000D01*
G01X970000Y2111363D02*
G01X970000Y2000000D01*
G01X970000Y2079545D02*
G01X993863Y2103409D01*
G01X993863Y2103409D02*
G01X1009772Y2111363D01*
G01X1009772Y2111363D02*
G01X1033636Y2111363D01*
G01X1033636Y2111363D02*
G01X1049545Y2103409D01*
G01X1049545Y2103409D02*
G01X1057500Y2079545D01*
G01X1057500Y2079545D02*
G01X1057500Y2000000D01*
G01X1057500Y2079545D02*
G01X1081363Y2103409D01*
G01X1081363Y2103409D02*
G01X1097272Y2111363D01*
G01X1097272Y2111363D02*
G01X1121136Y2111363D01*
G01X1121136Y2111363D02*
G01X1137045Y2103409D01*
G01X1137045Y2103409D02*
G01X1145000Y2079545D01*
G01X1145000Y2079545D02*
G01X1145000Y2000000D01*
G01X1248409Y2111363D02*
G01X1232499Y2103409D01*
G01X1232499Y2103409D02*
G01X1216590Y2087500D01*
G01X1216590Y2087500D02*
G01X1208636Y2063636D01*
G01X1208636Y2063636D02*
G01X1208636Y2047727D01*
G01X1208636Y2047727D02*
G01X1216590Y2023863D01*
G01X1216590Y2023863D02*
G01X1232499Y2007954D01*
G01X1232499Y2007954D02*
G01X1248409Y2000000D01*
G01X1248409Y2000000D02*
G01X1272272Y2000000D01*
G01X1272272Y2000000D02*
G01X1288181Y2007954D01*
G01X1288181Y2007954D02*
G01X1304090Y2023863D01*
G01X1304090Y2023863D02*
G01X1312045Y2047727D01*
G01X1312045Y2047727D02*
G01X1312045Y2063636D01*
G01X1312045Y2063636D02*
G01X1304090Y2087500D01*
G01X1304090Y2087500D02*
G01X1288181Y2103409D01*
G01X1288181Y2103409D02*
G01X1272272Y2111363D01*
G01X1272272Y2111363D02*
G01X1248409Y2111363D01*
G01X1375681Y2111363D02*
G01X1375681Y2000000D01*
G01X1375681Y2079545D02*
G01X1399545Y2103409D01*
G01X1399545Y2103409D02*
G01X1415454Y2111363D01*
G01X1415454Y2111363D02*
G01X1439318Y2111363D01*
G01X1439318Y2111363D02*
G01X1455227Y2103409D01*
G01X1455227Y2103409D02*
G01X1463181Y2079545D01*
G01X1463181Y2079545D02*
G01X1463181Y2000000D01*
G01X1566590Y2111363D02*
G01X1550681Y2103409D01*
G01X1550681Y2103409D02*
G01X1534772Y2087500D01*
G01X1534772Y2087500D02*
G01X1526818Y2063636D01*
G01X1526818Y2063636D02*
G01X1526818Y2047727D01*
G01X1526818Y2047727D02*
G01X1534772Y2023863D01*
G01X1534772Y2023863D02*
G01X1550681Y2007954D01*
G01X1550681Y2007954D02*
G01X1566590Y2000000D01*
G01X1566590Y2000000D02*
G01X1590454Y2000000D01*
G01X1590454Y2000000D02*
G01X1606363Y2007954D01*
G01X1606363Y2007954D02*
G01X1622272Y2023863D01*
G01X1622272Y2023863D02*
G01X1630227Y2047727D01*
G01X1630227Y2047727D02*
G01X1630227Y2063636D01*
G01X1630227Y2063636D02*
G01X1622272Y2087500D01*
G01X1622272Y2087500D02*
G01X1606363Y2103409D01*
G01X1606363Y2103409D02*
G01X1590454Y2111363D01*
G01X1590454Y2111363D02*
G01X1566590Y2111363D01*
G01X1720454Y3430454D02*
G01X1625000Y3430454D01*
G01X1675000Y3430454D02*
G01X1684090Y3439545D01*
G01X1684090Y3439545D02*
G01X1688636Y3448636D01*
G01X1688636Y3448636D02*
G01X1688636Y3462272D01*
G01X1688636Y3462272D02*
G01X1684090Y3471363D01*
G01X1684090Y3471363D02*
G01X1675000Y3480454D01*
G01X1675000Y3480454D02*
G01X1661363Y3485000D01*
G01X1661363Y3485000D02*
G01X1652272Y3485000D01*
G01X1652272Y3485000D02*
G01X1638636Y3480454D01*
G01X1638636Y3480454D02*
G01X1629545Y3471363D01*
G01X1629545Y3471363D02*
G01X1625000Y3462272D01*
G01X1625000Y3462272D02*
G01X1625000Y3448636D01*
G01X1625000Y3448636D02*
G01X1629545Y3439545D01*
G01X1629545Y3439545D02*
G01X1638636Y3430454D01*
G01X1661363Y3394090D02*
G01X1661363Y3339545D01*
G01X1661363Y3339545D02*
G01X1670454Y3339545D01*
G01X1670454Y3339545D02*
G01X1679545Y3344090D01*
G01X1679545Y3344090D02*
G01X1684090Y3348636D01*
G01X1684090Y3348636D02*
G01X1688636Y3357727D01*
G01X1688636Y3357727D02*
G01X1688636Y3371363D01*
G01X1688636Y3371363D02*
G01X1684090Y3380454D01*
G01X1684090Y3380454D02*
G01X1675000Y3389545D01*
G01X1675000Y3389545D02*
G01X1661363Y3394090D01*
G01X1661363Y3394090D02*
G01X1652272Y3394090D01*
G01X1652272Y3394090D02*
G01X1638636Y3389545D01*
G01X1638636Y3389545D02*
G01X1629545Y3380454D01*
G01X1629545Y3380454D02*
G01X1625000Y3371363D01*
G01X1625000Y3371363D02*
G01X1625000Y3357727D01*
G01X1625000Y3357727D02*
G01X1629545Y3348636D01*
G01X1629545Y3348636D02*
G01X1638636Y3339545D01*
G01X1688636Y3303181D02*
G01X1625000Y3303181D01*
G01X1670454Y3303181D02*
G01X1684090Y3289545D01*
G01X1684090Y3289545D02*
G01X1688636Y3280454D01*
G01X1688636Y3280454D02*
G01X1688636Y3266818D01*
G01X1688636Y3266818D02*
G01X1684090Y3257727D01*
G01X1684090Y3257727D02*
G01X1670454Y3253181D01*
G01X1670454Y3253181D02*
G01X1625000Y3253181D01*
G01X1720454Y3216818D02*
G01X1625000Y3216818D01*
G01X1688636Y3171363D02*
G01X1643181Y3216818D01*
G01X1661363Y3198636D02*
G01X1625000Y3166818D01*
G01X1720454Y3130454D02*
G01X1715909Y3125909D01*
G01X1715909Y3125909D02*
G01X1720454Y3121363D01*
G01X1720454Y3121363D02*
G01X1725000Y3125909D01*
G01X1725000Y3125909D02*
G01X1720454Y3130454D01*
G01X1688636Y3125909D02*
G01X1625000Y3125909D01*
G01X1688636Y3085000D02*
G01X1625000Y3085000D01*
G01X1670454Y3085000D02*
G01X1684090Y3071363D01*
G01X1684090Y3071363D02*
G01X1688636Y3062272D01*
G01X1688636Y3062272D02*
G01X1688636Y3048636D01*
G01X1688636Y3048636D02*
G01X1684090Y3039545D01*
G01X1684090Y3039545D02*
G01X1670454Y3035000D01*
G01X1670454Y3035000D02*
G01X1625000Y3035000D01*
G01X1670454Y3035000D02*
G01X1684090Y3021363D01*
G01X1684090Y3021363D02*
G01X1688636Y3012272D01*
G01X1688636Y3012272D02*
G01X1688636Y2998636D01*
G01X1688636Y2998636D02*
G01X1684090Y2989545D01*
G01X1684090Y2989545D02*
G01X1670454Y2985000D01*
G01X1670454Y2985000D02*
G01X1625000Y2985000D01*
G01X1688636Y2925909D02*
G01X1684090Y2935000D01*
G01X1684090Y2935000D02*
G01X1675000Y2944090D01*
G01X1675000Y2944090D02*
G01X1661363Y2948636D01*
G01X1661363Y2948636D02*
G01X1652272Y2948636D01*
G01X1652272Y2948636D02*
G01X1638636Y2944090D01*
G01X1638636Y2944090D02*
G01X1629545Y2935000D01*
G01X1629545Y2935000D02*
G01X1625000Y2925909D01*
G01X1625000Y2925909D02*
G01X1625000Y2912272D01*
G01X1625000Y2912272D02*
G01X1629545Y2903181D01*
G01X1629545Y2903181D02*
G01X1638636Y2894090D01*
G01X1638636Y2894090D02*
G01X1652272Y2889545D01*
G01X1652272Y2889545D02*
G01X1661363Y2889545D01*
G01X1661363Y2889545D02*
G01X1675000Y2894090D01*
G01X1675000Y2894090D02*
G01X1684090Y2903181D01*
G01X1684090Y2903181D02*
G01X1688636Y2912272D01*
G01X1688636Y2912272D02*
G01X1688636Y2925909D01*
G01X1688636Y2853181D02*
G01X1625000Y2853181D01*
G01X1670454Y2853181D02*
G01X1684090Y2839545D01*
G01X1684090Y2839545D02*
G01X1688636Y2830454D01*
G01X1688636Y2830454D02*
G01X1688636Y2816818D01*
G01X1688636Y2816818D02*
G01X1684090Y2807727D01*
G01X1684090Y2807727D02*
G01X1670454Y2803181D01*
G01X1670454Y2803181D02*
G01X1625000Y2803181D01*
G01X1688636Y2744090D02*
G01X1684090Y2753181D01*
G01X1684090Y2753181D02*
G01X1675000Y2762272D01*
G01X1675000Y2762272D02*
G01X1661363Y2766818D01*
G01X1661363Y2766818D02*
G01X1652272Y2766818D01*
G01X1652272Y2766818D02*
G01X1638636Y2762272D01*
G01X1638636Y2762272D02*
G01X1629545Y2753181D01*
G01X1629545Y2753181D02*
G01X1625000Y2744090D01*
G01X1625000Y2744090D02*
G01X1625000Y2730454D01*
G01X1625000Y2730454D02*
G01X1629545Y2721363D01*
G01X1629545Y2721363D02*
G01X1638636Y2712272D01*
G01X1638636Y2712272D02*
G01X1652272Y2707727D01*
G01X1652272Y2707727D02*
G01X1661363Y2707727D01*
G01X1661363Y2707727D02*
G01X1675000Y2712272D01*
G01X1675000Y2712272D02*
G01X1684090Y2721363D01*
G01X1684090Y2721363D02*
G01X1688636Y2730454D01*
G01X1688636Y2730454D02*
G01X1688636Y2744090D01*
M00*
M02*
